<svg width="79" height="69" viewBox="0 0 79 69" fill="none" xmlns="http://www.w3.org/2000/svg">
<path d="M22.8044 34.8447C22.8044 38.1054 20.1777 40.6414 17.0077 40.6414C13.747 40.6414 11.2109 38.1054 11.2109 34.8447C11.2109 31.6746 13.747 29.048 17.0077 29.048C20.1777 29.048 22.8044 31.6746 22.8044 34.8447ZM17.0077 46.4381C18.5474 46.4381 19.906 47.7967 19.906 49.3365C19.906 50.9668 18.5474 52.2349 17.0077 52.2349C15.3773 52.2349 14.1093 50.9668 14.1093 49.3365C14.1093 47.7967 15.3773 46.4381 17.0077 46.4381ZM17.0077 14.5562C20.1777 14.5562 22.8044 17.1828 22.8044 20.3529C22.8044 23.6135 20.1777 26.1496 17.0077 26.1496C13.747 26.1496 11.2109 23.6135 11.2109 20.3529C11.2109 17.1828 13.747 14.5562 17.0077 14.5562ZM31.4995 31.9463C33.0392 31.9463 34.3978 33.3049 34.3978 34.8447C34.3978 36.475 33.0392 37.7431 31.4995 37.7431C29.8691 37.7431 28.6011 36.475 28.6011 34.8447C28.6011 33.3049 29.8691 31.9463 31.4995 31.9463ZM31.4995 46.4381C33.0392 46.4381 34.3978 47.7967 34.3978 49.3365C34.3978 50.9668 33.0392 52.2349 31.4995 52.2349C29.8691 52.2349 28.6011 50.9668 28.6011 49.3365C28.6011 47.7967 29.8691 46.4381 31.4995 46.4381ZM31.4995 14.5562C34.6696 14.5562 37.2962 17.1828 37.2962 20.3529C37.2962 23.6135 34.6696 26.1496 31.4995 26.1496C28.2388 26.1496 25.7027 23.6135 25.7027 20.3529C25.7027 17.1828 28.2388 14.5562 31.4995 14.5562ZM51.788 31.9463C53.3278 31.9463 54.6864 33.3049 54.6864 34.8447C54.6864 36.475 53.3278 37.7431 51.788 37.7431C50.1577 37.7431 48.8896 36.475 48.8896 34.8447C48.8896 33.3049 50.1577 31.9463 51.788 31.9463ZM51.788 46.4381C53.3278 46.4381 54.6864 47.7967 54.6864 49.3365C54.6864 50.9668 53.3278 52.2349 51.788 52.2349C50.1577 52.2349 48.8896 50.9668 48.8896 49.3365C48.8896 47.7967 50.1577 46.4381 51.788 46.4381ZM51.788 14.5562C54.9581 14.5562 57.5847 17.1828 57.5847 20.3529C57.5847 23.6135 54.9581 26.1496 51.788 26.1496C48.5273 26.1496 45.9913 23.6135 45.9913 20.3529C45.9913 17.1828 48.5273 14.5562 51.788 14.5562ZM66.2798 31.9463C67.8196 31.9463 69.1782 33.3049 69.1782 34.8447C69.1782 36.475 67.8196 37.7431 66.2798 37.7431C64.6495 37.7431 63.3814 36.475 63.3814 34.8447C63.3814 33.3049 64.6495 31.9463 66.2798 31.9463ZM66.2798 46.4381C67.8196 46.4381 69.1782 47.7967 69.1782 49.3365C69.1782 50.9668 67.8196 52.2349 66.2798 52.2349C64.6495 52.2349 63.3814 50.9668 63.3814 49.3365C63.3814 47.7967 64.6495 46.4381 66.2798 46.4381ZM66.2798 17.4545C67.8196 17.4545 69.1782 18.8131 69.1782 20.3529C69.1782 21.9832 67.8196 23.2512 66.2798 23.2512C64.6495 23.2512 63.3814 21.9832 63.3814 20.3529C63.3814 18.8131 64.6495 17.4545 66.2798 17.4545Z" fill="white"/>
</svg>
