<svg width="44" height="45" viewBox="0 0 44 45" fill="none" xmlns="http://www.w3.org/2000/svg">
<rect x="15.238" width="28.5714" height="30" rx="5" fill="#20C897"/>
<path d="M30.4762 37V17C30.4762 12.664 23.499 9 15.2381 9C6.97714 9 0 12.664 0 17V37C0 41.336 6.97714 45 15.2381 45C23.499 45 30.4762 41.336 30.4762 37ZM15.2381 13C22.2686 13 26.5352 16.014 26.6667 16.988C26.5352 17.986 22.2686 21 15.2381 21C8.20762 21 3.94095 17.986 3.80952 17.012C3.94095 16.014 8.20762 13 15.2381 13ZM3.80952 22.214C6.62667 23.908 10.7371 25 15.2381 25C19.739 25 23.8495 23.908 26.6667 22.214V26.988C26.5352 27.986 22.2686 31 15.2381 31C8.20762 31 3.94095 27.986 3.80952 27V22.214ZM3.80952 37V32.214C6.62667 33.908 10.7371 35 15.2381 35C19.739 35 23.8495 33.908 26.6667 32.214V36.988C26.5352 37.986 22.2686 41 15.2381 41C8.20762 41 3.94095 37.986 3.80952 37Z" fill="white"/>
</svg>
