<svg width="80" height="69" viewBox="0 0 80 69" fill="none" xmlns="http://www.w3.org/2000/svg">
<path d="M66.4887 50.9824C67.1971 50.9824 67.9056 51.6909 67.9056 52.3994V55.2334C67.9056 56.0304 67.1971 56.6503 66.4887 56.6503H12.6435C11.8465 56.6503 11.2266 56.0304 11.2266 55.2334V52.3994C11.2266 51.6909 11.8465 50.9824 12.6435 50.9824H66.4887ZM18.3114 41.595L11.5808 34.2444C10.8723 33.4473 11.138 32.2075 12.0236 31.7647L15.6546 29.9049C15.8317 29.8163 16.0974 29.7278 16.3631 29.7278C16.5402 29.7278 16.8059 29.8163 17.0716 29.9049L23.448 33.1817L32.5698 28.4879L18.7543 19.8089C18.0458 19.0119 18.2229 17.772 19.1971 17.3292L25.0421 14.3182C25.2192 14.2296 25.4849 14.2296 25.7506 14.2296C26.1048 14.2296 26.3705 14.3182 26.6362 14.4953L46.0311 21.7573L54.71 17.3292C57.1012 16.0894 59.758 15.3809 62.3263 15.558C65.3374 15.7351 66.8429 16.7093 67.5514 18.0377C68.1713 19.2776 67.9942 21.1374 66.4001 23.6171C64.8946 25.9196 62.7691 27.6023 60.4665 28.8422L34.6952 41.8606C33.8982 42.3034 33.0126 42.4806 32.0384 42.4806H20.4369C19.6399 42.4806 18.8428 42.2149 18.3114 41.595Z" fill="white"/>
</svg>
