<svg width="81" height="76" viewBox="0 0 81 76" fill="none" xmlns="http://www.w3.org/2000/svg">
<rect x="40.0625" width="40.1667" height="40" rx="5" fill="#20C897"/>
<path d="M18.1432 64.8333C13.9092 64.8333 10.2921 63.3677 7.29202 60.4364C4.29191 57.5052 2.79092 53.9225 2.78906 49.6885C2.78906 46.0593 3.88247 42.8257 6.06927 39.9875C8.25608 37.1493 11.1175 35.3347 14.6536 34.5437C15.8168 30.2632 18.1432 26.7968 21.6328 24.1448C25.1224 21.4927 29.0773 20.1666 33.4974 20.1666C38.9411 20.1666 43.5595 22.0631 47.3524 25.856C51.1454 29.649 53.0409 34.2664 53.0391 39.7083C56.2495 40.0805 58.9137 41.4652 61.0316 43.8623C63.1496 46.2594 64.2076 49.0622 64.2057 52.2708C64.2057 55.7604 62.9848 58.727 60.5431 61.1706C58.1013 63.6143 55.1347 64.8352 51.6432 64.8333H18.1432ZM18.1432 59.25H51.6432C53.5974 59.25 55.2491 58.5753 56.5984 57.226C57.9477 55.8767 58.6224 54.225 58.6224 52.2708C58.6224 50.3166 57.9477 48.6649 56.5984 47.3156C55.2491 45.9663 53.5974 45.2916 51.6432 45.2916H47.4557V39.7083C47.4557 35.8465 46.0943 32.5542 43.3715 29.8314C40.6487 27.1086 37.3573 25.7481 33.4974 25.75C29.6375 25.7518 26.3461 27.1132 23.6233 29.8342C20.9005 32.5551 19.5391 35.8465 19.5391 39.7083H18.1432C15.4446 39.7083 13.1415 40.6621 11.2339 42.5697C9.32622 44.4774 8.3724 46.7805 8.3724 49.4791C8.3724 52.1777 9.32622 54.4809 11.2339 56.3885C13.1415 58.2961 15.4446 59.25 18.1432 59.25Z" fill="white"/>
</svg>
