<svg width="56" height="51" viewBox="0 0 56 51" fill="none" xmlns="http://www.w3.org/2000/svg">
<rect x="26" width="30" height="30" rx="5" fill="#20C897"/>
<path d="M6.74348 33.9285C6.84078 34.0348 6.95794 34.1205 7.08818 34.1807C7.21842 34.2409 7.35917 34.2744 7.5023 34.2793C7.77616 34.2784 8.03952 34.1726 8.23944 33.9833L8.53212 33.7092L11.5132 36.9215C11.0017 37.5269 10.7336 38.3044 10.7617 39.1002C10.7898 39.896 11.1121 40.6522 11.6649 41.2192C12.2027 41.7642 12.921 42.0884 13.6812 42.1291C13.7333 42.8995 14.0609 43.6243 14.6027 44.1683C15.1416 44.7116 15.8592 45.0355 16.6189 45.0783C16.6652 45.8457 16.9848 46.5701 17.5187 47.1175C18.0576 47.6608 18.7752 47.9846 19.535 48.0274C19.5755 48.6362 19.7883 49.2203 20.148 49.71C20.5078 50.1998 20.9992 50.5745 21.5638 50.7895C22.1284 51.0045 22.7422 51.0506 23.332 50.9224C23.9217 50.7943 24.4626 50.4972 24.89 50.0666L25.2694 49.6829L25.6272 50.0557C25.9222 50.355 26.2728 50.5925 26.6588 50.7545C27.0448 50.9166 27.4586 51 27.8765 51C28.2944 51 28.7083 50.9166 29.0942 50.7545C29.4802 50.5925 29.8308 50.355 30.1259 50.0557C30.6741 49.5073 31.0024 48.7731 31.0473 47.9945C31.8242 47.9524 32.5581 47.6203 33.1069 47.0626C33.6554 46.511 33.9802 45.772 34.0175 44.9906C34.7922 44.9483 35.5249 44.6207 36.0772 44.0696C36.6163 43.5071 36.9392 42.7685 36.9877 41.9866C37.7958 41.9416 38.5559 41.5842 39.1107 40.9884C39.6656 40.3925 39.9728 39.6038 39.9688 38.7853C39.9596 38.1582 39.7673 37.5479 39.4159 37.0311L42.5921 33.9175L42.939 34.3232C43.0406 34.4401 43.1656 34.5338 43.3058 34.5981C43.446 34.6624 43.5981 34.6957 43.752 34.6959C44.0155 34.6955 44.2699 34.5981 44.4675 34.4218L51.6329 28.0521C51.8483 27.86 51.9795 27.5894 51.9978 27.2996C52.0161 27.0098 51.9199 26.7245 51.7304 26.5063L38.6354 11.3768C38.5413 11.2673 38.4266 11.1778 38.2979 11.1135C38.1693 11.0492 38.0294 11.0114 37.8862 11.0022C37.743 10.993 37.5994 11.0127 37.4638 11.06C37.3282 11.1074 37.2032 11.1815 37.0961 11.2781L29.9416 17.6369C29.8338 17.7321 29.7458 17.848 29.6825 17.9778C29.6192 18.1077 29.582 18.2489 29.573 18.3933C29.5568 18.6823 29.6542 18.9661 29.844 19.1827L30.4077 19.8405H29.9958C27.8844 20.1073 25.8742 20.9107 24.1529 22.1757L22.5702 20.586L22.8195 20.3558C22.9255 20.2583 23.0113 20.1405 23.072 20.0092C23.1327 19.878 23.1671 19.7359 23.1731 19.5911C23.1792 19.4463 23.1568 19.3018 23.1073 19.1658C23.0577 19.0299 22.9821 18.9052 22.8846 18.799L16.3804 11.7385C16.2034 11.5309 15.9559 11.3979 15.6867 11.3658C15.5444 11.3591 15.4023 11.3809 15.2684 11.4298C15.1345 11.4787 15.0114 11.5538 14.9062 11.6508L0.315226 25.3112C0.113326 25.5167 0 25.7945 0 26.0842C0 26.3738 0.113326 26.6517 0.315226 26.8571L6.74348 33.9285ZM13.2476 38.3138L14.7436 36.8009C14.8794 36.662 15.0529 36.5669 15.2422 36.5279C15.4315 36.4888 15.628 36.5074 15.8068 36.5814C15.9855 36.6554 16.1386 36.7813 16.2465 36.9434C16.3545 37.1054 16.4124 37.2962 16.413 37.4916C16.414 37.6216 16.3896 37.7504 16.3413 37.8709C16.2929 37.9913 16.2215 38.1008 16.1311 38.1933L14.6027 39.6733C14.4198 39.8574 14.1723 39.9608 13.9143 39.9608C13.6563 39.9608 13.4088 39.8574 13.2259 39.6733C13.0447 39.4851 12.9441 39.2321 12.9462 38.9694C12.9482 38.7067 13.0526 38.4553 13.2368 38.27L13.2476 38.3138ZM15.871 41.9647C15.8729 41.7008 15.9782 41.4486 16.1636 41.263L17.6596 39.7501C17.7496 39.6559 17.8574 39.581 17.9766 39.5299C18.0957 39.4787 18.2239 39.4524 18.3534 39.4524C18.4828 39.4524 18.611 39.4787 18.7302 39.5299C18.8494 39.581 18.9572 39.6559 19.0471 39.7501C19.1372 39.8404 19.2085 39.9481 19.2569 40.0667C19.3053 40.1853 19.3298 40.3125 19.329 40.4408C19.33 40.5707 19.3057 40.6996 19.2573 40.82C19.2089 40.9404 19.1375 41.05 19.0471 41.1424L17.5295 42.6225C17.3911 42.7568 17.2169 42.8475 17.0284 42.8833C16.8398 42.919 16.645 42.8985 16.4678 42.824C16.2907 42.7495 16.1388 42.6244 16.0309 42.464C15.9229 42.3036 15.8636 42.1148 15.8601 41.9208L15.871 41.9647ZM18.787 44.9138C18.789 44.65 18.8942 44.3977 19.0797 44.2122L20.5756 42.6992C20.6656 42.605 20.7734 42.5302 20.8926 42.479C21.0118 42.4279 21.1399 42.4015 21.2694 42.4015C21.3989 42.4015 21.527 42.4279 21.6462 42.479C21.7654 42.5302 21.8732 42.605 21.9632 42.6992C22.0532 42.7896 22.1245 42.8972 22.1729 43.0158C22.2213 43.1344 22.2458 43.2616 22.245 43.3899C22.246 43.5199 22.2217 43.6488 22.1733 43.7692C22.1249 43.8896 22.0535 43.9991 21.9632 44.0916L20.4564 45.6155C20.2735 45.7996 20.026 45.903 19.768 45.903C19.51 45.903 19.2625 45.7996 19.0797 45.6155C18.9806 45.5194 18.9024 45.4035 18.8501 45.2751C18.7979 45.1467 18.7727 45.0088 18.7761 44.87L18.787 44.9138ZM22.0391 48.5646C21.9459 48.4736 21.8719 48.3646 21.8213 48.2441C21.7708 48.1235 21.7447 47.9939 21.7447 47.863C21.7447 47.732 21.7708 47.6024 21.8213 47.4819C21.8719 47.3613 21.9459 47.2523 22.0391 47.1613L23.535 45.6484C23.625 45.5542 23.7328 45.4793 23.852 45.4282C23.9712 45.377 24.0993 45.3507 24.2288 45.3507C24.3583 45.3507 24.4864 45.377 24.6056 45.4282C24.7248 45.4793 24.8326 45.5542 24.9226 45.6484C25.102 45.8347 25.2024 46.0845 25.2024 46.3445C25.2024 46.6046 25.102 46.8544 24.9226 47.0407L24.5648 47.4025L23.4158 48.5646C23.3215 48.6615 23.2084 48.7377 23.0837 48.7883C22.9589 48.8389 22.8252 48.8629 22.6908 48.8588C22.5565 48.8547 22.4244 48.8225 22.3029 48.7644C22.1814 48.7062 22.0732 48.6233 21.9848 48.5208L22.0391 48.5646ZM37.714 13.6462L49.389 27.0764L43.8713 31.9989L32.1855 18.5687L37.714 13.6462ZM30.2559 22.0661L31.6977 21.8907C31.8029 21.8783 31.9054 21.8487 32.0012 21.803H32.0879L41.1504 32.2401L37.8983 35.3976L29.096 26.0348C28.9244 25.8528 28.696 25.736 28.4493 25.7041C28.2026 25.6722 27.9525 25.727 27.741 25.8594L25.4429 27.3395C24.7325 27.785 23.9274 28.0531 23.0943 28.1217C22.2612 28.1904 21.4238 28.0575 20.6515 27.7342L25.1936 24.1711C26.6637 23.0228 28.4123 22.2957 30.2559 22.0661ZM22.4076 23.5461L19.0688 26.1664C18.7968 26.3748 18.5829 26.6511 18.448 26.9682C18.3131 27.2852 18.2618 27.6323 18.2992 27.9754C18.3297 28.3164 18.4452 28.644 18.6347 28.9277C18.8243 29.2114 19.0818 29.442 19.3832 29.5979C20.5126 30.1394 21.7582 30.3859 23.0061 30.315C24.254 30.2442 25.4645 29.8582 26.5269 29.1923L28.1638 28.1617L37.107 37.678L37.4647 38.0398C37.5597 38.1338 37.6346 38.2466 37.6849 38.371C37.7353 38.4954 37.7599 38.6289 37.7574 38.7633C37.7593 38.8977 37.7343 39.031 37.684 39.1553C37.6337 39.2797 37.5591 39.3925 37.4647 39.4869C37.274 39.6771 37.017 39.7837 36.7492 39.7837C36.4815 39.7837 36.2245 39.6771 36.0338 39.4869C35.8311 39.2805 35.5556 39.1639 35.268 39.1629C34.9803 39.1619 34.704 39.2765 34.4999 39.4815C34.2958 39.6864 34.1805 39.965 34.1795 40.256C34.1785 40.5469 34.2918 40.8263 34.4945 41.0328C34.6885 41.2189 34.8016 41.4753 34.8087 41.7457C34.8158 42.016 34.7164 42.2782 34.5324 42.4745C34.3484 42.6707 34.0949 42.785 33.8275 42.7922C33.5602 42.7994 33.301 42.6989 33.1069 42.5128C32.9028 42.3064 32.6259 42.1904 32.3373 42.1904C32.0486 42.1904 31.7717 42.3064 31.5676 42.5128C31.3635 42.7193 31.2488 42.9993 31.2488 43.2912C31.2488 43.5832 31.3635 43.8632 31.5676 44.0696C31.662 44.1644 31.7369 44.2771 31.788 44.4013C31.8392 44.5255 31.8655 44.6587 31.8655 44.7932C31.8655 44.9277 31.8392 45.0609 31.788 45.1851C31.7369 45.3093 31.662 45.422 31.5676 45.5168C31.3691 45.6956 31.1126 45.7944 30.8467 45.7944C30.5809 45.7944 30.3244 45.6956 30.1259 45.5168C29.9185 45.3372 29.6517 45.2433 29.3789 45.254C29.1061 45.2647 28.8473 45.379 28.6542 45.5743C28.4612 45.7696 28.3481 46.0313 28.3375 46.3072C28.327 46.5831 28.4198 46.8529 28.5974 47.0626C28.7639 47.2593 28.8512 47.5121 28.8418 47.7708C28.8324 48.0296 28.727 48.2752 28.5467 48.459C28.3664 48.6427 28.1243 48.7511 27.8685 48.7626C27.6128 48.774 27.3622 48.6877 27.1665 48.5208L26.7546 48.1042C27.1716 47.493 27.3631 46.7532 27.2957 46.0138C27.2284 45.2744 26.9064 44.5824 26.386 44.0587C25.8431 43.5132 25.1227 43.1859 24.3589 43.1377C24.3124 42.3691 23.9888 41.6444 23.4493 41.1009C22.9099 40.5574 22.1922 40.2328 21.432 40.1886C21.3972 39.4227 21.0794 38.698 20.5413 38.1579C20.0033 37.6178 19.2843 37.3017 18.5268 37.2723C18.4864 36.4917 18.1621 35.7537 17.6162 35.2002C17.0137 34.6299 16.2193 34.3126 15.394 34.3126C14.5687 34.3126 13.7743 34.6299 13.1717 35.2002L13.02 35.3537L10.1582 32.2182L20.9984 22.0551L22.4076 23.5461ZM15.5458 14.008L20.5539 19.4897L7.88171 31.363L7.6107 31.6262L2.59168 26.1445L15.5458 14.008Z" fill="#0D4C8F"/>
</svg>
