<svg width="52" height="51" viewBox="0 0 52 51" fill="none" xmlns="http://www.w3.org/2000/svg">
<rect x="21.5469" width="30.125" height="30" rx="5" fill="#20C897"/>
<path d="M24.5 41.06C22.5913 40.1375 20.9521 38.7393 19.74 37H5.25V16H36.75V19.955C38.1661 20.9516 39.3583 22.2331 40.25 23.7175V16C40.25 15.0717 39.8812 14.1815 39.2249 13.5251C38.5685 12.8687 37.6783 12.5 36.75 12.5H5.25C4.32174 12.5 3.4315 12.8687 2.77513 13.5251C2.11875 14.1815 1.75 15.0717 1.75 16V37C1.75 37.9283 2.11875 38.8185 2.77513 39.4749C3.4315 40.1313 4.32174 40.5 5.25 40.5H17.5V44H14V47.5H28V44H24.5V41.06Z" fill="white"/>
<path d="M29.75 19.5C27.6733 19.5 25.6432 20.1158 23.9165 21.2696C22.1898 22.4233 20.844 24.0632 20.0493 25.9818C19.2545 27.9004 19.0466 30.0116 19.4518 32.0484C19.8569 34.0852 20.8569 35.9562 22.3254 37.4246C23.7938 38.8931 25.6648 39.8931 27.7016 40.2982C29.7384 40.7034 31.8496 40.4955 33.7682 39.7007C35.6868 38.906 37.3267 37.5602 38.4804 35.8335C39.6342 34.1068 40.25 32.0767 40.25 30C40.25 27.2152 39.1438 24.5445 37.1746 22.5754C35.2055 20.6062 32.5348 19.5 29.75 19.5ZM29.75 32.625C29.2308 32.625 28.7233 32.471 28.2916 32.1826C27.86 31.8942 27.5235 31.4842 27.3248 31.0045C27.1261 30.5249 27.0742 29.9971 27.1754 29.4879C27.2767 28.9787 27.5267 28.511 27.8938 28.1438C28.261 27.7767 28.7287 27.5267 29.2379 27.4254C29.7471 27.3242 30.2749 27.3761 30.7545 27.5748C31.2342 27.7735 31.6442 28.1099 31.9326 28.5416C32.221 28.9733 32.375 29.4808 32.375 30C32.375 30.6962 32.0984 31.3639 31.6062 31.8562C31.1139 32.3484 30.4462 32.625 29.75 32.625Z" fill="white"/>
</svg>
