<svg width="57" height="48" viewBox="0 0 57 48" fill="none" xmlns="http://www.w3.org/2000/svg">
<rect x="27" width="30" height="30" rx="5" fill="#20C897"/>
<path d="M18.4695 36.749C18.4695 36.951 18.6182 37.1162 18.7974 37.1162H26.8843C27.0635 37.1162 27.2121 36.951 27.2121 36.749V34.5459C27.2121 34.3439 27.0635 34.1787 26.8843 34.1787H18.7974C18.6182 34.1787 18.4695 34.3439 18.4695 34.5459V36.749ZM9.94992 37.029L18.3428 29.6394C18.5089 29.4925 18.5089 29.2217 18.3428 29.0748L9.94992 21.6897C9.89925 21.6445 9.83729 21.6155 9.77138 21.6061C9.70547 21.5968 9.63839 21.6075 9.57809 21.6369C9.5178 21.6664 9.46683 21.7134 9.43124 21.7724C9.39564 21.8314 9.37691 21.8999 9.37728 21.9697V24.8476C9.37728 24.9577 9.42099 25.0587 9.50405 25.1275L14.3037 29.3594L9.50405 33.5912C9.46497 33.6256 9.43342 33.6683 9.41154 33.7167C9.38966 33.765 9.37798 33.8177 9.37728 33.8712V36.749C9.37728 37.0611 9.72261 37.231 9.94992 37.029ZM34.381 11H2.20838C1.43466 11 0.80957 11.6563 0.80957 12.4688V46.25C0.80957 47.0624 1.43466 47.7188 2.20838 47.7188H34.381C35.1547 47.7188 35.7798 47.0624 35.7798 46.25V12.4688C35.7798 11.6563 35.1547 11 34.381 11ZM32.6325 44.4141H3.95689V14.3047H32.6325V44.4141Z" fill="white"/>
</svg>
