<svg width="33" height="22" viewBox="0 0 33 22" fill="none" xmlns="http://www.w3.org/2000/svg">
<rect x="14.2" width="15.9184" height="15.9184" rx="2.65306" fill="#20C897"/>
<path d="M16.5838 11.3676C18.3422 11.3676 19.7676 9.94214 19.7676 8.18378C19.7676 6.42543 18.3422 5 16.5838 5C14.8255 5 13.4 6.42543 13.4 8.18378C13.4 9.94214 14.8255 11.3676 16.5838 11.3676Z" stroke="#0D4C8F" stroke-width="1.19392"/>
<path d="M22.9513 17.3376C22.9513 19.3155 22.9513 20.9194 16.5838 20.9194C10.2162 20.9194 10.2162 19.3155 10.2162 17.3376C10.2162 15.3597 13.0673 13.7559 16.5838 13.7559C20.1002 13.7559 22.9513 15.3597 22.9513 17.3376Z" stroke="#0D4C8F" stroke-width="1.19392"/>
<path d="M27.3919 13.7976C28.6644 13.7976 29.696 12.766 29.696 11.4935C29.696 10.221 28.6644 9.18945 27.3919 9.18945C26.1195 9.18945 25.0879 10.221 25.0879 11.4935C25.0879 12.766 26.1195 13.7976 27.3919 13.7976Z" stroke="#0D4C8F" stroke-width="1.08919"/>
<path d="M32 18.1175C32 19.5488 32 20.7095 27.3919 20.7095C22.7838 20.7095 22.7838 19.5488 22.7838 18.1175C22.7838 16.6861 24.8471 15.5254 27.3919 15.5254C29.9367 15.5254 32 16.6861 32 18.1175Z" stroke="#0D4C8F" stroke-width="1.08919"/>
<path d="M5.60813 13.7976C6.88063 13.7976 7.91219 12.766 7.91219 11.4935C7.91219 10.221 6.88063 9.18945 5.60813 9.18945C4.33564 9.18945 3.30408 10.221 3.30408 11.4935C3.30408 12.766 4.33564 13.7976 5.60813 13.7976Z" stroke="#0D4C8F" stroke-width="1.08919"/>
<path d="M10.2162 18.1175C10.2162 19.5488 10.2162 20.7095 5.60811 20.7095C1 20.7095 1 19.5488 1 18.1175C1 16.6861 3.06328 15.5254 5.60811 15.5254C8.15294 15.5254 10.2162 16.6861 10.2162 18.1175Z" stroke="#0D4C8F" stroke-width="1.08919"/>
</svg>
