<svg width="64" height="65" viewBox="0 0 64 65" fill="none" xmlns="http://www.w3.org/2000/svg">
<rect x="34" width="30" height="30" rx="5" fill="#20C897"/>
<path d="M30.7383 44.0908C30.7383 44.3529 30.9408 44.5674 31.1851 44.5674H42.2056C42.4498 44.5674 42.6523 44.3529 42.6523 44.0908V41.2314C42.6523 40.9693 42.4498 40.7549 42.2056 40.7549H31.1851C30.9408 40.7549 30.7383 40.9693 30.7383 41.2314V44.0908ZM19.128 44.4542L30.5655 34.8634C30.7919 34.6728 30.7919 34.3213 30.5655 34.1307L19.128 24.5458C19.059 24.4871 18.9745 24.4494 18.8847 24.4373C18.7949 24.4251 18.7035 24.439 18.6213 24.4773C18.5392 24.5155 18.4697 24.5765 18.4212 24.6531C18.3727 24.7297 18.3472 24.8185 18.3477 24.9092V28.6442C18.3477 28.7872 18.4072 28.9183 18.5204 29.0076L25.0612 34.5L18.5204 39.9924C18.4672 40.037 18.4242 40.0925 18.3944 40.1552C18.3645 40.2179 18.3486 40.2863 18.3477 40.3558V44.0908C18.3477 44.4959 18.8183 44.7163 19.128 44.4542ZM52.4219 10.6719H8.57812C7.52373 10.6719 6.67188 11.5237 6.67188 12.5781V56.4219C6.67188 57.4763 7.52373 58.3281 8.57812 58.3281H52.4219C53.4763 58.3281 54.3281 57.4763 54.3281 56.4219V12.5781C54.3281 11.5237 53.4763 10.6719 52.4219 10.6719ZM50.0391 54.0391H10.9609V14.9609H50.0391V54.0391Z" fill="#0D4C8F"/>
</svg>
