<svg width="45" height="46" viewBox="0 0 45 46" fill="none" xmlns="http://www.w3.org/2000/svg">
<rect x="14" width="30" height="30" rx="5" fill="#20C897"/>
<mask id="path-2-outside-1_195_1459" maskUnits="userSpaceOnUse" x="0" y="14" width="45" height="32" fill="black">
<rect fill="white" y="14" width="45" height="32"/>
<path d="M43.5087 34.4989C43.5087 32.6172 42.7917 30.8126 41.5154 29.4821C40.239 28.1515 38.508 27.404 36.703 27.404H35.8523C35.8525 26.0822 35.5379 24.7811 34.9367 23.6174C34.3354 22.4537 33.4664 21.4638 32.4075 20.7367C31.3487 20.0096 30.1332 19.568 28.8702 19.4516C27.6073 19.3352 26.3363 19.5476 25.1715 20.0697C23.9965 17.9645 22.1377 16.3672 19.9311 15.5666C17.7246 14.7661 15.3161 14.8152 13.1412 15.7051C10.9664 16.5949 9.16886 18.2668 8.07371 20.4182C6.97857 22.5697 6.65814 25.0587 7.17039 27.4351C5.43042 27.6051 3.8199 28.4665 2.67247 29.8406C1.52503 31.2148 0.928633 32.9964 1.00682 34.8164C1.08501 36.6364 1.83179 38.3554 3.09246 39.6171C4.35313 40.8788 6.03107 41.5866 7.77865 41.5938H23.2191C23.4618 42.4052 23.9516 43.112 24.6143 43.607C25.6008 44.3176 26.7714 44.6981 27.9704 44.6981C29.1694 44.6981 30.34 44.3176 31.3265 43.607L31.403 43.5449L31.8624 43.8997C32.8407 44.6319 34.0186 45.0174 35.2227 44.9994C36.118 45.0061 37.0029 44.7982 37.8089 44.3919C38.0827 44.2538 38.3433 44.089 38.5873 43.8997C39.0438 43.5712 39.4194 43.1349 39.6833 42.6262C39.9472 42.1176 40.092 41.5511 40.1058 40.973C40.1058 40.8666 40.1058 40.7602 40.1058 40.6538C41.1419 40.0302 42.002 39.1329 42.5994 38.0523C43.1968 36.9718 43.5105 35.7461 43.5087 34.4989ZM38.0769 43.1991C37.8801 43.3532 37.6692 43.4869 37.4474 43.5982C36.6414 44.001 35.7481 44.1762 34.8568 44.1062C33.9655 44.0361 33.1075 43.7233 32.3686 43.1991L31.3435 42.4142L30.3226 41.5938L29.7526 41.1504L29.1869 40.707L28.6169 40.2635H28.5872C28.4174 40.1446 28.2175 40.0811 28.0129 40.0811C27.8084 40.0811 27.6085 40.1446 27.4387 40.2635L27.4004 40.299C27.3351 40.3503 27.2831 40.4176 27.2489 40.495C27.2148 40.5724 27.1996 40.6574 27.2047 40.7425C27.2134 40.824 27.2388 40.9026 27.2791 40.973C27.3195 41.0433 27.3739 41.1039 27.4387 41.1504L27.494 41.1859C27.6507 41.284 27.8301 41.3358 28.0129 41.3358C28.1957 41.3358 28.3751 41.284 28.5319 41.1859L28.5872 41.1504C28.6581 41.0987 28.7163 41.0303 28.7573 40.9509L29.0593 41.1859L29.6293 41.6293L31.0712 42.7556C31.0032 42.8133 30.9394 42.8754 30.8628 42.933C30.0215 43.5311 29.0269 43.8509 28.0087 43.8509C26.9904 43.8509 25.9958 43.5311 25.1545 42.933C24.7127 42.6013 24.3657 42.1507 24.1507 41.6293C24.0959 41.4857 24.0532 41.3373 24.0231 41.1859C23.9692 40.8929 23.9692 40.592 24.0231 40.299C24.1661 39.5634 24.576 38.9137 25.1673 38.4854C25.3663 38.3333 25.5768 38.1983 25.7968 38.0819C26.2364 37.8619 26.7053 37.7124 27.1877 37.6384C28.1173 37.4844 29.0695 37.5947 29.944 37.9577C30.273 38.0927 30.5845 38.27 30.8713 38.4854L31.5987 39.0441L31.8539 39.2437L32.0368 39.3855L33.1597 40.2724L33.7085 40.7158L34.2572 41.1593L34.5932 41.4209C34.7206 41.5083 34.8667 41.5616 35.0186 41.5761H35.3248C35.4777 41.5571 35.6238 41.4992 35.7502 41.4076C35.8503 41.3354 35.925 41.2311 35.9629 41.1105C35.9883 41.0371 35.9962 40.9584 35.9859 40.8811C35.9755 40.8038 35.9471 40.7303 35.9033 40.6671C35.8641 40.5991 35.812 40.5403 35.7502 40.4941C35.5813 40.3729 35.381 40.3079 35.1759 40.3079C34.9709 40.3079 34.7706 40.3729 34.6017 40.4941C34.5412 40.5405 34.4905 40.5993 34.4528 40.6671H34.3933L33.8233 40.2236L32.1219 38.8933L32.3303 38.716C33.1716 38.1179 34.1662 37.798 35.1845 37.798C36.2027 37.798 37.1973 38.1179 38.0386 38.716C38.2854 38.9084 38.5058 39.1352 38.6937 39.39C38.86 39.6152 38.9907 39.8667 39.0807 40.1349V40.1704C39.1749 40.4553 39.2153 40.7564 39.1998 41.0573C39.1788 41.4792 39.0669 41.8909 38.8725 42.2616C38.6782 42.6324 38.4062 42.9528 38.0769 43.1991ZM39.8762 39.7536C39.771 39.4749 39.6277 39.2135 39.4508 38.9776C39.2041 38.6226 38.9072 38.3087 38.5703 38.0464C37.5806 37.3318 36.4054 36.9489 35.2015 36.9489C33.9976 36.9489 32.8223 37.3318 31.8326 38.0464L31.7773 38.0907L31.3179 37.7404C30.9803 37.4764 30.6115 37.2588 30.2205 37.093C29.5035 36.7952 28.738 36.6447 27.9661 36.6496C27.6486 36.6501 27.3315 36.6753 27.0176 36.725C26.4477 36.8127 25.894 36.9906 25.3757 37.2526L24.4101 37.9089C23.7149 38.4977 23.259 39.3389 23.1341 40.2635C23.1171 40.3988 23.1086 40.5351 23.1085 40.6715V40.707H7.77865C6.2486 40.702 4.77912 40.0832 3.67496 38.979C2.5708 37.8748 1.91669 36.3699 1.84831 34.7764C1.77993 33.183 2.30251 31.6232 3.30767 30.4206C4.31283 29.218 5.72345 28.4649 7.24695 28.3175L8.20401 28.2244L7.99133 27.2355C7.847 26.5631 7.77566 25.8759 7.77865 25.1869C7.78013 23.1396 8.42875 21.1498 9.62416 19.5255C10.8196 17.9012 12.4951 16.7329 14.3916 16.2012C16.2881 15.6696 18.2998 15.8043 20.1154 16.5846C21.9311 17.3648 23.4495 18.7471 24.4357 20.5175L24.8185 21.196L25.5076 20.8856C26.5429 20.4215 27.6725 20.2327 28.7951 20.3362C29.9176 20.4396 30.998 20.8321 31.9392 21.4783C32.8803 22.1244 33.6528 23.0042 34.1873 24.0384C34.7219 25.0727 35.0016 26.2292 35.0015 27.404V28.2909H36.703C37.9947 28.2904 39.2516 28.7278 40.284 29.5371C41.3164 30.3464 42.0685 31.4838 42.4266 32.7776C42.7848 34.0714 42.7297 35.4516 42.2696 36.7099C41.8096 37.9683 40.9695 39.0365 39.8762 39.7536Z"/>
</mask>
<path d="M43.5087 34.4989C43.5087 32.6172 42.7917 30.8126 41.5154 29.4821C40.239 28.1515 38.508 27.404 36.703 27.404H35.8523C35.8525 26.0822 35.5379 24.7811 34.9367 23.6174C34.3354 22.4537 33.4664 21.4638 32.4075 20.7367C31.3487 20.0096 30.1332 19.568 28.8702 19.4516C27.6073 19.3352 26.3363 19.5476 25.1715 20.0697C23.9965 17.9645 22.1377 16.3672 19.9311 15.5666C17.7246 14.7661 15.3161 14.8152 13.1412 15.7051C10.9664 16.5949 9.16886 18.2668 8.07371 20.4182C6.97857 22.5697 6.65814 25.0587 7.17039 27.4351C5.43042 27.6051 3.8199 28.4665 2.67247 29.8406C1.52503 31.2148 0.928633 32.9964 1.00682 34.8164C1.08501 36.6364 1.83179 38.3554 3.09246 39.6171C4.35313 40.8788 6.03107 41.5866 7.77865 41.5938H23.2191C23.4618 42.4052 23.9516 43.112 24.6143 43.607C25.6008 44.3176 26.7714 44.6981 27.9704 44.6981C29.1694 44.6981 30.34 44.3176 31.3265 43.607L31.403 43.5449L31.8624 43.8997C32.8407 44.6319 34.0186 45.0174 35.2227 44.9994C36.118 45.0061 37.0029 44.7982 37.8089 44.3919C38.0827 44.2538 38.3433 44.089 38.5873 43.8997C39.0438 43.5712 39.4194 43.1349 39.6833 42.6262C39.9472 42.1176 40.092 41.5511 40.1058 40.973C40.1058 40.8666 40.1058 40.7602 40.1058 40.6538C41.1419 40.0302 42.002 39.1329 42.5994 38.0523C43.1968 36.9718 43.5105 35.7461 43.5087 34.4989ZM38.0769 43.1991C37.8801 43.3532 37.6692 43.4869 37.4474 43.5982C36.6414 44.001 35.7481 44.1762 34.8568 44.1062C33.9655 44.0361 33.1075 43.7233 32.3686 43.1991L31.3435 42.4142L30.3226 41.5938L29.7526 41.1504L29.1869 40.707L28.6169 40.2635H28.5872C28.4174 40.1446 28.2175 40.0811 28.0129 40.0811C27.8084 40.0811 27.6085 40.1446 27.4387 40.2635L27.4004 40.299C27.3351 40.3503 27.2831 40.4176 27.2489 40.495C27.2148 40.5724 27.1996 40.6574 27.2047 40.7425C27.2134 40.824 27.2388 40.9026 27.2791 40.973C27.3195 41.0433 27.3739 41.1039 27.4387 41.1504L27.494 41.1859C27.6507 41.284 27.8301 41.3358 28.0129 41.3358C28.1957 41.3358 28.3751 41.284 28.5319 41.1859L28.5872 41.1504C28.6581 41.0987 28.7163 41.0303 28.7573 40.9509L29.0593 41.1859L29.6293 41.6293L31.0712 42.7556C31.0032 42.8133 30.9394 42.8754 30.8628 42.933C30.0215 43.5311 29.0269 43.8509 28.0087 43.8509C26.9904 43.8509 25.9958 43.5311 25.1545 42.933C24.7127 42.6013 24.3657 42.1507 24.1507 41.6293C24.0959 41.4857 24.0532 41.3373 24.0231 41.1859C23.9692 40.8929 23.9692 40.592 24.0231 40.299C24.1661 39.5634 24.576 38.9137 25.1673 38.4854C25.3663 38.3333 25.5768 38.1983 25.7968 38.0819C26.2364 37.8619 26.7053 37.7124 27.1877 37.6384C28.1173 37.4844 29.0695 37.5947 29.944 37.9577C30.273 38.0927 30.5845 38.27 30.8713 38.4854L31.5987 39.0441L31.8539 39.2437L32.0368 39.3855L33.1597 40.2724L33.7085 40.7158L34.2572 41.1593L34.5932 41.4209C34.7206 41.5083 34.8667 41.5616 35.0186 41.5761H35.3248C35.4777 41.5571 35.6238 41.4992 35.7502 41.4076C35.8503 41.3354 35.925 41.2311 35.9629 41.1105C35.9883 41.0371 35.9962 40.9584 35.9859 40.8811C35.9755 40.8038 35.9471 40.7303 35.9033 40.6671C35.8641 40.5991 35.812 40.5403 35.7502 40.4941C35.5813 40.3729 35.381 40.3079 35.1759 40.3079C34.9709 40.3079 34.7706 40.3729 34.6017 40.4941C34.5412 40.5405 34.4905 40.5993 34.4528 40.6671H34.3933L33.8233 40.2236L32.1219 38.8933L32.3303 38.716C33.1716 38.1179 34.1662 37.798 35.1845 37.798C36.2027 37.798 37.1973 38.1179 38.0386 38.716C38.2854 38.9084 38.5058 39.1352 38.6937 39.39C38.86 39.6152 38.9907 39.8667 39.0807 40.1349V40.1704C39.1749 40.4553 39.2153 40.7564 39.1998 41.0573C39.1788 41.4792 39.0669 41.8909 38.8725 42.2616C38.6782 42.6324 38.4062 42.9528 38.0769 43.1991ZM39.8762 39.7536C39.771 39.4749 39.6277 39.2135 39.4508 38.9776C39.2041 38.6226 38.9072 38.3087 38.5703 38.0464C37.5806 37.3318 36.4054 36.9489 35.2015 36.9489C33.9976 36.9489 32.8223 37.3318 31.8326 38.0464L31.7773 38.0907L31.3179 37.7404C30.9803 37.4764 30.6115 37.2588 30.2205 37.093C29.5035 36.7952 28.738 36.6447 27.9661 36.6496C27.6486 36.6501 27.3315 36.6753 27.0176 36.725C26.4477 36.8127 25.894 36.9906 25.3757 37.2526L24.4101 37.9089C23.7149 38.4977 23.259 39.3389 23.1341 40.2635C23.1171 40.3988 23.1086 40.5351 23.1085 40.6715V40.707H7.77865C6.2486 40.702 4.77912 40.0832 3.67496 38.979C2.5708 37.8748 1.91669 36.3699 1.84831 34.7764C1.77993 33.183 2.30251 31.6232 3.30767 30.4206C4.31283 29.218 5.72345 28.4649 7.24695 28.3175L8.20401 28.2244L7.99133 27.2355C7.847 26.5631 7.77566 25.8759 7.77865 25.1869C7.78013 23.1396 8.42875 21.1498 9.62416 19.5255C10.8196 17.9012 12.4951 16.7329 14.3916 16.2012C16.2881 15.6696 18.2998 15.8043 20.1154 16.5846C21.9311 17.3648 23.4495 18.7471 24.4357 20.5175L24.8185 21.196L25.5076 20.8856C26.5429 20.4215 27.6725 20.2327 28.7951 20.3362C29.9176 20.4396 30.998 20.8321 31.9392 21.4783C32.8803 22.1244 33.6528 23.0042 34.1873 24.0384C34.7219 25.0727 35.0016 26.2292 35.0015 27.404V28.2909H36.703C37.9947 28.2904 39.2516 28.7278 40.284 29.5371C41.3164 30.3464 42.0685 31.4838 42.4266 32.7776C42.7848 34.0714 42.7297 35.4516 42.2696 36.7099C41.8096 37.9683 40.9695 39.0365 39.8762 39.7536Z" fill="white"/>
<path d="M43.5087 34.4989C43.5087 32.6172 42.7917 30.8126 41.5154 29.4821C40.239 28.1515 38.508 27.404 36.703 27.404H35.8523C35.8525 26.0822 35.5379 24.7811 34.9367 23.6174C34.3354 22.4537 33.4664 21.4638 32.4075 20.7367C31.3487 20.0096 30.1332 19.568 28.8702 19.4516C27.6073 19.3352 26.3363 19.5476 25.1715 20.0697C23.9965 17.9645 22.1377 16.3672 19.9311 15.5666C17.7246 14.7661 15.3161 14.8152 13.1412 15.7051C10.9664 16.5949 9.16886 18.2668 8.07371 20.4182C6.97857 22.5697 6.65814 25.0587 7.17039 27.4351C5.43042 27.6051 3.8199 28.4665 2.67247 29.8406C1.52503 31.2148 0.928633 32.9964 1.00682 34.8164C1.08501 36.6364 1.83179 38.3554 3.09246 39.6171C4.35313 40.8788 6.03107 41.5866 7.77865 41.5938H23.2191C23.4618 42.4052 23.9516 43.112 24.6143 43.607C25.6008 44.3176 26.7714 44.6981 27.9704 44.6981C29.1694 44.6981 30.34 44.3176 31.3265 43.607L31.403 43.5449L31.8624 43.8997C32.8407 44.6319 34.0186 45.0174 35.2227 44.9994C36.118 45.0061 37.0029 44.7982 37.8089 44.3919C38.0827 44.2538 38.3433 44.089 38.5873 43.8997C39.0438 43.5712 39.4194 43.1349 39.6833 42.6262C39.9472 42.1176 40.092 41.5511 40.1058 40.973C40.1058 40.8666 40.1058 40.7602 40.1058 40.6538C41.1419 40.0302 42.002 39.1329 42.5994 38.0523C43.1968 36.9718 43.5105 35.7461 43.5087 34.4989ZM38.0769 43.1991C37.8801 43.3532 37.6692 43.4869 37.4474 43.5982C36.6414 44.001 35.7481 44.1762 34.8568 44.1062C33.9655 44.0361 33.1075 43.7233 32.3686 43.1991L31.3435 42.4142L30.3226 41.5938L29.7526 41.1504L29.1869 40.707L28.6169 40.2635H28.5872C28.4174 40.1446 28.2175 40.0811 28.0129 40.0811C27.8084 40.0811 27.6085 40.1446 27.4387 40.2635L27.4004 40.299C27.3351 40.3503 27.2831 40.4176 27.2489 40.495C27.2148 40.5724 27.1996 40.6574 27.2047 40.7425C27.2134 40.824 27.2388 40.9026 27.2791 40.973C27.3195 41.0433 27.3739 41.1039 27.4387 41.1504L27.494 41.1859C27.6507 41.284 27.8301 41.3358 28.0129 41.3358C28.1957 41.3358 28.3751 41.284 28.5319 41.1859L28.5872 41.1504C28.6581 41.0987 28.7163 41.0303 28.7573 40.9509L29.0593 41.1859L29.6293 41.6293L31.0712 42.7556C31.0032 42.8133 30.9394 42.8754 30.8628 42.933C30.0215 43.5311 29.0269 43.8509 28.0087 43.8509C26.9904 43.8509 25.9958 43.5311 25.1545 42.933C24.7127 42.6013 24.3657 42.1507 24.1507 41.6293C24.0959 41.4857 24.0532 41.3373 24.0231 41.1859C23.9692 40.8929 23.9692 40.592 24.0231 40.299C24.1661 39.5634 24.576 38.9137 25.1673 38.4854C25.3663 38.3333 25.5768 38.1983 25.7968 38.0819C26.2364 37.8619 26.7053 37.7124 27.1877 37.6384C28.1173 37.4844 29.0695 37.5947 29.944 37.9577C30.273 38.0927 30.5845 38.27 30.8713 38.4854L31.5987 39.0441L31.8539 39.2437L32.0368 39.3855L33.1597 40.2724L33.7085 40.7158L34.2572 41.1593L34.5932 41.4209C34.7206 41.5083 34.8667 41.5616 35.0186 41.5761H35.3248C35.4777 41.5571 35.6238 41.4992 35.7502 41.4076C35.8503 41.3354 35.925 41.2311 35.9629 41.1105C35.9883 41.0371 35.9962 40.9584 35.9859 40.8811C35.9755 40.8038 35.9471 40.7303 35.9033 40.6671C35.8641 40.5991 35.812 40.5403 35.7502 40.4941C35.5813 40.3729 35.381 40.3079 35.1759 40.3079C34.9709 40.3079 34.7706 40.3729 34.6017 40.4941C34.5412 40.5405 34.4905 40.5993 34.4528 40.6671H34.3933L33.8233 40.2236L32.1219 38.8933L32.3303 38.716C33.1716 38.1179 34.1662 37.798 35.1845 37.798C36.2027 37.798 37.1973 38.1179 38.0386 38.716C38.2854 38.9084 38.5058 39.1352 38.6937 39.39C38.86 39.6152 38.9907 39.8667 39.0807 40.1349V40.1704C39.1749 40.4553 39.2153 40.7564 39.1998 41.0573C39.1788 41.4792 39.0669 41.8909 38.8725 42.2616C38.6782 42.6324 38.4062 42.9528 38.0769 43.1991ZM39.8762 39.7536C39.771 39.4749 39.6277 39.2135 39.4508 38.9776C39.2041 38.6226 38.9072 38.3087 38.5703 38.0464C37.5806 37.3318 36.4054 36.9489 35.2015 36.9489C33.9976 36.9489 32.8223 37.3318 31.8326 38.0464L31.7773 38.0907L31.3179 37.7404C30.9803 37.4764 30.6115 37.2588 30.2205 37.093C29.5035 36.7952 28.738 36.6447 27.9661 36.6496C27.6486 36.6501 27.3315 36.6753 27.0176 36.725C26.4477 36.8127 25.894 36.9906 25.3757 37.2526L24.4101 37.9089C23.7149 38.4977 23.259 39.3389 23.1341 40.2635C23.1171 40.3988 23.1086 40.5351 23.1085 40.6715V40.707H7.77865C6.2486 40.702 4.77912 40.0832 3.67496 38.979C2.5708 37.8748 1.91669 36.3699 1.84831 34.7764C1.77993 33.183 2.30251 31.6232 3.30767 30.4206C4.31283 29.218 5.72345 28.4649 7.24695 28.3175L8.20401 28.2244L7.99133 27.2355C7.847 26.5631 7.77566 25.8759 7.77865 25.1869C7.78013 23.1396 8.42875 21.1498 9.62416 19.5255C10.8196 17.9012 12.4951 16.7329 14.3916 16.2012C16.2881 15.6696 18.2998 15.8043 20.1154 16.5846C21.9311 17.3648 23.4495 18.7471 24.4357 20.5175L24.8185 21.196L25.5076 20.8856C26.5429 20.4215 27.6725 20.2327 28.7951 20.3362C29.9176 20.4396 30.998 20.8321 31.9392 21.4783C32.8803 22.1244 33.6528 23.0042 34.1873 24.0384C34.7219 25.0727 35.0016 26.2292 35.0015 27.404V28.2909H36.703C37.9947 28.2904 39.2516 28.7278 40.284 29.5371C41.3164 30.3464 42.0685 31.4838 42.4266 32.7776C42.7848 34.0714 42.7297 35.4516 42.2696 36.7099C41.8096 37.9683 40.9695 39.0365 39.8762 39.7536Z" stroke="white" stroke-width="1.7561" mask="url(#path-2-outside-1_195_1459)"/>
</svg>
