<svg width="43" height="48" viewBox="0 0 43 48" fill="none" xmlns="http://www.w3.org/2000/svg">
<rect x="14" width="28.5714" height="30" rx="5" fill="#20C897"/>
<g clip-path="url(#clip0_195_1422)">
<path d="M32.9531 15.8562C32.5556 15.599 32.1009 15.4434 31.6292 15.4031C31.1574 15.3628 30.6829 15.4389 30.2475 15.6249L15.9794 21.2443C15.6416 21.3818 15.2803 21.4525 14.9156 21.4524H5.78125C5.01461 21.4524 4.27937 21.757 3.73727 22.2991C3.19517 22.8412 2.89062 23.5764 2.89062 24.3431V24.5743H0V31.5118H2.89062V31.8124C2.90874 32.567 3.22126 33.2845 3.76141 33.8117C4.30156 34.3389 5.02648 34.6339 5.78125 34.6337L9.25 41.9874C9.48488 42.4826 9.85467 42.9016 10.3169 43.1961C10.7791 43.4906 11.3151 43.6488 11.8631 43.6524H13.32C14.0826 43.6463 14.8119 43.3391 15.349 42.7977C15.8862 42.2562 16.1875 41.5245 16.1875 40.7618V34.9112L30.2475 40.5306C30.5933 40.6682 30.9622 40.7388 31.3344 40.7387C31.9118 40.7294 32.4742 40.5526 32.9531 40.2299C33.3335 39.9731 33.6472 39.6294 33.8684 39.2273C34.0896 38.8252 34.2118 38.3762 34.225 37.9174V18.2381C34.2229 17.7675 34.1059 17.3046 33.8843 16.8895C33.6626 16.4744 33.343 16.1197 32.9531 15.8562ZM13.2969 24.3431V31.8124H5.78125V24.3431H13.2969ZM13.2969 40.7618H11.84L8.99563 34.6337H13.2969V40.7618ZM17.0431 32.1593C16.7686 32.019 16.4823 31.9029 16.1875 31.8124V24.1812C16.4794 24.121 16.7657 24.0359 17.0431 23.9268L31.3344 18.2381V37.8481L17.0431 32.1593ZM34.2944 25.1524V30.9337C35.061 30.9337 35.7963 30.6291 36.3384 30.087C36.8805 29.5449 37.185 28.8097 37.185 28.0431C37.185 27.2764 36.8805 26.5412 36.3384 25.9991C35.7963 25.457 35.061 25.1524 34.2944 25.1524Z" fill="white"/>
</g>
<defs>
<clipPath id="clip0_195_1422">
<rect width="37" height="37" fill="white" transform="translate(0 11)"/>
</clipPath>
</defs>
</svg>
