<svg width="43" height="48" viewBox="0 0 43 48" fill="none" xmlns="http://www.w3.org/2000/svg">
<rect x="12.4688" width="30" height="30" rx="5" fill="#20C897"/>
<path d="M8.97531 22.2857C8.63555 22.2857 8.3097 22.4212 8.06946 22.6623C7.82921 22.9034 7.69424 23.2304 7.69424 23.5714V31.2857C7.69424 31.6267 7.82921 31.9537 8.06946 32.1949C8.3097 32.436 8.63555 32.5714 8.97531 32.5714H32.0346C32.3743 32.5714 32.7002 32.436 32.9404 32.1949C33.1807 31.9537 33.3157 31.6267 33.3157 31.2857V23.5714C33.3157 23.2304 33.1807 22.9034 32.9404 22.6623C32.7002 22.4212 32.3743 22.2857 32.0346 22.2857H8.97531ZM10.2564 30V24.8571H30.7535V30H10.2564ZM24.3482 35.1429C24.0084 35.1429 23.6826 35.2783 23.4423 35.5194C23.2021 35.7606 23.0671 36.0876 23.0671 36.4286V41.5714C23.0671 41.9124 23.2021 42.2395 23.4423 42.4806C23.6826 42.7217 24.0084 42.8571 24.3482 42.8571H32.0346C32.3743 42.8571 32.7002 42.7217 32.9404 42.4806C33.1807 42.2395 33.3157 41.9124 33.3157 41.5714V36.4286C33.3157 36.0876 33.1807 35.7606 32.9404 35.5194C32.7002 35.2783 32.3743 35.1429 32.0346 35.1429H24.3482ZM25.6292 40.2857V37.7143H30.7535V40.2857H25.6292ZM0.00781303 15.8571C0.00781303 14.8342 0.412722 13.8531 1.13346 13.1297C1.85421 12.4064 2.83174 12 3.85103 12H37.1589C38.0665 11.9986 38.9453 12.3197 39.6396 12.9063C40.334 13.493 40.799 14.3073 40.9525 15.2051C41.1059 16.1029 40.9378 17.0262 40.478 17.8115C40.0181 18.5968 39.2961 19.1934 38.4399 19.4957V46.7143C38.4399 47.0553 38.305 47.3823 38.0647 47.6234C37.8245 47.8645 37.4986 48 37.1589 48H3.85103C3.51126 48 3.18542 47.8645 2.94517 47.6234C2.70492 47.3823 2.56995 47.0553 2.56995 46.7143V19.4957C1.82033 19.2297 1.17135 18.7369 0.712474 18.0853C0.253593 17.4336 0.0073962 16.6551 0.00781303 15.8571ZM3.85103 14.5714C3.51126 14.5714 3.18542 14.7069 2.94517 14.948C2.70492 15.1891 2.56995 15.5162 2.56995 15.8571C2.56995 16.1981 2.70492 16.5252 2.94517 16.7663C3.18542 17.0074 3.51126 17.1429 3.85103 17.1429H37.1589C37.4986 17.1429 37.8245 17.0074 38.0647 16.7663C38.305 16.5252 38.4399 16.1981 38.4399 15.8571C38.4399 15.5162 38.305 15.1891 38.0647 14.948C37.8245 14.7069 37.4986 14.5714 37.1589 14.5714H3.85103ZM5.1321 19.7143V45.4286H7.69424V36.4286C7.69424 36.0876 7.82921 35.7606 8.06946 35.5194C8.3097 35.2783 8.63555 35.1429 8.97531 35.1429H19.2239C19.5636 35.1429 19.8895 35.2783 20.1297 35.5194C20.37 35.7606 20.5049 36.0876 20.5049 36.4286V45.4286H35.8778V19.7143H5.1321ZM10.2564 45.4286H17.9428V37.7143H10.2564V45.4286Z" fill="white"/>
</svg>
