<svg width="43" height="48" viewBox="0 0 43 48" fill="none" xmlns="http://www.w3.org/2000/svg">
<rect x="12.4648" width="30" height="30" rx="5" fill="#20C897"/>
<path d="M8.9675 22.2857C8.62774 22.2857 8.30189 22.4212 8.06164 22.6623C7.8214 22.9034 7.68643 23.2304 7.68643 23.5714V31.2857C7.68643 31.6267 7.8214 31.9537 8.06164 32.1949C8.30189 32.436 8.62774 32.5714 8.9675 32.5714H32.0268C32.3665 32.5714 32.6924 32.436 32.9326 32.1949C33.1729 31.9537 33.3078 31.6267 33.3078 31.2857V23.5714C33.3078 23.2304 33.1729 22.9034 32.9326 22.6623C32.6924 22.4212 32.3665 22.2857 32.0268 22.2857H8.9675ZM10.2486 30V24.8571H30.7457V30H10.2486ZM24.3403 35.1429C24.0006 35.1429 23.6747 35.2783 23.4345 35.5194C23.1942 35.7606 23.0593 36.0876 23.0593 36.4286V41.5714C23.0593 41.9124 23.1942 42.2395 23.4345 42.4806C23.6747 42.7217 24.0006 42.8571 24.3403 42.8571H32.0268C32.3665 42.8571 32.6924 42.7217 32.9326 42.4806C33.1729 42.2395 33.3078 41.9124 33.3078 41.5714V36.4286C33.3078 36.0876 33.1729 35.7606 32.9326 35.5194C32.6924 35.2783 32.3665 35.1429 32.0268 35.1429H24.3403ZM25.6214 40.2857V37.7143H30.7457V40.2857H25.6214ZM5.28408e-07 15.8571C5.28408e-07 14.8342 0.404909 13.8531 1.12565 13.1297C1.84639 12.4064 2.82393 12 3.84321 12H37.1511C38.0587 11.9986 38.9375 12.3197 39.6318 12.9063C40.3262 13.493 40.7912 14.3073 40.9447 15.2051C41.0981 16.1029 40.93 17.0262 40.4701 17.8115C40.0103 18.5968 39.2883 19.1934 38.4321 19.4957V46.7143C38.4321 47.0553 38.2972 47.3823 38.0569 47.6234C37.8167 47.8645 37.4908 48 37.1511 48H3.84321C3.50345 48 3.17761 47.8645 2.93736 47.6234C2.69711 47.3823 2.56214 47.0553 2.56214 46.7143V19.4957C1.81252 19.2297 1.16354 18.7369 0.704661 18.0853C0.245781 17.4336 -0.000416297 16.6551 5.28408e-07 15.8571ZM3.84321 14.5714C3.50345 14.5714 3.17761 14.7069 2.93736 14.948C2.69711 15.1891 2.56214 15.5162 2.56214 15.8571C2.56214 16.1981 2.69711 16.5252 2.93736 16.7663C3.17761 17.0074 3.50345 17.1429 3.84321 17.1429H37.1511C37.4908 17.1429 37.8167 17.0074 38.0569 16.7663C38.2972 16.5252 38.4321 16.1981 38.4321 15.8571C38.4321 15.5162 38.2972 15.1891 38.0569 14.948C37.8167 14.7069 37.4908 14.5714 37.1511 14.5714H3.84321ZM5.12428 19.7143V45.4286H7.68643V36.4286C7.68643 36.0876 7.8214 35.7606 8.06164 35.5194C8.30189 35.2783 8.62774 35.1429 8.9675 35.1429H19.2161C19.5558 35.1429 19.8817 35.2783 20.1219 35.5194C20.3622 35.7606 20.4971 36.0876 20.4971 36.4286V45.4286H35.87V19.7143H5.12428ZM10.2486 45.4286H17.935V37.7143H10.2486V45.4286Z" fill="white"/>
</svg>
