<svg width="46" height="47" viewBox="0 0 46 47" fill="none" xmlns="http://www.w3.org/2000/svg">
<rect x="15.4844" width="30.125" height="30" rx="5" fill="#20C897"/>
<path d="M30.8742 29.5038C31.5246 26.8501 31.4035 24.0658 30.5251 21.4785C29.6467 18.8913 28.0475 16.6088 25.9158 14.8997C23.7841 13.1906 21.2085 12.1259 18.4921 11.8311C15.7758 11.5362 13.0318 12.0234 10.583 13.2353C8.13416 14.4473 6.08249 16.3335 4.6694 18.672C3.25631 21.0105 2.54062 23.7039 2.60654 26.4354C2.67246 29.1669 3.51726 31.8228 5.04151 34.0904C6.56576 36.358 8.70604 38.143 11.2105 39.2354M2.60156 26.0863H31.2831" stroke="white" stroke-width="2.5" stroke-linecap="round" stroke-linejoin="round"/>
<path d="M12.6826 32.706C11.9627 30.5675 11.5385 28.3406 11.4219 26.0872C11.693 20.8423 13.6251 15.8196 16.9389 11.7451C20.2517 15.8199 22.1828 20.8426 22.4532 26.0872C22.4063 27.0071 22.308 27.9237 22.1589 28.8327M25.9046 31.7448L36.402 36.2928L25.9046 40.8408L15.4124 36.2928L25.9098 31.7448H25.9046Z" stroke="white" stroke-width="2.5" stroke-linecap="round" stroke-linejoin="round"/>
<path d="M20.1717 38.3652L20.1822 43.3143C20.1822 43.3143 21.9144 45.6065 25.9049 45.6065C29.8955 45.6065 31.6355 43.3143 31.6355 43.3143V38.3652M15.4102 44.2911V36.2917" stroke="white" stroke-width="2.5" stroke-linecap="round" stroke-linejoin="round"/>
</svg>
