<svg width="46" height="47" viewBox="0 0 46 47" fill="none" xmlns="http://www.w3.org/2000/svg">
<rect x="15.4844" width="30.125" height="30" rx="5" fill="#20C897"/>
<path d="M30.8722 29.5038C31.5227 26.8501 31.4016 24.0658 30.5232 21.4785C29.6448 18.8913 28.0456 16.6088 25.9138 14.8997C23.7821 13.1906 21.2065 12.1259 18.4902 11.8311C15.7739 11.5362 13.0298 12.0234 10.581 13.2353C8.13221 14.4473 6.08053 16.3335 4.66745 18.672C3.25436 21.0105 2.53866 23.7039 2.60459 26.4354C2.67051 29.1669 3.5153 31.8228 5.03956 34.0904C6.56381 36.358 8.70408 38.143 11.2085 39.2354M2.59961 26.0863H31.2812" stroke="white" stroke-width="2.5" stroke-linecap="round" stroke-linejoin="round"/>
<path d="M12.6806 32.706C11.9607 30.5675 11.5365 28.3406 11.4199 26.0872C11.6911 20.8423 13.6232 15.8196 16.9369 11.7451C20.2497 15.8199 22.1809 20.8426 22.4513 26.0872C22.4043 27.0071 22.3061 27.9237 22.1569 28.8327M25.9027 31.7448L36.4 36.2928L25.9027 40.8408L15.4105 36.2928L25.9079 31.7448H25.9027Z" stroke="white" stroke-width="2.5" stroke-linecap="round" stroke-linejoin="round"/>
<path d="M20.1698 38.3652L20.1802 43.3143C20.1802 43.3143 21.9124 45.6065 25.903 45.6065C29.8935 45.6065 31.6336 43.3143 31.6336 43.3143V38.3652M15.4082 44.2911V36.2917" stroke="white" stroke-width="2.5" stroke-linecap="round" stroke-linejoin="round"/>
</svg>
