<svg width="46" height="47" viewBox="0 0 46 47" fill="none" xmlns="http://www.w3.org/2000/svg">
<rect x="15.4844" width="30.125" height="30" rx="5" fill="#20C897"/>
<path d="M30.8742 29.5036C31.5246 26.8498 31.4035 24.0655 30.5251 21.4783C29.6467 18.891 28.0475 16.6086 25.9158 14.8994C23.7841 13.1903 21.2085 12.1257 18.4921 11.8308C15.7758 11.536 13.0318 12.0232 10.583 13.2351C8.13416 14.447 6.08249 16.3332 4.6694 18.6717C3.25631 21.0102 2.54062 23.7037 2.60654 26.4352C2.67246 29.1667 3.51726 31.8225 5.04151 34.0901C6.56576 36.3577 8.70604 38.1428 11.2105 39.2351M2.60156 26.0861H31.2831" stroke="white" stroke-width="2.5" stroke-linecap="round" stroke-linejoin="round"/>
<path d="M12.6826 32.706C11.9627 30.5675 11.5385 28.3406 11.4219 26.0872C11.693 20.8423 13.6251 15.8196 16.9389 11.7451C20.2517 15.8199 22.1828 20.8426 22.4532 26.0872C22.4063 27.0071 22.308 27.9237 22.1589 28.8327M25.9046 31.7448L36.402 36.2928L25.9046 40.8408L15.4124 36.2928L25.9098 31.7448H25.9046Z" stroke="white" stroke-width="2.5" stroke-linecap="round" stroke-linejoin="round"/>
<path d="M20.1678 38.3649L20.1783 43.3141C20.1783 43.3141 21.9105 45.6063 25.901 45.6063C29.8916 45.6063 31.6316 43.3141 31.6316 43.3141V38.3649M15.4062 44.2909V36.2915" stroke="white" stroke-width="2.5" stroke-linecap="round" stroke-linejoin="round"/>
</svg>
