<svg width="78" height="69" viewBox="0 0 78 69" fill="none" xmlns="http://www.w3.org/2000/svg">
<path d="M19.0154 31.9468C15.7547 31.9468 13.2187 29.4108 13.2187 26.1501C13.2187 22.98 15.7547 20.3534 19.0154 20.3534C22.1855 20.3534 24.8121 22.98 24.8121 26.1501C24.8121 29.4108 22.1855 31.9468 19.0154 31.9468ZM59.5925 31.9468C56.3318 31.9468 53.7957 29.4108 53.7957 26.1501C53.7957 22.98 56.3318 20.3534 59.5925 20.3534C62.7625 20.3534 65.3892 22.98 65.3892 26.1501C65.3892 29.4108 62.7625 31.9468 59.5925 31.9468ZM62.4908 34.8452C65.6609 34.8452 68.2875 37.4718 68.2875 40.6419V43.5403C68.2875 45.1706 66.9289 46.4386 65.3892 46.4386H59.4113C58.7773 42.1817 56.2412 38.5587 52.5277 36.5661C53.6146 35.5698 55.0638 34.8452 56.6941 34.8452H62.4908ZM39.3039 34.8452C33.6884 34.8452 29.1597 30.3165 29.1597 24.7009C29.1597 19.1759 33.6884 14.5567 39.3039 14.5567C44.8289 14.5567 49.4482 19.1759 49.4482 24.7009C49.4482 30.3165 44.8289 34.8452 39.3039 34.8452ZM46.1875 37.7435C51.9843 37.7435 56.6941 42.4534 56.6941 48.2501V50.7862C56.6941 53.2317 54.7015 55.1337 52.3466 55.1337H26.2613C23.8158 55.1337 21.9138 53.2317 21.9138 50.7862V48.2501C21.9138 42.4534 26.533 37.7435 32.3297 37.7435H33.0543C34.9564 38.6493 37.0396 39.1927 39.3039 39.1927C41.4777 39.1927 43.5609 38.6493 45.4629 37.7435H46.1875ZM25.9896 36.5661C22.2761 38.5587 19.74 42.1817 19.106 46.4386H13.2187C11.5883 46.4386 10.3203 45.1706 10.3203 43.5403V40.6419C10.3203 37.4718 12.8564 34.8452 16.117 34.8452H21.9138C23.4535 34.8452 24.9027 35.5698 25.9896 36.5661Z" fill="white"/>
</svg>
