<svg width="26" height="26" viewBox="0 0 26 26" fill="none" xmlns="http://www.w3.org/2000/svg">
<rect x="10.0817" width="15.9184" height="15.9184" rx="2.65306" fill="#20C897"/>
<path d="M9.83913 19.4997C9.83913 19.6068 9.92193 19.6945 10.0218 19.6945H14.5273C14.6272 19.6945 14.71 19.6068 14.71 19.4997V18.3307C14.71 18.2235 14.6272 18.1358 14.5273 18.1358H10.0218C9.92193 18.1358 9.83913 18.2235 9.83913 18.3307V19.4997ZM5.09248 19.6482L9.7685 15.7272C9.86104 15.6492 9.86104 15.5056 9.7685 15.4276L5.09248 11.509C5.06425 11.485 5.02973 11.4696 4.99301 11.4647C4.95629 11.4597 4.91891 11.4654 4.88532 11.481C4.85173 11.4966 4.82333 11.5216 4.8035 11.5529C4.78367 11.5842 4.77323 11.6205 4.77344 11.6576V13.1846C4.77344 13.243 4.79779 13.2966 4.84406 13.3332L7.51816 15.5786L4.84406 17.8241C4.8223 17.8423 4.80472 17.865 4.79253 17.8907C4.78034 17.9163 4.77383 17.9443 4.77344 17.9726V19.4997C4.77344 19.6653 4.96584 19.7554 5.09248 19.6482ZM18.7041 5.83691H0.779337C0.348266 5.83691 0 6.18518 0 6.61625V24.541C0 24.9721 0.348266 25.3203 0.779337 25.3203H18.7041C19.1352 25.3203 19.4834 24.9721 19.4834 24.541V6.61625C19.4834 6.18518 19.1352 5.83691 18.7041 5.83691ZM17.7299 23.5668H1.75351V7.59042H17.7299V23.5668Z" fill="#0D4C8F"/>
</svg>
