<svg width="61" height="69" viewBox="0 0 61 69" fill="none" xmlns="http://www.w3.org/2000/svg">
<path d="M39.229 40.5823C45.6597 40.9446 50.913 46.1979 50.913 52.7192C50.913 55.6176 48.4675 57.9725 45.5691 57.9725H15.5892C12.6909 57.9725 10.3359 55.6176 10.3359 52.7192C10.3359 46.1979 15.4986 40.9446 21.9294 40.5823L30.6245 49.2774L39.229 40.5823ZM30.6245 39.1332C24.1937 39.1332 19.031 33.9704 19.031 27.5397V17.5766C19.031 16.3991 19.7556 15.3122 20.8425 14.8594L28.5413 12.0516C29.1753 11.7799 29.8999 11.6893 30.6245 11.6893C31.2585 11.6893 31.9831 11.7799 32.6171 12.0516L40.3159 14.8594C41.4027 15.3122 42.2179 16.3991 42.2179 17.5766V27.5397C42.2179 33.9704 36.9646 39.1332 30.6245 39.1332ZM27.0015 18.12V19.6598C27.0015 19.9315 27.1827 20.1127 27.4544 20.1127H29.3564V22.0147C29.3564 22.2864 29.5376 22.4676 29.8093 22.4676H31.3491C31.6208 22.4676 31.8019 22.2864 31.8019 22.0147V20.1127H33.7946C33.9757 20.1127 34.2474 19.9315 34.2474 19.6598V18.12C34.2474 17.8483 33.9757 17.6672 33.7946 17.6672H31.8019V15.6745C31.8019 15.4934 31.6208 15.2217 31.3491 15.2217H29.8093C29.5376 15.2217 29.3564 15.4934 29.3564 15.6745V17.6672H27.4544C27.1827 17.6672 27.0015 17.8483 27.0015 18.12ZM23.3786 26.0905V27.5397C23.3786 31.6155 26.5486 34.7856 30.6245 34.7856C34.6097 34.7856 37.8704 31.6155 37.8704 27.5397V26.0905H23.3786Z" fill="white"/>
</svg>
