<svg width="28" height="27" viewBox="0 0 28 27" fill="none" xmlns="http://www.w3.org/2000/svg">
<rect x="11.2" width="15.9184" height="15.9184" rx="2.65306" fill="#20C897"/>
<path d="M14.925 10.7497C14.7594 10.7497 14.625 10.6154 14.625 10.4497V5.63301C14.625 5.46732 14.7594 5.33301 14.925 5.33301H21.3667C21.5324 5.33301 21.6667 5.46732 21.6667 5.63301V10.4497C21.6667 10.6154 21.5324 10.7497 21.3667 10.7497H14.925ZM4.63337 13.9997C4.46769 13.9997 4.33337 13.8654 4.33337 13.6997V5.63301C4.33337 5.46732 4.46769 5.33301 4.63337 5.33301H11.075C11.2407 5.33301 11.375 5.46732 11.375 5.63301V13.6997C11.375 13.8654 11.2407 13.9997 11.075 13.9997H4.63337ZM14.925 22.6663C14.7594 22.6663 14.625 22.532 14.625 22.3663V14.2997C14.625 14.134 14.7594 13.9997 14.925 13.9997H21.3667C21.5324 13.9997 21.6667 14.134 21.6667 14.2997V22.3663C21.6667 22.532 21.5324 22.6663 21.3667 22.6663H14.925ZM4.63337 22.6663C4.46769 22.6663 4.33337 22.532 4.33337 22.3663V17.5497C4.33337 17.384 4.46769 17.2497 4.63337 17.2497H11.075C11.2407 17.2497 11.375 17.384 11.375 17.5497V22.3663C11.375 22.532 11.2407 22.6663 11.075 22.6663H4.63337ZM5.41671 12.6163C5.41671 12.782 5.55102 12.9163 5.71671 12.9163H9.99171C10.1574 12.9163 10.2917 12.782 10.2917 12.6163V6.71634C10.2917 6.55066 10.1574 6.41634 9.99171 6.41634H5.71671C5.55102 6.41634 5.41671 6.55066 5.41671 6.71634V12.6163ZM15.7084 21.283C15.7084 21.4487 15.8427 21.583 16.0084 21.583H20.2834C20.4491 21.583 20.5834 21.4487 20.5834 21.283V15.383C20.5834 15.2173 20.4491 15.083 20.2834 15.083H16.0084C15.8427 15.083 15.7084 15.2173 15.7084 15.383V21.283ZM15.7084 9.36634C15.7084 9.53203 15.8427 9.66634 16.0084 9.66634H20.2834C20.4491 9.66634 20.5834 9.53203 20.5834 9.36634V6.71634C20.5834 6.55066 20.4491 6.41634 20.2834 6.41634H16.0084C15.8427 6.41634 15.7084 6.55066 15.7084 6.71634V9.36634ZM5.41671 21.283C5.41671 21.4487 5.55102 21.583 5.71671 21.583H9.99171C10.1574 21.583 10.2917 21.4487 10.2917 21.283V18.633C10.2917 18.4673 10.1574 18.333 9.99171 18.333H5.71671C5.55102 18.333 5.41671 18.4673 5.41671 18.633V21.283Z" fill="#0D4C8F" stroke="#0D4C8F" stroke-width="0.2"/>
</svg>
