<svg width="54" height="57" viewBox="0 0 54 57" fill="none" xmlns="http://www.w3.org/2000/svg">
<rect x="23.5547" width="30.125" height="30" rx="5" fill="#20C897"/>
<path d="M38.25 39.4688C37.4531 39.4688 36.6562 39.15 36.0188 38.5125L31.2375 33.7312C30.6 33.0938 30.2812 32.2969 30.2812 31.5C30.2812 30.7031 30.6 29.9062 31.2375 29.2688L36.0188 24.4875C36.6562 23.85 37.4531 23.5312 38.25 23.5312C39.0469 23.5312 39.8438 23.85 40.4813 24.4875L45.2625 29.2688C45.9 29.9062 46.2188 30.7031 46.2188 31.5C46.2188 32.2969 45.9 33.0938 45.2625 33.7312L40.4813 38.5125C39.8438 39.15 39.0469 39.4688 38.25 39.4688ZM38.25 26.7188L33.4688 31.5L38.25 36.2812L43.0312 31.5L38.25 26.7188ZM25.5 26.7188C24.7031 26.7188 23.9062 26.4 23.2688 25.7625L18.4875 20.9812C17.85 20.3437 17.5312 19.5469 17.5312 18.75C17.5312 17.9531 17.85 17.1562 18.4875 16.5187L23.2688 11.7375C23.9062 11.1 24.7031 10.7812 25.5 10.7812C26.2969 10.7812 27.0938 11.1 27.7312 11.7375L32.5125 16.5187C33.15 17.1562 33.4688 17.9531 33.4688 18.75C33.4688 19.5469 33.15 20.3437 32.5125 20.9812L27.7312 25.7625C27.0938 26.4 26.2969 26.7188 25.5 26.7188ZM25.5 13.9688L20.7188 18.75L25.5 23.5312L30.2812 18.75L25.5 13.9688ZM25.5 52.2188C24.7031 52.2188 23.9062 51.9 23.2688 51.2625L18.4875 46.4813C17.85 45.8438 17.5312 45.0469 17.5312 44.25C17.5312 43.4531 17.85 42.6562 18.4875 42.0188L23.2688 37.2375C23.9062 36.6 24.7031 36.2812 25.5 36.2812C26.2969 36.2812 27.0938 36.6 27.7312 37.2375L32.5125 42.0188C33.15 42.6562 33.4688 43.4531 33.4688 44.25C33.4688 45.0469 33.15 45.8438 32.5125 46.4813L27.7312 51.2625C27.0938 51.9 26.2969 52.2188 25.5 52.2188ZM25.5 39.4688L20.7188 44.25L25.5 49.0312L30.2812 44.25L25.5 39.4688ZM12.75 39.4688C11.9531 39.4688 11.1562 39.15 10.5187 38.5125L5.7375 33.7312C5.1 33.0938 4.78125 32.2969 4.78125 31.5C4.78125 30.7031 5.1 29.9062 5.7375 29.2688L10.5187 24.4875C11.1562 23.85 11.9531 23.5312 12.75 23.5312C13.5469 23.5312 14.3437 23.85 14.9812 24.4875L19.7625 29.2688C20.4 29.9062 20.7188 30.7031 20.7188 31.5C20.7188 32.2969 20.4 33.0938 19.7625 33.7312L14.9812 38.5125C14.3437 39.15 13.5469 39.4688 12.75 39.4688ZM12.75 26.7188L7.96875 31.5L12.75 36.2812L17.5312 31.5L12.75 26.7188Z" fill="white"/>
</svg>
