<svg width="58" height="54" viewBox="0 0 58 54" fill="none" xmlns="http://www.w3.org/2000/svg">
<rect x="28" width="30" height="30" rx="5" fill="#20C897"/>
<path d="M51.3 29.894C51.3 15.071 39.798 5 27 5C14.337 5 2.7 14.855 2.7 30.056C1.08 30.974 0 32.702 0 34.7V40.1C0 43.07 2.43 45.5 5.4 45.5C6.885 45.5 8.1 44.285 8.1 42.8V29.813C8.1 19.472 16.065 10.427 26.406 10.13C28.9368 10.053 31.4574 10.4849 33.8183 11.3999C36.1792 12.315 38.3324 13.6946 40.1502 15.4571C41.9681 17.2196 43.4137 19.3291 44.4014 21.6605C45.389 23.992 45.8986 26.498 45.9 29.03V48.2H27C25.515 48.2 24.3 49.415 24.3 50.9C24.3 52.385 25.515 53.6 27 53.6H45.9C48.87 53.6 51.3 51.17 51.3 48.2V44.906C52.893 44.069 54 42.422 54 40.478V34.268C54 32.378 52.893 30.731 51.3 29.894Z" fill="#0D4C8F"/>
<path d="M18.8992 34.7C20.3904 34.7 21.5992 33.4912 21.5992 32C21.5992 30.5089 20.3904 29.3 18.8992 29.3C17.408 29.3 16.1992 30.5089 16.1992 32C16.1992 33.4912 17.408 34.7 18.8992 34.7Z" fill="#0D4C8F"/>
<path d="M35.0984 34.7C36.5896 34.7 37.7984 33.4912 37.7984 32C37.7984 30.5089 36.5896 29.3 35.0984 29.3C33.6073 29.3 32.3984 30.5089 32.3984 32C32.3984 33.4912 33.6073 34.7 35.0984 34.7Z" fill="#0D4C8F"/>
<path d="M43.1979 26.6806C42.5541 22.8848 40.5881 19.4391 37.6479 16.9535C34.7077 14.468 30.983 13.1028 27.1329 13.0996C18.9519 13.0996 10.1499 19.8766 10.8519 30.5146C14.1814 29.1522 17.122 26.987 19.4115 24.2122C21.7011 21.4374 23.2685 18.1392 23.9739 14.6116C27.5109 21.7126 34.7739 26.5996 43.1979 26.6806Z" fill="#0D4C8F"/>
</svg>
