<svg width="47" height="47" viewBox="0 0 47 47" fill="none" xmlns="http://www.w3.org/2000/svg">
<rect x="17.7676" width="28.6905" height="30" rx="5" fill="#20C897"/>
<path d="M2.375 43.4375C2.375 42.7816 2.90666 42.25 3.5625 42.25H34.4375C35.0933 42.25 35.625 42.7816 35.625 43.4375C35.625 44.0933 35.0933 44.625 34.4375 44.625H3.5625C2.90666 44.625 2.375 44.0933 2.375 43.4375ZM32.0625 22.0625C32.3774 22.0625 32.6795 21.9374 32.9022 21.7147C33.1249 21.492 33.25 21.1899 33.25 20.875V17.3125C33.2499 17.0684 33.1746 16.8303 33.0344 16.6306C32.8941 16.4309 32.6958 16.2792 32.4662 16.1962L19.4037 11.4462C19.1428 11.3519 18.8572 11.3519 18.5963 11.4462L5.53375 16.1962C5.30424 16.2792 5.10587 16.4309 4.96563 16.6306C4.8254 16.8303 4.7501 17.0684 4.75 17.3125V20.875C4.75 21.1899 4.87511 21.492 5.09781 21.7147C5.32051 21.9374 5.62256 22.0625 5.9375 22.0625H7.125V37.5H4.75C4.75 38.8117 5.81332 39.875 7.125 39.875H30.875C32.1867 39.875 33.25 38.8117 33.25 37.5H30.875V22.0625H32.0625ZM7.125 18.1437L19 13.8212L30.875 18.1437V19.6875H7.125V18.1437ZM21.375 37.5H16.625V22.0625H21.375V37.5ZM9.5 22.0625H14.25V37.5H9.5V22.0625ZM28.5 37.5H23.75V22.0625H28.5V37.5Z" fill="white" stroke="white" stroke-width="0.5"/>
</svg>
