<svg width="52" height="56" viewBox="0 0 52 56" fill="none" xmlns="http://www.w3.org/2000/svg">
<rect x="21.5469" width="30.125" height="30" rx="5" fill="#20C897"/>
<path d="M25.4596 38.6666H27.0305V36.9333C28.0416 36.7888 28.8996 36.3735 29.6045 35.6874C30.3094 35.0013 30.6611 34.1166 30.6596 33.0332C30.6596 32.0944 30.2985 31.3086 29.5763 30.6759C28.8541 30.0433 28.0235 29.529 27.0846 29.1333V25.1249C27.4457 25.2333 27.744 25.4138 27.9795 25.6666C28.2149 25.9194 28.3861 26.2263 28.493 26.5874L30.443 25.7749C30.1902 25.0166 29.7569 24.4121 29.143 23.9614C28.5291 23.5108 27.843 23.2125 27.0846 23.0666V21.3333H25.4596V23.0124C24.4485 23.1208 23.5912 23.4913 22.8878 24.1239C22.1844 24.7566 21.8319 25.5958 21.8305 26.6416C21.8305 27.6166 22.201 28.4291 22.942 29.0791C23.683 29.7291 24.5222 30.2527 25.4596 30.6499V34.9291C24.8819 34.7485 24.3944 34.4416 23.9971 34.0083C23.5999 33.5749 23.3291 33.0694 23.1846 32.4916L21.2888 33.3041C21.5777 34.3152 22.0832 35.1458 22.8055 35.7958C23.5277 36.4458 24.4124 36.843 25.4596 36.9874V38.6666ZM27.0846 34.8749V31.2999C27.4819 31.4805 27.8343 31.6971 28.142 31.9499C28.4496 32.2027 28.6027 32.5819 28.6013 33.0874C28.6013 33.6652 28.4569 34.0718 28.168 34.3073C27.8791 34.5427 27.518 34.7319 27.0846 34.8749ZM25.4596 28.4291C25.0624 28.2485 24.7013 28.0319 24.3763 27.7791C24.0513 27.5263 23.8888 27.1471 23.8888 26.6416C23.8888 26.136 24.0513 25.7655 24.3763 25.5301C24.7013 25.2946 25.0624 25.1415 25.4596 25.0708V28.4291ZM17.3346 45.1666C13.1096 45.1666 9.52597 43.6954 6.58364 40.7531C3.6413 37.8107 2.16941 34.2264 2.16797 29.9999C2.16653 25.7735 3.63841 22.1898 6.58364 19.2489C9.52886 16.308 13.1125 14.8361 17.3346 14.8333H34.668C38.893 14.8333 42.4774 16.3051 45.4211 19.2489C48.3649 22.1927 49.8361 25.7764 49.8346 29.9999C49.8332 34.2235 48.362 37.8079 45.4211 40.7531C42.4802 43.6983 38.8959 45.1695 34.668 45.1666H17.3346ZM17.3346 40.8333H34.668C37.6652 40.8333 40.2204 39.7766 42.3336 37.6634C44.4469 35.5502 45.5027 32.9957 45.5013 29.9999C45.4999 27.0041 44.4432 24.4496 42.3315 22.3364C40.2197 20.2232 37.6652 19.1666 34.668 19.1666H17.3346C14.3374 19.1666 11.7829 20.2232 9.67114 22.3364C7.55936 24.4496 6.50275 27.0041 6.5013 29.9999C6.49986 32.9957 7.55647 35.5509 9.67114 37.6656C11.7858 39.7803 14.3403 40.8361 17.3346 40.8333Z" fill="white"/>
</svg>
