<svg width="52" height="56" viewBox="0 0 52 56" fill="none" xmlns="http://www.w3.org/2000/svg">
<rect x="21.5469" width="30.125" height="30" rx="5" fill="#20C897"/>
<path d="M25.4577 38.6667H27.0285V36.9334C28.0396 36.7889 28.8976 36.3736 29.6025 35.6875C30.3074 35.0014 30.6591 34.1167 30.6577 33.0334C30.6577 32.0945 30.2966 31.3087 29.5744 30.676C28.8521 30.0434 28.0216 29.5292 27.0827 29.1334V25.125C27.4438 25.2334 27.7421 25.4139 27.9775 25.6667C28.213 25.9195 28.3841 26.2264 28.491 26.5875L30.441 25.775C30.1882 25.0167 29.7549 24.4122 29.141 23.9615C28.5271 23.5109 27.841 23.2126 27.0827 23.0667V21.3334H25.4577V23.0125C24.4466 23.1209 23.5893 23.4914 22.8859 24.124C22.1824 24.7567 21.83 25.5959 21.8285 26.6417C21.8285 27.6167 22.199 28.4292 22.94 29.0792C23.681 29.7292 24.5202 30.2528 25.4577 30.65V34.9292C24.8799 34.7486 24.3924 34.4417 23.9952 34.0084C23.598 33.575 23.3271 33.0695 23.1827 32.4917L21.2869 33.3042C21.5757 34.3153 22.0813 35.1459 22.8035 35.7959C23.5257 36.4459 24.4105 36.8431 25.4577 36.9875V38.6667ZM27.0827 34.875V31.3C27.4799 31.4806 27.8324 31.6973 28.14 31.95C28.4477 32.2028 28.6008 32.582 28.5994 33.0875C28.5994 33.6653 28.4549 34.0719 28.166 34.3074C27.8771 34.5428 27.516 34.732 27.0827 34.875ZM25.4577 28.4292C25.0605 28.2486 24.6994 28.032 24.3744 27.7792C24.0494 27.5264 23.8869 27.1473 23.8869 26.6417C23.8869 26.1362 24.0494 25.7657 24.3744 25.5302C24.6994 25.2948 25.0605 25.1417 25.4577 25.0709V28.4292ZM17.3327 45.1667C13.1077 45.1667 9.52402 43.6955 6.58168 40.7532C3.63935 37.8109 2.16746 34.2265 2.16602 30C2.16457 25.7736 3.63646 22.1899 6.58168 19.249C9.52691 16.3082 13.1106 14.8363 17.3327 14.8334H34.666C38.891 14.8334 42.4754 16.3053 45.4192 19.249C48.363 22.1928 49.8341 25.7765 49.8327 30C49.8312 34.2236 48.3601 37.808 45.4192 40.7532C42.4783 43.6984 38.8939 45.1696 34.666 45.1667H17.3327ZM17.3327 40.8334H34.666C37.6632 40.8334 40.2185 39.7768 42.3317 37.6635C44.4449 35.5503 45.5008 32.9958 45.4994 30C45.4979 27.0043 44.4413 24.4498 42.3295 22.3365C40.2177 20.2233 37.6632 19.1667 34.666 19.1667H17.3327C14.3355 19.1667 11.781 20.2233 9.66918 22.3365C7.55741 24.4498 6.50079 27.0043 6.49935 30C6.49791 32.9958 7.55452 35.551 9.66918 37.6657C11.7838 39.7804 14.3384 40.8363 17.3327 40.8334Z" fill="white"/>
</svg>
