<svg width="78" height="73" viewBox="0 0 78 73" fill="none" xmlns="http://www.w3.org/2000/svg">
<rect x="37.0625" width="40.1667" height="40" rx="5" fill="#20C897"/>
<path d="M54.25 34.25H38.75V18.75H54.25V34.25ZM42.625 30.375H50.375V22.625H42.625V30.375Z" fill="white"/>
<path d="M32.9375 40.0625V28.4375H17.4375V55.5625H44.5625V40.0625H32.9375ZM21.3125 32.3125H29.0625V40.0625H21.3125V32.3125ZM29.0625 51.6875H21.3125V43.9375H29.0625V51.6875ZM40.6875 51.6875H32.9375V43.9375H40.6875V51.6875Z" fill="white"/>
<path d="M50.375 65.25H11.625C10.5973 65.25 9.61166 64.8417 8.88496 64.115C8.15826 63.3883 7.75 62.4027 7.75 61.375V22.625C7.75 21.5973 8.15826 20.6117 8.88496 19.885C9.61166 19.1583 10.5973 18.75 11.625 18.75H31V22.625H11.625V61.375H50.375V42H54.25V61.375C54.25 62.4027 53.8417 63.3883 53.115 64.115C52.3883 64.8417 51.4027 65.25 50.375 65.25Z" fill="white"/>
</svg>
