<svg width="46" height="47" viewBox="0 0 46 47" fill="none" xmlns="http://www.w3.org/2000/svg">
<path d="M10.688 4.67272C10.932 4.79005 11.138 4.97392 11.2821 5.20314C11.4262 5.43236 11.5026 5.69763 11.5026 5.96839C11.5026 7.55922 12.1006 8.47539 12.85 9.59089L12.9056 9.67139C13.5419 10.6182 14.3776 11.8583 14.3776 13.6351C14.3776 15.4482 13.4634 17.0467 12.0699 17.9955C12.436 18.3021 12.7599 18.6797 13.0398 19.1321C13.9521 20.6079 14.3776 22.8638 14.3776 26.103C14.3776 29.3843 13.9368 33.325 13.218 36.4721C12.8615 38.0361 12.4188 39.4794 11.8917 40.5623C11.6428 41.1011 11.3132 41.5988 10.9142 42.0381C10.5194 42.4426 9.91177 42.8738 9.10677 42.8738C8.30177 42.8738 7.69419 42.4426 7.30127 42.0381C6.90109 41.5997 6.57134 41.1018 6.32377 40.5623C5.79477 39.4775 5.35202 38.0361 4.99552 36.4702C4.24792 33.0638 3.85927 29.5885 3.83594 26.1011C3.83594 22.8619 4.26144 20.6079 5.17377 19.1321C5.43405 18.7037 5.76151 18.3199 6.14361 17.9955C5.43209 17.5124 4.84974 16.8624 4.44746 16.1023C4.04518 15.3422 3.83522 14.4951 3.83594 13.6351C3.83594 12.9297 3.83594 11.7165 4.57002 10.1506C5.28877 8.61722 6.65536 6.85581 9.16619 4.84522C9.3778 4.67595 9.63296 4.56994 9.90222 4.53942C10.1715 4.5089 10.4439 4.55511 10.688 4.67272ZM19.1693 29.2885C18.1538 29.1181 17.1661 28.8113 16.2329 28.3761C16.2732 27.598 16.2943 26.8351 16.2943 26.103C16.2943 25.3248 16.2713 24.5811 16.2214 23.872C17.0705 24.5716 18.0729 25.091 19.1693 25.3727V20.8226C19.1693 20.0601 19.4722 19.3288 20.0113 18.7896C20.5505 18.2505 21.2818 17.9476 22.0443 17.9476H28.7526C28.7528 16.4851 28.3347 15.0532 27.5477 13.8206C26.7606 12.588 25.6375 11.6063 24.3107 10.9911C22.9839 10.376 21.5089 10.1532 20.0597 10.3489C18.6104 10.5447 17.2474 11.1509 16.1314 12.096C15.7998 10.5358 15.0293 9.39347 14.5367 8.66322L14.46 8.54822C16.1821 7.3343 18.2045 6.61677 20.3066 6.47398C22.4086 6.3312 24.5095 6.76863 26.3799 7.73853C28.2503 8.70843 29.8183 10.1735 30.9127 11.9739C32.0071 13.7742 32.5859 15.8407 32.5859 17.9476H39.2943C40.0568 17.9476 40.788 18.2505 41.3272 18.7896C41.8664 19.3288 42.1693 20.0601 42.1693 20.8226V38.0726C42.1693 38.8351 41.8664 39.5663 41.3272 40.1055C40.788 40.6447 40.0568 40.9476 39.2943 40.9476H22.0443C21.2818 40.9476 20.5505 40.6447 20.0113 40.1055C19.4722 39.5663 19.1693 38.8351 19.1693 38.0726V29.2885ZM23.0026 29.2885V37.1142H38.3359V21.7809H31.9324C31.2472 23.7144 30.058 25.4298 28.4878 26.7497C26.9175 28.0695 25.0232 28.946 23.0007 29.2885M27.7272 21.7809H23.0026V25.3727C23.989 25.1173 24.9147 24.6681 25.7258 24.0515C26.5369 23.4348 27.2172 22.663 27.7272 21.7809Z" fill="#A0A2A6"/>
</svg>
