<svg width="79" height="68" viewBox="0 0 79 68" fill="none" xmlns="http://www.w3.org/2000/svg">
<path d="M28.648 34.0971C23.0324 34.0971 18.5037 29.5684 18.5037 23.9529C18.5037 18.4279 23.0324 13.8086 28.648 13.8086C34.173 13.8086 38.7922 18.4279 38.7922 23.9529C38.7922 29.5684 34.173 34.0971 28.648 34.0971ZM35.5316 36.9955C41.3283 36.9955 46.0381 41.7053 46.0381 47.5021V50.0381C46.0381 52.4836 44.0455 54.3857 41.6906 54.3857H15.6054C13.1599 54.3857 11.2578 52.4836 11.2578 50.0381V47.5021C11.2578 41.7053 15.8771 36.9955 21.6738 36.9955H22.3984C24.3004 37.9012 26.3836 38.4447 28.648 38.4447C30.8218 38.4447 32.9049 37.9012 34.807 36.9955H35.5316ZM54.7332 34.0971C49.9328 34.0971 46.0381 30.2025 46.0381 25.4021C46.0381 20.6016 49.9328 16.707 54.7332 16.707C59.5336 16.707 63.4283 20.6016 63.4283 25.4021C63.4283 30.2025 59.5336 34.0971 54.7332 34.0971ZM59.0808 36.9955C64.6058 36.9955 69.225 41.6148 69.225 47.1398C69.225 49.5853 67.2324 51.4873 64.8775 51.4873H48.8459C48.8459 51.3062 48.9365 51.125 48.9365 50.9439V47.5021C48.9365 43.9697 47.4873 40.7996 45.3136 38.4447C46.7627 37.5389 48.4836 36.9955 50.3857 36.9955H50.6574C51.9254 37.4484 53.2841 37.7201 54.7332 37.7201C56.0918 37.7201 57.4504 37.4484 58.7185 36.9955H59.0808Z" fill="white"/>
</svg>
