<svg width="48" height="50" viewBox="0 0 48 50" fill="none" xmlns="http://www.w3.org/2000/svg">
<rect x="17" width="30" height="30" rx="5" fill="#20C897"/>
<path d="M17.2031 34.5469V38.7031C17.2031 40.3385 17.0104 41.7604 16.625 42.9688C16.25 44.1771 15.7083 45.1771 15 45.9688C14.3021 46.7604 13.4688 47.349 12.5 47.7344C11.5312 48.1198 10.4635 48.3125 9.29688 48.3125C8.35938 48.3125 7.48438 48.1927 6.67188 47.9531C5.85938 47.7031 5.125 47.3281 4.46875 46.8281C3.82292 46.3177 3.26562 45.6823 2.79688 44.9219C2.32812 44.1615 1.96875 43.2656 1.71875 42.2344C1.46875 41.1927 1.34375 40.0156 1.34375 38.7031V34.5469C1.34375 32.901 1.53125 31.4792 1.90625 30.2812C2.29167 29.0729 2.83854 28.0729 3.54688 27.2812C4.25521 26.4896 5.09375 25.901 6.0625 25.5156C7.03125 25.1302 8.09896 24.9375 9.26562 24.9375C10.2031 24.9375 11.0729 25.0625 11.875 25.3125C12.6875 25.5521 13.4219 25.9271 14.0781 26.4375C14.7344 26.9375 15.2917 27.5677 15.75 28.3281C16.2188 29.0885 16.5781 29.9896 16.8281 31.0312C17.0781 32.0625 17.2031 33.2344 17.2031 34.5469ZM11.9375 39.3438V33.875C11.9375 33.1458 11.8958 32.5104 11.8125 31.9688C11.7396 31.4271 11.625 30.9688 11.4688 30.5938C11.3229 30.2188 11.1406 29.9167 10.9219 29.6875C10.7031 29.4479 10.4531 29.276 10.1719 29.1719C9.90104 29.0573 9.59896 29 9.26562 29C8.84896 29 8.47396 29.0885 8.14062 29.2656C7.81771 29.4323 7.54167 29.7031 7.3125 30.0781C7.08333 30.4531 6.90625 30.9531 6.78125 31.5781C6.66667 32.2031 6.60938 32.9688 6.60938 33.875V39.3438C6.60938 40.0833 6.64583 40.7292 6.71875 41.2812C6.80208 41.8229 6.91667 42.2865 7.0625 42.6719C7.21875 43.0469 7.40625 43.3542 7.625 43.5938C7.84375 43.8229 8.09375 43.9896 8.375 44.0938C8.65625 44.1979 8.96354 44.25 9.29688 44.25C9.70312 44.25 10.0677 44.1667 10.3906 44C10.7135 43.8333 10.9896 43.5625 11.2188 43.1875C11.4583 42.8021 11.6354 42.2969 11.75 41.6719C11.875 41.0365 11.9375 40.2604 11.9375 39.3438ZM24.7656 34.4219H27.3281C27.9844 34.4219 28.5208 34.3073 28.9375 34.0781C29.3646 33.8385 29.6823 33.5052 29.8906 33.0781C30.099 32.6406 30.2031 32.125 30.2031 31.5312C30.2031 31.0729 30.1042 30.651 29.9062 30.2656C29.7188 29.8802 29.4271 29.5729 29.0312 29.3438C28.6354 29.1042 28.1302 28.9844 27.5156 28.9844C27.099 28.9844 26.6927 29.0729 26.2969 29.25C25.901 29.4167 25.5729 29.6562 25.3125 29.9688C25.0625 30.2812 24.9375 30.6615 24.9375 31.1094H19.6562C19.6562 29.8177 20.0104 28.7135 20.7188 27.7969C21.4375 26.8698 22.3802 26.1615 23.5469 25.6719C24.724 25.1719 25.9896 24.9219 27.3438 24.9219C28.9583 24.9219 30.375 25.1719 31.5938 25.6719C32.8125 26.1615 33.7604 26.8906 34.4375 27.8594C35.125 28.8177 35.4688 30.0052 35.4688 31.4219C35.4688 32.2031 35.2865 32.9375 34.9219 33.625C34.5573 34.3125 34.0469 34.9167 33.3906 35.4375C32.7344 35.9583 31.9635 36.3698 31.0781 36.6719C30.2031 36.9635 29.2448 37.1094 28.2031 37.1094H24.7656V34.4219ZM24.7656 38.3438V35.7188H28.2031C29.3385 35.7188 30.375 35.849 31.3125 36.1094C32.25 36.3594 33.0573 36.7344 33.7344 37.2344C34.4115 37.7344 34.9323 38.3542 35.2969 39.0938C35.6615 39.8229 35.8438 40.6615 35.8438 41.6094C35.8438 42.6719 35.6302 43.6198 35.2031 44.4531C34.776 45.2865 34.1771 45.9896 33.4062 46.5625C32.6354 47.1354 31.7344 47.5729 30.7031 47.875C29.6719 48.1667 28.5521 48.3125 27.3438 48.3125C26.3958 48.3125 25.4479 48.1875 24.5 47.9375C23.5521 47.6771 22.6875 47.2812 21.9062 46.75C21.125 46.2083 20.4948 45.5208 20.0156 44.6875C19.5469 43.8438 19.3125 42.8385 19.3125 41.6719H24.5938C24.5938 42.151 24.724 42.5885 24.9844 42.9844C25.2552 43.3698 25.6146 43.6771 26.0625 43.9062C26.5104 44.1354 26.9948 44.25 27.5156 44.25C28.1615 44.25 28.7083 44.1302 29.1562 43.8906C29.6146 43.6406 29.9635 43.3073 30.2031 42.8906C30.4427 42.474 30.5625 42.0104 30.5625 41.5C30.5625 40.7292 30.4323 40.1146 30.1719 39.6562C29.9219 39.1979 29.5521 38.8646 29.0625 38.6562C28.5833 38.4479 28.0052 38.3438 27.3281 38.3438H24.7656Z" fill="#0D4C8F"/>
<path d="M38.9531 45.5312C38.9531 44.7812 39.224 44.1562 39.7656 43.6562C40.3073 43.1458 41.0052 42.8906 41.8594 42.8906C42.724 42.8906 43.4219 43.1458 43.9531 43.6562C44.4948 44.1562 44.7656 44.7812 44.7656 45.5312C44.7656 46.2812 44.4948 46.9115 43.9531 47.4219C43.4219 47.9219 42.724 48.1719 41.8594 48.1719C41.0052 48.1719 40.3073 47.9219 39.7656 47.4219C39.224 46.9115 38.9531 46.2812 38.9531 45.5312Z" fill="#20C897"/>
</svg>
