<svg width="51" height="51" viewBox="0 0 51 51" fill="none" xmlns="http://www.w3.org/2000/svg">
<path d="M38.25 33.4688C37.4531 33.4688 36.6562 33.15 36.0188 32.5125L31.2375 27.7312C30.6 27.0938 30.2812 26.2969 30.2812 25.5C30.2812 24.7031 30.6 23.9062 31.2375 23.2688L36.0188 18.4875C36.6562 17.85 37.4531 17.5312 38.25 17.5312C39.0469 17.5312 39.8438 17.85 40.4813 18.4875L45.2625 23.2688C45.9 23.9062 46.2188 24.7031 46.2188 25.5C46.2188 26.2969 45.9 27.0938 45.2625 27.7312L40.4813 32.5125C39.8438 33.15 39.0469 33.4688 38.25 33.4688ZM38.25 20.7188L33.4688 25.5L38.25 30.2812L43.0312 25.5L38.25 20.7188ZM25.5 20.7188C24.7031 20.7188 23.9062 20.4 23.2688 19.7625L18.4875 14.9812C17.85 14.3437 17.5312 13.5469 17.5312 12.75C17.5312 11.9531 17.85 11.1562 18.4875 10.5187L23.2688 5.7375C23.9062 5.1 24.7031 4.78125 25.5 4.78125C26.2969 4.78125 27.0938 5.1 27.7312 5.7375L32.5125 10.5187C33.15 11.1562 33.4688 11.9531 33.4688 12.75C33.4688 13.5469 33.15 14.3437 32.5125 14.9812L27.7312 19.7625C27.0938 20.4 26.2969 20.7188 25.5 20.7188ZM25.5 7.96875L20.7188 12.75L25.5 17.5312L30.2812 12.75L25.5 7.96875ZM25.5 46.2188C24.7031 46.2188 23.9062 45.9 23.2688 45.2625L18.4875 40.4813C17.85 39.8438 17.5312 39.0469 17.5312 38.25C17.5312 37.4531 17.85 36.6562 18.4875 36.0188L23.2688 31.2375C23.9062 30.6 24.7031 30.2812 25.5 30.2812C26.2969 30.2812 27.0938 30.6 27.7312 31.2375L32.5125 36.0188C33.15 36.6562 33.4688 37.4531 33.4688 38.25C33.4688 39.0469 33.15 39.8438 32.5125 40.4813L27.7312 45.2625C27.0938 45.9 26.2969 46.2188 25.5 46.2188ZM25.5 33.4688L20.7188 38.25L25.5 43.0312L30.2812 38.25L25.5 33.4688ZM12.75 33.4688C11.9531 33.4688 11.1562 33.15 10.5187 32.5125L5.7375 27.7312C5.1 27.0938 4.78125 26.2969 4.78125 25.5C4.78125 24.7031 5.1 23.9062 5.7375 23.2688L10.5187 18.4875C11.1562 17.85 11.9531 17.5312 12.75 17.5312C13.5469 17.5312 14.3437 17.85 14.9812 18.4875L19.7625 23.2688C20.4 23.9062 20.7188 24.7031 20.7188 25.5C20.7188 26.2969 20.4 27.0938 19.7625 27.7312L14.9812 32.5125C14.3437 33.15 13.5469 33.4688 12.75 33.4688ZM12.75 20.7188L7.96875 25.5L12.75 30.2812L17.5312 25.5L12.75 20.7188Z" fill="white"/>
</svg>
