<svg width="80" height="72" viewBox="0 0 80 72" fill="none" xmlns="http://www.w3.org/2000/svg">
<rect x="34.0625" y="0.808105" width="40.1667" height="40" rx="5" fill="#20C897"/>
<path d="M44.6252 22.1185H15.5527C12.5421 22.1185 10.1016 24.5591 10.1016 27.5696V56.6422C10.1016 59.6527 12.5421 62.0933 15.5527 62.0933H44.6252C47.6358 62.0933 50.0763 59.6527 50.0763 56.6422V27.5696C50.0763 24.5591 47.6358 22.1185 44.6252 22.1185Z" stroke="white" stroke-width="3.63407" stroke-linejoin="round"/>
<path d="M40.9925 29.3866H19.1881C18.1846 29.3866 17.3711 30.2001 17.3711 31.2036V53.008C17.3711 54.0116 18.1846 54.8251 19.1881 54.8251H40.9925C41.9961 54.8251 42.8096 54.0116 42.8096 53.008V31.2036C42.8096 30.2001 41.9961 29.3866 40.9925 29.3866Z" stroke="white" stroke-width="3.63407" stroke-linejoin="round"/>
<path d="M30.0902 22.1184V18.4844M39.1754 22.1184V18.4844M21.005 22.1184V18.4844M30.0902 65.7273V62.0932M39.1754 65.7273V62.0932M21.005 65.7273V62.0932M50.0776 42.1058H53.7116M50.0776 51.191H53.7116M50.0776 33.0206H53.7116M6.46875 42.1058H10.1028M6.46875 51.191H10.1028M6.46875 33.0206H10.1028" stroke="white" stroke-width="3.63407" stroke-linecap="round" stroke-linejoin="round"/>
</svg>
