<svg width="52" height="50" viewBox="0 0 52 50" fill="none" xmlns="http://www.w3.org/2000/svg">
<rect x="21.5469" width="30.125" height="30" rx="5" fill="#20C897"/>
<path d="M37 48L45.365 39.635C45.6112 39.3891 45.7497 39.0555 45.75 38.7075V27.2188C45.75 26.3485 45.4043 25.5139 44.7889 24.8986C44.1736 24.2832 43.339 23.9375 42.4688 23.9375C41.5985 23.9375 40.7639 24.2832 40.1486 24.8986C39.5332 25.5139 39.1875 26.3485 39.1875 27.2188V37.0625" stroke="white" stroke-width="2.8" stroke-linecap="round" stroke-linejoin="round"/>
<path d="M37 39.25L38.8769 37.3731C38.9759 37.2749 39.0543 37.158 39.1077 37.0292C39.161 36.9004 39.1881 36.7622 39.1875 36.6228C39.186 36.4264 39.1305 36.2341 39.0271 36.0671C38.9237 35.9 38.7764 35.7646 38.6013 35.6756L37.6322 35.1922C36.8112 34.7817 35.8819 34.6398 34.9758 34.7866C34.0697 34.9335 33.2328 35.3616 32.5834 36.0103L30.6256 37.9681C29.8051 38.7884 29.344 39.901 29.3438 41.0612V48M10.75 48L2.385 39.635C2.13879 39.3891 2.00031 39.0555 2 38.7075V27.2188C2 26.3485 2.3457 25.5139 2.96106 24.8986C3.57641 24.2832 4.41101 23.9375 5.28125 23.9375C6.15149 23.9375 6.98609 24.2832 7.60144 24.8986C8.2168 25.5139 8.5625 26.3485 8.5625 27.2188V37.0625" stroke="white" stroke-width="2.8" stroke-linecap="round" stroke-linejoin="round"/>
<path d="M10.75 39.25L8.87313 37.3731C8.67713 37.1722 8.56592 36.9035 8.5625 36.6228C8.5625 36.2225 8.79 35.8572 9.14875 35.6756L10.1178 35.1922C10.9388 34.7817 11.8681 34.6398 12.7742 34.7866C13.6803 34.9335 14.5172 35.3616 15.1666 36.0103L17.1244 37.9681C17.9449 38.7884 18.406 39.901 18.4062 41.0612V48M27.5216 30.5H20.2284V25.3966H15.125V18.1034H20.2284V13H27.5216V18.1034H32.625V25.3966H27.5216V30.5Z" stroke="white" stroke-width="2.8" stroke-linecap="round" stroke-linejoin="round"/>
</svg>
