<svg width="33" height="33" viewBox="0 0 33 33" fill="none" xmlns="http://www.w3.org/2000/svg">
<path fill-rule="evenodd" clip-rule="evenodd" d="M14.8988 4.67517C15.4936 4.31495 16.1756 4.12451 16.8709 4.12451C17.5662 4.12451 18.2483 4.31495 18.843 4.67517L20.2435 5.5318C22.2083 6.73286 24.4461 7.0003 26.6943 7.2698C27.4209 7.35711 28.1483 7.44373 28.8681 7.56267C28.8681 7.56267 28.8839 8.82355 28.8675 9.39555L28.7238 14.3119C28.6 18.5283 26.7252 22.5261 23.5091 25.4315C21.9918 26.8017 20.4222 28.0399 18.6189 29.0684C18.0875 29.369 17.4916 29.5376 16.8814 29.56C16.2713 29.5824 15.6647 29.4578 15.1126 29.1969C13.0302 28.2069 11.1863 26.9515 9.50264 25.4315C6.28651 22.5261 4.4117 18.5283 4.28864 14.3119L4.14564 9.41136C4.12845 8.83111 4.14564 7.56267 4.14564 7.56267C4.73001 7.49392 5.32539 7.43686 5.92558 7.3798C8.57451 7.12817 11.3115 6.8683 13.5568 5.49605L14.8988 4.67517ZM15.125 15.1252V10.3127H17.875V15.1252H22.6875V17.8752H17.875V22.6877H15.125V17.8752H10.3125V15.1252H15.125Z" fill="#D9D9D9"/>
</svg>
