<svg width="48" height="51" viewBox="0 0 48 51" fill="none" xmlns="http://www.w3.org/2000/svg">
<rect x="16.4844" width="30.125" height="30" rx="5" fill="#20C897"/>
<path d="M10 22C10 22 4.857 24 4 31M38 22C38 22 43.143 24 44 31M18 22C18 22 22.8 23.167 24 29C25.2 23.167 30 22 30 22M20 37C20 37 15.8 37.75 14 43M28 37C28 37 32.2 37.75 34 43" stroke="white" stroke-width="3" stroke-linecap="round"/>
<path d="M24 39C26.7614 39 29 36.7614 29 34C29 31.2386 26.7614 29 24 29C21.2386 29 19 31.2386 19 34C19 36.7614 21.2386 39 24 39Z" stroke="white" stroke-width="3" stroke-linecap="round" stroke-linejoin="round"/>
<path d="M34 23C37.3137 23 40 20.3137 40 17C40 13.6863 37.3137 11 34 11C30.6863 11 28 13.6863 28 17C28 20.3137 30.6863 23 34 23Z" stroke="white" stroke-width="3" stroke-linecap="round" stroke-linejoin="round"/>
<path d="M14 23C17.3137 23 20 20.3137 20 17C20 13.6863 17.3137 11 14 11C10.6863 11 8 13.6863 8 17C8 20.3137 10.6863 23 14 23Z" stroke="white" stroke-width="3" stroke-linecap="round" stroke-linejoin="round"/>
</svg>
