<svg width="88" height="70" viewBox="0 0 88 70" fill="none" xmlns="http://www.w3.org/2000/svg">
<path d="M26.6 34.75C18.1234 34.75 11.2875 27.9141 11.2875 19.4375C11.2875 11.0977 18.1234 4.125 26.6 4.125C34.9398 4.125 41.9125 11.0977 41.9125 19.4375C41.9125 27.9141 34.9398 34.75 26.6 34.75ZM36.9906 39.125C45.7406 39.125 52.85 46.2344 52.85 54.9844V58.8125C52.85 62.5039 49.8422 65.375 46.2875 65.375H6.9125C3.22109 65.375 0.349998 62.5039 0.349998 58.8125V54.9844C0.349998 46.2344 7.32265 39.125 16.0727 39.125H17.1664C20.0375 40.4922 23.182 41.3125 26.6 41.3125C29.8812 41.3125 33.0258 40.4922 35.8969 39.125H36.9906ZM65.975 34.75C58.7289 34.75 52.85 28.8711 52.85 21.625C52.85 14.3789 58.7289 8.5 65.975 8.5C73.2211 8.5 79.1 14.3789 79.1 21.625C79.1 28.8711 73.2211 34.75 65.975 34.75ZM72.5375 39.125C80.8773 39.125 87.85 46.0977 87.85 54.4375C87.85 58.1289 84.8422 61 81.2875 61H57.0883C57.0883 60.7266 57.225 60.4531 57.225 60.1797V54.9844C57.225 49.6523 55.0375 44.8672 51.7562 41.3125C53.9437 39.9453 56.5414 39.125 59.4125 39.125H59.8227C61.7367 39.8086 63.7875 40.2188 65.975 40.2188C68.0258 40.2188 70.0766 39.8086 71.9906 39.125H72.5375Z" fill="#0D4C8F"/>
</svg>
