<svg width="67" height="69" viewBox="0 0 67 69" fill="none" xmlns="http://www.w3.org/2000/svg">
<path d="M44.5421 44.3147C45.7196 46.7601 47.2593 48.9339 49.1614 50.7454C45.1761 54.6401 39.6511 56.995 33.6732 56.995C27.6048 56.995 22.0798 54.6401 18.0945 50.7454C19.9966 48.8433 21.5364 46.7601 22.7138 44.3147L20.0872 43.0466C19.0909 45.1298 17.7323 46.9413 16.1019 48.5716C13.0224 44.7675 11.2109 39.8765 11.2109 34.5327C11.2109 29.2794 13.0224 24.3884 16.1019 20.5843C17.7323 22.1241 19.0003 23.9355 19.9966 25.9282L22.6232 24.6601C21.4458 22.3052 19.906 20.222 18.004 18.4105C22.0798 14.5159 27.6048 12.0704 33.6732 12.0704C39.7417 12.0704 45.1761 14.5159 49.2519 18.4105C47.3499 20.222 45.8101 22.3052 44.6327 24.6601L47.2593 25.9282C48.2556 23.9355 49.5237 22.1241 51.154 20.5843C54.2335 24.3884 56.045 29.2794 56.045 34.5327C56.045 39.8765 54.2335 44.7675 51.154 48.5716C49.5237 47.0319 48.165 45.1298 47.1687 43.0466L44.5421 44.3147ZM23.8913 41.4163C25.431 36.5253 25.1593 31.6343 23.8007 27.5585L21.0835 28.4642C22.2609 32.0872 22.4421 36.3442 21.0835 40.6011L23.8913 41.4163ZM43.4552 27.5585C42.0966 31.6343 41.8249 36.6159 43.3646 41.5069L46.1724 40.6011C44.8138 36.3442 44.995 32.0872 46.1724 28.4642L43.4552 27.5585Z" fill="white"/>
</svg>
