<svg width="48" height="50" viewBox="0 0 48 50" fill="none" xmlns="http://www.w3.org/2000/svg">
<rect x="16" width="30" height="30" rx="5" fill="#20C897"/>
<path d="M17.2031 34.5469V38.7031C17.2031 40.3385 17.0104 41.7604 16.625 42.9688C16.25 44.1771 15.7083 45.1771 15 45.9688C14.3021 46.7604 13.4688 47.349 12.5 47.7344C11.5312 48.1198 10.4635 48.3125 9.29688 48.3125C8.35938 48.3125 7.48438 48.1927 6.67188 47.9531C5.85938 47.7031 5.125 47.3281 4.46875 46.8281C3.82292 46.3177 3.26562 45.6823 2.79688 44.9219C2.32812 44.1615 1.96875 43.2656 1.71875 42.2344C1.46875 41.1927 1.34375 40.0156 1.34375 38.7031V34.5469C1.34375 32.901 1.53125 31.4792 1.90625 30.2812C2.29167 29.0729 2.83854 28.0729 3.54688 27.2812C4.25521 26.4896 5.09375 25.901 6.0625 25.5156C7.03125 25.1302 8.09896 24.9375 9.26562 24.9375C10.2031 24.9375 11.0729 25.0625 11.875 25.3125C12.6875 25.5521 13.4219 25.9271 14.0781 26.4375C14.7344 26.9375 15.2917 27.5677 15.75 28.3281C16.2188 29.0885 16.5781 29.9896 16.8281 31.0312C17.0781 32.0625 17.2031 33.2344 17.2031 34.5469ZM11.9375 39.3438V33.875C11.9375 33.1458 11.8958 32.5104 11.8125 31.9688C11.7396 31.4271 11.625 30.9688 11.4688 30.5938C11.3229 30.2188 11.1406 29.9167 10.9219 29.6875C10.7031 29.4479 10.4531 29.276 10.1719 29.1719C9.90104 29.0573 9.59896 29 9.26562 29C8.84896 29 8.47396 29.0885 8.14062 29.2656C7.81771 29.4323 7.54167 29.7031 7.3125 30.0781C7.08333 30.4531 6.90625 30.9531 6.78125 31.5781C6.66667 32.2031 6.60938 32.9688 6.60938 33.875V39.3438C6.60938 40.0833 6.64583 40.7292 6.71875 41.2812C6.80208 41.8229 6.91667 42.2865 7.0625 42.6719C7.21875 43.0469 7.40625 43.3542 7.625 43.5938C7.84375 43.8229 8.09375 43.9896 8.375 44.0938C8.65625 44.1979 8.96354 44.25 9.29688 44.25C9.70312 44.25 10.0677 44.1667 10.3906 44C10.7135 43.8333 10.9896 43.5625 11.2188 43.1875C11.4583 42.8021 11.6354 42.2969 11.75 41.6719C11.875 41.0365 11.9375 40.2604 11.9375 39.3438ZM35.8438 43.9375V48H19.9688V44.5625L27.2812 36.875C27.9271 36.1354 28.4479 35.474 28.8438 34.8906C29.2396 34.2969 29.526 33.7604 29.7031 33.2812C29.8906 32.8021 29.9844 32.3698 29.9844 31.9844C29.9844 31.3281 29.8854 30.7812 29.6875 30.3438C29.5 29.8958 29.2188 29.5573 28.8438 29.3281C28.4792 29.099 28.026 28.9844 27.4844 28.9844C26.9427 28.9844 26.4688 29.1406 26.0625 29.4531C25.6562 29.7656 25.3385 30.1927 25.1094 30.7344C24.8906 31.276 24.7812 31.8854 24.7812 32.5625H19.5C19.5 31.1667 19.8385 29.8906 20.5156 28.7344C21.2031 27.5781 22.1562 26.6562 23.375 25.9688C24.5938 25.2708 26.0052 24.9219 27.6094 24.9219C29.2865 24.9219 30.6927 25.1823 31.8281 25.7031C32.9635 26.224 33.8177 26.9792 34.3906 27.9688C34.974 28.9479 35.2656 30.1302 35.2656 31.5156C35.2656 32.3073 35.1406 33.0677 34.8906 33.7969C34.6406 34.526 34.2812 35.25 33.8125 35.9688C33.3438 36.6771 32.7708 37.4062 32.0938 38.1562C31.4271 38.9062 30.6667 39.7031 29.8125 40.5469L26.875 43.9375H35.8438Z" fill="#0D4C8F"/>
<path d="M38.9531 45.5312C38.9531 44.7812 39.224 44.1562 39.7656 43.6562C40.3073 43.1458 41.0052 42.8906 41.8594 42.8906C42.724 42.8906 43.4219 43.1458 43.9531 43.6562C44.4948 44.1562 44.7656 44.7812 44.7656 45.5312C44.7656 46.2812 44.4948 46.9115 43.9531 47.4219C43.4219 47.9219 42.724 48.1719 41.8594 48.1719C41.0052 48.1719 40.3073 47.9219 39.7656 47.4219C39.224 46.9115 38.9531 46.2812 38.9531 45.5312Z" fill="#20C897"/>
</svg>
