<svg width="54" height="51" viewBox="0 0 54 51" fill="none" xmlns="http://www.w3.org/2000/svg">
<rect x="24.6719" width="28.5714" height="30" rx="5" fill="#20C897"/>
<path d="M25.3125 43.9688C26.0892 43.9688 26.7188 43.3392 26.7188 42.5625C26.7188 41.7858 26.0892 41.1562 25.3125 41.1562C24.5358 41.1562 23.9062 41.7858 23.9062 42.5625C23.9062 43.3392 24.5358 43.9688 25.3125 43.9688Z" fill="#0D4C8F"/>
<path d="M39.375 34.125C40.9261 34.125 42.1875 32.8636 42.1875 31.3125V25.6875C42.1875 24.1378 40.9261 22.875 39.375 22.875H37.9688V15.8438C37.9688 14.2941 36.7073 13.0312 35.1562 13.0312H28.125V11.625C28.125 10.0753 26.8636 8.8125 25.3125 8.8125H19.6875C18.1364 8.8125 16.875 10.0753 16.875 11.625V13.0312H9.84375C8.29266 13.0312 7.03125 14.2941 7.03125 15.8438V23.0747C4.6125 23.7033 2.8125 25.8872 2.8125 28.5C2.8125 31.1128 4.6125 33.2953 7.03125 33.9253V41.1562C7.03125 42.7073 8.29266 43.9688 9.84375 43.9688H19.6875V45.375C19.6875 46.9261 20.9489 48.1875 22.5 48.1875H39.375C40.9261 48.1875 42.1875 46.9261 42.1875 45.375V39.75C42.1875 38.2003 40.9261 36.9375 39.375 36.9375H37.9688V34.125H39.375ZM39.375 31.3125H33.75V25.6875H39.375V31.3125ZM19.6875 11.625H25.3125V17.25H19.6875V11.625ZM16.875 15.8438V17.25C16.875 18.8011 18.1364 20.0625 19.6875 20.0625H25.3125C26.8636 20.0625 28.125 18.8011 28.125 17.25V15.8438H35.1562V22.875H33.75C32.1989 22.875 30.9375 24.1378 30.9375 25.6875V27.0938H13.8628C13.6101 26.1273 13.1046 25.2456 12.3983 24.5392C11.6919 23.8329 10.8102 23.3274 9.84375 23.0747V15.8438H16.875ZM5.625 28.5C5.625 26.9503 6.88641 25.6875 8.4375 25.6875C9.98859 25.6875 11.25 26.9503 11.25 28.5C11.25 30.0497 9.98859 31.3125 8.4375 31.3125C6.88641 31.3125 5.625 30.0511 5.625 28.5ZM39.375 45.375H22.5V39.75H39.375V45.375ZM35.1562 36.9375H22.5C20.9489 36.9375 19.6875 38.2003 19.6875 39.75V41.1562H9.84375V33.9253C10.8102 33.6726 11.6919 33.1671 12.3983 32.4608C13.1046 31.7544 13.6101 30.8727 13.8628 29.9062H30.9375V31.3125C30.9375 32.8636 32.1989 34.125 33.75 34.125H35.1562V36.9375Z" fill="#0D4C8F"/>
</svg>
