<svg width="26" height="25" viewBox="0 0 26 25" fill="none" xmlns="http://www.w3.org/2000/svg">
<rect x="10.0817" width="15.9184" height="15.9184" rx="2.65306" fill="#20C897"/>
<path d="M0.832886 20.4017L4.32431 23.3117C4.83776 23.7392 5.48478 23.9732 6.15289 23.9731H15.3572C16.0143 23.9731 16.5472 23.4403 16.5472 22.7831C16.5472 21.4688 15.4815 20.4017 14.1657 20.4017H7.76717M11.8786 6.47311C11.6892 6.47311 11.5075 6.54836 11.3735 6.68232C11.2396 6.81627 11.1643 6.99795 11.1643 7.18739V9.19739H9.15574C8.9663 9.19739 8.78462 9.27265 8.65067 9.4066C8.51671 9.54056 8.44146 9.72224 8.44146 9.91168V12.2331C8.44146 12.4225 8.51671 12.6042 8.65067 12.7382C8.78462 12.8721 8.9663 12.9474 9.15574 12.9474H11.1643V14.956C11.1643 15.1454 11.2396 15.3271 11.3735 15.461C11.5075 15.595 11.6892 15.6703 11.8786 15.6703H14.2C14.3895 15.6703 14.5712 15.595 14.7051 15.461C14.8391 15.3271 14.9143 15.1454 14.9143 14.956V12.9474H16.9229C17.1123 12.9474 17.294 12.8721 17.428 12.7382C17.5619 12.6042 17.6372 12.4225 17.6372 12.2331V9.91168C17.6372 9.72224 17.5619 9.54056 17.428 9.4066C17.294 9.27265 17.1123 9.19739 16.9229 9.19739H14.9143V7.18597C14.9143 6.99653 14.8391 6.81484 14.7051 6.68089C14.5712 6.54693 14.3895 6.47168 14.2 6.47168L11.8786 6.47311Z" stroke="#0D4C8F" stroke-width="1.4" stroke-linecap="round" stroke-linejoin="round"/>
<path d="M5.1186 18.9728L6.19003 20.0442C6.33073 20.1849 6.49777 20.2965 6.6816 20.3727C6.86544 20.4488 7.06247 20.488 7.26146 20.488C7.46044 20.488 7.65747 20.4488 7.84131 20.3727C8.02515 20.2965 8.19218 20.1849 8.33289 20.0442C8.47359 19.9035 8.5852 19.7365 8.66135 19.5526C8.73749 19.3688 8.77669 19.1718 8.77669 18.9728C8.77669 18.7738 8.73749 18.5768 8.66135 18.3929C8.5852 18.2091 8.47359 18.0421 8.33289 17.9014L6.67003 16.2385C6.13434 15.7027 5.40773 15.4015 4.65003 15.4014H0.832886" stroke="#0D4C8F" stroke-width="1.4" stroke-linecap="round" stroke-linejoin="round"/>
</svg>
