<svg width="28" height="28" viewBox="0 0 28 28" fill="none" xmlns="http://www.w3.org/2000/svg">
<path fill-rule="evenodd" clip-rule="evenodd" d="M9.37001 4.84387C9.37001 3.61591 9.85781 2.43826 10.7261 1.56996C11.5944 0.701669 12.7721 0.213867 14 0.213867C15.228 0.213867 16.4056 0.701669 17.2739 1.56996C18.1422 2.43826 18.63 3.61591 18.63 4.84387C18.63 6.07182 18.1422 7.24948 17.2739 8.11777C16.4056 8.98606 15.228 9.47387 14 9.47387C12.7721 9.47387 11.5944 8.98606 10.7261 8.11777C9.85781 7.24948 9.37001 6.07182 9.37001 4.84387ZM4.89201 12.4279C5.8345 11.5332 7.08447 11.0343 8.38401 11.0343C9.68355 11.0343 10.9335 11.5332 11.876 12.4279L11.896 12.4479L14 14.5519L16.106 12.4479L16.126 12.4279C17.0683 11.5343 18.3174 11.0362 19.616 11.0362C20.9146 11.0362 22.1637 11.5343 23.106 12.4279C23.5741 12.8718 23.9469 13.4062 24.2019 13.9988C24.4569 14.5913 24.5887 15.2295 24.5892 15.8746C24.5898 16.5196 24.4591 17.1581 24.2052 17.7511C23.9512 18.344 23.5793 18.8792 23.112 19.3239L14.696 27.5039C14.5094 27.6853 14.2593 27.7868 13.999 27.7868C13.7387 27.7868 13.4887 27.6853 13.302 27.5039L4.88801 19.3239C4.42092 18.8793 4.04911 18.3444 3.79517 17.7517C3.54124 17.159 3.41048 16.5208 3.41086 15.876C3.41123 15.2312 3.54273 14.5932 3.79735 14.0008C4.05197 13.4083 4.42441 12.8719 4.89201 12.4279Z" fill="#D9D9D9"/>
</svg>
