<svg width="80" height="69" viewBox="0 0 80 69" fill="none" xmlns="http://www.w3.org/2000/svg">
<path d="M33.9099 40.8204C33.9099 44.8057 28.7734 47.9053 22.5741 47.9053C16.2863 47.9053 11.2383 44.8057 11.2383 40.8204C11.2383 39.492 10.9726 40.2005 18.766 24.7909C20.2715 21.6912 24.7881 21.6912 26.2937 24.7909C33.9985 40.1119 33.8213 39.4034 33.8213 40.8204H33.9099ZM22.5741 26.6507L16.1977 39.4034H28.9505L22.5741 26.6507ZM67.8288 40.8204H67.9173C67.9173 44.8057 62.7808 47.9053 56.5815 47.9053C50.2937 47.9053 45.2457 44.8057 45.2457 40.8204C45.2457 39.492 44.98 40.2005 52.7734 24.7909C54.2789 21.6912 58.7956 21.6912 60.3011 24.7909C68.0059 40.1119 67.8288 39.4034 67.8288 40.8204ZM50.2051 39.4034H62.9579L56.5815 26.6507L50.2051 39.4034ZM57.9985 50.7393C58.707 50.7393 59.4155 51.4477 59.4155 52.1562V54.9902C59.4155 55.7872 58.707 56.4072 57.9985 56.4072H21.1571C20.3601 56.4072 19.7401 55.7872 19.7401 54.9902V52.1562C19.7401 51.4477 20.3601 50.7393 21.1571 50.7393H36.7439V24.7023C34.6184 23.7281 33.0243 21.8684 32.5815 19.5658H21.1571C20.3601 19.5658 19.7401 18.9458 19.7401 18.1488V15.3148C19.7401 14.6064 20.3601 13.8979 21.1571 13.8979H33.9099C35.1498 12.2152 37.1867 11.0639 39.5778 11.0639C41.8804 11.0639 43.9173 12.2152 45.1572 13.8979H57.9985C58.707 13.8979 59.4155 14.6064 59.4155 15.3148V18.1488C59.4155 18.9458 58.707 19.5658 57.9985 19.5658H46.4856C46.0428 21.8684 44.4487 23.7281 42.4118 24.7023V50.7393H57.9985Z" fill="white"/>
</svg>
