<svg width="62" height="62" viewBox="0 0 62 62" fill="none" xmlns="http://www.w3.org/2000/svg">
<g clip-path="url(#clip0_392_3148)">
<path d="M56.3796 0H5.62045C2.51633 0 0 2.51633 0 5.62045V56.3796C0 59.4837 2.51633 62 5.62045 62H56.3796C59.4837 62 62 59.4837 62 56.3796V5.62045C62 2.51633 59.4837 0 56.3796 0Z" fill="#DC395F"/>
<path d="M20.7173 19.5069C22.7783 19.5069 24.5049 17.8916 24.5049 15.7744C24.5049 13.6586 22.7783 12.0435 20.7173 12.0435C18.6563 12.0435 16.9302 13.6586 16.9302 15.7744C16.9302 17.8913 18.6563 19.5069 20.7173 19.5069ZM12.8641 39.4923C12.6416 40.4392 12.5299 41.4617 12.5299 42.2958C12.5299 45.5826 14.3122 47.7644 18.0997 47.7644C21.2409 47.7644 23.7875 45.8991 25.6211 42.887L24.5015 47.3803H30.739L34.304 33.0818C35.1953 29.4616 36.9218 27.5824 39.5399 27.5824C41.6006 27.5824 42.8816 28.8641 42.8816 30.9799C42.8816 31.5928 42.8259 32.2605 42.6031 32.9849L40.7649 39.5572C40.4863 40.5041 40.3754 41.4516 40.3754 42.3421C40.3754 45.4622 42.2129 47.7443 46.0562 47.7443C49.3424 47.7443 51.96 45.6288 53.4083 40.5601L50.9578 39.6141C49.7323 43.0098 48.674 43.6237 47.8384 43.6237C47.0029 43.6237 46.5573 43.0672 46.5573 41.9539C46.5573 41.4525 46.6691 40.8962 46.8358 40.2263L48.6185 33.8234C49.0639 32.3199 49.2312 30.9866 49.2312 29.7617C49.2312 24.9717 46.3347 22.4718 42.8259 22.4718C39.5399 22.4718 36.1977 25.4359 34.5271 28.5556L35.7521 22.9562H26.2283L24.8914 27.8881H29.3474L26.6034 38.8737C24.4487 43.6637 20.4906 43.7414 19.9939 43.6303C19.1782 43.4462 18.6565 43.1365 18.6565 42.0766C18.6565 41.4651 18.7679 40.5867 19.0465 39.5276L23.2242 22.9562H12.6416L11.3047 27.8881H15.7045L12.8641 39.4923Z" fill="white"/>
</g>
<defs>
<clipPath id="clip0_392_3148">
<rect width="62" height="62" fill="white"/>
</clipPath>
</defs>
</svg>
