<svg width="542" height="504" viewBox="0 0 542 504" fill="none" xmlns="http://www.w3.org/2000/svg">
<mask id="path-1-outside-1_2_6285" maskUnits="userSpaceOnUse" x="392" y="16.9817" width="141" height="97" fill="black">
<rect fill="white" x="392" y="16.9817" width="141" height="97"/>
<path d="M455.5 57.4817V73.2317C455.5 80.065 454.771 85.9609 453.312 90.9192C451.854 95.8359 449.75 99.8775 447 103.044C444.292 106.169 441.062 108.482 437.312 109.982C433.562 111.482 429.396 112.232 424.812 112.232C421.146 112.232 417.729 111.773 414.562 110.857C411.396 109.898 408.542 108.419 406 106.419C403.5 104.419 401.333 101.898 399.5 98.8567C397.708 95.7734 396.333 92.1067 395.375 87.8567C394.417 83.6067 393.938 78.7317 393.938 73.2317V57.4817C393.938 50.6484 394.667 44.7942 396.125 39.9192C397.625 35.0025 399.729 30.9817 402.438 27.8567C405.188 24.7317 408.438 22.44 412.188 20.9817C415.938 19.4817 420.104 18.7317 424.688 18.7317C428.354 18.7317 431.75 19.2109 434.875 20.1692C438.042 21.0859 440.896 22.5234 443.438 24.4817C445.979 26.44 448.146 28.9609 449.938 32.0442C451.729 35.0859 453.104 38.7317 454.062 42.9817C455.021 47.19 455.5 52.0234 455.5 57.4817ZM437.438 75.6067V55.0442C437.438 51.7525 437.25 48.8775 436.875 46.4192C436.542 43.9609 436.021 41.8775 435.312 40.1692C434.604 38.4192 433.729 37.0025 432.688 35.9192C431.646 34.8359 430.458 34.0442 429.125 33.5442C427.792 33.0442 426.312 32.7942 424.688 32.7942C422.646 32.7942 420.833 33.19 419.25 33.9817C417.708 34.7734 416.396 36.0442 415.312 37.7942C414.229 39.5025 413.396 41.7942 412.812 44.6692C412.271 47.5025 412 50.9609 412 55.0442V75.6067C412 78.8984 412.167 81.7942 412.5 84.2942C412.875 86.7942 413.417 88.94 414.125 90.7317C414.875 92.4817 415.75 93.9192 416.75 95.0442C417.792 96.1275 418.979 96.9192 420.312 97.4192C421.688 97.9192 423.188 98.1692 424.812 98.1692C426.812 98.1692 428.583 97.7734 430.125 96.9817C431.708 96.1484 433.042 94.8567 434.125 93.1067C435.25 91.315 436.083 88.9817 436.625 86.1067C437.167 83.2317 437.438 79.7317 437.438 75.6067ZM531.5 76.9817V91.1067H465.938L465.062 80.1692L503 19.9817H517.312L501.812 45.9192L482.938 76.9817H531.5ZM521.188 19.9817V110.982H503.188V19.9817H521.188Z"/>
</mask>
<path d="M453.312 90.9192L454.271 91.2036L454.272 91.2014L453.312 90.9192ZM447 103.044L446.245 102.389L446.244 102.389L447 103.044ZM414.562 110.857L414.273 111.814L414.284 111.817L414.562 110.857ZM406 106.419L405.375 107.2L405.382 107.205L406 106.419ZM399.5 98.8567L398.635 99.3591L398.639 99.366L398.644 99.3729L399.5 98.8567ZM395.375 87.8567L394.399 88.0767L395.375 87.8567ZM396.125 39.9192L395.169 39.6274L395.167 39.6326L396.125 39.9192ZM402.438 27.8567L401.687 27.196L401.682 27.2018L402.438 27.8567ZM412.188 20.9817L412.55 21.9137L412.559 21.9102L412.188 20.9817ZM434.875 20.1692L434.582 21.1252L434.589 21.1276L434.597 21.1298L434.875 20.1692ZM449.938 32.0442L449.073 32.5466L449.076 32.5517L449.938 32.0442ZM454.062 42.9817L453.087 43.2017L453.087 43.2037L454.062 42.9817ZM436.875 46.4192L435.884 46.5536L435.885 46.5618L435.886 46.57L436.875 46.4192ZM435.312 40.1692L434.386 40.5444L434.389 40.5522L435.312 40.1692ZM419.25 33.9817L418.803 33.0872L418.793 33.0921L419.25 33.9817ZM415.312 37.7942L416.157 38.3298L416.163 38.3205L415.312 37.7942ZM412.812 44.6692L411.832 44.4703L411.83 44.4814L412.812 44.6692ZM412.5 84.2942L411.509 84.4264L411.51 84.4344L411.511 84.4425L412.5 84.2942ZM414.125 90.7317L413.195 91.0993L413.2 91.1126L413.206 91.1256L414.125 90.7317ZM416.75 95.0442L416.003 95.7085L416.016 95.7232L416.029 95.7373L416.75 95.0442ZM420.312 97.4192L419.961 98.3556L419.971 98.359L420.312 97.4192ZM430.125 96.9817L430.582 97.8713L430.591 97.8666L430.125 96.9817ZM434.125 93.1067L433.278 92.5749L433.275 92.5803L434.125 93.1067ZM454.5 57.4817V73.2317H456.5V57.4817H454.5ZM454.5 73.2317C454.5 79.9983 453.777 85.7943 452.353 90.637L454.272 91.2014C455.764 86.1274 456.5 80.1318 456.5 73.2317H454.5ZM452.354 90.6348C450.927 95.4444 448.883 99.3509 446.245 102.389L447.755 103.7C450.617 100.404 452.781 96.2273 454.271 91.2036L452.354 90.6348ZM446.244 102.389C443.638 105.397 440.539 107.614 436.941 109.053L437.684 110.91C441.586 109.349 444.945 106.942 447.756 103.699L446.244 102.389ZM436.941 109.053C433.324 110.5 429.286 111.232 424.812 111.232V113.232C429.506 113.232 433.801 112.463 437.684 110.91L436.941 109.053ZM424.812 111.232C421.229 111.232 417.907 110.784 414.841 109.896L414.284 111.817C417.551 112.763 421.062 113.232 424.812 113.232V111.232ZM414.852 109.9C411.802 108.976 409.06 107.554 406.618 105.633L405.382 107.205C408.023 109.284 410.99 110.82 414.273 111.814L414.852 109.9ZM406.625 105.638C404.227 103.72 402.135 101.292 400.356 98.3405L398.644 99.3729C400.531 102.505 402.773 105.119 405.375 107.2L406.625 105.638ZM400.365 98.3543C398.634 95.3759 397.291 91.8086 396.351 87.6367L394.399 88.0767C395.375 92.4047 396.783 96.1708 398.635 99.3591L400.365 98.3543ZM396.351 87.6367C395.412 83.4748 394.938 78.676 394.938 73.2317H392.938C392.938 78.7874 393.421 83.7385 394.399 88.0767L396.351 87.6367ZM394.938 73.2317V57.4817H392.938V73.2317H394.938ZM394.938 57.4817C394.938 50.7144 395.66 44.9622 397.083 40.2058L395.167 39.6326C393.673 44.6262 392.938 50.5823 392.938 57.4817H394.938ZM397.081 40.211C398.55 35.3965 400.596 31.5086 403.193 28.5116L401.682 27.2018C398.862 30.4548 396.7 34.6085 395.169 39.6274L397.081 40.211ZM403.188 28.5173C405.836 25.5083 408.954 23.3119 412.55 21.9137L411.825 20.0497C407.921 21.5681 404.539 23.9551 401.687 27.1961L403.188 28.5173ZM412.559 21.9102C416.176 20.4634 420.214 19.7317 424.688 19.7317V17.7317C419.994 17.7317 415.699 18.5 411.816 20.0532L412.559 21.9102ZM424.688 19.7317C428.267 19.7317 431.563 20.1993 434.582 21.1252L435.168 19.2131C431.937 18.2224 428.442 17.7317 424.688 17.7317V19.7317ZM434.597 21.1298C437.647 22.0126 440.387 23.3941 442.827 25.2738L444.048 23.6895C441.404 21.6526 438.437 20.1591 435.153 19.2086L434.597 21.1298ZM442.827 25.2738C445.255 27.1446 447.339 29.5629 449.073 32.5466L450.802 31.5418C448.953 28.3588 446.703 25.7354 444.048 23.6895L442.827 25.2738ZM449.076 32.5517C450.804 35.4859 452.146 39.0301 453.087 43.2017L455.038 42.7617C454.062 38.4333 452.654 34.6858 450.799 31.5367L449.076 32.5517ZM453.087 43.2037C454.026 47.323 454.5 52.0794 454.5 57.4817H456.5C456.5 51.9673 456.016 47.057 455.038 42.7597L453.087 43.2037ZM438.438 75.6067V55.0442H436.438V75.6067H438.438ZM438.438 55.0442C438.438 51.7171 438.248 48.7896 437.864 46.2684L435.886 46.57C436.252 48.9654 436.438 51.7879 436.438 55.0442H438.438ZM437.866 46.2848C437.525 43.7681 436.987 41.596 436.236 39.7862L434.389 40.5522C435.055 42.1591 435.559 44.1536 435.884 46.5536L437.866 46.2848ZM436.239 39.794C435.495 37.955 434.558 36.4215 433.408 35.2261L431.967 36.6123C432.901 37.5835 433.713 38.8834 434.386 40.5444L436.239 39.794ZM433.408 35.2261C432.269 34.0412 430.957 33.1632 429.476 32.6079L428.774 34.4805C429.96 34.9252 431.023 35.6305 431.967 36.6123L433.408 35.2261ZM429.476 32.6079C428.016 32.0603 426.416 31.7942 424.688 31.7942V33.7942C426.209 33.7942 427.567 34.0281 428.774 34.4805L429.476 32.6079ZM424.688 31.7942C422.514 31.7942 420.545 32.2162 418.803 33.0873L419.697 34.8761C421.122 34.1638 422.777 33.7942 424.688 33.7942V31.7942ZM418.793 33.0921C417.062 33.9813 415.623 35.3925 414.462 37.2678L416.163 38.3205C417.168 36.6959 418.355 35.5655 419.707 34.8713L418.793 33.0921ZM414.468 37.2586C413.297 39.1052 412.43 41.5249 411.832 44.4703L413.793 44.868C414.362 42.0634 415.161 39.8998 416.157 38.3297L414.468 37.2586ZM411.83 44.4814C411.273 47.3962 411 50.9215 411 55.0442H413C413 51.0002 413.269 47.6088 413.795 44.857L411.83 44.4814ZM411 55.0442V75.6067H413V55.0442H411ZM411 75.6067C411 78.93 411.168 81.8717 411.509 84.4264L413.491 84.162C413.165 81.7167 413 78.8667 413 75.6067H411ZM411.511 84.4425C411.894 86.9958 412.452 89.2191 413.195 91.0993L415.055 90.364C414.382 88.6609 413.856 86.5926 413.489 84.1459L411.511 84.4425ZM413.206 91.1256C413.988 92.9495 414.915 94.4852 416.003 95.7085L417.497 94.3798C416.585 93.3532 415.762 92.0139 415.044 90.3378L413.206 91.1256ZM416.029 95.7373C417.168 96.9222 418.48 97.8002 419.961 98.3555L420.664 96.4829C419.478 96.0382 418.415 95.3329 417.471 94.3511L416.029 95.7373ZM419.971 98.359C421.467 98.903 423.084 99.1692 424.812 99.1692V97.1692C423.291 97.1692 421.908 96.9354 420.654 96.4794L419.971 98.359ZM424.812 99.1692C426.947 99.1692 428.878 98.7459 430.582 97.8713L429.668 96.0921C428.288 96.8008 426.678 97.1692 424.812 97.1692V99.1692ZM430.591 97.8666C432.354 96.9384 433.812 95.5116 434.975 93.633L433.275 92.5803C432.271 94.2018 431.062 95.3584 429.659 96.0968L430.591 97.8666ZM434.972 93.6385C436.184 91.7086 437.051 89.246 437.608 86.2918L435.642 85.9215C435.116 88.7174 434.316 90.9214 433.278 92.5749L434.972 93.6385ZM437.608 86.2918C438.164 83.3367 438.438 79.7707 438.438 75.6067H436.438C436.438 79.6926 436.169 83.1267 435.642 85.9215L437.608 86.2918ZM531.5 76.9817H532.5V75.9817H531.5V76.9817ZM531.5 91.1067V92.1067H532.5V91.1067H531.5ZM465.938 91.1067L464.941 91.1864L465.014 92.1067H465.938V91.1067ZM465.062 80.1692L464.217 79.636L464.039 79.9174L464.066 80.2489L465.062 80.1692ZM503 19.9817V18.9817H502.448L502.154 19.4485L503 19.9817ZM517.312 19.9817L518.171 20.4947L519.075 18.9817H517.312V19.9817ZM501.812 45.9192L502.667 46.4385L502.671 46.4322L501.812 45.9192ZM482.938 76.9817L482.083 76.4624L481.16 77.9817H482.938V76.9817ZM521.188 19.9817H522.188V18.9817H521.188V19.9817ZM521.188 110.982V111.982H522.188V110.982H521.188ZM503.188 110.982H502.188V111.982H503.188V110.982ZM503.188 19.9817V18.9817H502.188V19.9817H503.188ZM530.5 76.9817V91.1067H532.5V76.9817H530.5ZM531.5 90.1067H465.938V92.1067H531.5V90.1067ZM466.934 91.0269L466.059 80.0894L464.066 80.2489L464.941 91.1864L466.934 91.0269ZM465.908 80.7024L503.846 20.5149L502.154 19.4485L464.217 79.636L465.908 80.7024ZM503 20.9817H517.312V18.9817H503V20.9817ZM516.454 19.4687L500.954 45.4062L502.671 46.4322L518.171 20.4947L516.454 19.4687ZM500.958 45.3999L482.083 76.4624L483.792 77.501L502.667 46.4385L500.958 45.3999ZM482.938 77.9817H531.5V75.9817H482.938V77.9817ZM520.188 19.9817V110.982H522.188V19.9817H520.188ZM521.188 109.982H503.188V111.982H521.188V109.982ZM504.188 110.982V19.9817H502.188V110.982H504.188ZM503.188 20.9817H521.188V18.9817H503.188V20.9817Z" fill="#20C897" mask="url(#path-1-outside-1_2_6285)"/>
<path d="M198.227 171.403L346.349 171.722C347.643 171.722 348.613 170.771 348.613 169.502L348.636 78.5023C348.636 76.2894 346.731 74.1968 344.474 74.1968L198.324 74.3287L198.227 171.403Z" fill="#20C897"/>
<path d="M195.232 171.722H340.357C341.649 171.722 342.616 170.762 342.616 169.479L342.598 78.7338C342.598 76.2129 340.343 73.9791 337.797 73.9791H194.544C193.253 73.9791 192.283 74.9398 192.285 76.2199L192.306 168.824C192.306 170.359 193.681 171.722 195.232 171.722Z" fill="white"/>
<path d="M198.957 172.4H195.235C193.316 172.4 191.631 170.729 191.629 168.824L191.617 134.25C191.617 133.877 191.92 133.574 192.295 133.574C192.67 133.574 192.974 133.877 192.974 134.25L192.985 168.822C192.988 169.984 194.059 171.044 195.235 171.044H198.957C199.332 171.044 199.636 171.347 199.636 171.722C199.636 172.097 199.332 172.4 198.957 172.4Z" fill="#0D4C8F"/>
<path d="M342.601 111.058C342.228 111.058 341.925 110.757 341.925 110.382L341.92 78.7338C341.918 76.6018 339.955 74.6574 337.798 74.6574H243.909C243.534 74.6574 243.23 74.3541 243.23 73.9791C243.23 73.6065 243.534 73.3032 243.909 73.3032H337.798C340.717 73.3032 343.277 75.8403 343.277 78.7338L343.279 110.382C343.279 110.755 342.976 111.058 342.601 111.058Z" fill="#0D4C8F"/>
<path d="M276.384 172.4C276.011 172.4 275.708 172.102 275.703 171.729C275.701 171.354 276.002 171.049 276.374 171.044L293.726 170.845C294.087 170.829 294.407 171.141 294.409 171.516C294.414 171.889 294.115 172.197 293.74 172.201L276.391 172.4C276.386 172.4 276.384 172.4 276.384 172.4Z" fill="#0D4C8F"/>
<path d="M276.38 172.4H232.526C232.153 172.4 231.848 172.097 231.848 171.722C231.848 171.347 232.153 171.044 232.526 171.044H276.38C276.753 171.044 277.058 171.347 277.058 171.722C277.058 172.097 276.753 172.4 276.38 172.4Z" fill="#0D4C8F"/>
<path d="M250.365 162.03L250.318 138.715H241.906L241.953 162.03H250.365Z" fill="#0D2234"/>
<path d="M260.453 162.03L260.59 129.831H252.176L252.039 162.03H260.453Z" fill="#0D2234"/>
<path d="M270.539 162.03L270.615 132.287H262.201L262.129 162.03H270.539Z" fill="#0D2234"/>
<path d="M280.625 162.03L280.804 121.322H272.389L272.211 162.03H280.625Z" fill="#0D2234"/>
<path d="M290.709 162.03L290.85 110.736H282.436L282.297 162.03H290.709Z" fill="#20C897"/>
<path d="M300.796 162.03L301.164 113.951H292.75L292.387 162.03H300.796Z" fill="#20C897"/>
<path d="M311.072 162.03L311.554 106.012H303.139L302.66 162.03H311.072Z" fill="#20C897"/>
<path d="M321.346 162.005L322.038 103.215H313.626L312.934 162.005H321.346Z" fill="#20C897"/>
<path d="M331.625 162.005L332.053 99.5787H323.641L323.215 162.005H331.625Z" fill="#20C897"/>
<path d="M296.784 109.595C296.62 109.595 296.46 109.537 296.337 109.426L290.048 103.891C289.765 103.644 289.738 103.215 289.985 102.933C290.233 102.653 290.661 102.627 290.944 102.873L296.638 107.889L307.293 91.3125C307.393 91.1597 307.553 91.0509 307.733 91.0162C307.914 90.9815 308.103 91.0185 308.252 91.125L318.335 98.1921L327.069 88.3032C327.316 88.0231 327.747 87.9954 328.027 88.2454C328.305 88.493 328.333 88.9213 328.085 89.2014L318.951 99.5463C318.721 99.8009 318.335 99.8495 318.053 99.6505L308.055 92.6389L297.353 109.285C297.247 109.451 297.073 109.562 296.877 109.59C296.846 109.595 296.814 109.595 296.784 109.595Z" fill="#0D4C8F"/>
<path d="M242.702 134.454C242.54 134.454 242.382 134.398 242.253 134.285C241.973 134.039 241.945 133.611 242.193 133.329L254.859 118.887C254.977 118.752 255.144 118.671 255.325 118.66C255.505 118.648 255.681 118.708 255.815 118.826L264.169 126.178L284.394 103.127C284.639 102.845 285.068 102.817 285.35 103.065C285.63 103.31 285.658 103.738 285.413 104.021L264.739 127.586C264.621 127.72 264.454 127.801 264.274 127.815C264.095 127.824 263.917 127.764 263.781 127.646L255.429 120.294L243.209 134.222C243.077 134.375 242.889 134.454 242.702 134.454Z" fill="#0D4C8F"/>
<path d="M253.953 119.338C253.853 118.56 254.407 117.928 255.189 117.928C255.972 117.928 256.689 118.56 256.789 119.338C256.89 120.113 256.335 120.743 255.555 120.743C254.77 120.743 254.055 120.113 253.953 119.338Z" fill="#20C897"/>
<path d="M255.187 116.572C254.425 116.572 253.708 116.891 253.222 117.444C252.733 118 252.511 118.752 252.608 119.512C252.796 120.961 254.09 122.1 255.553 122.1C256.314 122.1 257.032 121.782 257.518 121.227C258.004 120.671 258.229 119.919 258.134 119.162C257.944 117.711 256.65 116.572 255.187 116.572ZM255.187 117.928C255.969 117.928 256.687 118.56 256.787 119.338C256.888 120.111 256.333 120.743 255.553 120.743C254.768 120.743 254.053 120.111 253.951 119.338C253.851 118.56 254.405 117.928 255.187 117.928Z" fill="#0D4C8F"/>
<path d="M295.402 108.859C295.303 108.083 295.856 107.454 296.638 107.454C297.421 107.454 298.136 108.083 298.238 108.859C298.337 109.637 297.784 110.266 297.004 110.266C296.219 110.266 295.504 109.637 295.402 108.859Z" fill="#20C897"/>
<path d="M296.638 106.097C295.875 106.097 295.159 106.414 294.671 106.97C294.185 107.525 293.96 108.278 294.057 109.035C294.247 110.486 295.541 111.625 297.004 111.625C297.763 111.625 298.481 111.306 298.967 110.752C299.456 110.197 299.68 109.444 299.581 108.685C299.393 107.234 298.099 106.097 296.638 106.097ZM296.638 107.454C297.421 107.454 298.136 108.083 298.238 108.859C298.337 109.637 297.784 110.266 297.004 110.266C296.219 110.266 295.504 109.637 295.402 108.859C295.303 108.083 295.856 107.454 296.638 107.454Z" fill="#0D4C8F"/>
<path d="M306.446 91.8611C306.344 91.0834 306.897 90.4537 307.679 90.4537C308.462 90.4537 309.177 91.0834 309.277 91.8611C309.379 92.6366 308.825 93.2686 308.043 93.2686C307.26 93.2686 306.545 92.6366 306.446 91.8611Z" fill="#20C897"/>
<path d="M307.682 89.0972C306.918 89.0972 306.202 89.4143 305.714 89.9699C305.226 90.5231 305.003 91.2777 305.101 92.0347C305.29 93.4861 306.582 94.6226 308.045 94.6226C308.809 94.6226 309.526 94.3055 310.013 93.7523C310.501 93.1967 310.723 92.4421 310.626 91.6851C310.436 90.2337 309.144 89.0972 307.682 89.0972ZM307.682 90.4536C308.464 90.4536 309.179 91.0833 309.279 91.8611C309.381 92.6365 308.827 93.2685 308.045 93.2685C307.263 93.2685 306.547 92.6365 306.448 91.8611C306.346 91.0833 306.899 90.4536 307.682 90.4536Z" fill="#0D4C8F"/>
<path d="M317.086 99.0972C316.984 98.3194 317.538 97.6875 318.32 97.6875C319.103 97.6875 319.818 98.3194 319.917 99.0972C320.019 99.875 319.466 100.505 318.684 100.505C317.901 100.505 317.186 99.875 317.086 99.0972Z" fill="#20C897"/>
<path d="M318.321 96.3334C317.559 96.3334 316.841 96.6505 316.353 97.2061C315.867 97.7593 315.642 98.5116 315.742 99.2686C315.929 100.725 317.221 101.859 318.684 101.859C319.448 101.859 320.163 101.542 320.652 100.988C321.14 100.433 321.362 99.6806 321.265 98.9213C321.075 97.4699 319.784 96.3334 318.321 96.3334ZM318.321 97.6899C319.103 97.6899 319.818 98.3195 319.918 99.0973C320.02 99.875 319.466 100.505 318.684 100.505C317.902 100.505 317.186 99.875 317.087 99.0973C316.985 98.3195 317.538 97.6899 318.321 97.6899Z" fill="#0D4C8F"/>
<path d="M326.161 88.7523C326.059 87.9745 326.612 87.3448 327.394 87.3448C328.177 87.3448 328.892 87.9745 328.992 88.7523C329.093 89.53 328.542 90.1597 327.76 90.1597C326.975 90.1597 326.26 89.53 326.161 88.7523Z" fill="#20C897"/>
<path d="M327.392 85.9884C326.629 85.9884 325.913 86.3055 325.427 86.8611C324.936 87.4143 324.714 88.169 324.811 88.9259C325.001 90.3773 326.293 91.5162 327.758 91.5162C328.52 91.5162 329.237 91.1967 329.723 90.6435C330.212 90.0879 330.434 89.3356 330.337 88.5787C330.149 87.1273 328.855 85.9884 327.392 85.9884ZM327.392 87.3449C328.175 87.3449 328.89 87.9745 328.99 88.7523C329.092 89.5301 328.541 90.1597 327.758 90.1597C326.973 90.1597 326.258 89.5301 326.159 88.7523C326.057 87.9745 326.61 87.3449 327.392 87.3449Z" fill="#0D4C8F"/>
<path d="M262.922 126.972C262.822 126.194 263.375 125.565 264.158 125.565C264.94 125.565 265.656 126.194 265.757 126.972C265.857 127.75 265.304 128.38 264.521 128.38C263.739 128.38 263.024 127.75 262.922 126.972Z" fill="#20C897"/>
<path d="M264.16 124.211C263.399 124.211 262.681 124.528 262.195 125.081C261.707 125.637 261.482 126.391 261.582 127.148C261.769 128.6 263.063 129.736 264.524 129.736C265.288 129.736 266.003 129.417 266.491 128.863C266.978 128.31 267.202 127.556 267.105 126.799C266.915 125.347 265.623 124.211 264.16 124.211ZM264.16 125.565C264.943 125.565 265.658 126.194 265.76 126.972C265.86 127.75 265.306 128.38 264.524 128.38C263.744 128.38 263.026 127.75 262.927 126.972C262.825 126.194 263.378 125.565 264.16 125.565Z" fill="#0D4C8F"/>
<path d="M286.028 100.799C285.926 100.021 286.481 99.3912 287.261 99.3912C288.046 99.3912 288.761 100.021 288.861 100.799C288.963 101.576 288.41 102.206 287.627 102.206C286.845 102.206 286.13 101.576 286.028 100.799Z" fill="#20C897"/>
<path d="M287.262 98.037C286.5 98.037 285.781 98.3541 285.294 98.9074C284.808 99.4606 284.584 100.215 284.683 100.972C284.871 102.426 286.162 103.562 287.625 103.562C288.389 103.562 289.105 103.243 289.593 102.69C290.081 102.134 290.304 101.382 290.206 100.625C290.017 99.1712 288.725 98.037 287.262 98.037ZM287.262 99.3912C288.044 99.3912 288.76 100.021 288.859 100.799C288.961 101.576 288.408 102.206 287.625 102.206C286.843 102.206 286.128 101.576 286.026 100.799C285.924 100.021 286.48 99.3912 287.262 99.3912Z" fill="#0D4C8F"/>
<path d="M240.98 133.884C240.881 133.109 241.434 132.479 242.214 132.479C242.999 132.479 243.714 133.109 243.816 133.884C243.916 134.662 243.362 135.292 242.58 135.292C241.797 135.292 241.082 134.662 240.98 133.884Z" fill="#20C897"/>
<path d="M242.213 131.123C241.454 131.123 240.736 131.44 240.25 131.995C239.761 132.549 239.537 133.301 239.636 134.06C239.822 135.512 241.118 136.648 242.579 136.648C243.342 136.648 244.058 136.329 244.546 135.775C245.032 135.22 245.257 134.468 245.16 133.711C244.97 132.259 243.678 131.123 242.213 131.123ZM242.213 132.479C242.998 132.479 243.713 133.109 243.815 133.884C243.914 134.662 243.361 135.292 242.579 135.292C241.796 135.292 241.081 134.662 240.979 133.884C240.879 133.109 241.433 132.479 242.213 132.479Z" fill="#0D4C8F"/>
<path d="M231.51 128.38H187.269C184.76 128.38 182.565 126.273 182.586 123.889L183.047 64.6111C183.063 62.6111 184.658 61.1064 186.762 61.1064H231.005C233.512 61.1064 235.709 63.2129 235.686 65.5995L235.23 124.875C235.211 126.877 233.616 128.38 231.51 128.38Z" fill="#0D2234"/>
<path d="M186.765 61.7824C185.019 61.7824 183.741 62.9745 183.725 64.618L183.267 123.894C183.26 124.824 183.651 125.736 184.376 126.465C185.153 127.252 186.211 127.704 187.271 127.704H231.512C233.26 127.704 234.538 126.512 234.552 124.868L235.012 65.5949C235.019 64.662 234.626 63.75 233.901 63.0208C233.123 62.2338 232.068 61.7824 231.008 61.7824H186.765ZM231.512 129.058H187.271C185.85 129.058 184.445 128.463 183.413 127.421C182.433 126.431 181.899 125.174 181.91 123.88L182.369 64.6065C182.392 62.2245 184.281 60.4282 186.765 60.4282H231.008C232.427 60.4282 233.834 61.0254 234.866 62.0671C235.846 63.0555 236.38 64.3125 236.366 65.6041L235.908 124.88C235.887 127.262 233.998 129.058 231.512 129.058Z" fill="#20C897"/>
<path d="M223.968 105.153C223.978 104.306 223.242 103.553 222.394 103.553H193.248C192.54 103.553 192.005 104.086 191.996 104.792C191.987 105.639 192.728 106.391 193.57 106.391H222.721C223.424 106.391 223.959 105.861 223.968 105.153Z" fill="#20C897"/>
<path d="M211.297 112.303C211.306 111.454 210.568 110.704 209.723 110.704H193.16C192.454 110.704 191.917 111.236 191.91 111.942C191.899 112.792 192.639 113.542 193.484 113.542H210.047C210.753 113.542 211.288 113.012 211.297 112.303Z" fill="#20C897"/>
<path d="M215.391 119.454C215.4 118.606 214.659 117.856 213.814 117.856H193.078C192.372 117.856 191.837 118.387 191.828 119.095C191.819 119.942 192.557 120.692 193.405 120.692H214.138C214.847 120.692 215.381 120.162 215.391 119.454Z" fill="#20C897"/>
<path d="M222.412 95.919H196.102C193.933 95.919 192.035 93.9931 192.063 91.8172L192.301 73.4375C192.324 71.6227 193.697 70.2639 195.505 70.2639H221.817C223.986 70.2639 225.882 72.1898 225.852 74.3681L225.618 92.7477C225.595 94.5625 224.22 95.919 222.412 95.919Z" fill="white"/>
<path d="M217.043 83.6614C216.883 83.4789 216.795 83.2443 216.795 83.0014C216.795 82.7585 216.883 82.5238 217.043 82.3414L218.323 80.9014C218.464 80.744 218.552 80.5461 218.574 80.3359C218.595 80.1257 218.55 79.914 218.443 79.7314L216.443 76.2714C216.338 76.0889 216.178 75.9442 215.986 75.858C215.794 75.7719 215.58 75.7485 215.373 75.7914L213.493 76.1714C213.254 76.2208 213.005 76.1809 212.793 76.0594C212.581 75.9378 212.421 75.7428 212.343 75.5114L211.733 73.6814C211.666 73.4827 211.539 73.3102 211.368 73.1882C211.198 73.0662 210.993 73.0008 210.783 73.0014H206.783C206.565 72.99 206.35 73.0503 206.169 73.1731C205.988 73.2959 205.853 73.4744 205.783 73.6814L205.223 75.5114C205.145 75.7428 204.985 75.9378 204.774 76.0594C204.562 76.1809 204.313 76.2208 204.073 76.1714L202.143 75.7914C201.948 75.7637 201.749 75.7946 201.571 75.88C201.393 75.9654 201.244 76.1016 201.143 76.2714L199.143 79.7314C199.035 79.912 198.986 80.1224 199.004 80.3326C199.022 80.5427 199.106 80.7418 199.243 80.9014L200.513 82.3414C200.674 82.5238 200.762 82.7585 200.762 83.0014C200.762 83.2443 200.674 83.4789 200.513 83.6614L199.243 85.1014C199.106 85.2609 199.022 85.46 199.004 85.6701C198.986 85.8803 199.035 86.0907 199.143 86.2714L201.143 89.7314C201.249 89.9138 201.409 90.0585 201.601 90.1447C201.793 90.2309 202.007 90.2542 202.213 90.2114L204.093 89.8314C204.333 89.7819 204.582 89.8218 204.794 89.9434C205.005 90.0649 205.165 90.2599 205.243 90.4914L205.853 92.3214C205.923 92.5283 206.058 92.7069 206.239 92.8296C206.42 92.9524 206.635 93.0127 206.853 93.0014H210.853C211.063 93.0019 211.268 92.9365 211.438 92.8145C211.609 92.6925 211.736 92.52 211.803 92.3214L212.413 90.4914C212.491 90.2599 212.651 90.0649 212.863 89.9434C213.075 89.8218 213.324 89.7819 213.563 89.8314L215.443 90.2114C215.65 90.2542 215.864 90.2309 216.056 90.1447C216.248 90.0585 216.408 89.9138 216.513 89.7314L218.513 86.2714C218.62 86.0887 218.665 85.877 218.644 85.6669C218.622 85.4567 218.534 85.2587 218.393 85.1014L217.043 83.6614ZM215.553 85.0014L216.353 85.9014L215.073 88.1214L213.893 87.8814C213.173 87.7341 212.424 87.8565 211.788 88.2252C211.152 88.5938 210.674 89.1832 210.443 89.8814L210.063 91.0014H207.503L207.143 89.8614C206.913 89.1632 206.435 88.5738 205.799 88.2052C205.163 87.8365 204.414 87.7141 203.693 87.8614L202.513 88.1014L201.213 85.8914L202.013 84.9914C202.505 84.4413 202.777 83.7293 202.777 82.9914C202.777 82.2534 202.505 81.5414 202.013 80.9914L201.213 80.0914L202.493 77.8914L203.673 78.1314C204.394 78.2786 205.143 78.1562 205.779 77.7876C206.415 77.4189 206.893 76.8295 207.123 76.1314L207.503 75.0014H210.063L210.443 76.1414C210.674 76.8395 211.152 77.4289 211.788 77.7976C212.424 78.1662 213.173 78.2886 213.893 78.1414L215.073 77.9014L216.353 80.1214L215.553 81.0214C215.067 81.5701 214.798 82.278 214.798 83.0114C214.798 83.7447 215.067 84.4526 215.553 85.0014ZM208.783 79.0014C207.992 79.0014 207.219 79.236 206.561 79.6755C205.903 80.115 205.391 80.7397 205.088 81.4706C204.785 82.2015 204.706 83.0058 204.86 83.7817C205.015 84.5576 205.396 85.2704 205.955 85.8298C206.514 86.3892 207.227 86.7702 208.003 86.9245C208.779 87.0788 209.583 86.9996 210.314 86.6969C211.045 86.3941 211.67 85.8814 212.109 85.2236C212.549 84.5658 212.783 83.7925 212.783 83.0014C212.783 81.9405 212.362 80.9231 211.612 80.1729C210.862 79.4228 209.844 79.0014 208.783 79.0014ZM208.783 85.0014C208.388 85.0014 208.001 84.8841 207.672 84.6643C207.343 84.4445 207.087 84.1322 206.936 83.7667C206.784 83.4013 206.745 82.9991 206.822 82.6112C206.899 82.2232 207.09 81.8669 207.369 81.5871C207.649 81.3074 208.005 81.117 208.393 81.0398C208.781 80.9626 209.183 81.0022 209.549 81.1536C209.914 81.305 210.227 81.5613 210.446 81.8902C210.666 82.2191 210.783 82.6058 210.783 83.0014C210.783 83.5318 210.573 84.0405 210.198 84.4156C209.823 84.7906 209.314 85.0014 208.783 85.0014Z" fill="#20C897"/>
<path d="M193.825 69.4236C192.286 69.4236 191.156 70.5463 191.135 72.088L190.865 93.1204C190.851 94.0301 191.24 94.9537 191.927 95.6482C192.612 96.3449 193.522 96.7407 194.427 96.7407H224.321C225.858 96.7407 226.987 95.6204 227.008 94.0764L227.279 73.0463C227.291 72.1343 226.904 71.2153 226.217 70.5162C225.531 69.8241 224.619 69.4236 223.717 69.4236H193.825ZM224.321 98.0972H194.427C193.163 98.0972 191.899 97.5532 190.964 96.6019C190.022 95.6482 189.492 94.3727 189.508 93.1019L189.779 72.0718C189.809 69.7894 191.548 68.0671 193.825 68.0671H223.717C224.98 68.0671 226.244 68.6134 227.182 69.5625C228.122 70.5162 228.652 71.7917 228.638 73.0648L228.365 94.0949C228.335 96.3773 226.596 98.0972 224.321 98.0972Z" fill="#0D4C8F"/>
<path d="M228.414 367.775C229.47 366.706 235.569 347.704 235.569 347.704L247.618 356.317L234.407 374.102L228.414 367.775Z" fill="white"/>
<path d="M229.256 367.678L234.347 373.049L246.664 356.465L235.932 348.796C234.384 353.593 230.689 364.875 229.256 367.678ZM234.409 374.78C234.224 374.78 234.046 374.704 233.918 374.567L227.923 368.241C227.675 367.979 227.678 367.569 227.925 367.31C228.703 366.34 232.629 354.648 234.925 347.5C234.99 347.292 235.152 347.13 235.358 347.063C235.564 346.995 235.789 347.028 235.965 347.153L248.013 355.766C248.164 355.873 248.263 356.032 248.291 356.213C248.321 356.391 248.272 356.576 248.166 356.722L234.953 374.507C234.835 374.667 234.65 374.766 234.451 374.778C234.437 374.778 234.423 374.78 234.409 374.78Z" fill="#0D4C8F"/>
<path d="M250.13 391.803L242.114 391.755C236.813 391.722 231.883 389.023 228.989 384.572L221.066 372.005C218.876 368.532 220.103 363.933 223.723 362.005C227.031 360.245 230.494 358.53 231.306 358.606C232.957 358.764 233.623 366.576 233.623 366.576L240.76 366.852C240.76 366.852 244.288 381.544 247.392 383.213C249.654 384.428 251.232 386.215 252.295 387.847C253.406 389.556 252.165 391.815 250.13 391.803Z" fill="#20C897"/>
<path d="M249.325 389.345C249.29 389.345 249.255 389.345 249.223 389.338L238.26 387.685C235.591 387.282 233.267 385.722 231.88 383.401L222.195 367.195C222.001 366.873 222.107 366.456 222.429 366.262C222.751 366.072 223.165 366.176 223.357 366.498L233.045 382.704C234.223 384.676 236.197 386.002 238.464 386.343L249.424 387.995C249.795 388.053 250.049 388.398 249.994 388.769C249.943 389.107 249.653 389.345 249.325 389.345Z" fill="#0D4C8F"/>
<path d="M235.794 377.155C235.498 377.155 235.223 376.958 235.142 376.657C235.042 376.296 235.255 375.924 235.616 375.824L241.725 374.16C242.084 374.06 242.459 374.273 242.558 374.634C242.656 374.998 242.443 375.368 242.081 375.468L235.973 377.134C235.915 377.15 235.855 377.155 235.794 377.155Z" fill="#0D4C8F"/>
<path d="M238.974 380.299C238.67 380.299 238.392 380.093 238.316 379.782C238.228 379.419 238.45 379.051 238.814 378.961L242.909 377.958C243.272 377.873 243.64 378.093 243.728 378.456C243.816 378.819 243.594 379.187 243.23 379.275L239.136 380.28C239.08 380.292 239.029 380.299 238.974 380.299Z" fill="#0D4C8F"/>
<path d="M269.531 364.15L285.228 381.056L290.941 375.502L278.043 357.488L269.531 364.15Z" fill="white"/>
<path d="M270.532 364.229L285.254 380.086L290.05 375.424L277.904 358.458L270.532 364.229ZM285.228 381.734C285.224 381.734 285.217 381.734 285.21 381.732C285.027 381.727 284.856 381.65 284.731 381.516L269.036 364.611C268.907 364.472 268.842 364.285 268.858 364.097C268.872 363.907 268.964 363.734 269.115 363.618L277.626 356.956C277.772 356.84 277.955 356.792 278.14 356.817C278.323 356.845 278.488 356.942 278.596 357.095L291.492 375.107C291.687 375.38 291.654 375.755 291.413 375.988L285.701 381.542C285.573 381.664 285.404 381.734 285.228 381.734Z" fill="#0D4C8F"/>
<path d="M279.106 376.028C279.106 376.028 278.427 382.016 279.573 387.31C280.184 390.132 282.721 392.113 285.606 392.113H319.941C322.397 392.113 323.508 389.049 321.626 387.47C315.522 382.345 304.291 374.523 290.481 372.225L286.631 377.625L279.106 376.028Z" fill="#20C897"/>
<path d="M318.311 388.065H282.725C282.35 388.065 282.047 387.762 282.047 387.387C282.047 387.014 282.35 386.708 282.725 386.708H318.311C318.686 386.708 318.989 387.014 318.989 387.387C318.989 387.762 318.686 388.065 318.311 388.065Z" fill="#0D4C8F"/>
<path d="M298.455 381.734C298.367 381.734 298.279 381.718 298.195 381.683C297.848 381.539 297.681 381.144 297.825 380.796L299.709 376.22C299.853 375.875 300.251 375.711 300.596 375.852C300.941 375.995 301.105 376.391 300.964 376.738L299.08 381.313C298.973 381.576 298.721 381.734 298.455 381.734Z" fill="#0D4C8F"/>
<path d="M304.648 382.935C304.576 382.935 304.507 382.926 304.433 382.903C304.079 382.785 303.887 382.4 304.002 382.046L305.368 377.917C305.484 377.562 305.868 377.368 306.222 377.486C306.579 377.602 306.771 377.986 306.655 378.343L305.292 382.47C305.197 382.755 304.933 382.935 304.648 382.935Z" fill="#0D4C8F"/>
<path d="M195.477 265.625C195.477 265.625 259.417 258.169 278.431 274.655C297.447 291.139 248.417 362.032 248.417 362.032L232.912 350.514L247.618 300.407L188.512 283.595L195.477 265.625Z" fill="#0D4C8F"/>
<path d="M160.284 298.252C169.574 301.206 186.192 305.023 209.421 304.706C216.02 304.616 222.113 308.269 225.113 314.157C231.99 327.671 246.881 352.005 271.138 367.775L282.724 361.525L253.157 294.856C250.455 288.769 245.407 284.039 239.164 281.745L180.562 260.222C180.562 260.222 162.393 255.134 153.483 271.382C151.893 274.285 148.937 269.097 148.233 271.438C145.821 279.465 152.307 295.718 160.284 298.252Z" fill="#0D4C8F"/>
<path d="M266.519 325.662C266.26 325.662 266.012 325.512 265.899 325.257L252.535 295.132C249.927 289.248 244.968 284.6 238.931 282.382L210.869 272.074C210.517 271.947 210.334 271.556 210.464 271.204C210.593 270.852 210.984 270.674 211.336 270.801L239.399 281.109C245.778 283.454 251.019 288.363 253.776 294.581L267.137 324.708C267.29 325.051 267.135 325.449 266.792 325.602C266.704 325.644 266.609 325.662 266.519 325.662Z" fill="white"/>
<path d="M250.918 351.56C250.74 351.56 250.562 351.488 250.43 351.352C247.738 348.546 245.09 345.537 242.557 342.4C242.321 342.109 242.367 341.683 242.659 341.447C242.951 341.213 243.377 341.257 243.613 341.549C246.12 344.655 248.742 347.637 251.407 350.412C251.668 350.683 251.659 351.111 251.388 351.37C251.256 351.498 251.087 351.56 250.918 351.56Z" fill="white"/>
<path d="M243.084 342.653C242.885 342.653 242.691 342.567 242.556 342.4C241.311 340.859 240.073 339.262 238.871 337.648C238.649 337.347 238.712 336.921 239.012 336.699C239.313 336.477 239.737 336.539 239.962 336.838C241.149 338.437 242.378 340.021 243.612 341.549C243.846 341.84 243.799 342.268 243.51 342.502C243.385 342.604 243.235 342.653 243.084 342.653Z" fill="white"/>
<path d="M210.005 213.893C210.005 213.893 215.628 265.044 253.394 268.391L210.005 269.009C210.005 269.009 193.938 236.4 193.288 223.704C192.633 211.007 210.005 213.893 210.005 213.893Z" fill="white"/>
<path d="M206 214.296C202.986 214.296 198.905 214.78 196.361 217.053C194.625 218.607 193.817 220.831 193.965 223.669C194.563 235.345 208.625 264.62 210.424 268.324L246.301 267.813C233.863 264.414 223.794 254.984 216.921 240.171C211.519 228.521 209.741 217.053 209.396 214.495C208.745 214.414 207.507 214.296 206 214.296ZM210.005 269.685C209.745 269.685 209.509 269.539 209.396 269.308C208.738 267.97 193.262 236.428 192.609 223.739C192.44 220.47 193.4 217.88 195.461 216.042C200.363 211.664 209.72 213.16 210.113 213.225C210.414 213.273 210.646 213.519 210.678 213.82C210.692 213.947 212.15 226.676 218.167 239.632C226.188 256.903 238.06 266.35 253.451 267.715C253.813 267.748 254.083 268.056 254.072 268.417C254.058 268.778 253.764 269.063 253.403 269.067L210.014 269.685C210.009 269.685 210.007 269.685 210.005 269.685Z" fill="#0D4C8F"/>
<path d="M156.257 181.387C160.245 180.449 162.968 180.444 168.917 180.4C173.896 180.361 181.134 180.164 193.269 180.604C199.778 180.84 207.521 189.023 208.285 195.502C206.215 201.718 196.671 232.396 213.338 256.368C215.701 259.769 218.917 263.5 223.329 267.074C220.85 269.086 216.998 271.697 211.824 273.238C203.231 275.794 198.91 273.03 191.986 273.238C173.671 273.785 166.954 294.215 155.125 291.65C151.965 290.965 151.639 286.069 147.715 277.792C145.488 270.926 143.509 262.868 142.407 253.759C139.419 229.063 140.447 210.933 144.815 198.028C146.113 193.956 147.618 183.421 156.257 181.387Z" fill="white"/>
<path d="M214.968 219.625C214.968 219.625 210.66 185.039 198.25 182.088C202.616 195.528 204.069 210.157 203.435 225.632C203.407 226.273 204.111 226.683 204.65 226.331L214.968 219.625Z" fill="white"/>
<path d="M157.206 292.556C156.486 292.556 155.745 292.479 154.983 292.313C152.118 291.692 151.287 289.857 149.062 284.944C148.509 283.722 147.882 282.338 147.104 280.699L147.071 280.618C144.518 272.741 142.724 264.611 141.736 256.456C138.78 232.019 139.645 211.192 144.176 197.81C144.347 197.271 144.525 196.602 144.733 195.824C146.055 190.866 148.27 182.572 156.101 180.727C159.446 179.94 161.9 179.924 165.963 179.9C166.715 179.896 167.523 179.891 168.405 179.882C169.444 179.868 170.585 179.845 171.856 179.817C176.71 179.713 183.361 179.567 193.296 179.928C195.155 179.995 197.09 180.685 198.916 181.384L198.43 182.65C196.713 181.991 194.898 181.343 193.247 181.282C183.351 180.921 176.724 181.067 171.884 181.174C170.611 181.199 169.465 181.225 168.421 181.236C167.537 181.248 166.726 181.252 165.972 181.257C162.004 181.28 159.608 181.294 156.414 182.046C149.37 183.706 147.289 191.509 146.044 196.174C145.833 196.968 145.65 197.653 145.465 198.234C141.057 211.248 140.192 232.405 143.083 256.294C144.057 264.347 145.828 272.377 148.347 280.157C149.122 281.792 149.745 283.169 150.298 284.384C152.541 289.34 153.152 290.528 155.27 290.988C160.571 292.139 164.902 288.264 169.919 283.78C175.645 278.66 182.136 272.852 191.967 272.558C194.525 272.484 196.738 272.803 198.879 273.113C202.685 273.66 206.28 274.181 211.632 272.588C213.451 272.046 215.053 271.699 216.46 271.391C218.685 270.91 220.382 270.542 221.759 269.692C218.071 266.465 214.801 261.685 212.59 258.461C212.268 257.991 211.965 257.546 211.685 257.141C204.902 247.389 203.534 236.176 203.09 226.491L204.446 226.431C204.882 235.921 206.21 246.898 212.796 256.368C213.081 256.775 213.384 257.222 213.71 257.694C216.009 261.051 219.481 266.125 223.291 269.213L223.942 269.736L223.291 270.264C221.548 271.678 219.428 272.137 216.75 272.72C215.361 273.019 213.789 273.361 212.018 273.887C206.379 275.565 202.467 275 198.685 274.454C196.599 274.153 194.442 273.84 192.007 273.914C182.671 274.194 176.377 279.824 170.821 284.789C166.206 288.919 162.139 292.556 157.206 292.556Z" fill="#0D4C8F"/>
<path d="M204.151 227.419L203.417 226.28L214.23 219.294C213.61 215.368 208.603 185.85 197.684 182.368L198.096 181.079C210.538 185.046 215.436 218.123 215.637 219.528L215.697 219.958L204.151 227.419Z" fill="#0D4C8F"/>
<path d="M203.783 227.528C203.436 227.528 203.137 227.262 203.11 226.905L201.948 213.259C201.917 212.887 202.193 212.558 202.568 212.528C202.936 212.495 203.269 212.771 203.299 213.146L204.459 226.792C204.492 227.164 204.214 227.493 203.841 227.525C203.82 227.525 203.802 227.528 203.783 227.528Z" fill="#0D4C8F"/>
<path d="M299.175 216.273H254.115C252.219 216.273 250.453 217.22 249.439 218.782L232.534 268.625H192.652V269.37C192.652 271.727 194.557 273.634 196.907 273.634H281.55C283.9 273.634 285.805 271.727 285.805 269.37V268.715L301.083 222.111C301.317 221.401 301.604 220.713 301.87 220.014C302.537 218.262 301.219 216.273 299.175 216.273Z" fill="#20C897"/>
<path d="M193.331 269.301V269.37C193.331 271.349 194.936 272.956 196.908 272.956H281.551C283.524 272.956 285.128 271.349 285.128 269.37V268.715C285.128 268.625 285.146 268.539 285.179 268.458L300.44 221.898C300.614 221.375 300.815 220.859 301.01 220.361C301.084 220.167 301.16 219.97 301.237 219.775C301.47 219.155 301.38 218.449 300.993 217.887C300.581 217.292 299.919 216.951 299.176 216.951H254.116C252.466 216.951 250.954 217.748 250.054 219.083L233.179 268.843C233.084 269.118 232.825 269.301 232.535 269.301H193.331ZM281.551 274.312H196.908C194.186 274.312 191.973 272.095 191.973 269.37V268.625C191.973 268.25 192.276 267.947 192.653 267.947H232.049L248.799 218.567C248.818 218.512 248.843 218.461 248.873 218.414C250.014 216.65 251.977 215.597 254.116 215.597H299.176C300.373 215.597 301.443 216.15 302.109 217.118C302.75 218.046 302.899 219.22 302.505 220.257C302.429 220.456 302.35 220.655 302.274 220.854C302.077 221.356 301.892 221.831 301.73 222.322L286.484 268.829V269.37C286.484 272.095 284.271 274.312 281.551 274.312Z" fill="#0D4C8F"/>
<path d="M266.026 241.822C265.392 243.933 266.362 246.093 268.193 246.646C270.029 247.199 272.029 245.937 272.663 243.824C273.297 241.715 272.327 239.556 270.496 239C268.663 238.447 266.663 239.708 266.026 241.822Z" fill="white"/>
<path d="M271.148 269.391H241.782C241.407 269.391 241.102 269.088 241.102 268.715C241.102 268.34 241.407 268.037 241.782 268.037H271.148C271.521 268.037 271.824 268.34 271.824 268.715C271.824 269.088 271.521 269.391 271.148 269.391Z" fill="white"/>
<path d="M286.099 269.391H280.893C280.518 269.391 280.215 269.088 280.215 268.715C280.215 268.34 280.518 268.037 280.893 268.037H286.099C286.472 268.037 286.775 268.34 286.775 268.715C286.775 269.088 286.472 269.391 286.099 269.391Z" fill="white"/>
<path d="M218.858 264.25C216.277 260.208 211.541 258.157 208.939 258.305C197.099 258.977 174.272 246.977 157.293 241.183C154.353 236.896 156.492 227.525 155.154 216.28L133.501 218.153C131.342 228.873 132.163 247.072 134.036 249.481C135.274 252.433 142.008 261.009 155.691 267.69C177.078 278.132 205.705 271.306 205.705 271.306C205.705 271.306 220.214 278.986 226.48 270.639C226.48 270.639 221.437 268.294 218.858 264.25Z" fill="white"/>
<path d="M205.705 270.627C205.818 270.627 205.925 270.653 206.024 270.706C206.161 270.778 219.318 277.616 225.422 270.859C223.869 270.016 220.355 267.857 218.288 264.616C215.811 260.736 211.291 258.847 208.98 258.984C200.742 259.447 187.378 253.935 174.448 248.604C168.55 246.171 162.45 243.657 157.078 241.822C156.939 241.773 156.821 241.685 156.737 241.565C154.878 238.857 154.916 234.472 154.962 228.921C154.99 225.35 155.022 221.324 154.557 217.012L134.071 218.782C132.066 229.407 132.911 246.921 134.575 249.065C134.61 249.113 134.64 249.164 134.663 249.22C135.943 252.276 142.841 260.66 155.99 267.081C176.916 277.296 205.265 270.713 205.55 270.646C205.601 270.634 205.654 270.627 205.705 270.627ZM217.788 275.236C212.309 275.236 206.825 272.632 205.617 272.021C202.74 272.655 175.696 278.213 155.395 268.299C140.957 261.25 134.605 252.465 133.446 249.82C131.402 246.866 130.716 228.553 132.839 218.019C132.897 217.722 133.145 217.505 133.446 217.477L155.098 215.602C155.464 215.567 155.788 215.833 155.83 216.199C156.383 220.845 156.348 225.141 156.316 228.931C156.274 234.109 156.24 238.227 157.735 240.613C163.094 242.456 169.128 244.945 174.966 247.352C187.753 252.625 200.98 258.083 208.902 257.63C211.932 257.456 216.825 259.799 219.429 263.884C221.876 267.715 226.719 270.005 226.77 270.026C226.953 270.111 227.091 270.276 227.14 270.475C227.189 270.674 227.147 270.884 227.022 271.049C224.645 274.213 221.219 275.236 217.788 275.236Z" fill="#0D4C8F"/>
<path d="M223.914 271.687C222.933 271.687 219.093 271.329 213.537 266.275C213.262 266.023 213.241 265.595 213.493 265.319C213.745 265.042 214.174 265.021 214.451 265.273C220.343 270.634 223.979 270.333 224.016 270.329C224.391 270.294 224.722 270.56 224.759 270.935C224.799 271.308 224.528 271.641 224.155 271.678C224.134 271.681 224.053 271.687 223.914 271.687Z" fill="#0D4C8F"/>
<path d="M220.143 273.653C218.988 273.653 215.69 273.243 211.086 269.234C210.801 268.988 210.773 268.562 211.018 268.278C211.266 267.995 211.694 267.968 211.974 268.211C217.167 272.731 220.347 272.289 220.379 272.287C220.75 272.229 221.097 272.479 221.153 272.85C221.213 273.22 220.958 273.565 220.59 273.625C220.56 273.63 220.41 273.653 220.143 273.653Z" fill="#0D4C8F"/>
<path d="M130.795 225.938C130.649 225.951 130.526 225.836 130.536 225.692C130.686 223.232 131.853 204.882 133.503 197.482C137.232 180.782 159.589 180.773 159.589 180.773C155.357 195.083 154.635 208.787 155.975 221.951C156.059 222.762 155.478 223.484 154.67 223.565L130.795 225.938Z" fill="white"/>
<path d="M130.767 226.616C130.531 226.616 130.304 226.525 130.133 226.361C129.941 226.176 129.839 225.917 129.858 225.65C129.985 223.539 131.17 204.819 132.841 197.333C136.642 180.301 159.999 180.079 160.233 180.079H160.235C160.608 180.079 160.913 180.38 160.913 180.755C160.913 181.13 160.61 181.433 160.235 181.433C160.01 181.433 137.73 181.657 134.163 197.63C132.61 204.588 131.476 221.53 131.242 225.211L155.383 222.813C154.999 219.306 154.802 215.727 154.8 212.164C154.8 211.792 155.103 211.488 155.478 211.488C155.853 211.488 156.156 211.789 156.156 212.164C156.156 215.907 156.376 219.669 156.809 223.338C156.83 223.519 156.779 223.701 156.663 223.843C156.55 223.986 156.383 224.076 156.203 224.093L130.86 226.613C130.83 226.613 130.8 226.616 130.767 226.616Z" fill="#0D4C8F"/>
<path d="M177.463 180.396L178.178 170.229C178.676 170.197 179.018 170.174 179.118 170.174C182.014 170.139 182.953 169.201 183.203 166.819C183.359 165.331 183.414 163.118 182.687 160.349C182.611 160.056 182.627 159.741 182.747 159.461L183.243 158.299C183.345 157.917 183.213 157.507 182.909 157.257L182.646 157.039C181.701 156.266 180.916 155.312 180.287 154.255C179.708 153.28 178.722 151.456 178.048 151.132C176.146 150.224 168.43 146.178 164.118 153.245C160.754 158.752 166.25 166.336 168.247 168.819C168.729 169.421 165.18 180.581 165.18 180.581L159.727 180.755C159.727 180.755 163.629 189.567 174.972 186.822C183.048 184.866 182.303 180.375 182.303 180.375L177.463 180.396Z" fill="white"/>
<path d="M160.855 181.398C162.184 183.491 166.237 188.241 174.811 186.162C180.476 184.789 181.467 182.204 181.619 181.056L177.464 181.074C177.464 181.074 177.464 181.074 177.462 181.074C177.274 181.074 177.096 180.995 176.967 180.859C176.839 180.722 176.772 180.537 176.786 180.349L177.501 170.181C177.527 169.845 177.795 169.576 178.133 169.553C178.647 169.516 179.004 169.495 179.108 169.493C181.809 169.463 182.328 168.66 182.527 166.748C182.747 164.664 182.582 162.627 182.031 160.523C181.916 160.076 181.948 159.606 182.124 159.194L182.594 158.09C182.612 157.974 182.568 157.856 182.478 157.782L182.214 157.565C181.244 156.768 180.399 155.771 179.703 154.602C179.622 154.463 179.534 154.312 179.439 154.15C179.052 153.488 178.149 151.933 177.754 151.743L177.545 151.643C175.321 150.569 168.545 147.292 164.696 153.597C161.649 158.586 166.534 165.606 168.774 168.396C169.022 168.704 169.485 169.278 165.825 180.789C165.737 181.062 165.487 181.252 165.2 181.262L160.855 181.398ZM170.805 188.028C162.316 188.028 159.14 181.111 159.105 181.03C159.013 180.824 159.031 180.586 159.152 180.396C159.272 180.204 159.478 180.086 159.703 180.079L164.677 179.921C166.154 175.238 167.592 170.141 167.615 169.116C165.152 166.021 160.094 158.532 163.538 152.891C166.517 148.009 171.43 147.178 178.136 150.424L178.339 150.521C179.055 150.861 179.761 152.007 180.61 153.468C180.703 153.627 180.788 153.775 180.869 153.907C181.485 154.942 182.226 155.819 183.075 156.516L183.339 156.734C183.848 157.153 184.068 157.836 183.897 158.477C183.888 158.507 183.879 158.535 183.867 158.565L183.372 159.724C183.311 159.861 183.302 160.023 183.344 160.178C183.936 162.444 184.11 164.641 183.876 166.889C183.582 169.704 182.249 170.815 179.126 170.849C179.078 170.852 178.969 170.856 178.814 170.866L178.191 179.715L182.3 179.699C182.3 179.699 182.3 179.699 182.302 179.699C182.633 179.699 182.916 179.935 182.971 180.264C183.006 180.474 183.721 185.4 175.129 187.479C173.557 187.861 172.117 188.028 170.805 188.028Z" fill="#0D4C8F"/>
<path d="M166.496 144.262C168.589 143.81 170.991 144.132 172.005 143.759C173.642 143.155 173.688 141.192 175.952 140.639C178.693 139.972 179.839 141.144 180.91 142.778C181.089 143.051 181.246 143.354 181.373 143.701C183.098 148.331 180.922 150.588 179.952 151.324C179.952 151.324 173.785 154.514 172.73 155.426C171.741 156.28 170.602 158.299 171.318 161.201C171.41 161.576 171.248 161.965 170.931 162.155C170.561 162.382 170.082 162.275 169.827 161.905C169.026 160.741 167.274 158.488 166.026 159.021C164.461 159.69 164.95 164.394 168.403 164.935C169.464 165.1 170.327 166.19 170.22 167.301C170.153 168.028 169.47 168.907 168.454 169.141C167.834 169.285 167.223 169.032 166.677 168.683C164.422 167.241 158.063 161.127 157.271 155.646C156.32 149.044 163.714 144.863 166.496 144.262Z" fill="#0D4C8F"/>
<path d="M178.958 170.755C178.951 170.755 178.942 170.755 178.935 170.755C178.828 170.75 176.291 170.641 174.46 169.081C174.196 168.856 174.162 168.461 174.389 168.194C174.613 167.928 175.011 167.898 175.275 168.123C176.777 169.4 178.96 169.493 178.981 169.495C179.328 169.509 179.599 169.799 179.588 170.148C179.574 170.486 179.296 170.755 178.958 170.755Z" fill="#0D4C8F"/>
<path d="M407.8 347.859L406.562 359.671L398.59 360.606V346.602L407.8 347.859Z" fill="white"/>
<path d="M399.267 347.377V359.843L405.945 359.06L407.056 348.44L399.267 347.377ZM398.588 361.282C398.424 361.282 398.262 361.222 398.137 361.113C397.991 360.984 397.91 360.799 397.91 360.606V346.602C397.91 346.405 397.993 346.22 398.142 346.09C398.29 345.961 398.487 345.905 398.679 345.928L407.892 347.185C408.253 347.234 408.512 347.565 408.473 347.928L407.237 359.741C407.204 360.056 406.956 360.306 406.642 360.343L398.667 361.278C398.639 361.282 398.614 361.282 398.588 361.282Z" fill="#0D4C8F"/>
<path d="M397.335 381.169C400.659 381.634 406.108 382.049 412.506 381.162C414.601 380.87 415.99 378.833 415.486 376.775C414.076 371.039 411.65 360.164 407.483 355.123L406.451 357.856L405.02 355.282C404.826 354.931 404.474 354.692 404.074 354.641L400.944 354.245C400.289 354.162 399.682 354.595 399.546 355.241L399.048 357.613L397.958 354.5L394.317 377.171C394.06 379.106 395.405 380.896 397.335 381.169Z" fill="#20C897"/>
<path d="M398.2 357.248L394.985 377.278C394.781 378.826 395.876 380.278 397.429 380.495C400.806 380.972 406.151 381.357 412.411 380.488C413.223 380.375 413.952 379.924 414.413 379.245C414.876 378.56 415.022 377.741 414.827 376.935L414.522 375.697C413.202 370.257 411.047 361.387 407.681 356.514L407.084 358.097C406.989 358.345 406.762 358.516 406.499 358.535C406.235 358.556 405.985 358.417 405.857 358.188L404.427 355.613C404.337 355.449 404.172 355.338 403.989 355.315L400.857 354.917C400.556 354.877 400.272 355.081 400.209 355.38L399.709 357.752C399.649 358.051 399.394 358.271 399.093 358.289C398.779 358.303 398.508 358.125 398.408 357.838L398.2 357.248ZM404.874 382.361C401.813 382.361 399.205 382.116 397.239 381.838C394.952 381.516 393.339 379.384 393.642 377.081L397.286 354.391C397.334 354.086 397.587 353.852 397.897 353.824C398.207 353.801 398.494 353.982 398.596 354.273L398.883 355.095C399.093 354.113 400.033 353.447 401.029 353.572L404.158 353.968C404.769 354.046 405.313 354.414 405.612 354.956L406.332 356.252L406.85 354.884C406.936 354.657 407.135 354.493 407.374 354.454C407.612 354.414 407.853 354.507 408.006 354.692C411.987 359.512 414.399 369.444 415.841 375.377L416.142 376.613C416.429 377.778 416.207 379.014 415.533 380.007C414.86 381.002 413.788 381.669 412.596 381.833C409.818 382.218 407.216 382.361 404.874 382.361Z" fill="#0D4C8F"/>
<path d="M406.573 378.56C401.207 378.56 396.95 377.368 396.702 377.299C396.341 377.192 396.135 376.817 396.237 376.458C396.339 376.097 396.716 375.894 397.075 375.993C397.156 376.016 405.288 378.292 413.038 376.523C413.404 376.438 413.765 376.669 413.85 377.032C413.934 377.398 413.705 377.762 413.341 377.845C411.031 378.373 408.714 378.56 406.573 378.56Z" fill="#0D4C8F"/>
<path d="M408.473 369.78C408.466 369.78 408.457 369.78 408.453 369.778L400.978 369.532C400.603 369.519 400.309 369.206 400.321 368.831C400.332 368.458 400.652 368.148 401.022 368.176L408.497 368.424C408.869 368.438 409.163 368.748 409.152 369.123C409.138 369.491 408.837 369.78 408.473 369.78Z" fill="#0D4C8F"/>
<path d="M370.453 341.569L369.258 358.806H359.666L359.219 341.569H370.453Z" fill="white"/>
<path d="M360.328 358.127H368.631L369.731 342.248H359.918L360.328 358.127ZM369.261 359.484H359.668C359.3 359.484 358.999 359.19 358.99 358.824L358.543 341.588C358.539 341.403 358.608 341.227 358.735 341.095C358.863 340.965 359.039 340.891 359.221 340.891H370.458C370.645 340.891 370.826 340.968 370.953 341.107C371.08 341.243 371.147 341.428 371.133 341.616L369.939 358.852C369.914 359.208 369.62 359.484 369.261 359.484Z" fill="#0D4C8F"/>
<path d="M371.766 368.535C371.792 370.167 370.678 371.597 369.093 371.97C363.576 373.252 351.151 376.116 347.607 376.646C343.009 377.331 337.354 375.919 334.926 373.224C332.495 370.53 340.368 364.095 344.104 361.755C349.655 358.275 354.986 351.403 357.222 351.093C359.458 350.782 363.632 357.28 363.632 357.28L370.454 354.41C370.454 354.41 371.644 360.266 371.766 368.535Z" fill="#20C897"/>
<path d="M357.398 351.759C357.37 351.759 357.342 351.762 357.315 351.764C356.409 351.889 354.349 353.85 352.356 355.743C349.979 358 347.289 360.558 344.463 362.329C340.796 364.627 335.523 369.181 335.164 371.757C335.104 372.183 335.187 372.505 335.428 372.771C337.622 375.204 343.039 376.641 347.509 375.975C351.046 375.447 363.676 372.535 368.937 371.308C370.203 371.014 371.109 369.852 371.088 368.546C370.995 362.201 370.259 357.245 369.94 355.363L363.893 357.907C363.59 358.032 363.24 357.926 363.062 357.646C361.213 354.769 358.562 351.759 357.398 351.759ZM345.21 377.495C340.928 377.495 336.511 376 334.421 373.681C333.914 373.118 333.706 372.387 333.819 371.569C334.303 368.116 340.713 363.076 343.743 361.178C346.453 359.482 349.092 356.975 351.421 354.762C353.96 352.347 355.791 350.607 357.129 350.421C359.414 350.113 362.71 354.676 363.889 356.438L370.192 353.787C370.379 353.708 370.592 353.718 370.773 353.81C370.951 353.907 371.078 354.076 371.12 354.276C371.132 354.336 372.321 360.287 372.446 368.528C372.472 370.463 371.129 372.188 369.247 372.63C363.967 373.859 351.294 376.78 347.708 377.317C346.893 377.438 346.053 377.495 345.21 377.495Z" fill="#0D4C8F"/>
<path d="M345.295 374.324C341.755 374.324 338.637 373.653 336.637 371.845C336.359 371.593 336.339 371.164 336.589 370.887C336.841 370.609 337.271 370.588 337.547 370.838C344.593 377.211 368.758 367.431 369.003 367.331C369.35 367.192 369.746 367.356 369.887 367.701C370.028 368.049 369.862 368.444 369.514 368.588C368.755 368.896 355.339 374.324 345.295 374.324Z" fill="#0D4C8F"/>
<path d="M355.931 363.891C355.769 363.891 355.607 363.833 355.478 363.718L350.598 359.31C350.32 359.058 350.299 358.63 350.549 358.352C350.799 358.072 351.228 358.051 351.508 358.303L356.387 362.711C356.665 362.963 356.686 363.391 356.436 363.669C356.302 363.817 356.119 363.891 355.931 363.891Z" fill="#0D4C8F"/>
<path d="M410.523 229.204C410.523 229.204 413.493 283.088 415.051 301.688C416.606 320.287 411.412 350.188 411.412 350.188L396.604 349.41C396.604 349.41 395.588 313.053 394.488 302.958C394.488 302.958 388.234 289.273 386.379 277.067C384.525 264.861 378.21 245.581 378.21 245.581C378.21 245.581 373.078 341.81 372.585 349.37C372.585 349.37 360.972 349.889 356.81 347.264C356.81 347.264 349.433 312.176 350.491 293.086C351.551 273.995 350.389 226.562 350.389 226.562L410.523 229.204Z" fill="#0D4C8F"/>
<path d="M401.739 303.632H397.213C396.841 303.632 396.535 303.329 396.535 302.956C396.535 302.581 396.841 302.278 397.213 302.278H401.739C402.114 302.278 402.419 302.581 402.419 302.956C402.419 303.329 402.114 303.632 401.739 303.632Z" fill="white"/>
<path d="M364.972 331.62C364.601 331.62 364.3 331.324 364.291 330.956C364.136 322.37 354.236 306.174 354.136 306.009C353.939 305.692 354.039 305.273 354.358 305.079C354.678 304.88 355.094 304.979 355.291 305.301C355.706 305.977 365.483 321.977 365.648 330.931C365.657 331.303 365.356 331.613 364.983 331.62C364.979 331.62 364.976 331.62 364.972 331.62Z" fill="white"/>
<path d="M345.7 143.028C344.621 142.942 339.332 153.799 322.769 153.345C306.209 152.889 292.924 134.329 292.924 134.329C292.924 134.329 287.202 124.667 282.864 121.176C278.524 117.683 277.843 117.222 277.843 117.222C277.843 117.222 276.482 119.039 277.843 121.176C279.202 123.312 282.959 127.312 282.959 127.312C282.959 127.312 278.82 129.586 280.686 134.329C282.834 139.78 288.885 139.34 288.885 139.34C288.885 139.34 301.163 193.792 351.91 167.917L345.7 143.028Z" fill="white"/>
<path d="M288.885 138.664C289.2 138.664 289.476 138.882 289.547 139.192C289.598 139.428 295.077 162.85 312.932 171.222C323.533 176.192 336.378 174.958 351.119 167.556L345.3 144.227C345.182 144.359 345.054 144.5 344.934 144.634C342.321 147.553 336.205 154.4 322.751 154.021C306.047 153.56 292.922 135.491 292.374 134.722C292.36 134.706 292.351 134.69 292.339 134.674C292.286 134.576 286.633 125.079 282.439 121.704C280.001 119.743 278.728 118.743 278.082 118.248C277.876 118.833 277.753 119.771 278.415 120.81C279.726 122.87 283.418 126.806 283.455 126.845C283.598 127 283.663 127.208 283.631 127.417C283.598 127.623 283.471 127.803 283.288 127.905C283.142 127.986 279.7 129.968 281.32 134.079C283.26 139.009 288.779 138.669 288.837 138.664C288.853 138.664 288.869 138.664 288.885 138.664ZM326.744 175.572C321.594 175.572 316.788 174.53 312.351 172.447C295.427 164.505 289.3 143.62 288.358 140.021C286.702 139.97 281.952 139.391 280.057 134.576C278.506 130.63 280.728 128.183 281.939 127.204C280.844 126.014 278.353 123.241 277.27 121.539C275.677 119.035 277.233 116.905 277.302 116.817C277.517 116.528 277.925 116.458 278.223 116.662C278.251 116.681 278.978 117.176 283.29 120.648C287.601 124.118 293.087 133.271 293.489 133.956C294.024 134.683 307.015 152.231 322.79 152.664C335.619 153.009 341.434 146.509 343.922 143.731C344.797 142.755 345.193 142.308 345.753 142.352C346.045 142.375 346.288 142.581 346.36 142.863L352.566 167.752C352.645 168.06 352.499 168.377 352.216 168.523C343.003 173.22 334.485 175.572 326.744 175.572Z" fill="#0D4C8F"/>
<path d="M427.777 167.917C427.777 167.917 422.807 135.789 405.252 127.884C387.694 119.979 363.939 121.079 357.388 125.025C350.84 128.972 333.766 146.822 333.766 146.822L348.854 167.917C348.854 167.917 345.407 224.704 348.131 239.694C348.131 239.694 364.914 241.655 372.032 238.847C379.15 236.039 402.553 232.106 413.742 237.255L411.71 165.359L427.777 167.917Z" fill="#20C897"/>
<path d="M348.714 239.074C351.547 239.368 365.586 240.662 371.783 238.218C378.721 235.479 401.251 231.588 413.035 236.215L411.031 165.377C411.026 165.176 411.112 164.982 411.262 164.85C411.415 164.715 411.616 164.657 411.818 164.688L426.945 167.1C425.964 161.81 420.339 135.421 404.973 128.502C387.471 120.62 363.869 121.912 357.741 125.607C351.887 129.134 337.228 144.213 334.647 146.884L349.408 167.523C349.496 167.65 349.54 167.801 349.533 167.958C349.496 168.521 346.193 223.609 348.714 239.074ZM359.964 241.046C353.968 241.046 348.45 240.414 348.054 240.37C347.758 240.333 347.517 240.111 347.466 239.817C344.818 225.255 347.89 172.676 348.163 168.116L333.216 147.215C333.026 146.951 333.054 146.588 333.276 146.354C333.978 145.62 350.487 128.394 357.04 124.444C364.142 120.164 388.163 119.447 405.529 127.264C423.218 135.232 428.241 166.486 428.45 167.815C428.482 168.028 428.41 168.245 428.258 168.398C428.103 168.551 427.887 168.62 427.672 168.588L412.41 166.157L414.42 237.236C414.429 237.47 414.313 237.69 414.116 237.819C413.922 237.949 413.674 237.97 413.461 237.868C402.804 232.968 379.63 236.579 372.283 239.479C369.204 240.692 364.45 241.046 359.964 241.046Z" fill="#0D4C8F"/>
<path d="M398.321 223.116C398.284 223.116 398.245 223.111 398.203 223.104C383.944 220.581 375.09 214.183 370.173 209.259C364.823 203.907 362.884 199.197 362.803 199C362.664 198.655 362.833 198.257 363.178 198.118C363.525 197.979 363.921 198.146 364.059 198.493C364.136 198.678 371.89 217.072 398.439 221.771C398.807 221.833 399.055 222.185 398.988 222.556C398.932 222.884 398.645 223.116 398.321 223.116Z" fill="#0D4C8F"/>
<path d="M350.123 190.375H384.29L373.586 152.148H339.422L350.123 190.375Z" fill="#0D4C8F"/>
<path d="M424.964 167.47L408.103 164.491C408.103 164.491 409.909 189.644 374.925 176.093C374.925 176.093 376.214 172.322 376.031 167.917C375.851 163.514 373.219 167.775 372.851 171.354C372.483 174.933 364.27 173.481 359.332 172.069C354.397 170.66 347.918 171.583 359.332 177.889C370.749 184.197 373.249 181.384 373.249 181.384C373.249 181.384 387.825 201.812 405.964 197.472C428.272 192.137 424.964 167.47 424.964 167.47Z" fill="white"/>
<path d="M373.256 180.692C373.27 180.692 373.281 180.694 373.295 180.694C373.501 180.706 373.682 180.822 373.8 180.991C373.943 181.19 388.325 201 405.804 196.815C414.788 194.664 420.626 189.118 423.166 180.326C424.765 174.782 424.483 169.623 424.344 168.049L408.797 165.301C408.774 167.609 408.219 173.958 403.008 177.808C397.182 182.116 387.652 181.75 374.679 176.727C374.339 176.595 374.166 176.218 374.284 175.875C374.295 175.838 375.529 172.162 375.355 167.944C375.33 167.37 375.265 167.039 375.209 166.852C374.693 167.405 373.74 169.336 373.527 171.424C373.441 172.241 373.024 172.921 372.325 173.396C369.341 175.414 361.483 173.391 359.147 172.722C356.235 171.891 353.846 172.144 353.661 172.597C353.656 172.606 353.372 173.822 359.661 177.296C370.189 183.113 372.74 180.933 372.763 180.91C372.892 180.764 373.064 180.692 373.256 180.692ZM400.906 198.748C386.584 198.748 375.284 185.13 373.084 182.292C371.703 182.921 367.941 183.421 359.003 178.481C352.26 174.757 352.01 173.044 352.406 172.081C353.138 170.31 357.061 170.718 359.52 171.417C363.837 172.653 369.58 173.618 371.566 172.271C371.939 172.019 372.133 171.706 372.177 171.285C372.42 168.912 373.797 165.361 375.323 165.361C375.332 165.361 375.344 165.361 375.351 165.363C376.605 165.4 376.684 167.273 376.709 167.889C376.853 171.361 376.122 174.412 375.756 175.687C387.957 180.315 396.848 180.667 402.193 176.725C407.913 172.507 407.432 164.616 407.427 164.539C407.411 164.329 407.494 164.125 407.647 163.986C407.804 163.847 408.015 163.787 408.221 163.824L425.084 166.801C425.374 166.852 425.598 167.086 425.638 167.38C425.67 167.637 426.459 173.764 424.48 180.657C422.64 187.067 417.962 195.299 406.122 198.132C404.346 198.558 402.603 198.748 400.906 198.748Z" fill="#0D4C8F"/>
<path d="M378.611 113.241C380.104 114.611 383.025 116.282 385.31 115.13C387.011 114.273 387.963 112.049 387.902 109.502C388.689 109.565 389.724 109.509 390.46 108.859C391.595 107.852 391.384 106.005 391.338 104.789C391.134 99.1852 394.384 98.3264 393.59 94.5208C392.965 91.5301 390.62 89.75 390.18 89.4144C387.967 87.7338 386.467 88.2778 382.745 87.3009C376.483 85.6574 376.284 82.9537 372.159 82.9398C371.919 82.9398 366.305 83.0023 364.398 86.8889C362.849 90.0463 364.657 93.8889 366.53 95.9074C368.956 98.5208 370.694 97.2292 373.127 99.4213C377.398 103.269 374.173 109.171 378.611 113.241Z" fill="#0D4C8F"/>
<path d="M366.112 103.238L366.357 103.025C367.598 101.956 368.887 100.713 369.216 99.1065C370.614 92.2824 376.857 89.8079 377.144 96.0741C377.216 97.6551 382.98 97.5741 382.297 99.2315C380.512 103.558 380.473 102.396 382.992 103.988C383.276 104 383.559 104.063 383.825 104.188C385.119 104.789 385.573 106.546 384.848 108.109C384.406 109.058 383.628 109.708 382.799 109.947V116.782C382.799 119.347 384.346 121.655 386.714 122.625L389.019 123.567C389.019 123.567 378.272 130.593 367.364 122.88L368.82 122.227C371.383 121.074 373.066 118.558 373.154 115.745L373.165 114.407C372.434 114.475 371.723 114.426 371.066 114.234C368.017 113.343 367.003 109.824 367.522 105.444L366.279 104.778C365.7 104.468 365.612 103.669 366.112 103.238Z" fill="white"/>
<path d="M368.761 122.995C376.756 127.981 384.536 125.088 387.446 123.657L386.458 123.252C383.823 122.174 382.12 119.634 382.12 116.782V109.947C382.12 109.646 382.321 109.38 382.613 109.296C383.286 109.102 383.895 108.551 384.233 107.822C384.8 106.602 384.492 105.245 383.539 104.803C383.367 104.72 383.173 104.676 382.962 104.667C382.844 104.662 382.728 104.625 382.629 104.56C382.203 104.292 381.849 104.104 381.566 103.951C379.911 103.065 380.166 102.475 381.013 100.523C381.194 100.109 381.411 99.6065 381.664 98.9907C381.428 98.7245 380.277 98.4027 379.647 98.2268C378.113 97.7963 376.525 97.3518 376.467 96.1041C376.384 94.3055 375.768 93.2291 374.775 93.1527C373.3 93.0347 370.722 95.1389 369.881 99.2453C369.506 101.079 368.094 102.421 366.8 103.537L366.555 103.75C366.465 103.829 366.46 103.926 366.467 103.977C366.472 104.03 366.497 104.123 366.601 104.178L367.844 104.847C368.09 104.981 368.228 105.25 368.196 105.525C367.948 107.609 367.752 112.56 371.259 113.581C371.809 113.743 372.43 113.794 373.108 113.734C373.3 113.718 373.488 113.78 373.627 113.91C373.768 114.042 373.847 114.225 373.847 114.414L373.833 115.752C373.738 118.817 371.879 121.595 369.099 122.845L368.761 122.995ZM378.388 127.15C374.914 127.15 370.946 126.243 366.974 123.433C366.775 123.294 366.666 123.058 366.689 122.815C366.712 122.572 366.865 122.363 367.087 122.262L368.541 121.606C370.853 120.569 372.397 118.259 372.478 115.725L372.485 115.113C371.916 115.104 371.379 115.03 370.879 114.884C367.805 113.991 366.33 110.699 366.798 105.826L365.96 105.375C365.49 105.123 365.175 104.655 365.12 104.125C365.059 103.597 365.266 103.074 365.668 102.725L365.914 102.512C367.039 101.542 368.263 100.387 368.553 98.9722C369.509 94.3102 372.578 91.625 374.881 91.7986C376.606 91.9352 377.705 93.5208 377.821 96.0416C377.948 96.3426 379.342 96.7315 380.013 96.9213C381.356 97.2986 382.513 97.625 382.907 98.4282C383.066 98.7569 383.073 99.1273 382.925 99.4907C382.664 100.123 382.439 100.637 382.256 101.062C381.995 101.667 381.745 102.241 381.705 102.468C381.805 102.542 382.016 102.653 382.205 102.757C382.476 102.9 382.807 103.079 383.21 103.326C383.529 103.359 383.833 103.442 384.115 103.574C385.742 104.333 386.344 106.498 385.462 108.393C385.034 109.317 384.326 110.032 383.476 110.419V116.782C383.476 119.083 384.849 121.127 386.972 121.998L389.277 122.94C389.511 123.037 389.671 123.252 389.696 123.505C389.717 123.755 389.601 123.998 389.391 124.137C389.319 124.183 384.668 127.15 378.388 127.15Z" fill="#0D4C8F"/>
<path d="M373.165 115.086C372.836 115.086 372.547 114.847 372.496 114.512C372.44 114.141 372.695 113.794 373.063 113.741C376.931 113.143 378.695 110.141 378.713 110.111C378.901 109.787 379.315 109.674 379.639 109.861C379.963 110.049 380.077 110.463 379.889 110.785C379.806 110.933 377.774 114.387 373.269 115.079C373.234 115.086 373.2 115.086 373.165 115.086Z" fill="#0D4C8F"/>
<path d="M330.152 404.285L360.761 297.991L391.37 404.285H398.705L365.076 284.345L356.448 284.333L322.816 404.285H330.152Z" fill="white"/>
<path d="M391.88 403.604H397.813L364.561 285.023L356.964 285.012L323.711 403.604H329.642L360.762 295.539L391.88 403.604ZM399.6 404.961H390.862L360.762 300.442L330.663 404.961H321.922L355.936 283.653L365.591 283.667L365.73 284.162L399.6 404.961Z" fill="#0D4C8F"/>
<path d="M398.776 286.141H115.383V274.593H398.776V286.141Z" fill="white"/>
<path d="M116.06 285.465H398.097V275.271H116.06V285.465ZM399.453 286.819H114.703V273.914H399.453V286.819Z" fill="#0D4C8F"/>
<path d="M330.387 284.106C330.014 284.106 329.711 283.803 329.711 283.428V276.998C329.711 276.625 330.014 276.319 330.387 276.319C330.762 276.319 331.065 276.625 331.065 276.998V283.428C331.065 283.803 330.762 284.106 330.387 284.106Z" fill="#20C897"/>
<path d="M121.92 405.141L152.529 298.863L183.138 405.141H190.473L156.844 285.218L148.216 285.206L114.582 405.141H121.92Z" fill="white"/>
<path d="M131.222 279.843L154.706 302.514C157.358 304.569 162.571 310.345 163.525 313.37C165.215 318.722 164.305 323.604 163.738 329.19L150.173 378.099L154.317 395.37C155.71 396.326 135.164 386.535 135.164 386.535C135.164 386.535 138.402 333.053 138.398 333.005C137.965 326.292 137.81 314.301 131.222 312.988C129.884 312.72 125.014 312.655 124.215 312.572C117.305 311.836 110.384 311.697 103.655 301.757C100.636 297.294 101.007 283.986 101.007 283.986L131.222 279.843Z" fill="white"/>
<path d="M135.864 386.12C141.878 388.984 150.281 392.944 153.359 394.301L149.51 378.257C149.482 378.146 149.484 378.03 149.514 377.919L163.065 329.065C163.142 328.315 163.223 327.581 163.306 326.856C163.834 322.134 164.288 318.056 162.876 313.572C162.001 310.799 156.977 305.137 154.288 303.051C154.269 303.035 154.251 303.019 154.232 303L130.984 280.56L101.672 284.579C101.644 287.153 101.697 297.657 104.214 301.377C110.378 310.484 116.554 311.109 123.091 311.773C123.487 311.813 123.885 311.854 124.283 311.896C124.528 311.924 125.274 311.949 126.137 311.981C128.042 312.049 130.41 312.134 131.352 312.324C137.947 313.639 138.565 324.287 138.973 331.333C139.008 331.9 139.038 332.447 139.07 332.961C139.075 333.016 139.077 333.056 135.864 386.12ZM154.431 396.113C154.146 396.113 153.771 395.954 153.253 395.731C152.716 395.5 151.954 395.16 151.045 394.745C149.445 394.016 147.221 392.981 144.436 391.676C139.646 389.424 134.869 387.148 134.869 387.148C134.619 387.03 134.466 386.771 134.482 386.495C134.514 385.972 137.626 334.579 137.716 333.009C137.683 332.502 137.651 331.968 137.619 331.412C137.234 324.782 136.653 314.762 131.086 313.653C130.253 313.486 127.746 313.396 126.089 313.333C125.126 313.301 124.431 313.275 124.139 313.245C123.744 313.204 123.348 313.162 122.952 313.123C116.394 312.456 109.612 311.766 103.091 302.137C99.9844 297.546 100.311 284.519 100.325 283.968C100.334 283.634 100.582 283.359 100.91 283.315L131.128 279.171C131.334 279.146 131.54 279.211 131.69 279.356L155.149 302C157.672 303.97 163.109 309.808 164.17 313.164C165.667 317.924 165.174 322.336 164.653 327.007C164.57 327.745 164.487 328.495 164.408 329.259C164.406 329.296 164.399 329.336 164.387 329.373L150.869 378.111L154.929 395.032C155.128 395.308 155.061 395.611 154.966 395.769C154.825 396.016 154.656 396.113 154.431 396.113Z" fill="#0D4C8F"/>
<path d="M135.126 372.523H153.026C153.318 372.523 153.542 372.771 153.503 373.049L152.468 380.292C152.126 382.678 152.353 386.438 154.316 387.861L156.167 388.979L165.91 395.579C168.748 397.766 168.707 402.012 165.732 404.023C165.318 404.303 164.95 404.47 164.679 404.47L161.538 404.688C157.158 404.991 152.758 404.667 148.478 403.725C148.478 403.725 137.679 401.907 134.274 400.6C132.434 399.894 132.17 397.678 132.341 396.637C133.695 388.38 133.32 374.197 133.32 374.197C133.357 373.262 134.156 372.523 135.126 372.523Z" fill="#20C897"/>
<path d="M137.918 280.616C137.918 280.616 176.383 288.826 182.86 290.602C190.987 292.831 193.293 297.787 195.17 302.012C198.767 310.118 198.249 319.384 194.851 327.572L171.416 390.998L188.242 404.769L156.934 400.785L173.635 328.183C175.49 321.044 175.24 315.451 169.791 313.206C160.223 309.262 131.219 303.519 131.219 303.519L137.918 280.616Z" fill="white"/>
<path d="M157.764 400.206L185.986 403.794L170.986 391.521C170.764 391.34 170.681 391.032 170.78 390.762L194.215 327.336C197.79 318.732 197.905 309.843 194.549 302.287C192.799 298.343 190.621 293.433 182.681 291.255C176.746 289.627 143.361 282.475 138.391 281.412L132.079 302.998C136.729 303.933 161.262 308.954 170.051 312.579C176.801 315.361 175.706 322.912 174.292 328.352L157.764 400.206ZM188.243 405.444C188.215 405.444 188.185 405.442 188.158 405.44L156.85 401.458C156.66 401.433 156.491 401.329 156.38 401.171C156.271 401.014 156.234 400.819 156.276 400.632L172.975 328.03C175.051 320.042 173.986 315.669 169.533 313.831C160.137 309.958 131.38 304.241 131.09 304.183C130.903 304.146 130.741 304.032 130.641 303.868C130.544 303.706 130.516 303.509 130.57 303.326L137.269 280.426C137.366 280.083 137.713 279.877 138.06 279.954C138.445 280.035 176.621 288.185 183.04 289.949C191.597 292.294 194.021 297.752 195.79 301.738C199.299 309.639 199.185 318.905 195.477 327.831L172.22 390.78L188.671 404.243C188.905 404.433 188.984 404.757 188.866 405.035C188.757 405.287 188.512 405.444 188.243 405.444Z" fill="#0D4C8F"/>
<path d="M169.264 405.667H188.977C191.294 405.667 193.167 403.688 192.776 401.491C192.635 400.706 192.26 399.861 191.512 399.007L176.848 391.949C175.276 391.192 174.699 389.308 175.598 387.852L181.618 378.072C182.19 377.144 181.493 375.968 180.373 375.968H160.389C159.26 375.968 158.301 376.766 158.139 377.843L155.616 394.688L154.362 401.456C154.035 403.22 155.378 404.863 157.234 404.97L169.264 405.667Z" fill="#20C897"/>
<path d="M156.69 405.569C156.639 405.569 156.588 405.563 156.535 405.551C154.588 405.097 153.343 403.245 153.697 401.333L154.951 394.563L155.715 389.472C155.769 389.102 156.118 388.84 156.486 388.903C156.854 388.958 157.111 389.303 157.056 389.674L156.289 394.787L155.03 401.581C154.808 402.778 155.604 403.94 156.843 404.229C157.206 404.315 157.433 404.681 157.35 405.044C157.278 405.359 156.998 405.569 156.69 405.569Z" fill="white"/>
<path d="M98.029 283.831C97.1193 290.488 98.7674 305.164 108.967 310.069C119.168 314.974 130.508 310.924 133.298 316.667C135.622 321.454 133.372 340.815 132.904 345.255C132.818 346.062 133.372 346.794 134.173 346.928C137.804 347.532 148.149 348.789 162.675 346.66C177.483 344.488 188.726 345.819 192.52 346.414C193.311 346.539 194.061 346.035 194.244 345.255C195.601 339.505 200.642 317.81 200.876 312.104C201.147 305.505 199.186 289.16 183.605 284.421C180.754 283.558 177.999 282.729 174.017 282.19C154.015 279.474 131.221 272.974 131.221 272.974L98.029 283.831Z" fill="#0D4C8F"/>
<path d="M165.519 249.079C165.793 249.007 171.952 249.31 172.533 249.113C175.441 248.125 181.563 245.9 184.445 245.882C187.693 245.857 190.781 245.322 192.647 244.924C193.772 244.683 194.582 245.139 194.795 245.87C194.98 246.512 194.781 248 193.112 248.377C191.184 248.815 189.265 249.301 187.621 249.692C187.105 249.815 186.57 249.836 187.059 250.005C188.193 250.405 189.425 251.049 189.503 251.97C189.651 253.701 185.383 257.644 180.686 257.933C176.661 258.178 175.55 256.194 174.01 255.905C173.753 255.854 167.052 256.021 166.756 255.958C163.721 255.329 163.885 249.505 165.519 249.079Z" fill="white"/>
<path d="M173.589 255.218C173.959 255.218 174.063 255.224 174.135 255.238C174.76 255.356 175.29 255.678 175.855 256.018C176.931 256.669 178.151 257.403 180.642 257.255C183.67 257.069 186.573 255.22 187.989 253.579C188.64 252.826 188.846 252.271 188.825 252.028C188.797 251.69 188.258 251.148 186.832 250.646C186.265 250.447 186.167 250.097 186.188 249.838C186.23 249.271 186.776 249.167 187.14 249.099C187.239 249.081 187.353 249.058 187.464 249.03C188.07 248.887 188.716 248.731 189.387 248.567C190.529 248.289 191.744 247.993 192.959 247.715C193.434 247.609 193.776 247.382 193.975 247.044C194.198 246.667 194.195 246.248 194.142 246.058C194.017 245.63 193.471 245.44 192.786 245.586C190.76 246.018 187.665 246.537 184.448 246.56C181.982 246.576 176.846 248.347 173.776 249.403C173.404 249.53 173.059 249.65 172.748 249.755C172.343 249.893 171.075 249.884 167.707 249.787C166.864 249.766 165.917 249.736 165.656 249.748C165.408 249.87 165.005 250.706 165.04 252.037C165.075 253.361 165.573 255 166.862 255.289C167.191 255.31 169.205 255.275 170.681 255.255C172.311 255.227 173.144 255.218 173.589 255.218ZM180.01 258.632C177.552 258.632 176.179 257.799 175.151 257.181C174.67 256.887 174.286 256.655 173.911 256.576C173.628 256.562 172.01 256.588 170.702 256.609C167.299 256.662 166.799 256.662 166.617 256.625C164.526 256.192 163.732 253.9 163.686 252.072C163.644 250.481 164.142 248.736 165.346 248.421C165.515 248.38 165.691 248.375 167.746 248.433C169.207 248.474 171.927 248.551 172.343 248.463C172.619 248.366 172.964 248.248 173.334 248.12C176.686 246.965 181.751 245.22 184.438 245.201C187.542 245.181 190.538 244.678 192.505 244.259C193.906 243.961 195.114 244.546 195.443 245.681C195.582 246.157 195.586 246.981 195.144 247.731C194.871 248.194 194.323 248.796 193.262 249.039C192.049 249.315 190.843 249.606 189.707 249.884C189.415 249.956 189.128 250.025 188.848 250.093C189.672 250.613 190.117 251.222 190.177 251.912C190.255 252.822 189.589 253.801 189.015 254.465C187.367 256.375 184.163 258.398 180.725 258.609C180.478 258.625 180.239 258.632 180.01 258.632Z" fill="#0D4C8F"/>
<path d="M132.724 211.741C141.249 218.438 144.038 237.815 149.497 242.19C154.228 245.984 171.177 247.19 171.177 247.19L171.305 258.067L156.515 258.644C147.615 258.982 139.094 255.363 135.944 252.398C125.467 242.539 103.677 221.683 98.1797 207.769L113.476 206.162C113.476 206.162 123.27 204.319 132.724 211.741Z" fill="#0D4C8F"/>
<path d="M130.898 245.699C130.898 245.699 131.756 249.674 130.161 254.556C128.18 260.625 130.567 267.264 135.129 271.732C137.043 273.609 139.872 275.542 142.548 275.94C142.548 275.94 139.351 282.944 129.275 283.88C125.178 284.259 114.354 285.174 106.268 285.1C95.2263 284.995 86.9994 283.347 86.9994 283.347L85.4277 232.153C85.4277 232.153 83.8027 210.66 98.6059 207.732L119.939 206.396L130.898 245.699Z" fill="#0D4C8F"/>
<path d="M132.258 250.495C132.075 250.495 131.892 250.421 131.76 250.275C127.04 245.153 123.366 239.759 121.14 234.685C120.989 234.343 121.144 233.942 121.487 233.792C121.832 233.639 122.23 233.799 122.38 234.139C124.549 239.081 128.137 244.343 132.758 249.356C133.01 249.634 132.994 250.062 132.718 250.317C132.586 250.435 132.422 250.495 132.258 250.495Z" fill="#0D2234"/>
<path d="M127.948 182.764C127.881 182.032 124.369 180.507 123.575 179.576C122.779 178.646 122.911 177.252 122.448 175.991C121.985 174.731 120.24 173.194 120.24 173.194C110.494 161.393 99.5081 174.44 99.5081 174.44C97.1817 177.69 98.0151 182.474 99.1725 185.192C101.413 190.451 107.571 194.155 107.571 194.155C107.635 194.421 107.691 194.683 107.737 194.94C108.615 199.882 104.635 206.843 99.7628 208.021C99.7188 208.032 99.6771 208.044 99.6308 208.053C102.788 211.822 107.339 213.442 112.633 213.442C116.983 213.442 119.962 211.532 122.992 208.866C121.763 207.801 120.941 207.366 119.941 206.396C116.67 203.227 118.869 196.035 119.929 195.174C120.99 194.31 125.964 195.785 127.05 194.37C128.649 192.287 126.291 186.081 126.291 185.481C126.291 185.199 126.679 184.736 127.08 184.25C127.524 183.713 127.983 183.146 127.948 182.764Z" fill="white"/>
<path d="M100.846 208.391C103.674 211.294 107.635 212.764 112.633 212.764C116.429 212.764 119.154 211.229 121.943 208.877C121.656 208.648 121.39 208.449 121.13 208.255C120.575 207.84 120.052 207.449 119.468 206.882C118.103 205.558 117.438 203.484 117.552 200.889C117.672 198.127 118.681 195.315 119.501 194.646C120.174 194.1 121.42 194.174 122.996 194.271C124.241 194.347 126.123 194.463 126.512 193.961C127.556 192.597 126.357 188.35 125.908 186.752C125.688 185.975 125.612 185.694 125.612 185.482C125.612 184.963 126.017 184.475 126.526 183.857L126.559 183.819C126.751 183.583 127.13 183.123 127.244 182.875C126.954 182.581 126.017 182.021 125.378 181.644C124.406 181.065 123.489 180.519 123.059 180.019C122.448 179.303 122.288 178.424 122.135 177.574C122.049 177.1 121.968 176.65 121.811 176.227C121.48 175.324 120.239 174.1 119.792 173.704C119.765 173.678 119.739 173.65 119.716 173.625C117.158 170.528 114.29 168.949 111.193 168.933C111.177 168.933 111.16 168.933 111.142 168.933C105.285 168.933 100.364 174.486 100.042 174.857C97.8086 178.012 98.8341 182.669 99.7971 184.926C101.922 189.917 107.862 193.537 107.92 193.574C108.075 193.667 108.188 193.819 108.23 193.995C108.297 194.275 108.355 194.553 108.404 194.822C109.32 199.988 105.533 206.581 100.846 208.391ZM112.633 214.12C106.79 214.12 102.239 212.227 99.1119 208.491C98.9591 208.31 98.9128 208.067 98.9869 207.843C99.0586 207.623 99.2415 207.451 99.4683 207.396L99.6003 207.363C104.012 206.294 107.92 199.857 107.068 195.058C107.04 194.9 107.008 194.743 106.973 194.581C105.765 193.81 100.616 190.31 98.5494 185.458C97.473 182.933 96.3503 177.688 98.9568 174.044C98.966 174.028 98.9776 174.014 98.9892 174.002C99.2114 173.738 104.478 167.576 111.142 167.576C111.16 167.576 111.174 167.576 111.193 167.576C114.7 167.593 117.908 169.324 120.73 172.72C121.049 173.009 122.6 174.447 123.084 175.757C123.281 176.294 123.376 176.822 123.468 177.336C123.6 178.067 123.716 178.699 124.089 179.137C124.373 179.468 125.316 180.028 126.073 180.477C127.704 181.449 128.559 181.986 128.623 182.701C128.684 183.37 128.135 184.035 127.603 184.681L127.573 184.72C127.364 184.972 127.056 185.343 126.975 185.516C127.005 185.646 127.114 186.035 127.211 186.382C127.853 188.655 129.047 192.884 127.586 194.785C126.762 195.859 124.806 195.741 122.913 195.625C122.061 195.572 120.633 195.486 120.357 195.699C120.029 195.968 119.022 198.199 118.906 200.97C118.841 202.495 119.052 204.59 120.41 205.907C120.936 206.417 121.401 206.764 121.943 207.171C122.376 207.495 122.869 207.861 123.434 208.354C123.582 208.482 123.667 208.667 123.67 208.863C123.67 209.06 123.586 209.245 123.438 209.375C120.204 212.225 117.128 214.12 112.633 214.12Z" fill="#0D4C8F"/>
<path d="M64.1758 175.572C64.1758 166.938 68.1827 160.868 75.5045 157.428C78.2753 156.125 82.4327 154.019 85.6943 154.019C97.5786 154.019 107.213 163.667 107.213 175.572C107.213 187.475 97.5786 197.125 85.6943 197.125C80.1781 197.125 76.935 193.924 73.1272 190.505C68.729 186.558 64.1758 181.949 64.1758 175.572Z" fill="#0D4C8F"/>
<path d="M121.545 171.639C120.487 169.884 119.591 169.076 118.265 168.252C110.962 163.713 103.626 168.611 100.772 171.468C99.3993 172.843 98.3276 174.507 97.7836 176.373C96.7188 180.037 97.2234 184.303 98.1794 186.544C100.043 190.919 104.133 193.169 106.765 194.41C107.242 194.634 107.779 194.66 108.168 194.306C109.203 193.361 110.068 192.461 110.797 191.6C111.145 191.19 111.045 190.572 110.582 190.301C110.457 190.227 110.332 190.143 110.212 190.053C108.591 188.852 108.128 186.725 109.182 185.306C110.23 183.884 112.397 183.708 114.017 184.91C114.131 184.993 114.235 185.086 114.337 185.174C115.145 182.215 114.862 179.787 115.966 177.514C117.534 174.289 120.355 173.812 121.71 173.782C122.281 173.1 121.545 171.639 121.545 171.639Z" fill="#0D4C8F"/>
<path d="M118.237 235.597V247.843C118.237 265.394 131.135 279.62 147.047 279.62C162.959 279.62 175.858 293.847 175.858 311.396C175.858 312.961 174.679 314.229 173.223 314.229H96.9617C73.1075 314.229 53.7695 292.903 53.7695 266.593V234.002C53.7695 223.537 61.4617 215.056 70.9478 215.056H99.6098C109.897 215.056 118.237 224.252 118.237 235.597Z" fill="#20C897"/>
<path d="M158.46 302.435C158.238 302.435 158.023 302.326 157.891 302.127C154.027 296.238 148.073 292.998 139.692 292.222C134.363 291.729 129.182 290.197 125.476 288.016C116.3 282.62 104.101 273.051 104.101 252.361V250.053C104.101 230.19 97.798 230.19 88.2564 230.19C87.8814 230.19 87.5781 229.887 87.5781 229.514C87.5781 229.137 87.8814 228.833 88.2564 228.833C98.923 228.833 105.458 229.859 105.458 250.053V252.361C105.458 272.357 117.275 281.62 126.164 286.85C129.703 288.928 134.68 290.398 139.817 290.873C148.513 291.676 154.979 295.213 159.025 301.384C159.231 301.697 159.143 302.118 158.83 302.322C158.717 302.398 158.587 302.435 158.46 302.435Z" fill="#0D2234"/>
<path d="M106.578 404.808H114.604V311.697H106.578V404.808Z" fill="#20C897"/>
<path d="M148.208 403.431L112.687 400.079H109.43L73.1641 403.431V406.086H148.208V403.431Z" fill="#20C897"/>
<path d="M230.043 148.852C230.036 156.447 223.909 162.597 216.356 162.593C208.805 162.586 202.684 156.424 202.691 148.831C202.698 141.236 208.826 135.086 216.377 135.09C223.93 135.097 230.048 141.259 230.043 148.852Z" fill="#0D2234"/>
<path d="M216.605 148.896L223.839 160.317C227.536 157.859 229.976 153.643 229.98 148.852C229.983 145.817 229.004 143.009 227.349 140.734L216.605 148.896Z" fill="#20C897"/>
<path d="M219.293 135.424L216.605 148.896L227.349 140.738C225.425 138.09 222.582 136.162 219.293 135.424Z" fill="#20C897"/>
<path d="M220.533 148.845C220.53 151.16 218.664 153.035 216.364 153.032C214.06 153.03 212.197 151.153 212.199 148.84C212.199 146.523 214.067 144.651 216.368 144.651C218.669 144.653 220.535 146.53 220.533 148.845Z" fill="white"/>
<path d="M113.226 135.771C113.085 135.771 112.939 135.722 112.817 135.63C112.52 135.403 112.463 134.977 112.689 134.678C112.879 134.431 132.062 109.581 158.872 98.2107C159.215 98.0626 159.613 98.2246 159.759 98.5695C159.907 98.9144 159.745 99.3149 159.4 99.4607C132.93 110.688 113.956 135.255 113.766 135.505C113.634 135.678 113.432 135.771 113.226 135.771Z" fill="white"/>
<path d="M166.18 94.6667C165.886 94.6667 165.606 94.7685 165.379 94.9607C164.851 95.4051 164.782 96.1968 165.224 96.7245C165.439 96.9815 165.74 97.1389 166.074 97.1667C166.407 97.1968 166.729 97.0926 166.983 96.8773C167.513 96.4352 167.581 95.6435 167.138 95.1134C166.923 94.8565 166.622 94.7014 166.289 94.6736C166.252 94.669 166.217 94.6667 166.18 94.6667ZM166.185 98.5278C166.108 98.5278 166.032 98.5232 165.956 98.5185C165.261 98.456 164.634 98.1296 164.187 97.5972C163.263 96.4954 163.407 94.8472 164.506 93.9213C165.039 93.4745 165.715 93.2616 166.407 93.3218C167.101 93.3796 167.729 93.7083 168.175 94.2407C169.101 95.3426 168.958 96.9931 167.856 97.9167C167.384 98.3148 166.796 98.5278 166.185 98.5278Z" fill="white"/>
<path d="M258.19 427.433C232.619 427.433 211.7 421.243 211.401 421.151C211.042 421.044 210.838 420.664 210.947 420.306C211.056 419.947 211.433 419.745 211.792 419.854C212.218 419.984 254.572 432.509 292.294 421.667C292.658 421.563 293.031 421.773 293.132 422.132C293.237 422.491 293.031 422.866 292.669 422.972C281.169 426.276 269.244 427.433 258.19 427.433Z" fill="white"/>
</svg>
