<svg width="497" height="463" viewBox="0 0 497 463" fill="none" xmlns="http://www.w3.org/2000/svg">
<mask id="path-1-outside-1_2_6286" maskUnits="userSpaceOnUse" x="347" y="16.9817" width="139" height="97" fill="black">
<rect fill="white" x="347" y="16.9817" width="139" height="97"/>
<path d="M410.5 57.4817V73.2317C410.5 80.065 409.771 85.9609 408.312 90.9192C406.854 95.8359 404.75 99.8775 402 103.044C399.292 106.169 396.062 108.482 392.312 109.982C388.562 111.482 384.396 112.232 379.812 112.232C376.146 112.232 372.729 111.773 369.562 110.857C366.396 109.898 363.542 108.419 361 106.419C358.5 104.419 356.333 101.898 354.5 98.8567C352.708 95.7734 351.333 92.1067 350.375 87.8567C349.417 83.6067 348.938 78.7317 348.938 73.2317V57.4817C348.938 50.6484 349.667 44.7942 351.125 39.9192C352.625 35.0025 354.729 30.9817 357.438 27.8567C360.188 24.7317 363.438 22.44 367.188 20.9817C370.938 19.4817 375.104 18.7317 379.688 18.7317C383.354 18.7317 386.75 19.2109 389.875 20.1692C393.042 21.0859 395.896 22.5234 398.438 24.4817C400.979 26.44 403.146 28.9609 404.938 32.0442C406.729 35.0859 408.104 38.7317 409.062 42.9817C410.021 47.19 410.5 52.0234 410.5 57.4817ZM392.438 75.6067V55.0442C392.438 51.7525 392.25 48.8775 391.875 46.4192C391.542 43.9609 391.021 41.8775 390.312 40.1692C389.604 38.4192 388.729 37.0025 387.688 35.9192C386.646 34.8359 385.458 34.0442 384.125 33.5442C382.792 33.0442 381.312 32.7942 379.688 32.7942C377.646 32.7942 375.833 33.19 374.25 33.9817C372.708 34.7734 371.396 36.0442 370.312 37.7942C369.229 39.5025 368.396 41.7942 367.812 44.6692C367.271 47.5025 367 50.9609 367 55.0442V75.6067C367 78.8984 367.167 81.7942 367.5 84.2942C367.875 86.7942 368.417 88.94 369.125 90.7317C369.875 92.4817 370.75 93.9192 371.75 95.0442C372.792 96.1275 373.979 96.9192 375.312 97.4192C376.688 97.9192 378.188 98.1692 379.812 98.1692C381.812 98.1692 383.583 97.7734 385.125 96.9817C386.708 96.1484 388.042 94.8567 389.125 93.1067C390.25 91.315 391.083 88.9817 391.625 86.1067C392.167 83.2317 392.438 79.7317 392.438 75.6067ZM439.688 69.5442L425.312 66.1067L430.5 19.9817H481.625V34.5442H445.312L443.062 54.7317C444.271 54.0234 446.104 53.2734 448.562 52.4817C451.021 51.6484 453.771 51.2317 456.812 51.2317C461.229 51.2317 465.146 51.9192 468.562 53.2942C471.979 54.6692 474.875 56.6692 477.25 59.2942C479.667 61.9192 481.5 65.1275 482.75 68.9192C484 72.7109 484.625 77.0025 484.625 81.7942C484.625 85.8359 484 89.69 482.75 93.3567C481.5 96.9817 479.604 100.232 477.062 103.107C474.521 105.94 471.333 108.169 467.5 109.794C463.667 111.419 459.125 112.232 453.875 112.232C449.958 112.232 446.167 111.648 442.5 110.482C438.875 109.315 435.604 107.586 432.688 105.294C429.812 103.003 427.5 100.232 425.75 96.9817C424.042 93.69 423.146 89.94 423.062 85.7317H440.938C441.188 88.315 441.854 90.5442 442.938 92.4192C444.062 94.2525 445.542 95.6692 447.375 96.6692C449.208 97.6692 451.354 98.1692 453.812 98.1692C456.104 98.1692 458.062 97.7317 459.688 96.8567C461.312 95.9817 462.625 94.7734 463.625 93.2317C464.625 91.6484 465.354 89.815 465.812 87.7317C466.312 85.6067 466.562 83.315 466.562 80.8567C466.562 78.3984 466.271 76.1692 465.688 74.1692C465.104 72.1692 464.208 70.44 463 68.9817C461.792 67.5234 460.25 66.3984 458.375 65.6067C456.542 64.815 454.396 64.4192 451.938 64.4192C448.604 64.4192 446.021 64.94 444.188 65.9817C442.396 67.0234 440.896 68.2109 439.688 69.5442Z"/>
</mask>
<path d="M408.312 90.9192L409.271 91.2036L409.272 91.2014L408.312 90.9192ZM402 103.044L401.245 102.389L401.244 102.389L402 103.044ZM369.562 110.857L369.273 111.814L369.284 111.817L369.562 110.857ZM361 106.419L360.375 107.2L360.382 107.205L361 106.419ZM354.5 98.8567L353.635 99.3591L353.639 99.366L353.644 99.3729L354.5 98.8567ZM350.375 87.8567L349.399 88.0767L350.375 87.8567ZM351.125 39.9192L350.169 39.6274L350.167 39.6326L351.125 39.9192ZM357.438 27.8567L356.687 27.196L356.682 27.2018L357.438 27.8567ZM367.188 20.9817L367.55 21.9137L367.559 21.9102L367.188 20.9817ZM389.875 20.1692L389.582 21.1252L389.589 21.1276L389.597 21.1298L389.875 20.1692ZM404.938 32.0442L404.073 32.5466L404.076 32.5517L404.938 32.0442ZM409.062 42.9817L408.087 43.2017L408.087 43.2037L409.062 42.9817ZM391.875 46.4192L390.884 46.5536L390.885 46.5618L390.886 46.57L391.875 46.4192ZM390.312 40.1692L389.386 40.5444L389.389 40.5522L390.312 40.1692ZM374.25 33.9817L373.803 33.0872L373.793 33.0921L374.25 33.9817ZM370.312 37.7942L371.157 38.3298L371.163 38.3205L370.312 37.7942ZM367.812 44.6692L366.832 44.4703L366.83 44.4814L367.812 44.6692ZM367.5 84.2942L366.509 84.4264L366.51 84.4344L366.511 84.4425L367.5 84.2942ZM369.125 90.7317L368.195 91.0993L368.2 91.1126L368.206 91.1256L369.125 90.7317ZM371.75 95.0442L371.003 95.7085L371.016 95.7232L371.029 95.7373L371.75 95.0442ZM375.312 97.4192L374.961 98.3556L374.971 98.359L375.312 97.4192ZM385.125 96.9817L385.582 97.8713L385.591 97.8666L385.125 96.9817ZM389.125 93.1067L388.278 92.5749L388.275 92.5803L389.125 93.1067ZM409.5 57.4817V73.2317H411.5V57.4817H409.5ZM409.5 73.2317C409.5 79.9983 408.777 85.7943 407.353 90.637L409.272 91.2014C410.764 86.1274 411.5 80.1318 411.5 73.2317H409.5ZM407.354 90.6348C405.927 95.4444 403.883 99.3509 401.245 102.389L402.755 103.7C405.617 100.404 407.781 96.2273 409.271 91.2036L407.354 90.6348ZM401.244 102.389C398.638 105.397 395.539 107.614 391.941 109.053L392.684 110.91C396.586 109.349 399.945 106.942 402.756 103.699L401.244 102.389ZM391.941 109.053C388.324 110.5 384.286 111.232 379.812 111.232V113.232C384.506 113.232 388.801 112.463 392.684 110.91L391.941 109.053ZM379.812 111.232C376.229 111.232 372.907 110.784 369.841 109.896L369.284 111.817C372.551 112.763 376.062 113.232 379.812 113.232V111.232ZM369.852 109.9C366.802 108.976 364.06 107.554 361.618 105.633L360.382 107.205C363.023 109.284 365.99 110.82 369.273 111.814L369.852 109.9ZM361.625 105.638C359.227 103.72 357.135 101.292 355.356 98.3405L353.644 99.3729C355.531 102.505 357.773 105.119 360.375 107.2L361.625 105.638ZM355.365 98.3543C353.634 95.3759 352.291 91.8086 351.351 87.6367L349.399 88.0767C350.375 92.4047 351.783 96.1708 353.635 99.3591L355.365 98.3543ZM351.351 87.6367C350.412 83.4748 349.938 78.676 349.938 73.2317H347.938C347.938 78.7874 348.421 83.7385 349.399 88.0767L351.351 87.6367ZM349.938 73.2317V57.4817H347.938V73.2317H349.938ZM349.938 57.4817C349.938 50.7144 350.66 44.9622 352.083 40.2058L350.167 39.6326C348.673 44.6262 347.938 50.5823 347.938 57.4817H349.938ZM352.081 40.211C353.55 35.3965 355.596 31.5086 358.193 28.5116L356.682 27.2018C353.862 30.4548 351.7 34.6085 350.169 39.6274L352.081 40.211ZM358.188 28.5173C360.836 25.5083 363.954 23.3119 367.55 21.9137L366.825 20.0497C362.921 21.5681 359.539 23.9551 356.687 27.1961L358.188 28.5173ZM367.559 21.9102C371.176 20.4634 375.214 19.7317 379.688 19.7317V17.7317C374.994 17.7317 370.699 18.5 366.816 20.0532L367.559 21.9102ZM379.688 19.7317C383.267 19.7317 386.563 20.1993 389.582 21.1252L390.168 19.2131C386.937 18.2224 383.442 17.7317 379.688 17.7317V19.7317ZM389.597 21.1298C392.647 22.0126 395.387 23.3941 397.827 25.2738L399.048 23.6895C396.404 21.6526 393.437 20.1591 390.153 19.2086L389.597 21.1298ZM397.827 25.2738C400.255 27.1446 402.339 29.5629 404.073 32.5466L405.802 31.5418C403.953 28.3588 401.703 25.7354 399.048 23.6895L397.827 25.2738ZM404.076 32.5517C405.804 35.4859 407.146 39.0301 408.087 43.2017L410.038 42.7617C409.062 38.4333 407.654 34.6858 405.799 31.5367L404.076 32.5517ZM408.087 43.2037C409.026 47.323 409.5 52.0794 409.5 57.4817H411.5C411.5 51.9673 411.016 47.057 410.038 42.7597L408.087 43.2037ZM393.438 75.6067V55.0442H391.438V75.6067H393.438ZM393.438 55.0442C393.438 51.7171 393.248 48.7896 392.864 46.2684L390.886 46.57C391.252 48.9654 391.438 51.7879 391.438 55.0442H393.438ZM392.866 46.2848C392.525 43.7681 391.987 41.596 391.236 39.7862L389.389 40.5522C390.055 42.1591 390.559 44.1536 390.884 46.5536L392.866 46.2848ZM391.239 39.794C390.495 37.955 389.558 36.4215 388.408 35.2261L386.967 36.6123C387.901 37.5835 388.713 38.8834 389.386 40.5444L391.239 39.794ZM388.408 35.2261C387.269 34.0412 385.957 33.1632 384.476 32.6079L383.774 34.4805C384.96 34.9252 386.023 35.6305 386.967 36.6123L388.408 35.2261ZM384.476 32.6079C383.016 32.0603 381.416 31.7942 379.688 31.7942V33.7942C381.209 33.7942 382.567 34.0281 383.774 34.4805L384.476 32.6079ZM379.688 31.7942C377.514 31.7942 375.545 32.2162 373.803 33.0873L374.697 34.8761C376.122 34.1638 377.777 33.7942 379.688 33.7942V31.7942ZM373.793 33.0921C372.062 33.9813 370.623 35.3925 369.462 37.2678L371.163 38.3205C372.168 36.6959 373.355 35.5655 374.707 34.8713L373.793 33.0921ZM369.468 37.2586C368.297 39.1052 367.43 41.5249 366.832 44.4703L368.793 44.868C369.362 42.0634 370.161 39.8998 371.157 38.3297L369.468 37.2586ZM366.83 44.4814C366.273 47.3962 366 50.9215 366 55.0442H368C368 51.0002 368.269 47.6088 368.795 44.857L366.83 44.4814ZM366 55.0442V75.6067H368V55.0442H366ZM366 75.6067C366 78.93 366.168 81.8717 366.509 84.4264L368.491 84.162C368.165 81.7167 368 78.8667 368 75.6067H366ZM366.511 84.4425C366.894 86.9958 367.452 89.2191 368.195 91.0993L370.055 90.364C369.382 88.6609 368.856 86.5926 368.489 84.1459L366.511 84.4425ZM368.206 91.1256C368.988 92.9495 369.915 94.4852 371.003 95.7085L372.497 94.3798C371.585 93.3532 370.762 92.0139 370.044 90.3378L368.206 91.1256ZM371.029 95.7373C372.168 96.9222 373.48 97.8002 374.961 98.3555L375.664 96.4829C374.478 96.0382 373.415 95.3329 372.471 94.3511L371.029 95.7373ZM374.971 98.359C376.467 98.903 378.084 99.1692 379.812 99.1692V97.1692C378.291 97.1692 376.908 96.9354 375.654 96.4794L374.971 98.359ZM379.812 99.1692C381.947 99.1692 383.878 98.7459 385.582 97.8713L384.668 96.0921C383.288 96.8008 381.678 97.1692 379.812 97.1692V99.1692ZM385.591 97.8666C387.354 96.9384 388.812 95.5116 389.975 93.633L388.275 92.5803C387.271 94.2018 386.062 95.3584 384.659 96.0968L385.591 97.8666ZM389.972 93.6385C391.184 91.7086 392.051 89.246 392.608 86.2918L390.642 85.9215C390.116 88.7174 389.316 90.9214 388.278 92.5749L389.972 93.6385ZM392.608 86.2918C393.164 83.3367 393.438 79.7707 393.438 75.6067H391.438C391.438 79.6926 391.169 83.1267 390.642 85.9215L392.608 86.2918ZM439.688 69.5442L439.455 70.5168L440.031 70.6545L440.428 70.2157L439.688 69.5442ZM425.312 66.1067L424.319 65.9949L424.22 66.8736L425.08 67.0793L425.312 66.1067ZM430.5 19.9817V18.9817H429.606L429.506 19.8699L430.5 19.9817ZM481.625 19.9817H482.625V18.9817H481.625V19.9817ZM481.625 34.5442V35.5442H482.625V34.5442H481.625ZM445.312 34.5442V33.5442H444.418L444.319 34.4334L445.312 34.5442ZM443.062 54.7317L442.069 54.6209L441.848 56.6029L443.568 55.5944L443.062 54.7317ZM448.562 52.4817L448.869 53.4336L448.876 53.4312L448.884 53.4288L448.562 52.4817ZM477.25 59.2942L476.508 59.9651L476.514 59.9715L477.25 59.2942ZM482.75 93.3567L483.695 93.6827L483.697 93.6794L482.75 93.3567ZM477.062 103.107L477.807 103.774L477.812 103.769L477.062 103.107ZM442.5 110.482L442.194 111.434L442.197 111.435L442.5 110.482ZM432.688 105.294L432.064 106.076L432.07 106.081L432.688 105.294ZM425.75 96.9817L424.862 97.4423L424.866 97.4491L424.87 97.4558L425.75 96.9817ZM423.062 85.7317V84.7317H422.043L422.063 85.7515L423.062 85.7317ZM440.938 85.7317L441.933 85.6354L441.845 84.7317H440.938V85.7317ZM442.938 92.4192L442.072 92.9195L442.078 92.9309L442.085 92.9422L442.938 92.4192ZM447.375 96.6692L446.896 97.5471L447.375 96.6692ZM463.625 93.2317L464.464 93.7759L464.47 93.7657L463.625 93.2317ZM465.812 87.7317L464.839 87.5026L464.837 87.5097L464.836 87.5168L465.812 87.7317ZM458.375 65.6067L457.979 66.5248L457.986 66.5279L458.375 65.6067ZM444.188 65.9817L443.693 65.1122L443.685 65.1172L444.188 65.9817ZM439.92 68.5716L425.545 65.1341L425.08 67.0793L439.455 70.5168L439.92 68.5716ZM426.306 66.2185L431.494 20.0935L429.506 19.8699L424.319 65.9949L426.306 66.2185ZM430.5 20.9817H481.625V18.9817H430.5V20.9817ZM480.625 19.9817V34.5442H482.625V19.9817H480.625ZM481.625 33.5442H445.312V35.5442H481.625V33.5442ZM444.319 34.4334L442.069 54.6209L444.056 54.8425L446.306 34.655L444.319 34.4334ZM443.568 55.5944C444.682 54.9418 446.432 54.2182 448.869 53.4336L448.256 51.5298C445.776 52.3285 443.86 53.1049 442.557 53.869L443.568 55.5944ZM448.884 53.4288C451.222 52.6359 453.862 52.2317 456.812 52.2317V50.2317C453.68 50.2317 450.819 50.6608 448.241 51.5346L448.884 53.4288ZM456.812 52.2317C461.126 52.2317 464.912 52.9031 468.189 54.2219L468.936 52.3665C465.379 50.9352 461.332 50.2317 456.812 50.2317V52.2317ZM468.189 54.2219C471.471 55.5427 474.239 57.4571 476.508 59.9651L477.992 58.6233C475.511 55.8813 472.487 53.7957 468.936 52.3665L468.189 54.2219ZM476.514 59.9715C478.824 62.4799 480.59 65.5597 481.8 69.2323L483.7 68.6061C482.41 64.6953 480.51 61.3585 477.986 58.6169L476.514 59.9715ZM481.8 69.2323C483.011 72.905 483.625 77.0883 483.625 81.7942H485.625C485.625 76.9168 484.989 72.5167 483.7 68.6061L481.8 69.2323ZM483.625 81.7942C483.625 85.7309 483.017 89.4757 481.803 93.034L483.697 93.6794C484.983 89.9044 485.625 85.9408 485.625 81.7942H483.625ZM481.805 93.0307C480.597 96.5317 478.768 99.6674 476.313 102.444L477.812 103.769C480.44 100.796 482.403 97.4317 483.695 93.6827L481.805 93.0307ZM476.318 102.439C473.883 105.153 470.821 107.3 467.11 108.873L467.89 110.715C471.846 109.038 475.158 106.727 477.807 103.774L476.318 102.439ZM467.11 108.873C463.428 110.434 459.025 111.232 453.875 111.232V113.232C459.225 113.232 463.906 112.404 467.89 110.715L467.11 108.873ZM453.875 111.232C450.059 111.232 446.37 110.664 442.803 109.529L442.197 111.435C445.963 112.633 449.857 113.232 453.875 113.232V111.232ZM442.806 109.53C439.291 108.398 436.126 106.724 433.305 104.508L432.07 106.081C435.082 108.447 438.459 110.232 442.194 111.434L442.806 109.53ZM433.311 104.512C430.542 102.305 428.317 99.6391 426.63 96.5076L424.87 97.4558C426.683 100.824 429.083 103.7 432.064 106.076L433.311 104.512ZM426.638 96.521C425.009 93.3831 424.143 89.7875 424.062 85.7119L422.063 85.7515C422.149 90.0926 423.074 93.9969 424.862 97.4423L426.638 96.521ZM423.062 86.7317H440.938V84.7317H423.062V86.7317ZM439.942 85.828C440.203 88.5259 440.904 90.8985 442.072 92.9195L443.803 91.9189C442.804 90.1899 442.172 88.1041 441.933 85.6354L439.942 85.828ZM442.085 92.9422C443.299 94.9198 444.905 96.4609 446.896 97.5471L447.854 95.7913C446.179 94.8775 444.826 93.5853 443.79 91.8962L442.085 92.9422ZM446.896 97.5471C448.9 98.6403 451.217 99.1692 453.812 99.1692V97.1692C451.492 97.1692 449.516 96.6981 447.854 95.7913L446.896 97.5471ZM453.812 99.1692C456.23 99.1692 458.36 98.7074 460.162 97.7372L459.213 95.9762C457.765 96.756 455.978 97.1692 453.812 97.1692V99.1692ZM460.162 97.7372C461.934 96.7829 463.372 95.4592 464.464 93.7759L462.786 92.6875C461.878 94.0876 460.691 95.1805 459.213 95.9762L460.162 97.7372ZM464.47 93.7657C465.54 92.0718 466.309 90.1275 466.789 87.9465L464.836 87.5168C464.399 89.5025 463.71 91.2249 462.78 92.6977L464.47 93.7657ZM466.786 87.9607C467.306 85.7519 467.562 83.3826 467.562 80.8567H465.562C465.562 83.2474 465.319 85.4614 464.839 87.5026L466.786 87.9607ZM467.562 80.8567C467.562 78.3201 467.262 75.9948 466.647 73.8892L464.728 74.4492C465.28 76.3436 465.562 78.4766 465.562 80.8567H467.562ZM466.647 73.8892C466.03 71.7713 465.074 69.9172 463.77 68.3437L462.23 69.6197C463.343 70.9628 464.179 72.5671 464.728 74.4492L466.647 73.8892ZM463.77 68.3437C462.452 66.7526 460.776 65.5348 458.764 64.6854L457.986 66.5279C459.724 67.2619 461.132 68.2941 462.23 69.6197L463.77 68.3437ZM458.771 64.6886C456.788 63.832 454.502 63.4192 451.938 63.4192V65.4192C454.29 65.4192 456.296 65.7981 457.979 66.5247L458.771 64.6886ZM451.938 63.4192C448.522 63.4192 445.741 63.9491 443.693 65.1122L444.682 66.8511C446.301 65.9309 448.686 65.4192 451.938 65.4192V63.4192ZM443.685 65.1172C441.818 66.2029 440.233 67.4526 438.947 68.8727L440.428 70.2157C441.558 68.9691 442.974 67.8439 444.69 66.8462L443.685 65.1172Z" fill="#20C897" mask="url(#path-1-outside-1_2_6286)"/>
<path d="M391.58 311.814C391.58 294.49 377.831 280.377 360.65 279.79C352.041 242.456 318.595 214.625 278.648 214.625C237.294 214.625 202.91 244.452 195.83 283.766C179.289 285.447 166.383 299.417 166.383 316.402C166.383 316.478 166.383 316.554 166.383 316.63C166.459 327.735 175.559 336.661 186.663 336.661H366.617C380.039 336.661 391.227 326.062 391.568 312.647C391.574 312.37 391.58 312.091 391.58 311.814Z" fill="#20C897"/>
<path d="M335.115 245.409H230.07C229.728 245.409 229.453 245.132 229.453 244.79C229.453 244.45 229.728 244.173 230.07 244.173H335.115C344.876 244.173 354.13 240.458 361.174 233.709C368.265 226.922 372.308 217.821 372.553 208.087C372.564 207.686 372.57 207.278 372.57 206.873C372.57 198.193 370.194 189.734 365.699 182.4C365.521 182.108 365.612 181.728 365.904 181.549C366.195 181.371 366.575 181.462 366.755 181.754C371.368 189.28 373.808 197.965 373.808 206.873C373.808 207.291 373.803 207.705 373.791 208.119C373.533 218.18 369.357 227.588 362.03 234.602C354.753 241.571 345.195 245.409 335.115 245.409Z" fill="#0D4C8F"/>
<path d="M353.537 168.976C353.41 168.976 353.286 168.934 353.174 168.856C346.609 164.084 338.861 161.098 330.773 160.217C330.517 160.189 330.308 160.008 330.243 159.761C326.052 143.805 318.268 128.545 307.732 115.631C307.517 115.369 307.557 114.978 307.821 114.761C308.085 114.545 308.474 114.586 308.691 114.852C319.246 127.787 327.07 143.057 331.329 159.036C339.478 159.995 347.274 163.039 353.9 167.857C354.177 168.058 354.238 168.444 354.035 168.719C353.917 168.886 353.727 168.976 353.537 168.976Z" fill="#0D4C8F"/>
<path d="M304.829 111.892C304.656 111.892 304.489 111.825 304.365 111.685C302.719 109.841 300.989 108.023 299.23 106.286C298.989 106.046 298.985 105.655 299.225 105.412C299.464 105.169 299.857 105.167 300.1 105.406C301.876 107.161 303.625 108.999 305.29 110.864C305.516 111.119 305.495 111.51 305.239 111.736C305.123 111.844 304.975 111.892 304.829 111.892Z" fill="#0D4C8F"/>
<path d="M260.948 81.1504C260.872 81.1504 260.796 81.1378 260.722 81.1061C246.83 75.555 232.241 72.7394 217.368 72.7394C216.734 72.7394 216.101 72.7436 215.471 72.7542C215.131 72.7584 214.848 72.488 214.844 72.1458C214.838 71.8036 215.11 71.5248 215.45 71.5185C216.088 71.5079 216.728 71.5016 217.368 71.5016C232.401 71.5016 247.143 74.3489 261.181 79.9591C261.498 80.0858 261.65 80.4449 261.525 80.7618C261.428 81.0047 261.198 81.1504 260.948 81.1504Z" fill="#0D4C8F"/>
<path d="M160.234 87.5949C160.019 87.5949 159.808 87.4809 159.696 87.2781C159.529 86.9803 159.637 86.6022 159.934 86.4374C171.592 79.9401 184.173 75.4938 197.332 73.221C197.67 73.1639 197.989 73.3899 198.048 73.7279C198.105 74.0616 197.881 74.3827 197.543 74.4397C184.521 76.6893 172.072 81.0892 160.536 87.5168C160.441 87.5696 160.338 87.5949 160.234 87.5949Z" fill="#0D4C8F"/>
<path d="M154.213 91.1901C154.01 91.1901 153.809 91.0887 153.691 90.9049C153.507 90.6156 153.592 90.2354 153.879 90.0495C155.85 88.7927 157.886 87.576 159.931 86.4375C160.228 86.2706 160.604 86.3784 160.771 86.6762C160.936 86.974 160.83 87.3521 160.533 87.5169C158.509 88.6448 156.494 89.8488 154.544 91.0908C154.441 91.1584 154.327 91.1901 154.213 91.1901Z" fill="#0D4C8F"/>
<path d="M83.7822 173.399C83.5837 173.399 83.3893 173.307 83.271 173.129C83.0788 172.848 83.1527 172.462 83.4358 172.269C89.0903 168.436 95.3553 165.869 102.062 164.636C104.21 154.617 107.68 144.89 112.382 135.719C112.539 135.417 112.91 135.296 113.215 135.453C113.519 135.607 113.639 135.981 113.483 136.285C108.768 145.482 105.304 155.242 103.186 165.297C103.135 165.546 102.936 165.734 102.687 165.778C95.9996 166.951 89.7536 169.479 84.1286 173.294C84.023 173.368 83.9026 173.399 83.7822 173.399Z" fill="#0D4C8F"/>
<path d="M123.161 245.409H94.2479C76.49 245.409 61.9428 231.029 61.8224 213.353L61.8203 213.011C61.8203 200.749 66.3596 189.005 74.5995 179.937C75.0748 179.413 75.5691 178.894 76.0655 178.393C76.3063 178.15 76.697 178.148 76.9399 178.389C77.1828 178.63 77.1828 179.02 76.9442 179.263C76.4604 179.751 75.9788 180.258 75.5142 180.769C67.4812 189.607 63.0581 201.06 63.0581 213.011V213.347C63.1764 230.344 77.1659 244.171 94.2479 244.171H123.161C123.503 244.171 123.779 244.45 123.779 244.79C123.779 245.132 123.503 245.409 123.161 245.409Z" fill="#0D4C8F"/>
<path d="M368.522 206.871C368.522 183.682 350.12 164.794 327.126 164.006C315.601 114.039 270.836 76.7844 217.366 76.7844C162.016 76.7844 115.992 116.708 106.519 169.329C84.3778 171.579 67.1016 190.279 67.1016 213.009C67.1016 213.112 67.1016 213.214 67.1016 213.317C67.2051 228.179 79.3865 240.13 94.2484 240.13H335.112C353.071 240.13 368.049 225.94 368.51 207.984C368.52 207.616 368.522 207.244 368.522 206.871Z" fill="white"/>
<path d="M217.368 77.399C163.091 77.399 116.729 116.106 107.127 169.439C107.078 169.707 106.854 169.916 106.579 169.944C84.426 172.196 67.7201 190.71 67.7201 213.011V213.313C67.8193 227.757 79.7198 239.511 94.248 239.511H335.11C352.743 239.511 367.449 225.359 367.892 207.969C367.901 207.603 367.907 207.236 367.907 206.868C367.907 183.963 349.982 165.407 327.102 164.625C326.824 164.615 326.585 164.418 326.524 164.144C314.743 113.071 269.858 77.399 217.368 77.399ZM335.11 240.747H94.248C79.0418 240.747 66.5879 228.443 66.4844 213.321V213.011C66.4844 201.911 70.5906 191.28 78.049 183.072C85.3512 175.034 95.2598 169.967 105.992 168.763C110.715 143.148 124.32 119.754 144.34 102.85C164.718 85.6411 190.654 76.1633 217.368 76.1633C230.515 76.1633 243.402 78.396 255.661 82.8022C267.513 87.0584 278.516 93.2389 288.363 101.175C307.967 116.966 321.894 139.05 327.618 163.406C338.743 163.907 349.121 168.584 356.894 176.608C364.792 184.764 369.143 195.513 369.143 206.868C369.143 207.249 369.137 207.625 369.128 208.001C368.9 216.821 365.237 225.074 358.801 231.238C352.397 237.367 343.984 240.747 335.11 240.747Z" fill="#0D4C8F"/>
<path d="M177.65 131.053H151.665C149.809 131.053 148.305 132.559 148.305 134.415V211.021C148.305 212.876 149.809 214.382 151.665 214.382H177.65C179.507 214.382 181.013 212.876 181.013 211.021V134.415C181.013 132.559 179.507 131.053 177.65 131.053Z" fill="#20C897"/>
<path d="M151.659 131.674C150.147 131.674 148.915 132.903 148.915 134.416V211.021C148.915 212.534 150.147 213.765 151.659 213.765H177.642C179.157 213.765 180.388 212.534 180.388 211.021V134.416C180.388 132.903 179.157 131.674 177.642 131.674H151.659ZM177.642 215.003H151.659C149.465 215.003 147.68 213.216 147.68 211.021V134.416C147.68 132.223 149.465 130.436 151.659 130.436H177.642C179.839 130.436 181.624 132.223 181.624 134.416V211.021C181.624 213.216 179.839 215.003 177.642 215.003Z" fill="#0D4C8F"/>
<path d="M157.593 131.053H146.081C144.225 131.053 142.719 132.559 142.719 134.415V211.021C142.719 212.876 144.225 214.382 146.081 214.382H157.593C159.45 214.382 160.954 212.876 160.954 211.021V134.415C160.954 132.559 159.45 131.053 157.593 131.053Z" fill="white"/>
<path d="M146.081 131.674C144.569 131.674 143.337 132.903 143.337 134.416V211.021C143.337 212.534 144.569 213.765 146.081 213.765H157.595C159.107 213.765 160.337 212.534 160.337 211.021V134.416C160.337 132.903 159.107 131.674 157.595 131.674H146.081ZM157.595 215.003H146.081C143.886 215.003 142.102 213.216 142.102 211.021V134.416C142.102 132.223 143.886 130.436 146.081 130.436H157.595C159.788 130.436 161.575 132.223 161.575 134.416V211.021C161.575 213.216 159.788 215.003 157.595 215.003Z" fill="#0D4C8F"/>
<path d="M156.807 199.19C156.807 201.932 154.583 204.156 151.841 204.156C149.097 204.156 146.875 201.932 146.875 199.19C146.875 196.449 149.097 194.224 151.841 194.224C154.583 194.224 156.807 196.449 156.807 199.19Z" fill="#20C897"/>
<path d="M151.835 194.843C149.437 194.843 147.486 196.793 147.486 199.19C147.486 201.588 149.437 203.54 151.835 203.54C154.232 203.54 156.182 201.588 156.182 199.19C156.182 196.793 154.232 194.843 151.835 194.843ZM151.835 204.775C148.755 204.775 146.25 202.27 146.25 199.19C146.25 196.113 148.755 193.608 151.835 193.608C154.912 193.608 157.418 196.113 157.418 199.19C157.418 202.27 154.912 204.775 151.835 204.775Z" fill="#0D4C8F"/>
<path d="M200.27 131.053H174.285C172.428 131.053 170.922 132.559 170.922 134.415V211.021C170.922 212.876 172.428 214.382 174.285 214.382H200.27C202.126 214.382 203.63 212.876 203.63 211.021V134.415C203.63 132.559 202.126 131.053 200.27 131.053Z" fill="#20C897"/>
<path d="M174.284 131.674C172.772 131.674 171.54 132.903 171.54 134.416V211.021C171.54 212.534 172.772 213.765 174.284 213.765H200.269C201.782 213.765 203.011 212.534 203.011 211.021V134.416C203.011 132.903 201.782 131.674 200.269 131.674H174.284ZM200.269 215.003H174.284C172.09 215.003 170.305 213.216 170.305 211.021V134.416C170.305 132.223 172.09 130.436 174.284 130.436H200.269C202.464 130.436 204.249 132.223 204.249 134.416V211.021C204.249 213.216 202.464 215.003 200.269 215.003Z" fill="#0D4C8F"/>
<path d="M180.218 131.053H168.704C166.85 131.053 165.344 132.559 165.344 134.415V211.021C165.344 212.876 166.85 214.382 168.704 214.382H180.218C182.075 214.382 183.579 212.876 183.579 211.021V134.415C183.579 132.559 182.075 131.053 180.218 131.053Z" fill="white"/>
<path d="M168.698 131.674C167.186 131.674 165.957 132.903 165.957 134.416V211.021C165.957 212.534 167.186 213.765 168.698 213.765H180.212C181.723 213.765 182.956 212.534 182.956 211.021V134.416C182.956 132.903 181.723 131.674 180.212 131.674H168.698ZM180.212 215.003H168.698C166.504 215.003 164.719 213.216 164.719 211.021V134.416C164.719 132.223 166.504 130.436 168.698 130.436H180.212C182.405 130.436 184.192 132.223 184.192 134.416V211.021C184.192 213.216 182.405 215.003 180.212 215.003Z" fill="#0D4C8F"/>
<path d="M179.424 199.19C179.424 201.932 177.2 204.156 174.458 204.156C171.714 204.156 169.492 201.932 169.492 199.19C169.492 196.449 171.714 194.224 174.458 194.224C177.2 194.224 179.424 196.449 179.424 199.19Z" fill="#20C897"/>
<path d="M174.46 194.843C172.062 194.843 170.113 196.793 170.113 199.19C170.113 201.588 172.062 203.54 174.46 203.54C176.857 203.54 178.807 201.588 178.807 199.19C178.807 196.793 176.857 194.843 174.46 194.843ZM174.46 204.775C171.38 204.775 168.875 202.27 168.875 199.19C168.875 196.113 171.38 193.608 174.46 193.608C177.54 193.608 180.045 196.113 180.045 199.19C180.045 202.27 177.54 204.775 174.46 204.775Z" fill="#0D4C8F"/>
<path d="M224.158 131.053H198.175C196.319 131.053 194.812 132.559 194.812 134.415V211.021C194.812 212.876 196.319 214.382 198.175 214.382H224.158C226.017 214.382 227.523 212.876 227.523 211.021V134.415C227.523 132.559 226.017 131.053 224.158 131.053Z" fill="#20C897"/>
<path d="M198.167 131.674C196.655 131.674 195.425 132.903 195.425 134.416V211.021C195.425 212.534 196.655 213.765 198.167 213.765H224.152C225.667 213.765 226.898 212.534 226.898 211.021V134.416C226.898 132.903 225.667 131.674 224.152 131.674H198.167ZM224.152 215.003H198.167C195.972 215.003 194.188 213.216 194.188 211.021V134.416C194.188 132.223 195.972 130.436 198.167 130.436H224.152C226.347 130.436 228.134 132.223 228.134 134.416V211.021C228.134 213.216 226.347 215.003 224.152 215.003Z" fill="#0D4C8F"/>
<path d="M204.101 131.053H192.587C190.73 131.053 189.227 132.559 189.227 134.415V211.021C189.227 212.876 190.73 214.382 192.587 214.382H204.101C205.956 214.382 207.462 212.876 207.462 211.021V134.415C207.462 132.559 205.956 131.053 204.101 131.053Z" fill="white"/>
<path d="M192.589 131.674C191.074 131.674 189.845 132.903 189.845 134.416V211.021C189.845 212.534 191.074 213.765 192.589 213.765H204.103C205.613 213.765 206.845 212.534 206.845 211.021V134.416C206.845 132.903 205.613 131.674 204.103 131.674H192.589ZM204.103 215.003H192.589C190.394 215.003 188.609 213.216 188.609 211.021V134.416C188.609 132.223 190.394 130.436 192.589 130.436H204.103C206.295 130.436 208.08 132.223 208.08 134.416V211.021C208.08 213.216 206.295 215.003 204.103 215.003Z" fill="#0D4C8F"/>
<path d="M203.315 199.19C203.315 201.932 201.093 204.156 198.349 204.156C195.605 204.156 193.383 201.932 193.383 199.19C193.383 196.449 195.605 194.224 198.349 194.224C201.093 194.224 203.315 196.449 203.315 199.19Z" fill="#20C897"/>
<path d="M198.348 194.843C195.953 194.843 194.001 196.793 194.001 199.19C194.001 201.588 195.953 203.54 198.348 203.54C200.746 203.54 202.698 201.588 202.698 199.19C202.698 196.793 200.746 194.843 198.348 194.843ZM198.348 204.775C195.271 204.775 192.766 202.27 192.766 199.19C192.766 196.113 195.271 193.608 198.348 193.608C201.428 193.608 203.933 196.113 203.933 199.19C203.933 202.27 201.428 204.775 198.348 204.775Z" fill="#0D4C8F"/>
<path d="M259.213 122.809H212.542C210.686 122.809 209.18 124.315 209.18 126.169V202.775C209.18 204.634 210.686 206.14 212.542 206.14H259.213C261.07 206.14 262.574 204.634 262.574 202.775V126.169C262.574 124.315 261.07 122.809 259.213 122.809Z" fill="#20C897"/>
<path d="M212.544 123.43C211.032 123.43 209.798 124.659 209.798 126.171V202.779C209.798 204.289 211.032 205.521 212.544 205.521H259.215C260.727 205.521 261.956 204.289 261.956 202.779V126.171C261.956 124.659 260.727 123.43 259.215 123.43H212.544ZM259.215 206.756H212.544C210.349 206.756 208.562 204.972 208.562 202.779V126.171C208.562 123.977 210.349 122.192 212.544 122.192H259.215C261.409 122.192 263.194 123.977 263.194 126.171V202.779C263.194 204.972 261.409 206.756 259.215 206.756Z" fill="#0D4C8F"/>
<path d="M218.468 122.809H206.956C205.1 122.809 203.594 124.315 203.594 126.169V202.775C203.594 204.634 205.1 206.14 206.956 206.14H218.468C220.325 206.14 221.831 204.634 221.831 202.775V126.169C221.831 124.315 220.325 122.809 218.468 122.809Z" fill="white"/>
<path d="M206.958 123.43C205.444 123.43 204.214 124.659 204.214 126.171V202.779C204.214 204.289 205.444 205.521 206.958 205.521H218.468C219.982 205.521 221.214 204.289 221.214 202.779V126.171C221.214 124.659 219.982 123.43 218.468 123.43H206.958ZM218.468 206.756H206.958C204.761 206.756 202.977 204.972 202.977 202.779V126.171C202.977 123.977 204.761 122.192 206.958 122.192H218.468C220.663 122.192 222.45 123.977 222.45 126.171V202.779C222.45 204.972 220.663 206.756 218.468 206.756Z" fill="#0D4C8F"/>
<path d="M217.68 190.946C217.68 193.69 215.46 195.914 212.714 195.914C209.972 195.914 207.75 193.69 207.75 190.946C207.75 188.204 209.972 185.98 212.714 185.98C215.46 185.98 217.68 188.204 217.68 190.946Z" fill="#20C897"/>
<path d="M212.716 186.599C210.32 186.599 208.368 188.551 208.368 190.946C208.368 193.344 210.32 195.295 212.716 195.295C215.113 195.295 217.065 193.344 217.065 190.946C217.065 188.551 215.113 186.599 212.716 186.599ZM212.716 196.533C209.638 196.533 207.133 194.026 207.133 190.946C207.133 187.866 209.638 185.363 212.716 185.363C215.795 185.363 218.302 187.866 218.302 190.946C218.302 194.026 215.795 196.533 212.716 196.533Z" fill="#0D4C8F"/>
<path d="M271.932 131.053H245.949C244.09 131.053 242.586 132.559 242.586 134.415V211.021C242.586 212.876 244.09 214.382 245.949 214.382H271.932C273.79 214.382 275.294 212.876 275.294 211.021V134.415C275.294 132.559 273.79 131.053 271.932 131.053Z" fill="#20C897"/>
<path d="M245.948 131.674C244.438 131.674 243.207 132.903 243.207 134.416V211.021C243.207 212.534 244.438 213.765 245.948 213.765H271.933C273.448 213.765 274.677 212.534 274.677 211.021V134.416C274.677 132.903 273.448 131.674 271.933 131.674H245.948ZM271.933 215.003H245.948C243.754 215.003 241.969 213.216 241.969 211.021V134.416C241.969 132.223 243.754 130.436 245.948 130.436H271.933C274.128 130.436 275.913 132.223 275.913 134.416V211.021C275.913 213.216 274.128 215.003 271.933 215.003Z" fill="#0D4C8F"/>
<path d="M251.882 131.053H240.371C238.514 131.053 237.008 132.559 237.008 134.415V211.021C237.008 212.876 238.514 214.382 240.371 214.382H251.882C253.739 214.382 255.245 212.876 255.245 211.021V134.415C255.245 132.559 253.739 131.053 251.882 131.053Z" fill="white"/>
<path d="M240.37 131.674C238.856 131.674 237.626 132.903 237.626 134.416V211.021C237.626 212.534 238.856 213.765 240.37 213.765H251.88C253.394 213.765 254.624 212.534 254.624 211.021V134.416C254.624 132.903 253.394 131.674 251.88 131.674H240.37ZM251.88 215.003H240.37C238.173 215.003 236.391 213.216 236.391 211.021V134.416C236.391 132.223 238.173 130.436 240.37 130.436H251.88C254.077 130.436 255.862 132.223 255.862 134.416V211.021C255.862 213.216 254.077 215.003 251.88 215.003Z" fill="#0D4C8F"/>
<path d="M251.088 199.19C251.088 201.932 248.866 204.156 246.124 204.156C243.378 204.156 241.156 201.932 241.156 199.19C241.156 196.449 243.378 194.224 246.124 194.224C248.866 194.224 251.088 196.449 251.088 199.19Z" fill="#20C897"/>
<path d="M246.126 194.843C243.726 194.843 241.775 196.793 241.775 199.19C241.775 201.588 243.726 203.54 246.126 203.54C248.523 203.54 250.471 201.588 250.471 199.19C250.471 196.793 248.523 194.843 246.126 194.843ZM246.126 204.775C243.044 204.775 240.539 202.27 240.539 199.19C240.539 196.113 243.044 193.608 246.126 193.608C249.204 193.608 251.709 196.113 251.709 199.19C251.709 202.27 249.204 204.775 246.126 204.775Z" fill="#0D4C8F"/>
<path d="M295.824 131.053H269.835C267.983 131.053 266.477 132.559 266.477 134.415V211.021C266.477 212.876 267.983 214.382 269.835 214.382H295.824C297.677 214.382 299.183 212.876 299.183 211.021V134.415C299.183 132.559 297.677 131.053 295.824 131.053Z" fill="#20C897"/>
<path d="M269.837 131.674C268.324 131.674 267.093 132.903 267.093 134.416V211.021C267.093 212.534 268.324 213.765 269.837 213.765H295.824C297.336 213.765 298.566 212.534 298.566 211.021V134.416C298.566 132.903 297.336 131.674 295.824 131.674H269.837ZM295.824 215.003H269.837C267.644 215.003 265.859 213.216 265.859 211.021V134.416C265.859 132.223 267.644 130.436 269.837 130.436H295.824C298.017 130.436 299.804 132.223 299.804 134.416V211.021C299.804 213.216 298.017 215.003 295.824 215.003Z" fill="#0D4C8F"/>
<path d="M275.773 131.053H264.259C262.402 131.053 260.898 132.559 260.898 134.415V211.021C260.898 212.876 262.402 214.382 264.259 214.382H275.773C277.628 214.382 279.134 212.876 279.134 211.021V134.415C279.134 132.559 277.628 131.053 275.773 131.053Z" fill="white"/>
<path d="M264.253 131.674C262.743 131.674 261.509 132.903 261.509 134.416V211.021C261.509 212.534 262.743 213.765 264.253 213.765H275.769C277.279 213.765 278.511 212.534 278.511 211.021V134.416C278.511 132.903 277.279 131.674 275.769 131.674H264.253ZM275.769 215.003H264.253C262.06 215.003 260.273 213.216 260.273 211.021V134.416C260.273 132.223 262.06 130.436 264.253 130.436H275.769C277.962 130.436 279.749 132.223 279.749 134.416V211.021C279.749 213.216 277.962 215.003 275.769 215.003Z" fill="#0D4C8F"/>
<path d="M274.979 199.19C274.979 201.932 272.755 204.156 270.011 204.156C267.269 204.156 265.047 201.932 265.047 199.19C265.047 196.449 267.269 194.224 270.011 194.224C272.755 194.224 274.979 196.449 274.979 199.19Z" fill="#20C897"/>
<path d="M270.012 194.843C267.615 194.843 265.665 196.793 265.665 199.19C265.665 201.588 267.615 203.54 270.012 203.54C272.412 203.54 274.359 201.588 274.359 199.19C274.359 196.793 272.412 194.843 270.012 194.843ZM270.012 204.775C266.933 204.775 264.43 202.27 264.43 199.19C264.43 196.113 266.933 193.608 270.012 193.608C273.094 193.608 275.597 196.113 275.597 199.19C275.597 202.27 273.094 204.775 270.012 204.775Z" fill="#0D4C8F"/>
<path d="M111.51 396.001H103.477V303.281H111.51V396.001Z" fill="white"/>
<path d="M104.097 395.382H110.892V303.898H104.097V395.382ZM111.511 396.618H103.478C103.136 396.618 102.859 396.341 102.859 396.001V303.281C102.859 302.939 103.136 302.662 103.478 302.662H111.511C111.853 302.662 112.13 302.939 112.13 303.281V396.001C112.13 396.341 111.853 396.618 111.511 396.618Z" fill="#0D4C8F"/>
<path d="M107.499 390.862C99.5699 390.862 91.6954 392.142 84.1736 394.651L81.2101 395.64C78.5233 396.537 76.7109 399.053 76.7109 401.888H138.286C138.286 399.053 136.473 396.537 133.787 395.64L130.821 394.651C123.301 392.142 115.425 390.862 107.499 390.862Z" fill="#20C897"/>
<path d="M77.3611 401.269H137.639C137.398 398.956 135.833 396.975 133.592 396.227L130.628 395.238C123.157 392.746 115.376 391.481 107.499 391.481C99.6244 391.481 91.8428 392.746 84.3717 395.238L81.4082 396.227C79.165 396.975 77.5998 398.956 77.3611 401.269ZM138.287 402.505H76.7126C76.3705 402.505 76.0938 402.228 76.0938 401.888C76.0938 398.783 78.0708 396.037 81.0153 395.055L83.981 394.066C91.5767 391.529 99.4913 390.245 107.499 390.245C115.509 390.245 123.421 391.529 131.019 394.066L133.985 395.055C136.927 396.037 138.906 398.783 138.906 401.888C138.906 402.228 138.63 402.505 138.287 402.505Z" fill="#0D4C8F"/>
<path d="M119.193 237.737H78.0773C73.0691 237.737 68.6418 241.03 67.2308 245.838C65.0762 253.191 63.8828 261.264 63.8828 269.738C63.8828 276.14 64.563 282.314 65.8261 288.123C67.8877 297.603 76.3832 304.299 86.0849 304.299H131.473C141.316 304.299 149.768 297.386 151.814 287.756C152.064 286.592 152.296 285.113 152.507 283.533C153.306 277.541 148.646 272.216 142.603 272.216C137.453 272.216 133.146 268.304 132.658 263.177C132.092 257.225 131.207 249.817 130.039 245.838C128.628 241.03 124.203 237.737 119.193 237.737Z" fill="#20C897"/>
<path d="M78.079 238.356C73.3623 238.356 69.1462 241.503 67.8239 246.011C65.6187 253.531 64.5013 261.513 64.5013 269.738C64.5013 275.963 65.1498 282.103 66.4298 287.99C68.4069 297.083 76.6722 303.682 86.0845 303.682H131.473C140.932 303.682 149.233 296.929 151.21 287.627C151.436 286.573 151.664 285.166 151.894 283.451C152.251 280.77 151.436 278.067 149.655 276.033C147.875 274.001 145.304 272.835 142.602 272.835C137.102 272.835 132.563 268.709 132.041 263.234C131.505 257.584 130.617 250.007 129.445 246.011C128.123 241.503 123.907 238.356 119.192 238.356H78.079ZM131.473 304.918H86.0845C76.0955 304.918 67.3212 297.911 65.2216 288.254C63.9225 282.281 63.2656 276.052 63.2656 269.738C63.2656 261.395 64.3999 253.294 66.6368 245.662C68.1133 240.633 72.8173 237.118 78.079 237.118H119.192C124.452 237.118 129.156 240.633 130.632 245.662C131.832 249.754 132.73 257.413 133.273 263.118C133.733 267.953 137.744 271.597 142.602 271.597C145.661 271.597 148.57 272.917 150.585 275.217C152.6 277.52 153.525 280.58 153.119 283.614C152.885 285.363 152.65 286.799 152.42 287.885C150.321 297.753 141.513 304.918 131.473 304.918Z" fill="#0D4C8F"/>
<path d="M142.553 286.742H86.6704C81.3644 286.742 77.0469 282.424 77.0469 277.118C77.0469 276.776 77.3236 276.499 77.6658 276.499C78.0058 276.499 78.2826 276.776 78.2826 277.118C78.2826 281.742 82.0445 285.504 86.6704 285.504H142.553C142.893 285.504 143.169 285.783 143.169 286.123C143.169 286.465 142.893 286.742 142.553 286.742Z" fill="#0D4C8F"/>
<path d="M363.821 257.679H237.573C232.97 257.679 228.695 261.409 228.021 266.01L214.325 359.56C213.649 364.161 216.832 367.889 221.433 367.889H347.685C352.283 367.889 356.559 364.161 357.233 359.56L370.931 266.01C371.604 261.409 368.421 257.679 363.821 257.679Z" fill="white"/>
<path d="M237.567 258.298C233.269 258.298 229.259 261.798 228.63 266.101L214.93 359.651C214.63 361.712 215.147 363.639 216.392 365.079C217.612 366.493 219.404 367.272 221.427 367.272H347.677C351.976 367.272 355.987 363.774 356.617 359.471L370.317 265.919C370.619 263.86 370.099 261.931 368.855 260.493C367.63 259.077 365.841 258.298 363.819 258.298H237.567ZM347.677 368.51H221.427C219.038 368.51 216.918 367.578 215.456 365.886C213.973 364.171 213.352 361.892 213.707 359.471L227.405 265.919C228.123 261.035 232.679 257.062 237.567 257.062H363.819C366.206 257.062 368.329 257.994 369.791 259.684C371.274 261.399 371.895 263.676 371.54 266.101L357.84 359.651C357.126 364.534 352.567 368.51 347.677 368.51Z" fill="#0D4C8F"/>
<path d="M363.529 271.969H233.859C233.519 271.969 233.242 271.692 233.242 271.35C233.242 271.01 233.519 270.731 233.859 270.731H363.529C363.869 270.731 364.146 271.01 364.146 271.35C364.146 271.692 363.869 271.969 363.529 271.969Z" fill="#0D4C8F"/>
<path d="M243.147 264.086C242.974 265.266 241.878 266.223 240.699 266.223C239.521 266.223 238.703 265.266 238.874 264.086C239.047 262.909 240.146 261.952 241.324 261.952C242.505 261.952 243.321 262.909 243.147 264.086Z" fill="#20C897"/>
<path d="M251.686 264.086C251.513 265.266 250.417 266.223 249.236 266.223C248.058 266.223 247.242 265.266 247.413 264.086C247.587 262.909 248.683 261.952 249.864 261.952C251.042 261.952 251.86 262.909 251.686 264.086Z" fill="#20C897"/>
<path d="M260.233 264.086C260.06 265.266 258.964 266.223 257.783 266.223C256.604 266.223 255.789 265.266 255.96 264.086C256.133 262.909 257.23 261.952 258.41 261.952C259.589 261.952 260.407 262.909 260.233 264.086Z" fill="#20C897"/>
<path d="M364.697 264.707H352.666C352.321 264.707 352.047 264.43 352.047 264.088C352.047 263.746 352.321 263.471 352.666 263.471H364.697C365.039 263.471 365.314 263.746 365.314 264.088C365.314 264.43 365.039 264.707 364.697 264.707Z" fill="#0D4C8F"/>
<path d="M347.253 264.704H289.064C288.722 264.704 288.445 264.43 288.445 264.086C288.445 263.745 288.722 263.469 289.064 263.469H347.253C347.593 263.469 347.87 263.745 347.87 264.086C347.87 264.43 347.593 264.704 347.253 264.704Z" fill="#0D4C8F"/>
<path d="M275.967 264.704H265.361C265.019 264.704 264.742 264.43 264.742 264.086C264.742 263.745 265.019 263.469 265.361 263.469H275.967C276.309 263.469 276.586 263.745 276.586 264.086C276.586 264.43 276.309 264.704 275.967 264.704Z" fill="#0D4C8F"/>
<path d="M346.002 352.201H226.023L236.671 279.495H356.648L346.002 352.201Z" fill="white"/>
<path d="M294.631 299.221H202.918C199.34 299.221 195.905 302.123 195.246 305.699L181.852 378.471C181.193 382.049 183.561 384.949 187.139 384.949H278.85C282.428 384.949 285.865 382.049 286.524 378.471L299.918 305.699C300.574 302.123 298.209 299.221 294.631 299.221Z" fill="white"/>
<path d="M202.919 299.84C199.63 299.84 196.462 302.518 195.855 305.813L182.461 378.583C182.174 380.15 182.512 381.612 183.414 382.698C184.295 383.752 185.617 384.335 187.142 384.335H278.851C282.139 384.335 285.308 381.654 285.914 378.359L299.308 305.59C299.597 304.022 299.259 302.561 298.357 301.477C297.479 300.423 296.154 299.84 294.631 299.84H202.919ZM278.851 385.571H187.142C185.243 385.571 183.583 384.831 182.466 383.488C181.323 382.115 180.89 380.294 181.247 378.359L194.641 305.59C195.348 301.739 199.064 298.604 202.919 298.604H294.631C296.528 298.604 298.188 299.341 299.306 300.687C300.449 302.058 300.882 303.879 300.527 305.813L287.133 378.583C286.423 382.436 282.708 385.571 278.851 385.571Z" fill="#0D4C8F"/>
<path d="M294.002 310.473H199.635C199.292 310.473 199.016 310.199 199.016 309.854C199.016 309.514 199.292 309.237 199.635 309.237H294.002C294.344 309.237 294.619 309.514 294.619 309.854C294.619 310.199 294.344 310.473 294.002 310.473Z" fill="#0D4C8F"/>
<path d="M207.071 304.206C206.902 305.123 206.021 305.866 205.102 305.866C204.186 305.866 203.58 305.123 203.746 304.206C203.917 303.289 204.796 302.546 205.713 302.546C206.634 302.546 207.24 303.289 207.071 304.206Z" fill="#20C897"/>
<path d="M213.719 304.206C213.55 305.123 212.669 305.866 211.75 305.866C210.833 305.866 210.225 305.123 210.396 304.206C210.565 303.289 211.444 302.546 212.363 302.546C213.281 302.546 213.888 303.289 213.719 304.206Z" fill="#20C897"/>
<path d="M220.359 304.206C220.19 305.123 219.309 305.866 218.393 305.866C217.474 305.866 216.866 305.123 217.037 304.206C217.206 303.289 218.086 302.546 219.003 302.546C219.92 302.546 220.528 303.289 220.359 304.206Z" fill="#20C897"/>
<path d="M295.127 304.825H285.767C285.425 304.825 285.148 304.548 285.148 304.206C285.148 303.866 285.425 303.589 285.767 303.589H295.127C295.467 303.589 295.746 303.866 295.746 304.206C295.746 304.548 295.467 304.825 295.127 304.825Z" fill="#0D4C8F"/>
<path d="M281.557 304.825H242.789C242.449 304.825 242.172 304.548 242.172 304.206C242.172 303.866 242.449 303.589 242.789 303.589H281.557C281.899 303.589 282.174 303.866 282.174 304.206C282.174 304.548 281.899 304.825 281.557 304.825Z" fill="#0D4C8F"/>
<path d="M232.604 304.825H224.353C224.011 304.825 223.734 304.548 223.734 304.206C223.734 303.866 224.011 303.589 224.353 303.589H232.604C232.946 303.589 233.223 303.866 233.223 304.206C233.223 304.548 232.946 304.825 232.604 304.825Z" fill="#0D4C8F"/>
<path d="M200.775 316.453C199.883 316.453 198.99 317.211 198.823 318.109L194.482 341.701C194.408 342.1 194.489 342.466 194.712 342.734C194.924 342.987 195.253 343.131 195.636 343.131H254.783C255.675 343.131 256.566 342.373 256.733 341.477L261.074 317.883C261.15 317.484 261.067 317.118 260.848 316.852C260.632 316.594 260.305 316.453 259.92 316.453H200.775ZM254.783 344.367H195.636C194.879 344.367 194.214 344.069 193.76 343.524C193.299 342.97 193.124 342.244 193.268 341.477L197.608 317.883C197.885 316.387 199.275 315.217 200.775 315.217H259.92C260.676 315.217 261.346 315.517 261.796 316.06C262.256 316.613 262.434 317.34 262.292 318.109L257.947 341.701C257.673 343.194 256.283 344.367 254.783 344.367Z" fill="#0D4C8F"/>
<path d="M194.845 348.686C193.953 348.686 193.062 349.444 192.895 350.338L188.248 375.592C188.174 375.994 188.254 376.359 188.476 376.625C188.689 376.883 189.019 377.022 189.401 377.022H248.549C249.44 377.022 250.332 376.266 250.496 375.368L255.146 350.114C255.217 349.717 255.139 349.349 254.917 349.083C254.704 348.828 254.375 348.686 253.992 348.686H194.845ZM248.549 378.258H189.401C188.645 378.258 187.978 377.96 187.528 377.415C187.065 376.864 186.892 376.137 187.031 375.368L191.68 350.114C191.955 348.621 193.345 347.448 194.845 347.448H253.992C254.748 347.448 255.414 347.75 255.868 348.291C256.328 348.847 256.504 349.573 256.362 350.338L251.713 375.592C251.439 377.088 250.047 378.258 248.549 378.258Z" fill="#0D4C8F"/>
<path d="M290.825 315.838H268.228C267.037 315.838 265.89 316.806 265.672 317.995L255.092 375.482C254.87 376.674 255.66 377.643 256.854 377.643H279.449C280.642 377.643 281.787 376.674 282.007 375.482L292.587 317.995C292.807 316.806 292.019 315.838 290.825 315.838Z" fill="#0D4C8F"/>
<path d="M268.231 316.453C267.339 316.453 266.446 317.211 266.283 318.109L255.701 375.592C255.629 375.994 255.709 376.361 255.931 376.625C256.144 376.883 256.472 377.022 256.856 377.022H279.453C280.345 377.022 281.236 376.266 281.401 375.368L291.979 317.883C292.055 317.484 291.973 317.116 291.751 316.85C291.54 316.594 291.21 316.453 290.826 316.453H268.231ZM279.453 378.258H256.856C256.098 378.258 255.433 377.96 254.981 377.417C254.52 376.864 254.345 376.137 254.484 375.368L265.067 317.883C265.341 316.387 266.731 315.217 268.231 315.217H290.826C291.584 315.217 292.249 315.517 292.701 316.06C293.164 316.613 293.337 317.34 293.198 318.107L282.617 375.592C282.341 377.088 280.951 378.258 279.453 378.258Z" fill="#0D4C8F"/>
<path d="M126.117 333.676L117.57 340.239L125.075 350.433L133.074 342.806L126.117 333.676Z" fill="white"/>
<path d="M118.428 340.36L125.158 349.501L132.249 342.74L126.001 334.544L118.428 340.36ZM125.075 351.05C125.056 351.05 125.039 351.05 125.023 351.05C124.845 351.035 124.683 350.942 124.577 350.8L117.074 340.605C116.873 340.334 116.928 339.954 117.195 339.749L125.741 333.186C125.872 333.087 126.036 333.043 126.199 333.064C126.362 333.087 126.51 333.171 126.609 333.302L133.567 342.432C133.757 342.681 133.729 343.034 133.501 343.253L125.502 350.881C125.386 350.991 125.234 351.05 125.075 351.05Z" fill="#0D4C8F"/>
<path d="M130.157 349.24L122.215 342.806L120.72 337.415C116.548 337.312 111.867 340.419 109.298 342.417C108.109 343.344 107.721 344.971 108.386 346.323C112.623 354.928 122.177 368.356 126.801 374.68C127.967 376.272 130.491 375.759 130.899 373.826C132.941 364.148 130.157 349.24 130.157 349.24Z" fill="#20C897"/>
<path d="M120.246 338.034C116.34 338.165 111.978 341.114 109.676 342.907C108.719 343.651 108.408 344.971 108.939 346.05C113.077 354.457 122.216 367.369 127.298 374.316C127.774 374.967 128.498 375.079 129.02 374.967C129.677 374.825 130.152 374.352 130.289 373.7C132.148 364.889 129.918 351.462 129.586 349.575L121.823 343.287C121.724 343.205 121.65 343.095 121.616 342.97L120.246 338.034ZM128.644 376.243C127.723 376.243 126.861 375.814 126.299 375.045C121.196 368.064 112.008 355.086 107.828 346.595C107.042 344.996 107.498 343.034 108.915 341.931C111.44 339.967 116.323 336.686 120.731 336.798C121.004 336.803 121.238 336.988 121.312 337.25L122.755 342.449L130.543 348.758C130.659 348.851 130.735 348.98 130.763 349.126C130.877 349.738 133.544 364.266 131.5 373.953C131.261 375.081 130.412 375.932 129.28 376.177C129.066 376.222 128.853 376.243 128.644 376.243Z" fill="#0D4C8F"/>
<path d="M127.492 371.442C127.297 371.442 127.105 371.349 126.985 371.175L114.332 352.94C113.43 351.639 113.029 350.008 113.202 348.346C113.509 345.383 112.307 342.316 112.294 342.284C112.167 341.967 112.324 341.606 112.64 341.479C112.957 341.354 113.316 341.511 113.443 341.825C113.498 341.963 114.772 345.199 114.432 348.475C114.29 349.842 114.615 351.176 115.348 352.235L128.001 370.47C128.195 370.751 128.125 371.135 127.845 371.332C127.737 371.406 127.614 371.442 127.492 371.442Z" fill="#0D4C8F"/>
<path d="M150.297 383.477L162.043 402.633L172.818 395.988L159.967 377.288L150.297 383.477Z" fill="white"/>
<path d="M151.142 383.67L162.244 401.782L171.941 395.805L159.796 378.131L151.142 383.67ZM162.041 403.252C161.995 403.252 161.946 403.246 161.897 403.236C161.739 403.195 161.6 403.098 161.515 402.955L149.771 383.798C149.596 383.513 149.68 383.137 149.965 382.954L159.633 376.767C159.914 376.589 160.286 376.665 160.476 376.94L173.327 395.64C173.424 395.777 173.458 395.952 173.424 396.117C173.388 396.284 173.287 396.428 173.141 396.516L162.366 403.157C162.267 403.221 162.155 403.252 162.041 403.252Z" fill="#0D4C8F"/>
<path d="M172.045 390.824L164.982 398.215L159.486 399.264C159.042 403.413 161.756 408.335 163.537 411.057C164.363 412.318 165.951 412.838 167.354 412.287C176.278 408.768 190.443 400.348 197.124 396.257C198.808 395.224 198.504 392.668 196.611 392.104C187.131 389.276 172.045 390.824 172.045 390.824Z" fill="#20C897"/>
<path d="M160.067 399.782C159.877 403.685 162.458 408.275 164.055 410.717C164.718 411.733 166.011 412.149 167.128 411.71C175.848 408.273 189.463 400.221 196.804 395.728C197.49 395.308 197.661 394.594 197.594 394.066C197.505 393.401 197.074 392.887 196.434 392.695C187.807 390.12 174.238 391.244 172.333 391.419L165.43 398.641C165.341 398.734 165.225 398.798 165.098 398.821L160.067 399.782ZM166.214 413.119C164.959 413.119 163.74 412.493 163.02 411.395C161.269 408.719 158.403 403.576 158.871 399.197C158.901 398.926 159.104 398.707 159.372 398.656L164.672 397.644L171.598 390.397C171.699 390.291 171.834 390.226 171.982 390.211C172.601 390.148 187.298 388.68 196.789 391.512C197.891 391.842 198.669 392.759 198.821 393.906C198.971 395.069 198.445 396.174 197.448 396.782C190.074 401.298 176.388 409.391 167.58 412.861C167.137 413.034 166.672 413.119 166.214 413.119Z" fill="#0D4C8F"/>
<path d="M163.469 408.085C163.205 408.085 162.96 407.914 162.879 407.648C162.778 407.321 162.962 406.976 163.287 406.875C163.429 406.833 166.76 405.827 169.996 406.433C171.348 406.687 172.706 406.474 173.819 405.829L193.028 394.715C193.326 394.544 193.704 394.645 193.873 394.938C194.044 395.236 193.945 395.614 193.649 395.786L174.438 406.9C173.069 407.692 171.409 407.956 169.768 407.65C166.827 407.099 163.682 408.047 163.65 408.058C163.589 408.077 163.528 408.085 163.469 408.085Z" fill="#0D4C8F"/>
<path d="M134.632 247.092C134.632 247.092 159.035 266.358 171.946 284.393C175.553 289.435 176.062 296.065 173.325 301.627C167.381 313.701 154.528 335.351 134.632 346.149L117.924 324.799C117.924 324.799 132.535 308.646 143.276 301.289L115.888 270.591L109.078 255.174L134.632 247.092Z" fill="#0D4C8F"/>
<path d="M146.374 390.993C147.24 392.518 166.92 378.131 166.92 378.131C166.92 378.131 151.864 360.509 127.936 270.936C127.657 269.894 123.245 247.986 123.245 247.986L90.5469 265.125C90.5469 265.125 96.2922 302.82 146.374 390.993Z" fill="#0D4C8F"/>
<path d="M131.863 285.918C131.593 285.918 131.344 285.736 131.268 285.462L128.194 274.224C127.601 272.061 127.987 269.761 129.253 267.911L131.137 265.159C131.329 264.876 131.713 264.802 131.996 264.996C132.277 265.188 132.349 265.575 132.157 265.856L130.275 268.61C129.215 270.158 128.891 272.085 129.386 273.899L132.461 285.134C132.552 285.464 132.358 285.804 132.028 285.897C131.973 285.909 131.918 285.918 131.863 285.918Z" fill="white"/>
<path d="M147.93 384.823C147.715 384.823 147.506 384.709 147.392 384.508C146.308 382.588 145.222 380.641 144.164 378.725C143.997 378.427 144.107 378.051 144.405 377.886C144.705 377.719 145.081 377.829 145.246 378.127C146.302 380.041 147.385 381.982 148.469 383.9C148.636 384.198 148.53 384.576 148.232 384.743C148.137 384.795 148.034 384.823 147.93 384.823Z" fill="white"/>
<path d="M142.551 375.132C142.332 375.132 142.12 375.016 142.006 374.809C138.927 369.148 135.94 363.476 133.131 357.948C132.974 357.644 133.097 357.272 133.401 357.118C133.705 356.962 134.077 357.082 134.231 357.387C137.036 362.906 140.019 368.567 143.094 374.217C143.257 374.517 143.145 374.891 142.847 375.056C142.752 375.106 142.651 375.132 142.551 375.132Z" fill="white"/>
<path d="M122.153 334.295C121.916 334.295 121.692 334.16 121.589 333.932C107.031 301.701 102.914 283.679 102.874 283.502C102.8 283.168 103.009 282.838 103.343 282.764C103.677 282.69 104.006 282.897 104.082 283.231C104.12 283.409 108.218 301.323 122.715 333.423C122.856 333.733 122.717 334.099 122.406 334.24C122.324 334.276 122.237 334.295 122.153 334.295Z" fill="white"/>
<path d="M151.842 344.707C151.601 344.707 151.373 344.565 151.273 344.331C151.197 344.157 143.766 326.723 141.006 317.957C140.902 317.632 141.084 317.285 141.409 317.182C141.734 317.08 142.083 317.262 142.184 317.587C144.926 326.294 152.336 343.67 152.41 343.847C152.543 344.162 152.397 344.523 152.082 344.656C152.004 344.69 151.922 344.707 151.842 344.707Z" fill="white"/>
<path d="M160.086 184.776C160.086 184.776 172.324 189.497 187.047 177.542C193.8 172.056 197.91 163.956 198.487 155.272C198.599 153.576 199.357 151.985 200.603 150.832L211.158 144.107C211.158 144.107 210.411 145.262 209.595 148.242C208.784 151.227 206.307 153.848 205.988 155.092L211.158 153.551C211.158 153.551 210.607 156.797 208.083 158.964C205.555 161.136 204.693 166.573 204.693 166.573C204.693 166.573 201.1 209.919 163.233 209.217L160.086 184.776Z" fill="white"/>
<path d="M163.778 208.607C163.905 208.609 164.03 208.609 164.154 208.609C179.152 208.609 190.404 201.634 197.615 187.873C203.124 177.358 204.07 166.63 204.078 166.524C204.081 166.507 204.081 166.495 204.083 166.478C204.121 166.247 205.012 160.787 207.678 158.497C209.169 157.217 209.925 155.523 210.276 154.459L206.163 155.686C205.95 155.749 205.72 155.692 205.559 155.536C205.397 155.382 205.333 155.154 205.388 154.938C205.54 154.345 206.022 153.614 206.632 152.685C207.479 151.392 208.535 149.784 209 148.08C209.26 147.129 209.513 146.358 209.741 145.744L200.984 151.322C199.871 152.372 199.205 153.787 199.104 155.312C198.515 164.201 194.263 172.476 187.436 178.021C174.79 188.291 164.034 186.521 160.823 185.653L163.778 208.607ZM164.127 209.845C163.827 209.845 163.527 209.843 163.223 209.834C162.917 209.83 162.661 209.602 162.621 209.293L159.474 184.856C159.446 184.639 159.535 184.423 159.706 184.288C159.877 184.155 160.105 184.119 160.308 184.197C160.428 184.244 172.413 188.627 186.654 177.062C193.215 171.735 197.304 163.776 197.87 155.232C197.993 153.369 198.815 151.645 200.186 150.378C200.211 150.355 200.243 150.331 200.272 150.31L210.827 143.587C211.07 143.431 211.391 143.464 211.596 143.671C211.801 143.878 211.835 144.2 211.674 144.445C211.672 144.451 210.962 145.585 210.193 148.405C209.676 150.3 208.561 151.998 207.667 153.363C207.502 153.614 207.342 153.857 207.196 154.087L210.981 152.957C211.186 152.898 211.406 152.944 211.566 153.088C211.725 153.229 211.803 153.445 211.767 153.654C211.742 153.796 211.148 157.148 208.485 159.435C206.229 161.372 205.365 166.304 205.31 166.653C205.253 167.263 204.201 177.968 198.711 188.447C193.57 198.252 183.412 209.845 164.127 209.845Z" fill="#0D4C8F"/>
<path d="M79.4766 205.101L88.8698 192.558C92.0234 188.344 96.5817 185.395 101.719 184.252C111.746 182.022 128.661 178.714 137.788 179.502C151.306 180.666 168.008 181.901 168.008 181.901L166.069 210.89L149.684 209.674C149.684 209.674 139.252 233.992 142.065 248.043C142.065 248.043 108.841 262.903 84.3221 268.513C84.3221 268.513 75.6555 234.548 89.6725 210.89L79.4766 205.101Z" fill="#20C897"/>
<path d="M122.864 215.041L125.376 256.655C125.414 257.288 125.07 257.878 124.506 258.14L75.8432 280.878C75.3574 281.104 74.8357 281.039 74.4323 280.779C74.0457 280.527 72.8987 279.805 72.8987 279.805L71.2216 237.957C71.1836 237.323 71.5279 236.732 72.0919 236.47L120.953 212.979C120.953 212.979 121.815 213.579 122.227 213.873C122.581 214.128 122.833 214.54 122.864 215.041Z" fill="#0D4C8F"/>
<path d="M121.317 214.118L123.831 255.732C123.869 256.365 123.522 256.957 122.962 257.219L74.431 279.822C73.4784 280.266 72.3863 279.59 72.3208 278.517L69.8072 236.901C69.7713 236.267 70.1156 235.676 70.6775 235.414L119.209 212.81C120.162 212.367 121.254 213.043 121.317 214.118Z" fill="white"/>
<path d="M119.817 213.29C119.698 213.29 119.578 213.317 119.462 213.37L70.9325 235.973C70.603 236.128 70.396 236.484 70.4192 236.865L72.9307 278.479C72.9497 278.793 73.1124 279.064 73.3743 279.22C73.6214 279.366 73.9066 279.383 74.1622 279.262L122.694 256.659C123.023 256.502 123.23 256.148 123.207 255.77L120.693 214.154C120.674 213.839 120.514 213.568 120.25 213.41C120.115 213.33 119.967 213.29 119.817 213.29ZM73.8094 280.578C73.4398 280.578 73.0701 280.479 72.7427 280.282C72.1323 279.919 71.7415 279.273 71.6971 278.552L69.1835 236.939C69.1307 236.056 69.625 235.219 70.4108 234.854L118.94 212.248C119.563 211.959 120.29 211.995 120.883 212.35C121.494 212.713 121.885 213.359 121.929 214.08L124.44 255.693C124.493 256.574 124.001 257.413 123.215 257.778L74.6839 280.384C74.4072 280.513 74.1072 280.578 73.8094 280.578Z" fill="#0D4C8F"/>
<path d="M118.005 210.833L120.518 252.449C120.556 253.083 120.21 253.674 119.648 253.934L71.1167 276.539C70.164 276.983 69.072 276.307 69.0086 275.232L66.495 233.618C66.457 232.984 66.8034 232.391 67.3653 232.131L115.897 209.526C116.847 209.082 117.941 209.76 118.005 210.833Z" fill="white"/>
<path d="M116.512 210.007C116.392 210.007 116.271 210.033 116.157 210.088L67.6278 232.691C67.2962 232.845 67.0913 233.202 67.1124 233.58L69.626 275.196C69.645 275.511 69.8056 275.781 70.0696 275.938C70.3146 276.083 70.6019 276.098 70.8575 275.978L119.387 253.376C119.718 253.22 119.923 252.863 119.902 252.485L117.389 210.871C117.37 210.556 117.207 210.284 116.945 210.128C116.81 210.047 116.662 210.007 116.512 210.007ZM70.5026 277.294C70.133 277.294 69.7654 277.196 69.4359 277C68.8255 276.637 68.4347 275.99 68.3925 275.27L65.8789 233.656C65.8261 232.773 66.3182 231.937 67.104 231.569L115.635 208.966C116.259 208.677 116.985 208.712 117.579 209.065C118.189 209.431 118.58 210.077 118.622 210.797L121.136 252.409C121.189 253.292 120.696 254.128 119.909 254.496L71.3792 277.101C71.1004 277.228 70.8005 277.294 70.5026 277.294Z" fill="#0D4C8F"/>
<path d="M115.238 214.428L117.452 251.095C117.486 251.655 117.182 252.175 116.685 252.405L73.9266 272.323C73.088 272.712 72.1248 272.116 72.0678 271.17L69.8541 234.503C69.8203 233.946 70.1245 233.424 70.6188 233.194L113.38 213.277C114.218 212.886 115.181 213.484 115.238 214.428Z" fill="white"/>
<path d="M106.01 257.985C105.776 257.985 105.554 257.852 105.448 257.628C105.305 257.318 105.438 256.95 105.748 256.807L116.354 251.866C116.618 251.742 116.783 251.456 116.766 251.152L116.519 247.084C116.5 246.742 116.757 246.45 117.1 246.429C117.44 246.408 117.733 246.668 117.754 247.008L118 251.078C118.048 251.885 117.598 252.652 116.878 252.988L106.27 257.928C106.186 257.966 106.097 257.985 106.01 257.985Z" fill="#0D4C8F"/>
<path d="M72.0259 233.206C71.7936 233.206 71.5697 233.075 71.4641 232.851C71.3204 232.543 71.4535 232.173 71.7619 232.028L78.7789 228.739C79.0894 228.593 79.4569 228.726 79.6027 229.037C79.7463 229.345 79.6132 229.713 79.3048 229.858L72.2879 233.149C72.2034 233.187 72.1125 233.206 72.0259 233.206Z" fill="#0D4C8F"/>
<path d="M73.3156 273.082C72.9776 273.082 72.6396 272.991 72.3376 272.811C71.7778 272.478 71.4209 271.886 71.3807 271.229L69.3762 238.035C69.3551 237.693 69.617 237.401 69.9571 237.38C70.2993 237.361 70.5907 237.619 70.6119 237.961L72.6164 271.153C72.6312 271.407 72.76 271.624 72.9713 271.749C73.1656 271.865 73.3937 271.878 73.5965 271.783L83.4207 267.207C83.7291 267.064 84.0966 267.195 84.2402 267.505C84.386 267.816 84.2508 268.183 83.9424 268.327L74.1182 272.902C73.8627 273.02 73.5881 273.082 73.3156 273.082Z" fill="#0D4C8F"/>
<path d="M82.5948 206.613L97.3406 215.284C97.3406 215.284 85.0345 235.378 103.739 256.659L115.825 255.174C115.825 255.174 113.227 257.113 110.551 257.597C107.874 258.085 107.302 260.934 107.302 260.934L112.796 263.948C112.796 263.948 106.039 270.234 101.808 267.784C97.5771 265.332 62.3698 238.96 82.5948 206.613Z" fill="white"/>
<path d="M82.7976 207.451C77.2888 216.511 75.6877 225.904 78.0408 235.384C82.3118 252.584 98.3671 265.078 102.112 267.248C105.186 269.03 109.974 265.497 111.71 264.062L106.998 261.477C106.761 261.346 106.637 261.078 106.689 260.814C106.717 260.681 107.38 257.544 110.435 256.99C111.303 256.832 112.169 256.509 112.931 256.15L103.806 257.271C103.603 257.297 103.403 257.219 103.268 257.067C93.4603 245.909 92.2183 235.065 92.9027 227.932C93.5152 221.557 95.6803 217.024 96.4978 215.508L82.7976 207.451ZM104.028 268.969C103.145 268.969 102.285 268.777 101.491 268.319C97.6574 266.094 81.2155 253.3 76.841 235.68C74.3591 225.687 76.1165 215.797 82.0646 206.283C82.2421 206 82.6138 205.909 82.9011 206.078L97.6468 214.751C97.7905 214.834 97.8919 214.973 97.9341 215.134C97.9742 215.294 97.9468 215.465 97.8623 215.607C97.8306 215.655 94.8333 220.638 94.1278 228.107C93.4857 234.93 94.6812 245.288 103.982 256.006L115.745 254.561C116.019 254.525 116.288 254.684 116.393 254.944C116.497 255.203 116.414 255.501 116.188 255.67C116.079 255.753 113.442 257.702 110.654 258.207C108.988 258.509 108.284 259.912 108.027 260.63L113.088 263.408C113.261 263.503 113.377 263.676 113.402 263.874C113.428 264.069 113.356 264.267 113.21 264.402C112.971 264.626 108.244 268.969 104.028 268.969Z" fill="#0D4C8F"/>
<path d="M123.579 170.77C122.113 171.684 119.807 173.121 117.24 172.354C114.505 171.539 112.236 168.453 112.743 166.387C113.187 164.577 115.502 164.619 115.857 162.733C116.188 160.958 114.26 160.287 114.127 158.105C113.951 155.198 117.092 151.732 120.005 151.65C121.792 151.599 121.974 152.866 124.04 152.991C126.855 153.16 127.415 150.864 130.611 150.553C132.913 150.329 134.791 151.312 136.375 152.135C138.722 153.363 140.262 154.165 140.408 155.426C140.705 158.003 134.679 158.417 129.111 164.925C127.088 167.291 126.327 169.059 123.579 170.77Z" fill="#0D4C8F"/>
<path d="M133.082 172.922C135.253 167.031 130.515 159.537 130.167 158.918C130.167 158.918 127.489 161.151 123.915 160.91C120.339 160.671 120.636 165.508 120.636 165.508C118.693 165.079 118.353 166.389 118.835 169.057C119.316 171.725 121.965 170.943 121.965 170.943C122.335 171.384 122.723 171.767 123.123 172.105L118.583 178.822C117.343 180.655 115.611 182.1 113.588 182.993L111.748 183.807C111.268 184.018 111.368 184.728 111.885 184.797C115.48 185.279 123.923 185.881 130.258 182.195C130.638 181.973 130.539 181.394 130.108 181.304L128.636 180.989C127.586 180.765 127.041 179.605 127.537 178.655L129.837 174.253C130.64 174.221 131.329 174.114 131.829 174.01C132.408 173.89 132.877 173.478 133.082 172.922Z" fill="white"/>
<path d="M112.323 184.229C115.806 184.662 123.662 185.142 129.639 181.836L128.505 181.593C127.817 181.447 127.248 180.995 126.948 180.357C126.649 179.719 126.663 178.995 126.989 178.368L129.291 173.968C129.392 173.771 129.593 173.645 129.813 173.636C130.453 173.609 131.089 173.53 131.705 173.402C132.073 173.33 132.371 173.068 132.502 172.709C134.17 168.182 131.479 162.469 129.977 159.82C128.951 160.496 126.684 161.717 123.873 161.526C123.174 161.48 122.633 161.657 122.219 162.069C121.311 162.971 121.216 164.83 121.254 165.47C121.266 165.664 121.186 165.85 121.038 165.977C120.89 166.104 120.694 166.154 120.504 166.112C120.164 166.038 119.718 165.99 119.515 166.184C119.294 166.395 119.101 167.05 119.444 168.945C119.553 169.553 119.79 169.961 120.168 170.193C120.844 170.611 121.782 170.354 121.792 170.352C122.027 170.282 122.282 170.36 122.441 170.548C122.768 170.939 123.132 171.304 123.522 171.634C123.763 171.839 123.812 172.189 123.634 172.451L119.095 179.166C117.79 181.099 115.971 182.617 113.84 183.56L112.323 184.229ZM117.272 185.769C114.995 185.769 113.054 185.577 111.806 185.408C111.294 185.34 110.904 184.954 110.832 184.442C110.76 183.931 111.028 183.448 111.499 183.241L113.339 182.429C115.259 181.58 116.896 180.214 118.071 178.475L122.308 172.206C122.109 172.018 121.919 171.824 121.735 171.621C121.222 171.697 120.31 171.735 119.52 171.247C118.835 170.825 118.4 170.123 118.227 169.164C117.855 167.101 117.984 165.941 118.658 165.293C118.998 164.965 119.471 164.803 120.024 164.813C120.073 163.865 120.316 162.217 121.349 161.191C122.018 160.525 122.895 160.221 123.955 160.293C127.229 160.513 129.747 158.464 129.773 158.443C129.914 158.324 130.1 158.276 130.282 158.309C130.461 158.343 130.617 158.455 130.706 158.616L130.789 158.755C132.668 161.936 135.541 168.036 133.663 173.138C133.382 173.898 132.745 174.451 131.957 174.614C131.388 174.732 130.808 174.811 130.222 174.851L128.085 178.942C127.939 179.221 127.933 179.546 128.068 179.833C128.201 180.117 128.455 180.319 128.765 180.385L130.237 180.697C130.687 180.795 131.025 181.152 131.099 181.606C131.171 182.06 130.964 182.499 130.569 182.727C126.384 185.163 121.302 185.769 117.272 185.769Z" fill="#0D4C8F"/>
<path d="M129.262 174.906C127.223 174.906 125.354 173.79 125.267 173.737C124.976 173.56 124.881 173.18 125.058 172.888C125.236 172.597 125.616 172.504 125.907 172.679C125.937 172.696 127.922 173.873 129.756 173.64C130.094 173.596 130.404 173.837 130.449 174.175C130.491 174.515 130.252 174.823 129.912 174.868C129.695 174.893 129.477 174.906 129.262 174.906Z" fill="#0D4C8F"/>
<path d="M120.109 189.229C111.561 189.229 106.071 185.727 105.991 185.676C105.705 185.488 105.625 185.106 105.811 184.821C105.999 184.533 106.381 184.455 106.669 184.641C106.785 184.715 118.54 192.178 134.447 184.599C134.755 184.453 135.125 184.582 135.271 184.892C135.419 185.201 135.288 185.568 134.979 185.716C129.449 188.348 124.395 189.229 120.109 189.229Z" fill="#0D4C8F"/>
<path d="M306.618 359.765C306.434 359.765 306.254 359.683 306.132 359.531C305.923 359.264 305.967 358.876 306.233 358.662C324.386 344.208 338.897 325.738 348.202 305.252C348.343 304.941 348.709 304.802 349.021 304.943C349.332 305.085 349.469 305.452 349.328 305.763C339.943 326.427 325.309 345.053 307.002 359.63C306.888 359.719 306.753 359.765 306.618 359.765Z" fill="#0D4C8F"/>
<path d="M301.971 374.304C301.776 374.304 301.588 374.213 301.468 374.044C301.269 373.769 301.331 373.381 301.609 373.182C321.344 358.92 337.463 340.273 348.217 319.254C348.373 318.95 348.747 318.829 349.049 318.986C349.351 319.142 349.473 319.514 349.315 319.818C338.475 341.01 322.225 359.809 302.332 374.186C302.224 374.264 302.097 374.304 301.971 374.304Z" fill="#0D4C8F"/>
<path d="M352.398 324.951C351.182 324.951 350.189 325.941 350.189 327.16C350.189 328.377 351.182 329.369 352.398 329.369C353.619 329.369 354.608 328.377 354.608 327.16C354.608 325.941 353.619 324.951 352.398 324.951ZM352.398 330.605C350.499 330.605 348.953 329.059 348.953 327.16C348.953 325.261 350.499 323.715 352.398 323.715C354.299 323.715 355.845 325.261 355.845 327.16C355.845 329.059 354.299 330.605 352.398 330.605Z" fill="#0D4C8F"/>
<path d="M342.022 339.77L348.87 340.425L345.598 334.45C344.876 335.704 343.528 337.922 342.022 339.77ZM349.973 341.771C349.956 341.771 349.933 341.769 349.914 341.769L340.715 340.888C340.482 340.867 340.28 340.715 340.197 340.495C340.113 340.277 340.161 340.028 340.32 339.855C342.726 337.238 345.036 332.924 345.06 332.88C345.165 332.679 345.374 332.555 345.598 332.553C345.839 332.559 346.038 332.675 346.148 332.876L350.516 340.854C350.626 341.055 350.617 341.3 350.49 341.492C350.374 341.665 350.18 341.771 349.973 341.771Z" fill="#0D4C8F"/>
<path d="M338.431 144.193C338.089 144.193 337.812 143.919 337.812 143.576V140.381C337.812 140.036 338.089 139.76 338.431 139.76C338.771 139.76 339.05 140.036 339.05 140.381V143.576C339.05 143.919 338.771 144.193 338.431 144.193Z" fill="#0D4C8F"/>
<path d="M338.431 151.643C338.089 151.643 337.812 151.364 337.812 151.024V147.826C337.812 147.486 338.089 147.207 338.431 147.207C338.771 147.207 339.05 147.486 339.05 147.826V151.024C339.05 151.364 338.771 151.643 338.431 151.643Z" fill="#0D4C8F"/>
<path d="M336.299 146.32H333.103C332.761 146.32 332.484 146.044 332.484 145.701C332.484 145.359 332.761 145.083 333.103 145.083H336.299C336.641 145.083 336.918 145.359 336.918 145.701C336.918 146.044 336.641 146.32 336.299 146.32Z" fill="#0D4C8F"/>
<path d="M343.75 146.32H340.554C340.214 146.32 339.938 146.046 339.938 145.703C339.938 145.361 340.214 145.085 340.554 145.085H343.75C344.092 145.085 344.369 145.361 344.369 145.703C344.369 146.046 344.092 146.32 343.75 146.32Z" fill="#0D4C8F"/>
<path d="M90.0004 314.894C89.5019 314.894 89.0013 315 88.5303 315.211C86.6757 316.045 85.8308 318.265 86.6483 320.164C87.0496 321.087 87.7762 321.797 88.7014 322.154C89.6033 322.507 90.5897 322.481 91.4748 322.082C93.3294 321.25 94.1722 319.028 93.3547 317.131C92.9555 316.206 92.2268 315.5 91.3016 315.139C90.8791 314.974 90.4398 314.894 90.0004 314.894ZM90.0025 323.637C89.4132 323.637 88.8218 323.527 88.2536 323.307C87.0179 322.828 86.0463 321.884 85.514 320.652C84.4304 318.138 85.5562 315.192 88.0233 314.083C89.2126 313.549 90.5369 313.515 91.7494 313.988C92.9851 314.467 93.9588 315.409 94.489 316.641C95.5747 319.157 94.4489 322.101 91.9796 323.21C91.3481 323.495 90.6764 323.637 90.0025 323.637Z" fill="#0D4C8F"/>
<path d="M43.9668 232.503C43.62 232.465 43.358 232.16 43.3784 231.804C45.7864 190.257 62.4127 151.989 62.5813 151.609C62.7287 151.274 63.1195 151.12 63.4542 151.268C63.7912 151.415 63.9424 151.806 63.795 152.141C63.6287 152.522 47.0947 190.578 44.7018 231.882C44.6824 232.249 44.3682 232.527 44.0012 232.505C43.9896 232.506 43.9782 232.505 43.9668 232.503Z" fill="white"/>
<path d="M134.023 83.1396C133.795 83.2466 133.515 83.2177 133.311 83.042C133.032 82.8027 133.001 82.3841 133.239 82.108C133.296 82.0407 138.929 75.5381 147.731 69.5032C155.88 63.9132 168.503 57.5882 182.347 59.1809C182.71 59.2242 182.972 59.5524 182.93 59.9167C182.886 60.279 182.56 60.5404 182.196 60.4981C156.437 57.5324 134.463 82.7159 134.245 82.9699C134.182 83.0452 134.106 83.1008 134.023 83.1396Z" fill="white"/>
</svg>
