<svg width="25" height="25" viewBox="0 0 25 25" fill="none" xmlns="http://www.w3.org/2000/svg">
<rect x="8.85425" width="15.625" height="15.625" rx="2.60417" fill="#20C897"/>
<path d="M19.271 17.4296H16.518V14.6767H15.1415V20.8709H4.12959V9.85896H10.3238V8.48247H7.57081V5.72949H6.19432V8.48247H4.12959C3.76463 8.48283 3.41473 8.62797 3.15667 8.88604C2.8986 9.1441 2.75346 9.494 2.7531 9.85896V11.9237H0.00012207V13.3002H2.7531V17.4296H0.00012207V18.8061H2.7531V20.8709C2.75346 21.2358 2.8986 21.5857 3.15667 21.8438C3.41473 22.1018 3.76463 22.247 4.12959 22.2474H6.19432V25.0003H7.57081V22.2474H11.7003V25.0003H13.0768V22.2474H15.1415C15.5064 22.2468 15.8562 22.1016 16.1142 21.8436C16.3722 21.5856 16.5174 21.2358 16.518 20.8709V18.8061H19.271V17.4296Z" fill="#0D4C8F"/>
<path d="M16.5179 5.72949C15.788 5.73022 15.0882 6.0205 14.572 6.53663C14.0559 7.05275 13.7656 7.75256 13.7649 8.48247C13.7675 8.97256 13.9023 9.45287 14.1551 9.87272L12.1035 11.9237H6.19421V18.8061H13.0767V12.8969L15.1276 10.8459C15.5475 11.0985 16.0278 11.2331 16.5179 11.2354C17.248 11.2354 17.9482 10.9454 18.4645 10.4291C18.9808 9.91283 19.2709 9.2126 19.2709 8.48247C19.2709 7.75233 18.9808 7.0521 18.4645 6.53582C17.9482 6.01954 17.248 5.72949 16.5179 5.72949ZM11.7002 17.4296H7.5707V13.3002H11.7002V17.4296ZM16.5179 9.85896C16.2456 9.85896 15.9795 9.77823 15.7531 9.62698C15.5268 9.47573 15.3503 9.26075 15.2462 9.00923C15.142 8.75771 15.1147 8.48094 15.1678 8.21393C15.2209 7.94692 15.352 7.70165 15.5446 7.50914C15.7371 7.31664 15.9823 7.18554 16.2493 7.13243C16.5163 7.07932 16.7931 7.10658 17.0446 7.21076C17.2962 7.31494 17.5111 7.49137 17.6624 7.71773C17.8136 7.94409 17.8944 8.21022 17.8944 8.48247C17.894 8.84742 17.7489 9.19733 17.4908 9.45539C17.2327 9.71345 16.8828 9.85859 16.5179 9.85896Z" fill="#0D4C8F"/>
</svg>
