<svg width="62" height="69" viewBox="0 0 62 69" fill="none" xmlns="http://www.w3.org/2000/svg">
<path d="M36.3702 12.502L28.128 18.661H20.7915C22.5124 14.4946 26.6788 11.4151 31.5698 11.4151C33.2907 11.4151 34.921 11.868 36.3702 12.502ZM42.2575 18.661H32.9284L38.9968 14.2229C40.3554 15.4004 41.5329 16.9401 42.2575 18.661ZM31.5698 34.602C25.139 34.602 19.9763 29.4393 19.9763 23.0086C19.9763 22.5557 19.9763 22.1028 20.0669 21.5594H42.9821C43.0727 22.1028 43.1632 22.5557 43.1632 23.0086C43.1632 29.4393 37.9099 34.602 31.5698 34.602ZM18.5272 38.5873C19.3423 38.225 20.2481 37.9532 21.1538 37.7721L30.1206 57.7889H18.5272V38.5873ZM11.2812 53.4414V49.7278C11.2812 46.0143 12.9116 42.6631 15.6288 40.4893V57.7889C13.1833 57.7889 11.2812 55.8869 11.2812 53.4414ZM34.4681 49.0938C36.8231 49.0938 38.8157 51.0864 38.8157 53.4414C38.8157 55.8869 36.8231 57.7889 34.4681 57.7889H33.2907L29.396 49.0938H34.4681ZM39.6308 37.5004C46.3333 37.5004 51.8583 43.0254 51.8583 49.7278V53.4414C51.8583 55.8869 49.8657 57.7889 47.5108 57.7889H40.1743C41.08 56.6115 41.714 55.1623 41.714 53.4414C41.714 49.4561 38.4534 46.1955 34.4681 46.1955H28.128L24.2333 37.5004H24.9579C26.9505 38.4967 29.1243 38.9496 31.5698 38.9496C33.9247 38.9496 36.0985 38.4967 38.0911 37.5004H39.6308Z" fill="white"/>
</svg>
