<svg width="46" height="47" viewBox="0 0 46 47" fill="none" xmlns="http://www.w3.org/2000/svg">
<path d="M7.62114 38.6472L5.99198 37.9764C5.0017 37.5611 4.33917 36.8423 4.00439 35.8201C3.66962 34.7979 3.7252 33.7916 4.17114 32.8014L7.62114 25.3264V38.6472ZM15.2878 42.8639C14.2336 42.8639 13.3315 42.4888 12.5815 41.7388C11.8314 40.9887 11.4558 40.086 11.4545 39.0305V27.5305L16.5336 41.618C16.6295 41.8416 16.7253 42.0576 16.8211 42.2659C16.917 42.4741 17.0448 42.6735 17.2045 42.8639H15.2878ZM25.1586 42.6722C24.1364 43.0555 23.1461 43.0076 22.1878 42.5284C21.2295 42.0493 20.5586 41.2986 20.1753 40.2764L11.6461 16.893C11.2628 15.8708 11.2948 14.8729 11.742 13.8992C12.1892 12.9255 12.9239 12.2624 13.9461 11.9097L28.417 6.63886C29.4392 6.25552 30.4295 6.30344 31.3878 6.78261C32.3461 7.26177 33.017 8.01247 33.4003 9.03469L41.9295 32.418C42.3128 33.4402 42.2809 34.4388 41.8337 35.4138C41.3864 36.3887 40.6517 37.0512 39.6295 37.4014L25.1586 42.6722ZM21.0378 19.8639C21.5809 19.8639 22.0364 19.6799 22.4044 19.3119C22.7724 18.9439 22.9558 18.489 22.9545 17.9472C22.9545 17.4041 22.7711 16.9492 22.4044 16.5825C22.0377 16.2158 21.5821 16.0318 21.0378 16.0305C20.4948 16.0305 20.0399 16.2145 19.6731 16.5825C19.3064 16.9505 19.1224 17.4054 19.1211 17.9472C19.1211 18.4902 19.3051 18.9458 19.6731 19.3138C20.0411 19.6818 20.496 19.8651 21.0378 19.8639ZM23.817 39.0305L38.2878 33.7597L29.7586 10.2805L15.2878 15.5514L23.817 39.0305Z" fill="#A0A2A6"/>
</svg>
