<svg width="48" height="53" viewBox="0 0 48 53" fill="none" xmlns="http://www.w3.org/2000/svg">
<g filter="url(#filter0_d_392_3122)">
<path d="M17.6 22.5973L21.9 18.2473L19.1 15.3973L16.9 17.5973L14.1 14.7973L16.25 12.5973L14 10.3473L9.65 14.6973L17.6 22.5973ZM34 39.0473L38.35 34.6973L36.1 32.4473L33.9 34.5973L31.1 31.7973L33.25 29.5973L30.4 26.7973L26.1 31.0973L34 39.0473ZM32.45 13.5473L35.25 16.3473L38.05 13.5473L35.2 10.6973L32.45 13.5473ZM14.5 42.6973H6V34.1973L14.75 25.4473L4 14.6973L14 4.69727L24.8 15.4973L35.25 4.99727L43.65 13.4973L33.25 23.9473L44 34.6973L34 44.6973L23.25 33.9473L14.5 42.6973Z" fill="#A0A2A6"/>
</g>
<defs>
<filter id="filter0_d_392_3122" x="-4" y="0.697266" width="56" height="56" filterUnits="userSpaceOnUse" color-interpolation-filters="sRGB">
<feFlood flood-opacity="0" result="BackgroundImageFix"/>
<feColorMatrix in="SourceAlpha" type="matrix" values="0 0 0 0 0 0 0 0 0 0 0 0 0 0 0 0 0 0 127 0" result="hardAlpha"/>
<feOffset dy="4"/>
<feGaussianBlur stdDeviation="2"/>
<feComposite in2="hardAlpha" operator="out"/>
<feColorMatrix type="matrix" values="0 0 0 0 0 0 0 0 0 0 0 0 0 0 0 0 0 0 0.25 0"/>
<feBlend mode="normal" in2="BackgroundImageFix" result="effect1_dropShadow_392_3122"/>
<feBlend mode="normal" in="SourceGraphic" in2="effect1_dropShadow_392_3122" result="shape"/>
</filter>
</defs>
</svg>
