<svg width="43" height="48" viewBox="0 0 43 48" fill="none" xmlns="http://www.w3.org/2000/svg">
<rect x="13" width="30" height="30" rx="5" fill="#20C897"/>
<path d="M20.3861 11H2.47104C1.10811 11 0 12.1852 0 13.6429V45.3571C0 46.8148 1.10811 48 2.47104 48H20.3861C21.749 48 22.8571 46.8148 22.8571 45.3571V13.6429C22.8571 12.1852 21.749 11 20.3861 11ZM20.0772 45.0268H2.77992V13.9732H20.0772V45.0268ZM9.88417 40.8147C9.88417 41.2528 10.0469 41.673 10.3365 41.9827C10.6261 42.2925 11.019 42.4665 11.4286 42.4665C11.8382 42.4665 12.231 42.2925 12.5206 41.9827C12.8103 41.673 12.973 41.2528 12.973 40.8147C12.973 40.3766 12.8103 39.9565 12.5206 39.6467C12.231 39.337 11.8382 39.1629 11.4286 39.1629C11.019 39.1629 10.6261 39.337 10.3365 39.6467C10.0469 39.9565 9.88417 40.3766 9.88417 40.8147Z" fill="white"/>
</svg>
