<svg width="55" height="56" viewBox="0 0 55 56" fill="none" xmlns="http://www.w3.org/2000/svg">
<rect x="25" width="30" height="30" rx="5" fill="#20C897"/>
<path d="M38.1892 9H17.8108C16.2605 9 15 10.2813 15 11.8571V46.1429C15 47.7188 16.2605 49 17.8108 49H38.1892C39.7395 49 41 47.7188 41 46.1429V11.8571C41 10.2813 39.7395 9 38.1892 9ZM37.8378 45.7857H18.1622V12.2143H37.8378V45.7857ZM26.2432 41.2321C26.2432 41.7057 26.4283 42.16 26.7578 42.4948C27.0872 42.8297 27.5341 43.0179 28 43.0179C28.4659 43.0179 28.9128 42.8297 29.2422 42.4948C29.5717 42.16 29.7568 41.7057 29.7568 41.2321C29.7568 40.7585 29.5717 40.3043 29.2422 39.9695C28.9128 39.6346 28.4659 39.4464 28 39.4464C27.5341 39.4464 27.0872 39.6346 26.7578 39.9695C26.4283 40.3043 26.2432 40.7585 26.2432 41.2321Z" fill="#0D4C8F"/>
</svg>
