<svg width="22" height="26" viewBox="0 0 22 26" fill="none" xmlns="http://www.w3.org/2000/svg">
<rect x="6.28577" width="15.7143" height="15.7143" rx="2.61905" fill="#20C897"/>
<path d="M11.2124 5.76172H1.35907C0.609459 5.76172 0 6.38251 0 7.14607V23.7583C0 24.5219 0.609459 25.1427 1.35907 25.1427H11.2124C11.962 25.1427 12.5714 24.5219 12.5714 23.7583V7.14607C12.5714 6.38251 11.962 5.76172 11.2124 5.76172ZM11.0425 23.5853H1.52896V7.31912H11.0425V23.5853ZM5.43629 21.379C5.43629 21.6084 5.52579 21.8285 5.68508 21.9908C5.84438 22.153 6.06043 22.2442 6.28571 22.2442C6.51099 22.2442 6.72705 22.153 6.88635 21.9908C7.04564 21.8285 7.13513 21.6084 7.13513 21.379C7.13513 21.1495 7.04564 20.9294 6.88635 20.7672C6.72705 20.6049 6.51099 20.5137 6.28571 20.5137C6.06043 20.5137 5.84438 20.6049 5.68508 20.7672C5.52579 20.9294 5.43629 21.1495 5.43629 21.379Z" fill="#0D4C8F"/>
</svg>
