<svg width="69" height="69" viewBox="0 0 69 69" fill="none" xmlns="http://www.w3.org/2000/svg">
<path d="M34.4681 11.8775C46.8768 11.8775 56.9304 21.9312 56.9304 34.3398C56.9304 46.7484 46.8768 56.8021 34.4681 56.8021C22.0595 56.8021 12.0058 46.7484 12.0058 34.3398C12.0058 21.9312 22.0595 11.8775 34.4681 11.8775ZM42.8009 40.2271C42.9821 40.046 43.1632 39.6837 43.1632 39.3214C43.1632 38.8685 42.8915 38.5062 42.6198 38.2345L37.3665 34.3398V21.2972C37.3665 20.5726 36.6419 19.848 35.9173 19.848H33.019C32.2038 19.848 31.5698 20.5726 31.5698 21.2972V35.4267C31.5698 36.6042 32.0226 37.6005 32.9284 38.2345L38.9968 42.7632C39.178 42.9443 39.5403 43.1255 39.812 43.1255C40.3554 43.1255 40.7177 42.8537 40.9895 42.4915L42.8009 40.2271Z" fill="white"/>
</svg>
