<svg width="90" height="72" viewBox="0 0 90 72" fill="none" xmlns="http://www.w3.org/2000/svg">
<path d="M68.0687 27C69.8461 27 71.35 28.5039 71.35 30.2812V36.8438C71.35 38.7578 69.8461 40.125 68.0687 40.125H66.975V48.875C66.975 51.3359 64.9242 53.25 62.6 53.25H60.4125C60.4125 58.1719 56.4477 62 51.6625 62H32.932L18.85 70.2031C16.6625 71.4336 14.0648 70.75 12.8344 68.5625L1.89687 49.6953C0.666405 47.6445 1.35 44.9102 3.5375 43.6797L14.475 37.3906V30.9648C14.475 27.8203 15.9789 24.9492 18.7133 23.4453L27.6 18.1133V34.6562C27.6 40.125 31.975 44.5 37.4437 44.5C42.7758 44.5 47.2875 40.125 47.2875 34.6562V27H68.0687ZM88.1664 21.9414C89.3969 23.9922 88.7133 26.7266 86.6625 27.957L75.725 34.2461V30.2812C75.725 26.1797 72.1703 22.625 68.0687 22.625H42.9125V34.6562C42.9125 37.8008 40.4516 40.125 37.4437 40.125C34.2992 40.125 31.975 37.8008 31.975 34.6562V17.4297C31.975 15.9258 32.6586 14.5586 34.0258 13.7383L38.5375 10.8672C39.9047 10.0469 41.5453 9.5 43.1859 9.5H57.1312L71.35 1.43359C73.4008 0.203125 75.9984 0.886719 77.2289 2.9375L88.1664 21.9414Z" fill="#0D4C8F"/>
</svg>
