<svg width="79" height="67" viewBox="0 0 79 67" fill="none" xmlns="http://www.w3.org/2000/svg">
<path d="M57.0962 30.4675C62.4984 30.4675 67.015 34.9841 67.015 40.3863V54.5561C67.015 55.3532 66.3065 55.9731 65.598 55.9731H62.7641C61.967 55.9731 61.3471 55.3532 61.3471 54.5561V50.3052H16.0038V54.5561C16.0038 55.3532 15.2954 55.9731 14.5869 55.9731H11.7529C10.9559 55.9731 10.3359 55.3532 10.3359 54.5561V23.3826C10.3359 22.6741 10.9559 21.9656 11.7529 21.9656H14.5869C15.2954 21.9656 16.0038 22.6741 16.0038 23.3826V44.6373H33.0076V31.8845C33.0076 31.176 33.6275 30.4675 34.4245 30.4675H57.0962ZM22.3802 19.1317C21.9374 19.1317 21.6718 18.866 21.6718 18.4232V17.0062C21.6718 16.652 21.9374 16.2977 22.3802 16.2977H34.7788C35.133 16.2977 35.3102 16.4749 35.4873 16.7405L37.2585 20.283L41.598 11.4269C42.1294 10.3641 43.6349 10.3641 44.1663 11.4269L46.5574 16.2977H55.6792C56.3877 16.2977 57.0962 17.0062 57.0962 17.7147C57.0962 18.5118 56.3877 19.1317 55.6792 19.1317H44.8747L42.9264 15.235L38.4983 24.0911C37.967 25.0653 36.4614 25.0653 35.9301 24.0911L33.5389 19.1317H22.3802ZM24.5057 41.8033C21.3175 41.8033 18.8378 39.3236 18.8378 36.1354C18.8378 33.0358 21.3175 30.4675 24.5057 30.4675C27.6053 30.4675 30.1736 33.0358 30.1736 36.1354C30.1736 39.3236 27.6053 41.8033 24.5057 41.8033Z" fill="white"/>
</svg>
