<svg width="60" height="71" viewBox="0 0 60 71" fill="none" xmlns="http://www.w3.org/2000/svg">
<path d="M18.1117 70.0664C0.338282 52.4297 0.338282 23.582 18.1117 5.94531C18.932 5.125 20.0258 4.98828 20.9828 5.53516L29.8695 11.1406C30.5531 11.5508 30.9633 12.2344 30.9633 13.0547C30.9633 13.3281 30.9633 13.7383 30.8266 14.0117L26.3148 25.0859C26.0414 25.9062 25.2211 26.4531 24.1273 26.4531H23.9906L16.3344 25.7695C13.4633 33.6992 13.4633 42.4492 16.3344 50.2422L23.9906 49.5586H24.1273C25.2211 49.5586 26.0414 50.1055 26.3148 50.9258L30.8266 62C30.9633 62.2734 30.9633 62.6836 30.9633 62.957C30.9633 63.7773 30.5531 64.4609 29.8695 64.8711L20.9828 70.4766C20.5727 70.75 20.1625 70.75 19.7523 70.75C19.0688 70.75 18.5219 70.6133 18.1117 70.0664ZM38.6195 13.875C40.1234 16.6094 40.1234 20.0273 38.6195 22.7617C38.0727 23.7188 36.8422 23.8555 36.0219 23.1719L35.2016 22.3516C34.6547 21.8047 34.518 20.9844 34.9281 20.3008C35.2016 19.7539 35.3383 19.0703 35.3383 18.3867C35.3383 17.5664 35.2016 16.8828 34.9281 16.3359C34.518 15.6523 34.6547 14.832 35.2016 14.2852L36.0219 13.4648C36.8422 12.7812 38.0727 12.918 38.6195 13.875ZM51.0609 1.43359C59.4008 11.1406 59.4008 25.4961 51.0609 35.2031C50.5141 36.0234 49.4203 36.0234 48.7367 35.3398L47.9164 34.6562C47.3695 33.9727 47.2328 33.0156 47.7797 32.332C54.6156 24.2656 54.6156 12.3711 47.7797 4.30469C47.2328 3.62109 47.3695 2.66406 47.9164 1.98047L48.7367 1.29688C49.4203 0.613281 50.5141 0.613281 51.0609 1.43359ZM44.7719 7.58594C49.6938 13.875 49.8305 22.7617 44.7719 29.0508C44.225 29.8711 43.1313 30.0078 42.4477 29.3242L41.6273 28.5039C40.9438 27.957 40.9438 27 41.3539 26.3164C45.0453 21.668 45.0453 14.9688 41.3539 10.3203C40.9438 9.63672 40.9438 8.67969 41.6273 8.13281L42.4477 7.3125C43.1313 6.62891 44.225 6.76562 44.7719 7.58594Z" fill="#0D4C8F"/>
</svg>
