<svg width="57" height="54" viewBox="0 0 57 54" fill="none" xmlns="http://www.w3.org/2000/svg">
<rect x="27.668" width="28.5714" height="30" rx="5" fill="#20C897"/>
<path d="M35.2188 8.0625L37.658 12.6562L42.875 13.2902L39.0469 16.7401L39.8125 21.8438L35.2188 18.9727L30.625 21.8438L31.3906 16.7401L27.5625 13.2902L32.9219 12.6562L35.2188 8.0625Z" fill="#0D4C8F"/>
<path d="M34.7863 25.2878L31.8187 24.5252C31.2868 26.5744 30.1594 28.4199 28.5791 29.8287C26.9987 31.2374 25.0363 32.1462 22.9397 32.4401C20.8431 32.7341 18.7065 32.4 16.7996 31.4802C14.8928 30.5604 13.3014 29.096 12.2264 27.2721C11.1515 25.4482 10.6412 23.3467 10.7601 21.2329C10.879 19.1191 11.6217 17.088 12.8944 15.3962C14.1671 13.7044 15.9127 12.4277 17.9106 11.7275C19.9086 11.0273 22.0692 10.9349 24.1196 11.4621L24.8837 8.49607C21.8947 7.71858 18.731 7.96883 15.9014 9.20658C13.0718 10.4443 10.7406 12.5977 9.28267 15.3204C7.82474 18.0431 7.32475 21.177 7.86311 24.2182C8.40147 27.2594 9.94689 30.0313 12.2509 32.088V50.9377L21.4384 44.8127L30.6259 50.9377V32.1156C32.6598 30.3032 34.1081 27.9263 34.7863 25.2878ZM27.5634 45.2154L21.4384 41.1316L15.3134 45.2154V34.1705C17.2136 35.1257 19.3106 35.6239 21.4373 35.6254C23.564 35.627 25.6618 35.132 27.5634 34.1797V45.2154Z" fill="#0D4C8F" stroke="#0D4C8F"/>
</svg>
