<svg width="50" height="47" viewBox="0 0 50 47" fill="none" xmlns="http://www.w3.org/2000/svg">
<rect x="19.5449" width="30.125" height="30" rx="5" fill="#20C897"/>
<path d="M23.4333 43.3407L34.2 39.9976C34.0492 39.7265 33.8309 39.4934 33.545 39.2982C33.259 39.1031 32.9345 39.0049 32.5714 39.0037H23.4333C22.619 39.0037 21.9706 38.9736 21.4881 38.9133C21.0056 38.8531 20.5079 38.7326 19.9952 38.5519L17.4167 37.6935C16.9341 37.5429 16.5873 37.2418 16.3762 36.79C16.1651 36.3382 16.1349 35.8714 16.2857 35.3895C16.4365 34.9076 16.7309 34.5534 17.1688 34.3269C17.6067 34.1005 18.0663 34.0631 18.5476 34.2149L20.4476 34.8474C20.9603 34.998 21.5412 35.1184 22.1902 35.2088C22.8392 35.2992 23.721 35.3594 24.8357 35.3895H25.3333C25.3333 35.0582 25.2356 34.742 25.0402 34.4408C24.8448 34.1396 24.6107 33.9438 24.3381 33.8535L13.7524 29.9683H10.8571V39.9072L23.4333 43.3407ZM22.4833 46.8645L10.8571 43.6117C10.6159 44.3948 10.1406 45.0273 9.43124 45.5092C8.7219 45.9911 7.99086 46.232 7.2381 46.232H3.61905C2.62381 46.232 1.77213 45.8784 1.064 45.1712C0.355873 44.4641 0.00120635 43.6129 0 42.6178V29.9683C0 28.9744 0.354667 28.1238 1.064 27.4167C1.77333 26.7095 2.62502 26.3553 3.61905 26.3541H13.7524C13.9635 26.3541 14.1746 26.377 14.3857 26.4228C14.5968 26.4686 14.7929 26.521 14.9738 26.58L25.6048 30.5104C26.6 30.8718 27.407 31.5043 28.0259 32.4078C28.6448 33.3114 28.9536 34.3053 28.9524 35.3895H32.5714C34.0794 35.3895 35.3611 35.8865 36.4167 36.8804C37.4722 37.8742 38 39.1844 38 40.8108C38 41.4733 37.8263 41.9932 37.4789 42.3703C37.1314 42.7473 36.5964 43.0557 35.8738 43.2955L24.5643 46.8193C24.2325 46.9398 23.8857 47 23.5238 47C23.1619 47 22.8151 46.9548 22.4833 46.8645ZM3.61905 42.6178H7.2381V29.9683H3.61905V42.6178ZM23.5238 10C23.8857 10 24.2404 10.0524 24.5878 10.1572C24.9352 10.262 25.2742 10.4355 25.6048 10.6777L34.6524 17.138C35.1349 17.4693 35.5119 17.8909 35.7833 18.4029C36.0548 18.915 36.1905 19.4721 36.1905 20.0745V29.9683C36.1905 30.4803 36.0168 30.9098 35.6693 31.2567C35.3219 31.6037 34.8924 31.7766 34.381 31.7753C33.8695 31.7741 33.44 31.6007 33.0926 31.2549C32.7451 30.9092 32.5714 30.4803 32.5714 29.9683V20.0293L23.5238 13.7045L14.4762 20.0293V20.9329C14.4762 21.4449 14.3025 21.8744 13.955 22.2213C13.6076 22.5683 13.1782 22.7411 12.6667 22.7399C12.1552 22.7387 11.7257 22.5653 11.3783 22.2195C11.0309 21.8737 10.8571 21.4449 10.8571 20.9329V20.0745C10.8571 19.4721 10.9929 18.915 11.2643 18.4029C11.5357 17.8909 11.9127 17.4693 12.3952 17.138L21.4429 10.6777C21.7746 10.4367 22.1142 10.2633 22.4616 10.1572C22.809 10.0512 23.1631 9.99882 23.5238 10ZM21.7143 20.9329C21.9556 20.9329 22.1667 20.8425 22.3476 20.6618C22.5286 20.4811 22.619 20.2703 22.619 20.0293C22.619 19.7884 22.5286 19.5775 22.3476 19.3968C22.1667 19.2161 21.9556 19.1258 21.7143 19.1258C21.473 19.1258 21.2619 19.2161 21.081 19.3968C20.9 19.5775 20.8095 19.7884 20.8095 20.0293C20.8095 20.2703 20.9 20.4811 21.081 20.6618C21.2619 20.8425 21.473 20.9329 21.7143 20.9329ZM25.3333 20.9329C25.5746 20.9329 25.7857 20.8425 25.9667 20.6618C26.1476 20.4811 26.2381 20.2703 26.2381 20.0293C26.2381 19.7884 26.1476 19.5775 25.9667 19.3968C25.7857 19.2161 25.5746 19.1258 25.3333 19.1258C25.0921 19.1258 24.881 19.2161 24.7 19.3968C24.519 19.5775 24.4286 19.7884 24.4286 20.0293C24.4286 20.2703 24.519 20.4811 24.7 20.6618C24.881 20.8425 25.0921 20.9329 25.3333 20.9329ZM21.7143 24.547C21.9556 24.547 22.1667 24.4567 22.3476 24.276C22.5286 24.0953 22.619 23.8844 22.619 23.6435C22.619 23.4025 22.5286 23.1917 22.3476 23.011C22.1667 22.8303 21.9556 22.7399 21.7143 22.7399C21.473 22.7399 21.2619 22.8303 21.081 23.011C20.9 23.1917 20.8095 23.4025 20.8095 23.6435C20.8095 23.8844 20.9 24.0953 21.081 24.276C21.2619 24.4567 21.473 24.547 21.7143 24.547ZM25.3333 24.547C25.5746 24.547 25.7857 24.4567 25.9667 24.276C26.1476 24.0953 26.2381 23.8844 26.2381 23.6435C26.2381 23.4025 26.1476 23.1917 25.9667 23.011C25.7857 22.8303 25.5746 22.7399 25.3333 22.7399C25.0921 22.7399 24.881 22.8303 24.7 23.011C24.519 23.1917 24.4286 23.4025 24.4286 23.6435C24.4286 23.8844 24.519 24.0953 24.7 24.276C24.881 24.4567 25.0921 24.547 25.3333 24.547Z" fill="white"/>
</svg>
