<svg width="74" height="71" viewBox="0 0 74 71" fill="none" xmlns="http://www.w3.org/2000/svg">
<rect x="33.0625" y="0.808105" width="40.1667" height="40" rx="5" fill="#20C897"/>
<path d="M5 16H27.5V38.5H5V16ZM10 21V33.5H22.5V21H10ZM43.75 21C42.0924 21 40.5027 21.6585 39.3306 22.8306C38.1585 24.0027 37.5 25.5924 37.5 27.25C37.5 28.9076 38.1585 30.4973 39.3306 31.6694C40.5027 32.8415 42.0924 33.5 43.75 33.5C45.4076 33.5 46.9973 32.8415 48.1694 31.6694C49.3415 30.4973 50 28.9076 50 27.25C50 25.5924 49.3415 24.0027 48.1694 22.8306C46.9973 21.6585 45.4076 21 43.75 21ZM32.5 27.25C32.5 25.7726 32.791 24.3097 33.3564 22.9448C33.9217 21.5799 34.7504 20.3397 35.795 19.295C36.8397 18.2504 38.0799 17.4217 39.4448 16.8564C40.8097 16.291 42.2726 16 43.75 16C45.2274 16 46.6903 16.291 48.0552 16.8564C49.4201 17.4217 50.6603 18.2504 51.7049 19.295C52.7496 20.3397 53.5783 21.5799 54.1436 22.9448C54.709 24.3097 55 25.7726 55 27.25C55 30.2337 53.8147 33.0952 51.7049 35.205C49.5952 37.3147 46.7337 38.5 43.75 38.5C40.7663 38.5 37.9048 37.3147 35.795 35.205C33.6853 33.0952 32.5 30.2337 32.5 27.25ZM5 43.5H27.5V66H5V43.5ZM10 48.5V61H22.5V48.5H10ZM32.5 43.5H55V66H32.5V43.5ZM37.5 48.5V61H50V48.5H37.5Z" fill="white"/>
</svg>
