<svg width="43" height="50" viewBox="0 0 43 50" fill="none" xmlns="http://www.w3.org/2000/svg">
<rect x="14.2856" width="28.5714" height="30" rx="5" fill="#20C897"/>
<path d="M28.6324 35.4412H26.823L26.1817 34.7923C27.6131 33.0473 28.6591 30.9919 29.2451 28.7732C29.8311 26.5544 29.9425 24.2272 29.5714 21.958C28.4949 15.2764 23.1814 9.9408 16.7685 9.12363C14.5139 8.82432 12.224 9.07021 10.0739 9.84247C7.92384 10.6147 5.97061 11.8929 4.36369 13.5792C2.75677 15.2655 1.53875 17.3152 0.802825 19.5714C0.0669033 21.8277 -0.16741 24.2307 0.117814 26.5966C0.896524 33.3262 5.98105 38.9022 12.3482 40.0318C14.5106 40.4212 16.7283 40.3043 18.8426 39.6894C20.957 39.0745 22.9156 37.9767 24.5785 36.4747L25.1969 37.1476V39.0464L34.9308 49.2609C35.8698 50.2464 37.4043 50.2464 38.3433 49.2609C39.2824 48.2755 39.2824 46.6652 38.3433 45.6798L28.6324 35.4412ZM14.8904 35.4412C9.1875 35.4412 4.58395 30.6103 4.58395 24.6258C4.58395 18.6412 9.1875 13.8103 14.8904 13.8103C20.5933 13.8103 25.1969 18.6412 25.1969 24.6258C25.1969 30.6103 20.5933 35.4412 14.8904 35.4412Z" fill="white"/>
<path d="M19.238 26.2496H21.9046V24.8747H19.238V23.4997H19.9046C20.2582 23.4997 20.5974 23.3549 20.8474 23.097C21.0975 22.8392 21.238 22.4895 21.238 22.1248V20.7499H19.9046V22.1248H10.5713V20.7499H9.23796V22.1248C9.23796 22.4895 9.37843 22.8392 9.62848 23.097C9.87853 23.3549 10.2177 23.4997 10.5713 23.4997H11.238V24.8747H8.57129V26.2496H11.238V26.9371C11.2393 27.1676 11.2594 27.3975 11.298 27.6245H10.5713C10.2177 27.6245 9.87853 27.7694 9.62848 28.0272C9.37843 28.2851 9.23796 28.6348 9.23796 28.9995V30.3744H10.5713V28.9995H11.778C12.0724 29.5241 12.4754 29.9753 12.9582 30.3211C13.441 30.6669 13.9917 30.8987 14.5713 31V23.4997H15.9046V31C16.4842 30.8987 17.0349 30.6669 17.5177 30.3211C18.0005 29.9753 18.4035 29.5241 18.698 28.9995H19.9046V30.3744H21.238V28.9995C21.238 28.6348 21.0975 28.2851 20.8474 28.0272C20.5974 27.7694 20.2582 27.6245 19.9046 27.6245H19.178C19.2165 27.3975 19.2366 27.1676 19.238 26.9371V26.2496ZM15.238 18C14.5307 18 13.8524 18.2897 13.3523 18.8054C12.8522 19.3211 12.5713 20.0206 12.5713 20.7499H17.9046C17.9046 20.0206 17.6237 19.3211 17.1236 18.8054C16.6235 18.2897 15.9452 18 15.238 18Z" fill="white"/>
</svg>
