<svg width="48" height="44" viewBox="0 0 48 44" fill="none" xmlns="http://www.w3.org/2000/svg">
<rect x="18.6172" width="28.5714" height="30" rx="5" fill="#20C897"/>
<path d="M32.374 30H36.9989V44H18.4994V30H23.1243V25.3333H32.374V30ZM25.4367 30H30.0616V27.6667H25.4367V30ZM34.6864 37H32.374V39.3333H30.0616V37H25.4367V39.3333H23.1243V37H20.8119V41.6667H34.6864V37ZM20.8119 32.3333V34.6667H34.6864V32.3333H20.8119ZM16.187 23C16.187 24.1302 15.9401 25.1875 15.4463 26.1719C14.9525 27.1562 14.2479 27.9826 13.3326 28.651C13.8746 28.9306 14.3864 29.2526 14.8682 29.6172C15.35 29.9818 15.7896 30.3889 16.187 30.8385V37C16.187 36.0399 16.0063 35.1345 15.645 34.2839C15.2837 33.4332 14.7899 32.6918 14.1636 32.0599C13.5373 31.4279 12.7966 30.9236 11.9415 30.5469C11.0864 30.1701 10.1891 29.9878 9.24972 30C8.28621 30 7.38893 30.1823 6.55791 30.5469C5.72688 30.9115 4.9922 31.4097 4.35387 32.0417C3.71554 32.6736 3.21572 33.421 2.85441 34.2839C2.49309 35.1467 2.31243 36.0521 2.31243 37H0C0 36.1128 0.120439 35.2561 0.361317 34.4297C0.602195 33.6033 0.945446 32.8194 1.39107 32.0781C1.8367 31.3368 2.38469 30.6806 3.03506 30.1094C3.68543 29.5382 4.39602 29.046 5.16683 28.6328C4.26354 27.9766 3.565 27.1562 3.0712 26.1719C2.5774 25.1875 2.32447 24.1302 2.31243 23C2.31243 22.0399 2.49309 21.1345 2.85441 20.2839C3.21572 19.4332 3.70952 18.6918 4.3358 18.0599C4.96209 17.428 5.69677 16.9236 6.53984 16.5469C7.38291 16.1701 8.28621 15.9878 9.24972 16C10.1169 16 10.9419 16.1519 11.7247 16.4557C12.5076 16.7595 13.2242 17.2092 13.8746 17.8047C14.26 17.4523 14.6875 17.1424 15.1573 16.875C14.7478 16.4497 14.4346 15.9575 14.2178 15.3984C14.001 14.8394 13.8866 14.2622 13.8746 13.6667C13.8746 13.0226 13.995 12.421 14.2359 11.862C14.4768 11.303 14.808 10.8047 15.2295 10.3672C15.6511 9.92969 16.1388 9.59549 16.6929 9.36458C17.2469 9.13368 17.8491 9.01215 18.4994 9C19.1378 9 19.7339 9.12153 20.288 9.36458C20.842 9.60764 21.3358 9.94184 21.7694 10.3672C22.2029 10.7925 22.5341 11.2847 22.763 11.8438C22.9918 12.4028 23.1123 13.0104 23.1243 13.6667C23.1243 14.2622 23.0159 14.8394 22.7991 15.3984C22.5823 15.9575 22.2632 16.4497 21.8416 16.875C22.8413 17.434 23.6542 18.1875 24.2805 19.1354C24.9068 18.1875 25.7198 17.434 26.7194 16.875C26.3099 16.4497 25.9968 15.9575 25.78 15.3984C25.5632 14.8394 25.4488 14.2622 25.4367 13.6667C25.4367 13.0226 25.5572 12.421 25.798 11.862C26.0389 11.303 26.3701 10.8047 26.7917 10.3672C27.2132 9.92969 27.701 9.59549 28.255 9.36458C28.809 9.13368 29.4112 9.01215 30.0616 9C30.6999 9 31.2961 9.12153 31.8501 9.36458C32.4041 9.60764 32.8979 9.94184 33.3315 10.3672C33.7651 10.7925 34.0963 11.2847 34.3251 11.8438C34.554 12.4028 34.6744 13.0104 34.6864 13.6667C34.6864 14.2622 34.578 14.8394 34.3613 15.3984C34.1445 15.9575 33.8253 16.4497 33.4038 16.875C33.9578 17.1788 34.4576 17.5495 34.9032 17.987C35.3489 18.4245 35.7222 18.9045 36.0233 19.4271C36.3244 19.9497 36.5653 20.5208 36.7459 21.1406C36.9266 21.7604 37.0109 22.3802 36.9989 23H34.6864C34.6864 22.3559 34.566 21.7543 34.3251 21.1953C34.0842 20.6363 33.753 20.138 33.3315 19.7005C32.91 19.263 32.4222 18.9288 31.8682 18.6979C31.3141 18.467 30.712 18.3455 30.0616 18.3333C29.4233 18.3333 28.8271 18.4549 28.2731 18.6979C27.719 18.941 27.2252 19.2752 26.7917 19.7005C26.3581 20.1259 26.0269 20.6181 25.798 21.1771C25.5692 21.7361 25.4488 22.3438 25.4367 23H23.1243C23.1243 22.3559 23.0039 21.7543 22.763 21.1953C22.5221 20.6363 22.1909 20.138 21.7694 19.7005C21.3478 19.263 20.86 18.9288 20.306 18.6979C19.752 18.467 19.1498 18.3455 18.4994 18.3333C17.9093 18.3333 17.3372 18.4427 16.7832 18.6615C16.2292 18.8802 15.7414 19.2023 15.3198 19.6276C15.6089 20.138 15.8257 20.6788 15.9702 21.25C16.1147 21.8212 16.187 22.4045 16.187 23ZM30.0616 11.3333C29.7364 11.3333 29.4353 11.3941 29.1583 11.5156C28.8813 11.6372 28.6404 11.8012 28.4357 12.0078C28.2309 12.2144 28.0623 12.4635 27.9298 12.7552C27.7973 13.0469 27.7371 13.3507 27.7492 13.6667C27.7492 13.9948 27.8094 14.2986 27.9298 14.5781C28.0503 14.8576 28.2128 15.1007 28.4176 15.3073C28.6223 15.5139 28.8692 15.684 29.1583 15.8177C29.4473 15.9514 29.7484 16.0122 30.0616 16C30.3868 16 30.6879 15.9392 30.9649 15.8177C31.2419 15.6962 31.4828 15.5321 31.6875 15.3255C31.8923 15.1189 32.0609 14.8698 32.1934 14.5781C32.3258 14.2865 32.3861 13.9826 32.374 13.6667C32.374 13.3385 32.3138 13.0347 32.1934 12.7552C32.0729 12.4757 31.9103 12.2326 31.7056 12.026C31.5008 11.8194 31.2539 11.6493 30.9649 11.5156C30.6758 11.3819 30.3747 11.3212 30.0616 11.3333ZM18.4994 11.3333C18.1742 11.3333 17.8732 11.3941 17.5961 11.5156C17.3191 11.6372 17.0783 11.8012 16.8735 12.0078C16.6688 12.2144 16.5001 12.4635 16.3677 12.7552C16.2352 13.0469 16.175 13.3507 16.187 13.6667C16.187 13.9948 16.2472 14.2986 16.3677 14.5781C16.4881 14.8576 16.6507 15.1007 16.8554 15.3073C17.0602 15.5139 17.3071 15.684 17.5961 15.8177C17.8852 15.9514 18.1863 16.0122 18.4994 16C18.8246 16 19.1257 15.9392 19.4027 15.8177C19.6797 15.6962 19.9206 15.5321 20.1254 15.3255C20.3301 15.1189 20.4987 14.8698 20.6312 14.5781C20.7637 14.2865 20.8239 13.9826 20.8119 13.6667C20.8119 13.3385 20.7516 13.0347 20.6312 12.7552C20.5108 12.4757 20.3482 12.2326 20.1434 12.026C19.9387 11.8194 19.6918 11.6493 19.4027 11.5156C19.1137 11.3819 18.8126 11.3212 18.4994 11.3333ZM9.24972 27.6667C9.88804 27.6667 10.4842 27.5451 11.0382 27.3021C11.5923 27.059 12.0861 26.7248 12.5196 26.2995C12.9532 25.8741 13.2844 25.3819 13.5133 24.8229C13.7421 24.2639 13.8625 23.6562 13.8746 23C13.8746 22.3559 13.7541 21.7543 13.5133 21.1953C13.2724 20.6363 12.9412 20.138 12.5196 19.7005C12.0981 19.263 11.6103 18.9288 11.0563 18.6979C10.5023 18.467 9.90009 18.3455 9.24972 18.3333C8.61139 18.3333 8.01522 18.4549 7.4612 18.6979C6.90718 18.941 6.41338 19.2752 5.9798 19.7005C5.54622 20.1259 5.21501 20.6181 4.98618 21.1771C4.75734 21.7361 4.6369 22.3438 4.62486 23C4.62486 23.6441 4.7453 24.2457 4.98618 24.8047C5.22705 25.3637 5.55826 25.862 5.9798 26.2995C6.40133 26.737 6.88911 27.0712 7.44313 27.3021C7.99715 27.533 8.59935 27.6545 9.24972 27.6667Z" fill="#0D4C8F"/>
</svg>
