<svg width="73" height="69" viewBox="0 0 73 69" fill="none" xmlns="http://www.w3.org/2000/svg">
<rect x="32.0625" y="0.808105" width="40.1667" height="40" rx="5" fill="#20C897"/>
<path d="M33.125 39.1875H46.375C47.2535 39.1875 48.0961 38.8385 48.7173 38.2173C49.3385 37.5961 49.6875 36.7535 49.6875 35.875V22.625C49.6875 21.7465 49.3385 20.9039 48.7173 20.2827C48.0961 19.6615 47.2535 19.3125 46.375 19.3125H33.125C32.2465 19.3125 31.4039 19.6615 30.7827 20.2827C30.1615 20.9039 29.8125 21.7465 29.8125 22.625H14.9062C14.0277 22.625 13.1852 22.974 12.564 23.5952C11.9427 24.2164 11.5938 25.059 11.5938 25.9375V32.5625H6.625C5.74647 32.5625 4.90392 32.9115 4.28271 33.5327C3.66149 34.1539 3.3125 34.9965 3.3125 35.875V49.125C3.3125 50.0035 3.66149 50.8461 4.28271 51.4673C4.90392 52.0885 5.74647 52.4375 6.625 52.4375H9.9375V59.0625C9.9375 59.941 10.2865 60.7836 10.9077 61.4048C11.5289 62.026 12.3715 62.375 13.25 62.375H29.8125C29.8125 63.2535 30.1615 64.0961 30.7827 64.7173C31.4039 65.3385 32.2465 65.6875 33.125 65.6875H46.375C47.2535 65.6875 48.0961 65.3385 48.7173 64.7173C49.3385 64.0961 49.6875 63.2535 49.6875 62.375V49.125C49.6875 48.2465 49.3385 47.4039 48.7173 46.7827C48.0961 46.1615 47.2535 45.8125 46.375 45.8125H33.125C32.2465 45.8125 31.4039 46.1615 30.7827 46.7827C30.1615 47.4039 29.8125 48.2465 29.8125 49.125V59.0625H13.25V52.4375H19.875C20.7535 52.4375 21.5961 52.0885 22.2173 51.4673C22.8385 50.8461 23.1875 50.0035 23.1875 49.125V35.875C23.1875 34.9965 22.8385 34.1539 22.2173 33.5327C21.5961 32.9115 20.7535 32.5625 19.875 32.5625H14.9062V25.9375H29.8125V35.875C29.8125 36.7535 30.1615 37.5961 30.7827 38.2173C31.4039 38.8385 32.2465 39.1875 33.125 39.1875ZM33.125 62.375V55.75H46.375V62.375H33.125ZM46.375 49.125V52.4375H33.125V49.125H46.375ZM6.625 49.125V42.5H19.875V49.125H6.625ZM19.875 39.1875H6.625V35.875H19.875V39.1875ZM33.125 35.875V29.25H46.375V35.875H33.125ZM46.375 22.625V25.9375H33.125V22.625H46.375Z" fill="white"/>
</svg>
