<svg width="51" height="56" viewBox="0 0 51 56" fill="none" xmlns="http://www.w3.org/2000/svg">
<rect x="21.8125" width="28.6905" height="30" rx="5" fill="#20C897"/>
<path fill-rule="evenodd" clip-rule="evenodd" d="M23.5 13C21.2684 13 19.1282 13.8845 17.5502 15.4589C15.9723 17.0334 15.0858 19.1688 15.0858 21.3953C15.0858 23.6219 15.9723 25.7573 17.5502 27.3318C19.1282 28.9062 21.2684 29.7907 23.5 29.7907C25.7316 29.7907 27.8718 28.9062 29.4498 27.3318C31.0277 25.7573 31.9142 23.6219 31.9142 21.3953C31.9142 19.1688 31.0277 17.0334 29.4498 15.4589C27.8718 13.8845 25.7316 13 23.5 13ZM17.7429 21.3953C17.7429 19.8719 18.3494 18.4108 19.4291 17.3336C20.5088 16.2564 21.9731 15.6512 23.5 15.6512C25.0269 15.6512 26.4912 16.2564 27.5709 17.3336C28.6506 18.4108 29.2571 19.8719 29.2571 21.3953C29.2571 22.9188 28.6506 24.3799 27.5709 25.4571C26.4912 26.5343 25.0269 27.1395 23.5 27.1395C21.9731 27.1395 20.5088 26.5343 19.4291 25.4571C18.3494 24.3799 17.7429 22.9188 17.7429 21.3953ZM23.5 32.4419C19.4027 32.4419 15.626 33.3715 12.829 34.941C10.0727 36.4893 8.0001 38.8329 8.0001 41.7209V41.9012C7.99833 43.955 7.99656 46.5319 10.2622 48.3736C11.3764 49.2785 12.937 49.9236 15.045 50.3478C17.1566 50.7755 19.9111 51 23.5 51C27.0889 51 29.8417 50.7755 31.9567 50.3478C34.0647 49.9236 35.6236 49.2785 36.7396 48.3736C39.0052 46.5319 39.0017 43.955 38.9999 41.9012V41.7209C38.9999 38.8329 36.9273 36.4893 34.1728 34.941C31.3739 33.3715 27.5991 32.4419 23.5 32.4419ZM10.6572 41.7209C10.6572 40.2168 11.759 38.5837 14.131 37.2528C16.4622 35.9449 19.7712 35.093 23.5018 35.093C27.2288 35.093 30.5378 35.9449 32.869 37.2528C35.2427 38.5837 36.3428 40.2168 36.3428 41.7209C36.3428 44.0327 36.2719 45.3336 35.0603 46.3163C34.4048 46.85 33.3066 47.3714 31.4289 47.7497C29.5565 48.1279 26.9968 48.3488 23.5 48.3488C20.0032 48.3488 17.4418 48.1279 15.5711 47.7497C13.6934 47.3714 12.5952 46.85 11.9397 46.318C10.7281 45.3336 10.6572 44.0327 10.6572 41.7209Z" fill="white" stroke="white" stroke-width="2"/>
</svg>
