<svg width="88" height="70" viewBox="0 0 88 70" fill="none" xmlns="http://www.w3.org/2000/svg">
<path d="M83.7484 46.5078L87.3031 48.5586C87.7133 48.6953 87.85 49.2422 87.7133 49.6523C86.7562 52.6602 85.2523 55.2578 83.2016 57.582C82.9281 57.8555 82.3812 57.9922 81.9711 57.7188L78.4164 55.668C76.9125 56.8984 75.2719 57.9922 73.3578 58.5391V62.6406C73.3578 63.1875 73.0844 63.5977 72.6742 63.5977C69.6664 64.2812 66.6586 64.2812 63.5141 63.5977C63.1039 63.5977 62.8305 63.1875 62.8305 62.6406V58.5391C60.9164 57.9922 59.2758 56.8984 57.7719 55.668L54.2172 57.7188C53.807 57.9922 53.2602 57.8555 52.9867 57.582C50.9359 55.2578 49.2953 52.6602 48.475 49.6523C48.3383 49.2422 48.475 48.6953 48.8852 48.5586L52.4398 46.5078C52.0297 44.5938 52.0297 42.543 52.4398 40.6289L48.8852 38.5781C48.475 38.4414 48.3383 37.8945 48.475 37.4844C49.2953 34.4766 50.9359 31.8789 52.9867 29.5547C53.2602 29.2812 53.807 29.1445 54.2172 29.418L57.7719 31.4688C59.2758 30.2383 60.9164 29.1445 62.8305 28.5977V24.4961C62.8305 23.9492 63.1039 23.5391 63.5141 23.5391C66.5219 22.8555 69.5297 22.8555 72.6742 23.5391C73.0844 23.5391 73.3578 23.9492 73.3578 24.4961V28.5977C75.2719 29.1445 76.9125 30.2383 78.4164 31.4688L81.9711 29.418C82.3812 29.1445 82.9281 29.2812 83.2016 29.5547C85.2523 31.8789 86.7562 34.4766 87.7133 37.4844C87.85 37.8945 87.7133 38.4414 87.3031 38.5781L83.7484 40.6289C84.1586 42.543 84.1586 44.5938 83.7484 46.5078ZM68.1625 50.1992C71.7172 50.1992 74.725 47.1914 74.725 43.5C74.725 39.9453 71.7172 36.9375 68.1625 36.9375C64.4711 36.9375 61.4633 39.9453 61.4633 43.5C61.4633 47.1914 64.4711 50.1992 68.1625 50.1992ZM13.475 30.375C8.55312 30.375 4.725 26.5469 4.725 21.625C4.725 16.8398 8.55312 12.875 13.475 12.875C18.2602 12.875 22.225 16.8398 22.225 21.625C22.225 26.5469 18.2602 30.375 13.475 30.375ZM44.1 34.75C35.6234 34.75 28.7875 27.9141 28.7875 19.4375C28.7875 11.0977 35.6234 4.26172 43.9633 4.26172C52.4398 4.26172 59.2758 11.0977 59.2758 19.5742C59.2758 21.8984 58.7289 24.0859 57.7719 26.1367C57.6352 26.1367 57.6352 26.1367 57.4984 26.2734L56.4047 25.5898C55.5844 25.1797 54.6273 24.9062 53.6703 24.9062C52.1664 24.9062 50.7992 25.5898 49.7055 26.6836C47.6547 29.0078 45.8773 31.7422 44.7836 34.75C44.5102 34.75 44.2367 34.75 44.1 34.75ZM58.4555 61.4102V62.6406C58.4555 63.7344 58.7289 64.5547 59.2758 65.375H24.4125C20.7211 65.375 17.85 62.5039 17.85 58.8125V54.9844C17.85 46.2344 24.8227 39.125 33.5727 39.125H34.6664C37.5375 40.4922 40.682 41.3125 44.1 41.3125C44.5102 41.3125 44.9203 41.3125 45.3305 41.3125C45.7406 41.7227 46.1508 42.1328 46.6977 42.4062L47.7914 43.0898C47.7914 43.3633 47.7914 43.7734 47.7914 44.0469C47.6547 44.1836 42.8695 46.2344 44.2367 51.0195C45.3305 54.4375 47.2445 57.7188 49.8422 60.4531C50.7992 61.5469 52.3031 62.2305 53.6703 62.2305C55.4477 62.2305 56.4047 61.5469 57.4984 60.8633C57.7719 61 58.0453 61.2734 58.4555 61.4102ZM24.0023 37.3477C18.3969 40.3555 14.5687 45.8242 13.6117 52.25H4.725C2.26406 52.25 0.349998 50.3359 0.349998 47.875V43.5C0.349998 38.7148 4.17812 34.75 9.1 34.75H17.85C20.1742 34.75 22.3617 35.8438 24.0023 37.3477Z" fill="#0D4C8F"/>
</svg>
