<svg width="34" height="34" viewBox="0 0 34 34" fill="none" xmlns="http://www.w3.org/2000/svg">
<path d="M9.70415 24.2956L5.17082 21.8165L6.65832 20.329L10.2 20.8248L15.725 15.2998L4.67499 9.27897L6.65832 7.29564L20.1875 10.7665L25.7479 5.27689C26.1493 4.8755 26.6513 4.6748 27.2538 4.6748C27.8564 4.6748 28.3579 4.8755 28.7583 5.27689C29.1597 5.67828 29.3604 6.18025 29.3604 6.7828C29.3604 7.38536 29.1597 7.88686 28.7583 8.2873L23.2333 13.8123L26.7042 27.3415L24.7208 29.3248L18.7 18.2748L13.175 23.7998L13.6708 27.3415L12.1833 28.829L9.70415 24.2956Z" fill="#D9D9D9"/>
</svg>
