<svg width="47" height="47" viewBox="0 0 47 47" fill="none" xmlns="http://www.w3.org/2000/svg">
<rect x="17.7656" width="28.6905" height="30" rx="5" fill="#20C897"/>
<g clip-path="url(#clip0_229_5708)">
<path d="M24.7925 40.075C23.1125 41.825 21.1875 43.6275 19 45.5C9.6725 37.5375 5 30.66 5 24.85C5 16.135 11.65 10.5 19 10.5C26 10.5 32.37 15.61 32.9475 23.625H39.125L31.25 31.5L23.375 23.625H29.4475C28.8875 17.92 24.4775 14 19 14C13.1375 14 8.5 18.4975 8.5 24.85C8.5 28.945 11.9125 34.37 19 40.845C20.12 39.8125 21.1525 38.815 22.0975 37.8525C21.7896 37.2449 21.6278 36.5737 21.625 35.8925C21.625 34.7322 22.0859 33.6194 22.9064 32.7989C23.7269 31.9784 24.8397 31.5175 26 31.5175C27.1603 31.5175 28.2731 31.9784 29.0936 32.7989C29.9141 33.6194 30.375 34.7322 30.375 35.8925C30.3744 36.5692 30.2163 37.2365 29.9132 37.8416C29.6102 38.4467 29.1704 38.9729 28.6289 39.3787C28.0873 39.7844 27.4587 40.0586 26.7928 40.1795C26.127 40.3003 25.4421 40.2645 24.7925 40.075Z" fill="white"/>
</g>
<defs>
<clipPath id="clip0_229_5708">
<rect width="38" height="38" fill="white" transform="translate(0 9)"/>
</clipPath>
</defs>
</svg>
