<svg width="50" height="49" viewBox="0 0 50 49" fill="none" xmlns="http://www.w3.org/2000/svg">
<path d="M33.0312 22.2031H42.2188C43.234 22.2031 44.2077 21.7998 44.9256 21.0819C45.6436 20.364 46.0469 19.3903 46.0469 18.375V9.1875C46.0469 8.17222 45.6436 7.19852 44.9256 6.48061C44.2077 5.76269 43.234 5.35938 42.2188 5.35938H33.0312C32.016 5.35938 31.0423 5.76269 30.3244 6.48061C29.6064 7.19852 29.2031 8.17222 29.2031 9.1875V11.4844H28.4375C26.61 11.4844 24.8573 12.2104 23.5651 13.5026C22.2728 14.7948 21.5469 16.5475 21.5469 18.375V22.2031H16.9531V21.4375C16.9531 20.4222 16.5498 19.4485 15.8319 18.7306C15.114 18.0127 14.1403 17.6094 13.125 17.6094H7C5.98472 17.6094 5.01102 18.0127 4.29311 18.7306C3.57519 19.4485 3.17188 20.4222 3.17188 21.4375V27.5625C3.17188 28.0652 3.27089 28.563 3.46327 29.0275C3.65565 29.4919 3.93763 29.9139 4.29311 30.2694C4.64858 30.6249 5.07059 30.9068 5.53504 31.0992C5.99949 31.2916 6.49728 31.3906 7 31.3906H13.125C13.6277 31.3906 14.1255 31.2916 14.59 31.0992C15.0544 30.9068 15.4764 30.6249 15.8319 30.2694C16.1874 29.9139 16.4693 29.4919 16.6617 29.0275C16.8541 28.563 16.9531 28.0652 16.9531 27.5625V26.7969H21.5469V30.625C21.5469 32.4525 22.2728 34.2052 23.5651 35.4974C24.8573 36.7897 26.61 37.5156 28.4375 37.5156H29.2031V39.8125C29.2031 40.8278 29.6064 41.8015 30.3244 42.5194C31.0423 43.2373 32.016 43.6406 33.0312 43.6406H42.2188C43.234 43.6406 44.2077 43.2373 44.9256 42.5194C45.6436 41.8015 46.0469 40.8278 46.0469 39.8125V30.625C46.0469 29.6097 45.6436 28.636 44.9256 27.9181C44.2077 27.2002 43.234 26.7969 42.2188 26.7969H33.0312C32.016 26.7969 31.0423 27.2002 30.3244 27.9181C29.6064 28.636 29.2031 29.6097 29.2031 30.625V32.9219H28.4375C27.8283 32.9219 27.2441 32.6799 26.8134 32.2491C26.3826 31.8184 26.1406 31.2342 26.1406 30.625V18.375C26.1406 17.7658 26.3826 17.1816 26.8134 16.7509C27.2441 16.3201 27.8283 16.0781 28.4375 16.0781H29.2031V18.375C29.2031 19.3903 29.6064 20.364 30.3244 21.0819C31.0423 21.7998 32.016 22.2031 33.0312 22.2031ZM12.3594 26.7969H7.76562V22.2031H12.3594V26.7969ZM33.7969 31.3906H41.4531V39.0469H33.7969V31.3906ZM33.7969 9.95312H41.4531V17.6094H33.7969V9.95312Z" fill="#A0A2A6"/>
</svg>
