<svg width="45" height="45" viewBox="0 0 45 45" fill="none" xmlns="http://www.w3.org/2000/svg">
<rect x="15.6172" width="28.5714" height="30" rx="5" fill="#20C897"/>
<path d="M28.5 25.5V24C28.5 18.3435 28.5 15.5145 26.742 13.758C24.984 12.0015 22.1565 12 16.5 12C10.8435 12 8.0145 12 6.258 13.758C4.5015 15.516 4.5 18.3435 4.5 24V30C4.5 35.6565 4.5 38.4855 6.258 40.242C8.016 41.9985 10.8435 42 16.5 42" stroke="#0D4C8F" stroke-width="3" stroke-linecap="round" stroke-linejoin="round"/>
<path d="M31.5 42L28.929 39.429M10.5 19.5H22.5M10.5 25.5H16.5M29.7855 35.1435C29.7972 35.8262 29.6728 36.5045 29.4195 37.1386C29.1663 37.7728 28.7894 38.3502 28.3107 38.8372C27.832 39.3241 27.2611 39.7109 26.6314 39.9749C26.0016 40.2389 25.3256 40.3748 24.6427 40.3748C23.9599 40.3748 23.2839 40.2389 22.6541 39.9749C22.0244 39.7109 21.4535 39.3241 20.9748 38.8372C20.4961 38.3502 20.1192 37.7728 19.866 37.1386C19.6127 36.5045 19.4883 35.8262 19.5 35.1435C19.523 33.7948 20.075 32.5091 21.0369 31.5634C21.9989 30.6178 23.2938 30.0878 24.6427 30.0878C25.9917 30.0878 27.2866 30.6178 28.2486 31.5634C29.2105 32.5091 29.7625 33.7948 29.7855 35.1435Z" stroke="#0D4C8F" stroke-width="3" stroke-linecap="round" stroke-linejoin="round"/>
</svg>
