<svg width="48" height="50" viewBox="0 0 48 50" fill="none" xmlns="http://www.w3.org/2000/svg">
<rect x="18.6719" width="28.5714" height="30" rx="5" fill="#20C897"/>
<path d="M4.47656 23.1248H38.5182M23.2891 30.2915H30.4557M23.2891 37.4582H26.8724M12.5391 17.7498H12.5552M19.7057 17.7498H19.7219M16.1224 23.1248V45.5207M4.47656 28.4998C4.47656 20.4768 4.47656 16.4634 6.96877 13.9712C9.46098 11.479 13.4725 11.479 21.4974 11.479C29.5205 11.479 33.5338 11.479 36.026 13.9712C38.5182 16.4634 38.5182 20.475 38.5182 28.4998C38.5182 36.5229 38.5182 40.5363 36.026 43.0285C33.5338 45.5207 29.5223 45.5207 21.4974 45.5207C13.4743 45.5207 9.46098 45.5207 6.96877 43.0285C4.47656 40.5363 4.47656 36.5247 4.47656 28.4998Z" stroke="#0D4C8F" stroke-width="3" stroke-linecap="round" stroke-linejoin="round"/>
</svg>
