<svg width="51" height="53" viewBox="0 0 51 53" fill="none" xmlns="http://www.w3.org/2000/svg">
<rect x="21.6172" width="28.5714" height="30" rx="5" fill="#20C897"/>
<path d="M15.9462 13.8287H19.0017V29.5043C19.0017 31.2443 18.6145 32.6925 17.84 33.849C17.0655 35.0054 16.0364 35.8754 14.7526 36.4589C13.4795 37.0318 12.0949 37.3183 10.599 37.3183C9.02874 37.3183 7.60706 37.0318 6.33391 36.4589C5.07137 35.8754 4.06877 35.0054 3.3261 33.849C2.59404 32.6925 2.22801 31.2443 2.22801 29.5043V13.8287H5.26765V29.5043C5.26765 30.7138 5.49045 31.7111 5.93605 32.4962C6.38165 33.2813 7.00231 33.8649 7.79803 34.2468C8.60436 34.6288 9.538 34.8197 10.599 34.8197C11.6705 34.8197 12.6042 34.6288 13.3999 34.2468C14.2062 33.8649 14.8322 33.2813 15.2778 32.4962C15.7234 31.7111 15.9462 30.7138 15.9462 29.5043V13.8287ZM25.8131 13.8287L31.3831 22.7089L36.9531 13.8287H40.5339L33.2133 25.303L40.7089 37H37.0964L31.3831 27.9447L25.6698 37H22.0573L29.5529 25.303L22.2323 13.8287H25.8131Z" fill="#0D4C8F"/>
</svg>
