<svg width="48" height="48" viewBox="0 0 48 48" fill="none" xmlns="http://www.w3.org/2000/svg">
<rect x="18" width="30" height="30" rx="5" fill="#20C897"/>
<path d="M10.9554 18.7625C11.0633 18.8569 11.137 18.9843 11.165 19.1249C11.1929 19.2655 11.1736 19.4114 11.1101 19.5399C11.0986 19.5779 11.0929 19.6173 11.0932 19.6569C11.0932 19.7388 11.114 19.8948 11.3103 20.0898C11.4052 20.1847 11.478 20.2523 11.5573 20.3264C11.6223 20.3862 11.6912 20.4486 11.7783 20.5344C11.9473 20.6956 12.1254 20.8854 12.2853 21.1233C12.6168 21.6212 12.8001 22.2439 12.8001 23.15C12.8001 24.2589 12.3893 25.204 11.7484 25.7838L11.8316 25.88C12.1956 26.3272 12.4075 26.907 12.5401 27.479C12.8001 28.61 12.8001 29.9698 12.8001 30.9175V30.95C12.8001 34.5731 12.3074 36.6284 11.7653 37.8036C11.4923 38.3951 11.2024 38.7721 10.9515 39.0087C10.8494 39.1064 10.7369 39.1928 10.6161 39.2661C10.5607 39.2994 10.5029 39.3286 10.4432 39.3532C10.4432 39.3532 10.2963 39.4 10.2001 39.4C10.1039 39.4 9.957 39.3532 9.957 39.3532C9.89728 39.3286 9.83949 39.2994 9.7841 39.2661C9.6633 39.1928 9.55084 39.1064 9.4487 39.0087C9.1978 38.7708 8.9079 38.3951 8.6349 37.8036C8.0928 36.6284 7.6001 34.5731 7.6001 30.95V30.9175C7.6001 29.9685 7.6001 28.61 7.8601 27.479C7.9927 26.907 8.2046 26.3272 8.5686 25.88C8.5946 25.8471 8.62233 25.815 8.6518 25.7838C8.0109 25.204 7.6001 24.2589 7.6001 23.15C7.6001 22.7262 7.7132 22.2205 7.8692 21.7538C8.0252 21.2871 8.2436 20.8022 8.4958 20.4122C8.7961 19.9052 9.2186 19.4801 9.5462 19.1941C9.72646 19.037 9.91386 18.8882 10.1078 18.7482L10.165 18.7092C10.2842 18.6298 10.4263 18.5919 10.5693 18.6016C10.7122 18.6112 10.8479 18.6678 10.9554 18.7625Z" fill="white"/>
<path d="M21.9988 20.3538L22.4773 21.6868C21.9589 21.8748 21.6057 22.208 21.4177 22.6865C21.2297 23.1593 21.1357 23.7062 21.1357 24.3271V26.0703C21.1357 26.6457 21.0076 27.1669 20.7512 27.634C20.5006 28.1012 20.1018 28.4743 19.5549 28.7534C19.0081 29.0269 18.2931 29.1636 17.4102 29.1636V27.8647C17.9513 27.8647 18.3387 27.7024 18.5723 27.3777C18.8115 27.053 18.9312 26.6172 18.9312 26.0703V24.3271C18.9312 23.729 19.0223 23.1707 19.2046 22.6523C19.3926 22.1283 19.7087 21.6697 20.1531 21.2766C20.6031 20.8778 21.2183 20.5702 21.9988 20.3538ZM22.4773 35.7517L21.9988 37.0933C21.2183 36.8711 20.6031 36.5606 20.1531 36.1619C19.7087 35.7688 19.3926 35.3102 19.2046 34.7861C19.0223 34.2677 18.9312 33.7095 18.9312 33.1113V31.3682C18.9312 31.0036 18.877 30.6874 18.7688 30.4197C18.6663 30.1519 18.5039 29.9469 18.2817 29.8044C18.0596 29.6563 17.769 29.5823 17.4102 29.5823V28.2749C18.2931 28.2749 19.0081 28.4145 19.5549 28.6936C20.1018 28.967 20.5006 29.3373 20.7512 29.8044C21.0076 30.2716 21.1357 30.7928 21.1357 31.3682V33.1113C21.1357 33.5272 21.1756 33.9117 21.2554 34.2649C21.3408 34.6181 21.4775 34.9229 21.6655 35.1792C21.8592 35.4355 22.1298 35.6264 22.4773 35.7517ZM23.0669 21.6868L23.5454 20.3538C24.3315 20.5702 24.9468 20.8778 25.3911 21.2766C25.8354 21.6697 26.1488 22.1283 26.3311 22.6523C26.519 23.1707 26.613 23.729 26.613 24.3271V26.0703C26.613 26.4349 26.6643 26.7511 26.7668 27.0188C26.8694 27.2865 27.0317 27.4945 27.2539 27.6426C27.4818 27.7907 27.7751 27.8647 28.134 27.8647V29.1294C27.2511 29.1294 26.5361 28.9955 25.9893 28.7278C25.4424 28.46 25.0408 28.0955 24.7844 27.634C24.5281 27.1669 24.3999 26.6457 24.3999 26.0703V24.3271C24.3999 23.9113 24.36 23.5268 24.2803 23.1736C24.2062 22.8204 24.0723 22.5156 23.8787 22.2593C23.685 22.0029 23.4144 21.8121 23.0669 21.6868ZM23.5454 37.0933L23.0669 35.7517C23.4144 35.6264 23.685 35.4355 23.8787 35.1792C24.0723 34.9229 24.2062 34.6181 24.2803 34.2649C24.36 33.9117 24.3999 33.5272 24.3999 33.1113V31.3682C24.3999 30.7928 24.5281 30.2744 24.7844 29.813C25.0408 29.3516 25.4424 28.987 25.9893 28.7192C26.5361 28.4458 27.2511 28.3091 28.134 28.3091V29.5823C27.5986 29.5823 27.2112 29.7446 26.9719 30.0693C26.7327 30.394 26.613 30.827 26.613 31.3682V33.1113C26.613 33.7095 26.519 34.2677 26.3311 34.7861C26.1488 35.3102 25.8354 35.7688 25.3911 36.1619C24.9468 36.5606 24.3315 36.8711 23.5454 37.0933Z" fill="white"/>
<path d="M33.5714 11H1.39881C0.625093 11 0 11.6563 0 12.4688V46.25C0 47.0624 0.625093 47.7188 1.39881 47.7188H33.5714C34.3451 47.7188 34.9702 47.0624 34.9702 46.25V12.4688C34.9702 11.6563 34.3451 11 33.5714 11ZM31.8229 44.4141H3.14732V14.3047H31.8229V44.4141Z" fill="white"/>
</svg>
