<svg width="45" height="51" viewBox="0 0 45 51" fill="none" xmlns="http://www.w3.org/2000/svg">
<rect x="15.6719" width="28.5714" height="30" rx="5" fill="#20C897"/>
<path d="M13.2394 29.9907L18.5149 24.5648L13.7707 19.6839L11.916 21.5889C11.7004 21.81 11.4371 21.93 11.126 21.949C10.8181 21.9695 10.5363 21.8495 10.2807 21.5889C10.0266 21.3266 9.89956 21.0447 9.89956 20.743C9.89956 20.4413 10.0266 20.1593 10.2807 19.8971L12.1238 18.0063L7.61522 13.3813L2.32591 18.8072L13.2394 29.9907ZM31.334 48.5666L36.6233 43.1408L32.117 38.5157L30.2599 40.4065C30.0351 40.6371 29.7703 40.7603 29.4654 40.7761C29.1605 40.7919 28.8802 40.6687 28.6246 40.4065C28.3706 40.1443 28.2435 39.8647 28.2435 39.5677C28.2435 39.2708 28.3706 38.9912 28.6246 38.729L30.4678 36.824L25.7559 32.0047L20.4782 37.4163L31.334 48.5666ZM3.30986 43.1408L7.61522 47.6047L36.1013 18.0845L32.0985 13.9784L3.30986 43.1408ZM3.30986 49.5191C2.774 49.5191 2.32899 49.3375 1.97483 48.9742C1.62067 48.6109 1.44359 48.1544 1.44359 47.6047V42.8256C1.44359 42.5697 1.4867 42.332 1.57293 42.1124C1.65917 41.8913 1.80237 41.6781 2.00255 41.4727L11.5926 31.635L0.625941 20.3402C0.208647 19.9105 0 19.3995 0 18.8072C0 18.2148 0.208647 17.7046 0.625941 17.2766L6.12313 11.6374C6.54196 11.2078 7.04009 10.9953 7.61753 11.0001C8.19497 11.0048 8.69233 11.2212 9.10962 11.6493L20.1802 22.9465L30.4978 12.3483C30.7519 12.086 31.0198 11.8973 31.3016 11.782C31.5834 11.6667 31.8837 11.609 32.2024 11.609C32.5227 11.609 32.823 11.6667 33.1032 11.782C33.3835 11.8973 33.6522 12.086 33.9093 12.3483L37.6788 16.3667C37.9344 16.6274 38.1115 16.9022 38.2101 17.1913C38.3071 17.4788 38.3556 17.7868 38.3556 18.1153C38.3556 18.4439 38.3063 18.7424 38.2078 19.011C38.1107 19.2795 37.9344 19.5449 37.6788 19.8071L27.4513 30.3579L38.3718 41.6552C38.7906 42.0816 39 42.5919 39 43.1858C39 43.7797 38.7906 44.2899 38.3718 44.7164L32.8746 50.3555C32.4573 50.7852 31.9599 51 31.3825 51C30.805 51 30.3069 50.786 29.8881 50.3579L18.8775 39.1081L9.28747 48.9457C9.0873 49.1511 8.87942 49.298 8.66384 49.3865C8.44827 49.4749 8.21652 49.5191 7.96861 49.5191H3.30986Z" fill="#0D4C8F"/>
</svg>
