<svg width="679" height="679" viewBox="0 0 679 679" fill="none" xmlns="http://www.w3.org/2000/svg">
<path d="M102.195 440.397L581.104 441.455C585.295 441.455 589.175 438.354 589.323 434.251L600.397 139.032C600.653 131.874 594.359 124.761 587.152 124.938L114.131 127.401L102.195 440.397Z" fill="#20C897"/>
<path d="M103.176 439.454L581.096 440.512C584.92 440.512 588.25 437.63 588.372 434.215L599.446 138.999C599.564 135.666 598.1 132.123 595.53 129.523C593.139 127.106 590.195 125.813 587.17 125.891L115.039 128.35L103.176 439.454ZM581.096 442.404L102.19 441.343C101.932 441.343 101.686 441.239 101.509 441.052C101.329 440.869 101.234 440.62 101.247 440.361L113.183 127.371C113.202 126.864 113.615 126.461 114.123 126.461L587.14 123.995C590.644 123.907 594.108 125.4 596.875 128.19C599.806 131.153 601.473 135.22 601.339 139.068L590.261 434.284C590.1 438.763 585.991 442.404 581.096 442.404Z" fill="#20C897"/>
<path d="M568.503 126.622C576.745 126.622 584.957 134.886 584.662 142.991L574.285 434.732C574.138 438.852 570.009 442.339 565.821 442.339L95.4162 441.582C90.3931 441.582 86.6504 437.46 86.8305 432.515L98.0423 135.364C98.193 131.242 100.511 126.622 104.699 126.622H568.503Z" fill="#0D4C8F"/>
<path d="M565.756 442.637L510.263 442.549C509.742 442.549 509.32 442.126 509.32 441.602C509.32 441.078 509.742 440.659 510.266 440.659L565.756 440.748C569.564 440.748 573.15 437.555 573.278 434.055L583.651 142.307C583.782 138.79 582.165 135.017 579.211 131.956C576.172 128.802 572.145 126.926 568.438 126.926H104.638C101.111 126.926 99.0614 130.957 98.9239 134.752L87.712 431.906C87.6302 434.107 88.4029 436.163 89.8797 437.699C91.3074 439.176 93.2525 439.991 95.3547 439.991L123.921 440.037C124.445 440.037 124.868 440.463 124.864 440.983C124.864 441.504 124.442 441.93 123.921 441.93C123.918 441.93 123.918 441.93 123.918 441.93L95.3514 441.884C92.7318 441.884 90.3054 440.862 88.5175 439.012C86.6806 437.103 85.7211 434.556 85.8194 431.834L97.0312 134.68C97.2015 130.004 99.9259 125.03 104.638 125.03H568.438C572.711 125.03 577.132 127.077 580.573 130.643C583.877 134.068 585.688 138.348 585.541 142.379L575.17 434.12C575.003 438.658 570.602 442.637 565.756 442.637Z" fill="#0D4C8F"/>
<path d="M555.98 138.609C563.557 138.609 571.115 146.209 570.846 153.662L561.298 422.06C561.16 425.852 557.362 429.061 553.508 429.061L109.063 428.366C104.443 428.366 100.998 424.568 101.162 420.023L111.48 146.648C111.617 142.86 113.749 138.609 117.603 138.609H555.98Z" fill="white"/>
<path d="M512.736 175.654H332.102L332.478 166.698H513.113L512.736 175.654Z" fill="#20C897"/>
<path d="M547.518 323.347H430.199L430.573 314.391H547.895L547.518 323.347Z" fill="#20C897"/>
<path d="M510.876 219.961H330.238L330.615 211.002H511.249L510.876 219.961Z" fill="#20C897"/>
<path d="M505.62 264.272H432.684L433.057 255.312H505.993L505.62 264.272Z" fill="white"/>
<path d="M526.803 279.03H453.863L454.24 270.071H527.179L526.803 279.03Z" fill="white"/>
<path d="M550.62 249.501H433.301L433.677 240.542H550.996L550.62 249.501Z" fill="#20C897"/>
<path d="M312.726 278.863H295.129L295.489 270.257H313.086L312.726 278.863Z" fill="white"/>
<path d="M313.705 263.679H296.281L296.661 254.72H314.085L313.705 263.679Z" fill="#20C897"/>
<path d="M310.843 323.727H293.246L293.61 315.122H311.207L310.843 323.727Z" fill="white"/>
<path d="M311.825 308.543H294.398L294.775 299.584H312.199L311.825 308.543Z" fill="white"/>
<path d="M312.005 293.772H295.348L295.721 284.816H312.378L312.005 293.772Z" fill="white"/>
<path d="M307.172 411.094H289.578L289.938 402.485H307.535L307.172 411.094Z" fill="white"/>
<path d="M310.171 337.424H292.895L293.271 328.465H310.544L310.171 337.424Z" fill="white"/>
<path d="M309.639 352.192H292.059L292.432 343.233H310.016L309.639 352.192Z" fill="white"/>
<path d="M308.928 366.963H291.344L291.72 358.004H309.304L308.928 366.963Z" fill="white"/>
<path d="M308.153 395.906H290.727L291.103 386.951H308.527L308.153 395.906Z" fill="white"/>
<path d="M308.333 381.139H291.676L292.049 372.18H308.706L308.333 381.139Z" fill="white"/>
<path d="M222.993 160.117H136.039L136.403 151.511H223.354L222.993 160.117Z" fill="#20C897"/>
<path d="M204.008 293.218H152.504L152.88 284.263H204.385L204.008 293.218Z" fill="#20C897"/>
<path d="M257.865 322.757H195.473L195.849 313.798H258.242L257.865 322.757Z" fill="white"/>
<path d="M197.648 219.372H134.68L135.053 210.413H198.025L197.648 219.372Z" fill="#20C897"/>
<path d="M553.101 190.422H369.055L369.435 181.463H553.478L553.101 190.422Z" fill="#0D4C8F"/>
<path d="M530.288 205.193H435.164L435.537 196.234H530.668L530.288 205.193Z" fill="#0D4C8F"/>
<path d="M507.767 293.811H327.133L327.506 284.852H508.144L507.767 293.811Z" fill="#0D4C8F"/>
<path d="M548.137 308.579H364.094L364.474 299.624H548.514L548.137 308.579Z" fill="#0D4C8F"/>
<path d="M471.662 337.502H362.199L362.576 328.543H472.036L471.662 337.502Z" fill="#20C897"/>
<path d="M551.238 234.732H367.191L367.568 225.776H551.611L551.238 234.732Z" fill="#0D4C8F"/>
<path d="M505.291 352.886H324.656L325.03 343.927H505.664L505.291 352.886Z" fill="#20C897"/>
<path d="M539.736 367.658H361.613L361.987 358.699H540.113L539.736 367.658Z" fill="#20C897"/>
<path d="M545.037 382.425H427.715L428.095 373.47H545.413L545.037 382.425Z" fill="#20C897"/>
<path d="M503.431 397.197H322.793L323.17 388.238H503.804L503.431 397.197Z" fill="#20C897"/>
<path d="M543.793 411.968H359.75L360.13 403.006H544.173L543.793 411.968Z" fill="#20C897"/>
<path d="M317.72 175.654H299.383L299.756 166.699H318.093L317.72 175.654Z" fill="#0D4C8F"/>
<path d="M318.286 162.081H299.949L300.326 153.122H318.663L318.286 162.081Z" fill="#0D4C8F"/>
<path d="M316.958 190.425H298.762L299.135 181.466H317.335L316.958 190.425Z" fill="#0D4C8F"/>
<path d="M315.722 205.197H298.449L298.826 196.241H316.099L315.722 205.197Z" fill="#0D4C8F"/>
<path d="M315.198 219.964H297.617L297.99 211.005H315.575L315.198 219.964Z" fill="#0D4C8F"/>
<path d="M314.479 234.732H296.895L297.271 225.776H314.852L314.479 234.732Z" fill="#0D4C8F"/>
<path d="M313.888 248.911H297.23L297.607 239.952H314.264L313.888 248.911Z" fill="#0D4C8F"/>
<path d="M239.673 175.062H148.02L148.396 166.106H240.049L239.673 175.062Z" fill="#0D4C8F"/>
<path d="M265.016 189.833H158.234L158.611 180.877H265.392L265.016 189.833Z" fill="#0D4C8F"/>
<path d="M280.1 204.601H190.988L191.365 195.642H280.477L280.1 204.601Z" fill="#0D4C8F"/>
<path d="M201.505 278.273H131.074L131.438 269.668H201.866L201.505 278.273Z" fill="#0D4C8F"/>
<path d="M223.831 307.987H174.527L174.904 299.031H224.208L223.831 307.987Z" fill="#0D4C8F"/>
<path d="M277.294 234.143H179.992L180.369 225.184H277.67L277.294 234.143Z" fill="#0D4C8F"/>
<path d="M197.195 248.889H134.223L134.599 239.93H197.571L197.195 248.889Z" fill="#0D4C8F"/>
<path d="M276.845 263.656H179.543L179.92 254.697H277.221L276.845 263.656Z" fill="#0D4C8F"/>
<path d="M206.89 337.352H128.594L128.954 328.747H207.25L206.89 337.352Z" fill="#0D4C8F"/>
<path d="M258.981 352.297H131.125L131.502 343.338H259.358L258.981 352.297Z" fill="#0D4C8F"/>
<path d="M259.936 367.065H186.531L186.908 358.109H260.312L259.936 367.065Z" fill="white"/>
<path d="M231.926 396.607H147.375L147.752 387.645H232.302L231.926 396.607Z" fill="white"/>
<path d="M275.889 380.667H205.484L205.861 371.708H276.266L275.889 380.667Z" fill="white"/>
<path d="M247.828 411.375H181.215L181.588 402.416H248.205L247.828 411.375Z" fill="white"/>
<path d="M92.5448 498.372C64.7181 461.272 85.8583 415.174 134.809 414.578L136.849 411.179C135.49 281.397 269.892 275.464 326.426 318.088L333.22 318.769C378.746 290.232 443.974 335.754 426.311 388.758L430.388 394.191C485.999 387.815 520.08 477.091 456.387 508.238C452.625 510.075 448.447 510.907 444.262 510.933L122.189 513.003C110.551 513.078 99.526 507.682 92.5448 498.372Z" fill="#20C897"/>
<path d="M210.273 311.271C209.893 311.271 209.536 311.038 209.389 310.662C209.206 310.177 209.451 309.627 209.939 309.44C228.584 302.341 256.195 300.763 280.288 305.423C280.802 305.521 281.136 306.015 281.035 306.529C280.94 307.043 280.442 307.377 279.928 307.279C256.522 302.751 228.669 304.335 210.61 311.212C210.499 311.251 210.388 311.271 210.273 311.271Z" fill="#0D4C8F"/>
<path d="M89.4086 464.73C89.3988 464.73 89.3889 464.73 89.3791 464.73C88.8552 464.71 88.4459 464.275 88.4655 463.751C88.8585 451.861 92.6307 442.198 99.6741 435.037C107.274 427.306 118.345 422.925 132.573 422.011C133.071 421.985 133.542 422.371 133.578 422.895C133.611 423.416 133.215 423.864 132.694 423.897C106.187 425.6 91.1506 439.775 90.3549 463.813C90.3385 464.324 89.9194 464.73 89.4086 464.73Z" fill="#0D4C8F"/>
<path d="M161.95 350.267C161.823 350.267 161.692 350.24 161.567 350.185C161.089 349.975 160.873 349.415 161.086 348.937C165.664 338.606 175.962 327.948 189.342 319.699C189.784 319.427 190.366 319.562 190.641 320.01C190.917 320.452 190.776 321.035 190.334 321.31C177.272 329.362 167.242 339.713 162.815 349.703C162.658 350.057 162.314 350.267 161.95 350.267Z" fill="#0D4C8F"/>
<path d="M418.894 352.238C426.356 364.747 422.267 380.932 409.761 388.392C397.256 395.858 381.067 391.768 373.604 379.262C366.142 366.757 370.228 350.568 382.737 343.105C395.242 335.646 411.431 339.733 418.894 352.238ZM373.493 317.62L364.698 322.869L368.175 333.505C366.358 335.083 364.688 336.792 363.191 338.613L352.477 335.446L347.484 344.392L355.814 351.865C355.044 354.114 354.458 356.426 354.069 358.771L343.188 361.394L343.338 371.636L354.272 373.935C354.724 376.25 355.382 378.545 356.23 380.798L348.122 388.506L353.368 397.302L364.003 393.827C365.582 395.641 367.288 397.308 369.112 398.805L365.945 409.522L374.888 414.516L382.36 406.182C384.613 406.955 386.922 407.538 389.273 407.931L391.892 418.809L402.132 418.661L404.434 407.728C406.749 407.276 409.044 406.621 411.297 405.77L419.005 413.877L427.801 408.628L424.323 397.996C426.14 396.418 427.807 394.708 429.3 392.888L440.021 396.054L445.011 387.108L436.681 379.636C437.454 377.386 438.04 375.074 438.426 372.727L449.307 370.11L449.16 359.864L438.223 357.566C437.771 355.247 437.116 352.955 436.268 350.699L444.376 342.994L439.127 334.199L428.495 337.676C426.913 335.856 425.207 334.192 423.383 332.696L426.55 321.982L417.607 316.985L410.135 325.315C407.885 324.542 405.573 323.959 403.225 323.57L400.606 312.692L390.366 312.839L388.061 323.773C385.746 324.225 383.454 324.883 381.201 325.734L373.493 317.62Z" fill="#0D4C8F"/>
<path d="M396.207 340.332C391.773 340.332 387.29 341.488 383.22 343.917C371.183 351.102 367.237 366.737 374.415 378.778C377.899 384.606 383.44 388.735 390.025 390.399C396.606 392.062 403.447 391.06 409.275 387.58C415.11 384.102 419.233 378.555 420.9 371.973C422.563 365.388 421.561 358.551 418.08 352.723C413.326 344.759 404.871 340.332 396.207 340.332ZM396.298 393.074C394.052 393.074 391.793 392.799 389.56 392.233C382.487 390.445 376.53 386.011 372.794 379.747C365.076 366.809 369.32 350.011 382.251 342.29C395.185 334.575 411.99 338.819 419.708 351.753C423.447 358.014 424.521 365.362 422.734 372.438C420.949 379.511 416.512 385.464 410.248 389.204C405.958 391.764 401.164 393.074 396.298 393.074ZM382.362 405.239C382.464 405.239 382.565 405.252 382.667 405.288C384.864 406.041 387.136 406.618 389.425 406.994C389.802 407.056 390.103 407.338 390.192 407.708L392.634 417.849L401.364 417.725L403.509 407.534C403.588 407.158 403.882 406.87 404.252 406.798C406.499 406.359 408.755 405.717 410.965 404.882C411.319 404.748 411.721 404.839 411.987 405.115L419.171 412.679L426.663 408.206L423.424 398.29C423.307 397.93 423.418 397.531 423.703 397.279C425.484 395.736 427.121 394.053 428.572 392.285C428.814 391.99 429.207 391.869 429.571 391.977L439.564 394.931L443.818 387.308L436.051 380.34C435.766 380.088 435.664 379.688 435.786 379.328C436.539 377.134 437.115 374.861 437.495 372.569C437.557 372.193 437.839 371.895 438.206 371.806L448.35 369.364L448.225 360.63L438.029 358.489C437.659 358.41 437.367 358.112 437.295 357.746C436.86 355.499 436.215 353.24 435.38 351.033C435.245 350.679 435.34 350.276 435.615 350.015L443.176 342.83L438.703 335.332L428.788 338.577C428.428 338.691 428.028 338.583 427.78 338.295C426.231 336.517 424.554 334.877 422.786 333.423C422.494 333.184 422.37 332.787 422.478 332.424L425.432 322.433L417.809 318.18L410.841 325.944C410.588 326.229 410.189 326.333 409.832 326.209C407.638 325.456 405.362 324.886 403.07 324.503C402.697 324.441 402.396 324.162 402.304 323.792L399.861 313.645L391.135 313.769L388.99 323.966C388.908 324.339 388.617 324.627 388.24 324.703C385.997 325.138 383.741 325.783 381.53 326.615C381.18 326.749 380.774 326.658 380.512 326.382L373.328 318.818L365.833 323.295L369.074 333.21C369.195 333.57 369.084 333.966 368.799 334.215C367.015 335.764 365.377 337.447 363.927 339.212C363.684 339.507 363.288 339.628 362.928 339.52L352.934 336.566L348.681 344.192L356.448 351.157C356.733 351.413 356.834 351.809 356.71 352.169C355.96 354.363 355.384 356.639 355.004 358.928C354.942 359.301 354.66 359.602 354.293 359.691L344.146 362.133L344.273 370.863L354.467 373.011C354.84 373.087 355.131 373.378 355.2 373.755C355.639 375.998 356.284 378.26 357.116 380.464C357.25 380.818 357.158 381.224 356.883 381.482L349.319 388.67L353.792 396.169L363.711 392.924C364.068 392.806 364.467 392.914 364.719 393.202C366.265 394.983 367.945 396.624 369.713 398.074C370.008 398.317 370.129 398.706 370.024 399.073L367.07 409.064L374.687 413.317L381.658 405.553C381.842 405.347 382.097 405.239 382.362 405.239ZM391.891 419.752C391.455 419.752 391.076 419.454 390.971 419.028L388.495 408.752C386.524 408.396 384.559 407.901 382.65 407.279L375.591 415.148C375.299 415.472 374.814 415.557 374.428 415.337L365.485 410.347C365.099 410.134 364.912 409.676 365.04 409.253L368.03 399.132C366.514 397.848 365.063 396.434 363.707 394.918L353.665 398.202C353.245 398.34 352.784 398.166 352.558 397.786L347.309 388.991C347.083 388.611 347.148 388.123 347.469 387.819L355.125 380.543C354.437 378.627 353.881 376.675 353.471 374.73L343.144 372.559C342.711 372.468 342.4 372.088 342.39 371.646L342.246 361.403C342.237 360.961 342.538 360.575 342.967 360.47L353.245 358.001C353.602 356.023 354.097 354.062 354.722 352.153L346.854 345.096C346.526 344.802 346.441 344.314 346.66 343.927L351.651 334.985C351.867 334.598 352.322 334.412 352.748 334.539L362.866 337.529C364.149 336.013 365.564 334.562 367.083 333.203L363.799 323.16C363.662 322.741 363.835 322.283 364.212 322.057L373.01 316.805C373.39 316.579 373.875 316.647 374.176 316.968L381.455 324.627C383.371 323.936 385.319 323.376 387.264 322.967L389.438 312.639C389.53 312.21 389.907 311.896 390.349 311.89L400.591 311.742C401.03 311.749 401.42 312.037 401.528 312.469L404 322.741C405.978 323.101 407.943 323.599 409.848 324.221L416.905 316.353C417.196 316.022 417.681 315.943 418.071 316.156L427.01 321.153C427.396 321.366 427.583 321.821 427.455 322.244L424.469 332.365C425.988 333.649 427.436 335.066 428.791 336.583L438.834 333.298C439.253 333.161 439.715 333.331 439.941 333.711L445.19 342.509C445.416 342.889 445.35 343.374 445.03 343.678L437.367 350.958C438.061 352.87 438.618 354.821 439.027 356.767L449.355 358.938C449.787 359.026 450.098 359.409 450.105 359.848L450.252 370.094C450.259 370.533 449.958 370.922 449.529 371.024L439.253 373.499C438.896 375.477 438.402 377.438 437.777 379.347L445.645 386.404C445.973 386.699 446.054 387.18 445.838 387.57L440.845 396.512C440.632 396.899 440.173 397.082 439.751 396.961L429.63 393.971C428.346 395.487 426.935 396.938 425.419 398.294L428.696 408.337C428.834 408.759 428.664 409.214 428.284 409.44L419.488 414.689C419.109 414.918 418.627 414.85 418.319 414.529L411.044 406.873C409.128 407.564 407.176 408.121 405.235 408.533L403.06 418.854C402.969 419.287 402.592 419.601 402.147 419.607L391.904 419.752C391.901 419.752 391.894 419.752 391.891 419.752Z" fill="#0D4C8F"/>
<path d="M371.562 454.658C376.605 465.846 371.618 479.007 360.426 484.049C349.233 489.089 336.073 484.102 331.034 472.91C325.994 461.721 330.978 448.557 342.17 443.518C353.362 438.478 366.519 443.462 371.562 454.658ZM336.892 421.287L329.02 424.833L330.906 434.074C329.229 435.22 327.667 436.487 326.24 437.869L317.572 434.185L312.529 441.19L318.784 448.249C317.919 450.06 317.209 451.94 316.655 453.868L307.294 455.011L306.426 463.603L315.359 466.583C315.513 468.564 315.843 470.549 316.338 472.517L308.8 478.188L312.346 486.06L321.587 484.174C322.736 485.85 324.003 487.409 325.382 488.84L321.698 497.508L328.702 502.55L335.762 496.299C337.576 497.161 339.456 497.874 341.381 498.424L342.527 507.79L351.116 508.654L354.099 499.721C356.08 499.567 358.065 499.237 360.033 498.742L365.701 506.277L373.576 502.734L371.69 493.493C373.366 492.347 374.925 491.076 376.356 489.695L385.024 493.382L390.066 486.378L383.812 479.314C384.676 477.504 385.387 475.627 385.94 473.695L395.302 472.556L396.17 463.967L387.237 460.981C387.083 459 386.753 457.018 386.258 455.047L393.793 449.376L390.25 441.504L381.009 443.393C379.863 441.717 378.592 440.155 377.211 438.727L380.898 430.059L373.894 425.013L366.83 431.268C365.02 430.407 363.143 429.693 361.211 429.139L360.069 419.781L351.48 418.913L348.497 427.846C346.515 428 344.531 428.327 342.56 428.825L336.892 421.287Z" fill="white"/>
<path d="M351.289 442.493C348.316 442.493 345.349 443.125 342.556 444.382C337.376 446.717 333.411 450.928 331.4 456.243C329.386 461.557 329.563 467.337 331.894 472.52C336.711 483.218 349.341 488.002 360.035 483.185C370.733 478.365 375.517 465.742 370.701 455.044C368.366 449.864 364.152 445.898 358.837 443.885C356.384 442.955 353.834 442.493 351.289 442.493ZM351.332 486.954C342.487 486.954 334.029 481.869 330.169 473.299C324.923 461.649 330.133 447.902 341.783 442.653C347.422 440.116 353.719 439.923 359.505 442.113C365.294 444.307 369.885 448.626 372.423 454.268C377.669 465.916 372.462 479.665 360.812 484.911C357.737 486.299 354.508 486.954 351.332 486.954ZM343.372 506.922L350.458 507.636L353.202 499.42C353.323 499.06 353.644 498.808 354.027 498.778C355.939 498.628 357.884 498.31 359.803 497.825C360.173 497.731 360.563 497.871 360.792 498.176L366.002 505.105L372.495 502.181L370.763 493.683C370.687 493.313 370.841 492.927 371.156 492.714C372.786 491.594 374.316 490.353 375.697 489.017C375.969 488.752 376.375 488.677 376.722 488.827L384.696 492.216L388.854 486.437L383.101 479.943C382.852 479.659 382.793 479.253 382.957 478.909C383.795 477.154 384.493 475.31 385.03 473.437C385.135 473.074 385.449 472.805 385.825 472.759L394.437 471.708L395.151 464.625L386.935 461.881C386.575 461.76 386.32 461.433 386.29 461.056C386.143 459.141 385.822 457.199 385.341 455.277C385.249 454.91 385.387 454.52 385.688 454.291L392.62 449.075L389.696 442.585L381.199 444.32C380.825 444.392 380.442 444.238 380.226 443.924C379.109 442.29 377.865 440.764 376.529 439.386C376.267 439.11 376.192 438.708 376.339 438.354L379.732 430.387L373.952 426.222L367.459 431.975C367.174 432.231 366.768 432.286 366.424 432.123C364.662 431.284 362.825 430.587 360.949 430.05C360.586 429.945 360.32 429.634 360.275 429.257L359.223 420.642L352.137 419.932L349.393 428.147C349.272 428.508 348.948 428.756 348.571 428.789C346.656 428.94 344.711 429.257 342.792 429.739C342.422 429.831 342.032 429.696 341.806 429.392L336.59 422.46L330.097 425.387L331.832 433.884C331.908 434.258 331.754 434.641 331.439 434.854C329.809 435.97 328.279 437.215 326.898 438.551C326.622 438.812 326.22 438.891 325.869 438.74L317.899 435.348L313.737 441.131L319.491 447.624C319.743 447.906 319.798 448.315 319.635 448.659C318.796 450.417 318.099 452.258 317.565 454.127C317.46 454.494 317.146 454.759 316.77 454.805L308.158 455.86L307.44 462.946L315.659 465.686C316.02 465.807 316.272 466.132 316.305 466.511C316.452 468.424 316.773 470.372 317.254 472.288C317.346 472.658 317.208 473.047 316.904 473.277L309.975 478.493L312.899 484.983L321.396 483.247C321.766 483.172 322.153 483.326 322.369 483.64C323.482 485.274 324.727 486.8 326.063 488.182C326.328 488.454 326.403 488.86 326.252 489.21L322.863 497.184L328.643 501.342L335.136 495.589C335.424 495.337 335.83 495.278 336.174 495.442C337.933 496.283 339.773 496.981 341.643 497.518C342.009 497.622 342.275 497.934 342.32 498.313L343.372 506.922ZM351.116 509.601C351.086 509.601 351.054 509.601 351.021 509.597L342.428 508.73C341.993 508.687 341.639 508.343 341.584 507.901L340.516 499.155C338.954 498.68 337.415 498.097 335.925 497.416L329.33 503.261C329 503.553 328.509 503.579 328.152 503.317L321.144 498.274C320.784 498.015 320.656 497.541 320.827 497.138L324.268 489.04C323.165 487.858 322.123 486.578 321.167 485.228L312.536 486.987C312.103 487.075 311.668 486.853 311.484 486.45L307.938 478.578C307.758 478.172 307.879 477.697 308.23 477.432L315.27 472.137C314.893 470.526 314.628 468.895 314.471 467.284L306.124 464.498C305.705 464.357 305.44 463.944 305.486 463.505L306.353 454.913C306.396 454.478 306.736 454.124 307.179 454.072L315.921 453.004C316.4 451.442 316.986 449.903 317.663 448.413L311.822 441.815C311.527 441.488 311.504 440.997 311.763 440.636L316.806 433.629C317.064 433.272 317.536 433.138 317.942 433.311L326.036 436.756C327.225 435.649 328.502 434.611 329.854 433.652L328.093 425.024C328.004 424.588 328.227 424.153 328.63 423.969L336.502 420.426C336.908 420.243 337.382 420.364 337.644 420.718L342.943 427.758C344.557 427.378 346.184 427.109 347.795 426.956L350.582 418.612C350.723 418.193 351.126 417.928 351.574 417.97L360.163 418.835C360.605 418.881 360.956 419.224 361.008 419.663L362.079 428.409C363.641 428.887 365.18 429.47 366.67 430.148L373.261 424.306C373.592 424.012 374.086 423.989 374.443 424.248L381.447 429.29C381.811 429.549 381.942 430.024 381.765 430.43L378.327 438.524C379.43 439.71 380.468 440.987 381.428 442.339L390.059 440.577C390.492 440.489 390.927 440.712 391.11 441.118L394.657 448.99C394.837 449.392 394.716 449.867 394.362 450.136L387.325 455.431C387.702 457.045 387.967 458.669 388.124 460.28L396.468 463.067C396.887 463.207 397.155 463.62 397.109 464.059L396.245 472.651C396.199 473.09 395.858 473.44 395.416 473.493L386.674 474.56C386.192 476.129 385.609 477.668 384.931 479.154L390.773 485.749C391.065 486.08 391.091 486.568 390.835 486.931L385.789 493.935C385.531 494.292 385.059 494.427 384.65 494.253L376.555 490.812C375.37 491.915 374.093 492.956 372.741 493.916L374.502 502.547C374.591 502.976 374.368 503.415 373.962 503.595L366.09 507.141C365.684 507.322 365.212 507.2 364.947 506.847L359.652 499.81C358.038 500.186 356.411 500.455 354.796 500.609L352.01 508.952C351.882 509.342 351.519 509.601 351.116 509.601Z" fill="#0D4C8F"/>
<path d="M330.141 411.961H292.281V248.888H330.141V411.961Z" fill="#0D4C8F"/>
<path d="M293.229 411.015H329.196V249.831H293.229V411.015ZM330.143 412.908H292.283C291.762 412.908 291.34 412.485 291.34 411.962V248.888C291.34 248.364 291.762 247.942 292.283 247.942H330.143C330.663 247.942 331.086 248.364 331.086 248.888V411.962C331.086 412.485 330.663 412.908 330.143 412.908Z" fill="#0D4C8F"/>
<path d="M548.089 279.236H499.142V411.958H459.828V279.236H411.781V248.885H548.089V279.236Z" fill="#0D4C8F"/>
<path d="M460.771 411.015H498.192V279.24C498.192 278.719 498.615 278.296 499.139 278.296H547.14V249.835H412.721V278.296H459.825C460.346 278.296 460.771 278.719 460.771 279.24V411.015ZM499.139 412.908H459.825C459.301 412.908 458.879 412.485 458.879 411.962V280.186H411.778C411.254 280.186 410.832 279.76 410.832 279.24V248.888C410.832 248.364 411.254 247.942 411.778 247.942H548.086C548.607 247.942 549.029 248.364 549.029 248.888V279.24C549.029 279.76 548.607 280.186 548.086 280.186H500.088V411.962C500.088 412.485 499.663 412.908 499.139 412.908Z" fill="#0D4C8F"/>
<path d="M138.632 551.271C114.525 529.047 127.001 514.715 127.001 514.715C127.001 514.715 137.771 497.272 175.562 520.079C213.356 542.886 249.935 534.405 258.21 530.986C266.481 527.567 295.385 506.077 311.676 504.872C320.736 504.197 331.588 511.012 322.072 529.434C302.393 567.526 248.94 571.871 248.94 571.871C248.94 571.871 223.029 576.741 196.414 572.029C196.414 572.029 162.739 573.492 138.632 551.271Z" fill="#0D4C8F"/>
<path d="M201.192 555.823L209.728 560.597L205.465 569.452L198.398 564.93L201.192 555.823Z" fill="white"/>
<path d="M199.515 564.52L205.075 568.08L208.49 560.987L201.751 557.218L199.515 564.52ZM205.465 570.398C205.284 570.398 205.111 570.349 204.954 570.251L197.891 565.725C197.534 565.496 197.37 565.061 197.494 564.651L200.288 555.545C200.369 555.27 200.572 555.051 200.838 554.946C201.103 554.834 201.404 554.854 201.653 554.995L210.19 559.772C210.625 560.018 210.795 560.555 210.579 561.01L206.319 569.864C206.201 570.107 205.985 570.29 205.723 570.365C205.638 570.388 205.553 570.398 205.465 570.398Z" fill="#0D4C8F"/>
<path d="M206.38 559.471C207.369 558.194 209.298 558.211 210.254 559.511L214.4 565.13L208.8 572.34L201.387 568.931C201.898 565.735 204.491 561.907 206.38 559.471Z" fill="#0D4C8F"/>
<path d="M205.516 565.454L207.778 563.162C208.594 562.34 209.867 562.183 210.86 562.782L212.467 563.758L212.815 563.008C213.188 562.199 214.111 561.796 214.956 562.078C220.12 563.803 237.268 569.714 243.005 573.964C249.79 578.991 244.973 590.176 233.139 589.033C223.761 588.13 210.941 577.671 206.026 573.368C205.06 572.523 205.306 570.965 206.482 570.447L206.491 570.444L205.241 568.64C204.553 567.651 204.668 566.312 205.516 565.454Z" fill="white"/>
<path d="M209.56 563.364C209.154 563.364 208.755 563.521 208.453 563.826L206.191 566.118C205.66 566.652 205.592 567.483 206.017 568.102L207.268 569.903C207.432 570.136 207.481 570.43 207.402 570.702C207.324 570.977 207.124 571.2 206.865 571.311C206.492 571.475 206.407 571.799 206.387 571.933C206.364 572.061 206.351 572.395 206.649 572.657C211.62 577.006 224.158 587.216 233.228 588.093C239.823 588.725 243.523 585.401 244.692 582.359C245.793 579.494 244.931 576.567 242.443 574.72C236.82 570.561 219.754 564.677 214.655 562.978C214.269 562.847 213.847 563.03 213.673 563.407L213.326 564.157C213.215 564.399 213.002 564.585 212.743 564.661C212.488 564.743 212.206 564.707 211.977 564.566L210.369 563.593C210.117 563.436 209.839 563.364 209.56 563.364ZM234.846 590.064C234.266 590.064 233.67 590.035 233.048 589.973C223.431 589.046 210.513 578.551 205.405 574.082C204.707 573.472 204.377 572.559 204.517 571.645C204.599 571.105 204.838 570.617 205.192 570.227L204.465 569.18C203.515 567.817 203.676 565.967 204.845 564.789L207.108 562.496C208.234 561.357 209.979 561.144 211.348 561.972L212.062 562.405C212.694 561.295 214.027 560.771 215.258 561.183C220.422 562.909 237.724 568.872 243.569 573.204C246.723 575.539 247.859 579.399 246.461 583.041C245.167 586.4 241.385 590.064 234.846 590.064Z" fill="#0D4C8F"/>
<path d="M220.235 578.617C220.1 578.617 219.96 578.591 219.829 578.525C219.357 578.303 219.157 577.736 219.38 577.265L223.215 569.206C223.44 568.735 224.004 568.535 224.475 568.758C224.947 568.98 225.146 569.547 224.924 570.018L221.089 578.077C220.929 578.421 220.588 578.617 220.235 578.617Z" fill="#0D4C8F"/>
<path d="M238.002 556.056C237.737 556.056 237.478 555.951 237.291 555.738L236.037 554.317C235.864 554.121 235.782 553.859 235.805 553.6C235.831 553.338 235.962 553.102 236.168 552.942L276.022 522.191C276.438 521.87 277.027 521.949 277.348 522.361C277.666 522.774 277.59 523.37 277.178 523.687L238.123 553.823L238.709 554.487C239.056 554.88 239.017 555.476 238.624 555.823C238.444 555.981 238.224 556.056 238.002 556.056Z" fill="white"/>
<path d="M239.372 557.595L222.023 563.826L224.767 573.263L245.711 567.552L239.372 557.595Z" fill="white"/>
<path d="M223.179 564.415L225.415 572.104L244.224 566.976L238.978 558.744L223.179 564.415ZM224.767 574.209C224.358 574.209 223.978 573.941 223.86 573.525L221.113 564.088C220.972 563.61 221.23 563.105 221.702 562.935L239.05 556.707C239.466 556.556 239.931 556.714 240.17 557.09L246.51 567.045C246.67 567.297 246.703 567.614 246.595 567.893C246.487 568.174 246.251 568.384 245.959 568.466L225.016 574.176C224.934 574.199 224.849 574.209 224.767 574.209Z" fill="#0D4C8F"/>
<path d="M225.516 563.266C224.75 561.842 222.844 561.544 221.685 562.663L216.672 567.526L221.007 575.562L228.879 573.42C228.905 570.178 226.977 565.981 225.516 563.266Z" fill="#0D4C8F"/>
<path d="M225.377 569.308L223.52 566.675C222.852 565.729 221.624 565.365 220.547 565.794L218.798 566.492L218.582 565.693C218.346 564.835 217.502 564.288 216.621 564.425C211.244 565.277 193.355 568.283 186.996 571.531C179.478 575.369 182.389 587.193 194.249 588.018C203.647 588.67 218.012 580.467 223.569 577.032C224.66 576.358 224.676 574.779 223.602 574.075L223.592 574.069L225.121 572.5C225.963 571.636 226.071 570.293 225.377 569.308Z" fill="white"/>
<path d="M216.892 565.352C216.853 565.352 216.81 565.352 216.767 565.362C211.459 566.2 193.656 569.19 187.428 572.369C184.667 573.78 183.335 576.525 183.95 579.534C184.602 582.726 187.706 586.617 194.314 587.075C203.407 587.71 217.452 579.701 223.071 576.227C223.408 576.017 223.451 575.69 223.451 575.555C223.454 575.424 223.421 575.087 223.084 574.868C222.848 574.714 222.688 574.455 222.655 574.177C222.625 573.895 222.717 573.61 222.914 573.407L224.443 571.839C224.967 571.302 225.035 570.467 224.603 569.854L222.747 567.222C222.331 566.629 221.568 566.403 220.897 566.672L219.148 567.369C218.899 567.471 218.617 567.461 218.378 567.34C218.136 567.218 217.956 567.002 217.887 566.74L217.668 565.945C217.57 565.591 217.249 565.352 216.892 565.352ZM195.326 589C194.936 589 194.556 588.987 194.183 588.961C186.518 588.431 182.88 583.755 182.097 579.914C181.318 576.092 183.07 572.471 186.567 570.686C193.044 567.379 211.093 564.343 216.473 563.492C217.756 563.289 218.981 564.026 219.42 565.224L220.196 564.916C221.686 564.32 223.369 564.821 224.292 566.131L226.149 568.764C227.108 570.123 226.958 571.97 225.798 573.162L224.908 574.072C225.196 574.514 225.35 575.035 225.343 575.578C225.33 576.508 224.852 577.35 224.063 577.838C218.513 581.266 204.93 588.997 195.326 589Z" fill="#0D4C8F"/>
<path d="M208.846 579.881C208.436 579.881 208.057 579.612 207.939 579.196L205.486 570.614C205.342 570.113 205.633 569.589 206.134 569.448C206.635 569.304 207.159 569.592 207.303 570.097L209.756 578.679C209.9 579.18 209.609 579.701 209.108 579.848C209.023 579.871 208.934 579.881 208.846 579.881Z" fill="#0D4C8F"/>
<path d="M194.925 586.492C194.751 586.492 194.578 586.446 194.424 586.351C184.597 580.195 188.533 572.153 188.576 572.075C188.811 571.61 189.381 571.423 189.849 571.659C190.311 571.894 190.498 572.461 190.262 572.929C190.128 573.201 187.105 579.537 195.426 584.747C195.868 585.022 196.005 585.605 195.727 586.05C195.547 586.335 195.239 586.492 194.925 586.492Z" fill="#0D4C8F"/>
<path d="M201.732 554.638C201.67 554.638 201.604 554.628 201.542 554.618C201.031 554.517 200.701 554.016 200.802 553.502L201.29 551.105C199.204 549.445 189.97 542.159 175.533 531.54C159.108 519.46 155.532 517.004 155.5 516.978C155.067 516.687 154.956 516.097 155.251 515.665C155.549 515.236 156.138 515.125 156.567 515.419C156.603 515.442 160.202 517.914 176.656 530.014C193.11 542.12 202.829 549.913 202.924 549.991C203.199 550.211 203.33 550.568 203.258 550.918L202.659 553.878C202.567 554.33 202.171 554.638 201.732 554.638Z" fill="white"/>
<path d="M279.948 496.368C278.711 490.824 270.8 470.372 264.833 455.302C260.072 443.278 248.559 434.608 234.859 432.862C224.659 431.566 213.601 431.304 202.968 432.142C185.24 433.537 170.014 444.389 164.149 459.946C158.867 473.957 153.111 491.158 152.983 499.875C152.842 509.155 158.451 518.025 164.572 524.915C172.293 533.605 183.308 539.022 195.204 540.122C212.199 541.697 238.716 543.275 250.763 539.339C269.234 533.304 282.948 509.793 279.948 496.368Z" fill="white"/>
<path d="M215.386 432.604C211.254 432.604 207.118 432.761 203.045 433.082C185.667 434.454 170.748 445.129 165.038 460.28C157.873 479.282 154.032 492.976 153.927 499.888C153.816 507.472 157.634 515.681 165.28 524.286C172.847 532.797 183.506 538.088 195.294 539.179C210.687 540.607 238.327 542.408 250.469 538.442C268.332 532.604 281.921 509.535 279.026 496.574C277.818 491.155 270.162 471.328 263.954 455.653C259.291 443.871 248.095 435.498 234.742 433.802C228.481 433.007 221.939 432.604 215.386 432.604ZM226.978 542.768C216.519 542.768 204.99 541.982 195.117 541.065C182.851 539.929 171.75 534.418 163.865 525.541C155.898 516.572 151.917 507.93 152.038 499.859C152.172 490.857 158.217 473.005 163.266 459.612C169.236 443.776 184.793 432.623 202.897 431.199C213.553 430.361 224.647 430.61 234.978 431.923C249.019 433.711 260.797 442.539 265.712 454.955C271.947 470.696 279.635 490.621 280.873 496.162C283.994 510.134 270.097 534.018 251.055 540.24C245.371 542.093 236.631 542.768 226.978 542.768Z" fill="#0D4C8F"/>
<path d="M270.49 470.637H190.196C186.551 470.637 183.598 473.591 183.598 477.235V530.325C183.598 533.973 186.551 536.923 190.196 536.923H270.49C274.134 536.923 277.088 533.973 277.088 530.325V477.235C277.088 473.591 274.134 470.637 270.49 470.637Z" fill="#0D2234"/>
<path d="M190.197 471.584C187.079 471.584 184.545 474.118 184.545 477.235V530.325C184.545 533.442 187.079 535.977 190.197 535.977H270.491C273.608 535.977 276.146 533.442 276.146 530.325V477.235C276.146 474.118 273.608 471.584 270.491 471.584H190.197ZM270.491 537.869H190.197C186.035 537.869 182.652 534.487 182.652 530.325V477.235C182.652 473.077 186.035 469.691 190.197 469.691H270.491C274.653 469.691 278.035 473.077 278.035 477.235V530.325C278.035 534.487 274.653 537.869 270.491 537.869Z" fill="#0D4C8F"/>
<path d="M275.812 537.244H183.508C181.212 537.244 179.355 539.104 179.355 541.396C179.355 543.691 181.212 545.551 183.508 545.551H275.812C278.108 545.551 279.968 543.691 279.968 541.396C279.968 539.104 278.108 537.244 275.812 537.244Z" fill="#0D2234"/>
<path d="M183.505 538.187C181.736 538.187 180.299 539.628 180.299 541.396C180.299 543.164 181.736 544.601 183.505 544.601H275.809C277.578 544.601 279.018 543.164 279.018 541.396C279.018 539.628 277.578 538.187 275.809 538.187H183.505ZM275.809 546.497H183.505C180.692 546.497 178.406 544.209 178.406 541.396C178.406 538.586 180.692 536.297 183.505 536.297H275.809C278.622 536.297 280.908 538.586 280.908 541.396C280.908 544.209 278.622 546.497 275.809 546.497Z" fill="#0D4C8F"/>
<path d="M233.824 500.946C233.824 503.605 231.673 505.756 229.017 505.756C226.362 505.756 224.207 503.605 224.207 500.946C224.207 498.29 226.362 496.139 229.017 496.139C231.673 496.139 233.824 498.29 233.824 500.946Z" fill="#20C897"/>
<path d="M238.852 407.94C238.914 407.688 234.012 402.465 234.012 402.465L225.073 403.173C219.729 402.934 219.182 413.222 219.182 413.222C219.182 413.222 219.559 414.335 219.748 415.642C218.724 418.985 216.867 423.389 213.249 427.496C209.781 431.435 206.962 432.525 207.171 434.709C207.518 438.331 215.714 440.24 219.451 441.111C223.373 442.025 232.761 443.668 233.701 441.216C233.898 440.702 234.258 438.613 225.23 432.682L226.556 429.915C226.573 429.922 226.589 429.932 226.605 429.942C229.038 431.392 231.786 430.338 232.683 427.653L234.261 422.918L235.456 423.216C236.186 423.396 236.868 422.79 236.766 422.047C236.016 416.441 238.371 409.872 238.852 407.94Z" fill="white"/>
<path d="M220.14 413.11C220.262 413.5 220.53 414.437 220.684 415.507C220.704 415.645 220.691 415.786 220.651 415.92C219.217 420.602 216.964 424.705 213.955 428.124C212.619 429.64 211.378 430.747 210.379 431.634C208.791 433.052 208.031 433.769 208.11 434.621C208.395 437.561 216.876 439.539 219.662 440.187C226.712 441.834 232.42 441.906 232.816 440.878C232.823 440.862 233.078 438.969 224.708 433.471C224.312 433.216 224.171 432.698 224.374 432.273L225.701 429.506C225.815 429.264 226.028 429.083 226.28 429.005C226.532 428.93 226.807 428.962 227.037 429.097C227.04 429.1 227.096 429.133 227.099 429.136C228.003 429.673 228.988 429.797 229.866 429.47C230.756 429.139 231.441 428.386 231.785 427.351L233.363 422.62C233.52 422.148 234.011 421.88 234.489 421.997L235.688 422.299C235.701 422.302 235.747 422.312 235.793 422.272C235.835 422.233 235.832 422.187 235.829 422.171C235.167 417.246 236.808 411.614 237.597 408.909C237.685 408.605 237.764 408.333 237.829 408.104C237.233 407.354 235.393 405.327 233.631 403.447L225.147 404.119C225.108 404.119 225.069 404.119 225.029 404.119C221.087 403.929 220.242 411.86 220.14 413.11ZM229.375 443.462C225.92 443.462 221.64 442.594 219.237 442.034C212.694 440.508 206.591 438.579 206.227 434.801C206.05 432.957 207.34 431.811 209.122 430.223C210.081 429.368 211.276 428.301 212.537 426.873C215.32 423.71 217.423 419.908 218.778 415.57C218.598 414.453 218.29 413.536 218.287 413.53C218.248 413.415 218.231 413.294 218.238 413.173C218.261 412.721 218.89 402.223 224.879 402.223C224.938 402.223 224.993 402.223 225.052 402.226L233.936 401.525C234.221 401.499 234.502 401.61 234.699 401.82C239.951 407.413 239.918 407.577 239.768 408.169C239.693 408.484 239.565 408.913 239.414 409.436C238.661 412.02 237.096 417.393 237.705 421.922C237.793 422.58 237.548 423.238 237.053 423.684C236.556 424.126 235.874 424.296 235.226 424.136L234.882 424.047L233.579 427.95C233.055 429.516 231.942 430.717 230.524 431.245C229.388 431.664 228.163 431.641 226.994 431.182L226.437 432.348C232.685 436.539 235.351 439.552 234.581 441.556C234.034 442.984 231.932 443.462 229.375 443.462Z" fill="#0D4C8F"/>
<path d="M226.227 413.775C226.28 413.507 226.348 413.091 226.378 412.58C226.532 409.947 225.455 408.631 226.129 407.554C226.499 406.964 227.183 406.781 227.573 406.673C229.508 406.156 231.224 407.678 234.898 410.111C239.463 413.137 239.967 413.523 241.041 413.527C243.775 413.53 246.271 411.041 247.318 408.579C247.613 407.888 249.08 404.181 246.781 400.995C245.121 398.696 242.158 397.583 239.214 398.143C239.279 397.331 239.234 396.136 238.487 395.242C236.709 393.123 232.38 394.413 230.861 394.865C229.463 395.284 226.866 396.29 224.295 398.896C223.952 398.461 222.645 396.879 220.625 396.735C217.619 396.519 215.677 399.659 215.497 399.957C213.408 403.454 215.124 407.976 216.423 411.392C217.357 413.847 218.473 415.717 219.279 416.916C220.025 416.814 220.772 416.716 221.522 416.614C221.103 415.937 220.402 414.571 220.448 412.803C220.464 412.227 220.507 409.872 221.745 409.44C222.632 409.132 223.621 409.99 223.762 410.111C225.261 411.418 224.849 413.723 224.809 413.926C225.281 413.874 225.756 413.824 226.227 413.775Z" fill="#0D4C8F"/>
<path d="M220.402 421.395V421.847C220.402 422.855 220.596 424.699 221.273 425.442L226.555 429.915L220.402 421.395Z" fill="white"/>
<path d="M226.556 430.858C226.34 430.858 226.124 430.786 225.944 430.636L220.665 426.163C220.633 426.137 220.606 426.11 220.577 426.081C219.513 424.915 219.457 422.351 219.457 421.847V421.395C219.457 420.871 219.879 420.449 220.403 420.449C220.924 420.449 221.35 420.871 221.35 421.395V421.847C221.35 423.065 221.612 424.349 221.942 424.768L227.168 429.188C227.565 429.526 227.614 430.125 227.277 430.524C227.09 430.747 226.825 430.858 226.556 430.858Z" fill="#0D4C8F"/>
<path d="M406.818 92.57C406.74 92.57 406.661 92.5601 406.583 92.5405C406.075 92.4095 405.771 91.8954 405.895 91.3879L407.093 86.7283C407.221 86.224 407.739 85.9195 408.243 86.0472C408.75 86.1781 409.055 86.6955 408.927 87.1998L407.732 91.8594C407.624 92.2851 407.238 92.57 406.818 92.57Z" fill="white"/>
<path d="M404.032 103.418C403.954 103.418 403.872 103.412 403.797 103.392C403.289 103.261 402.981 102.747 403.112 102.239L404.307 97.5831C404.435 97.0755 404.949 96.771 405.457 96.8987C405.961 97.033 406.272 97.5471 406.144 98.0513L404.946 102.711C404.838 103.137 404.451 103.418 404.032 103.418Z" fill="white"/>
<path d="M402.925 94.8751C402.843 94.8751 402.765 94.862 402.689 94.8456L398.03 93.6504C397.525 93.5194 397.218 93.0053 397.352 92.4978C397.476 91.9935 397.99 91.689 398.501 91.8167L403.157 93.0119C403.665 93.1429 403.966 93.657 403.842 94.1612C403.731 94.5902 403.344 94.8751 402.925 94.8751Z" fill="white"/>
<path d="M413.779 97.6519C413.7 97.6519 413.618 97.6421 413.54 97.6224L408.88 96.4272C408.376 96.2995 408.071 95.7822 408.202 95.2779C408.33 94.7703 408.844 94.4658 409.355 94.5968L414.008 95.7887C414.519 95.923 414.823 96.4338 414.692 96.9413C414.581 97.3703 414.201 97.6519 413.779 97.6519Z" fill="white"/>
<path d="M438.64 97.5473C436.525 98.7523 435.782 101.496 436.974 103.667C437.556 104.722 438.509 105.481 439.649 105.806C440.762 106.113 441.931 105.976 442.94 105.4C445.052 104.191 445.802 101.447 444.606 99.2763C444.024 98.2219 443.074 97.4622 441.931 97.1413C440.818 96.8269 439.649 96.971 438.64 97.5473ZM440.821 107.859C440.258 107.859 439.691 107.783 439.135 107.623C437.501 107.165 436.145 106.084 435.317 104.581C433.627 101.513 434.698 97.6194 437.704 95.9002C439.158 95.0751 440.838 94.8688 442.445 95.3174C444.079 95.7791 445.432 96.8597 446.263 98.3659C447.953 101.431 446.882 105.324 443.876 107.04C442.927 107.584 441.879 107.859 440.821 107.859Z" fill="white"/>
<path d="M341.463 565.352C341.237 565.352 341.011 565.27 340.831 565.11C340.441 564.763 340.409 564.16 340.756 563.774L379.002 521.123C379.356 520.737 379.951 520.701 380.344 521.048C380.731 521.398 380.764 521.998 380.413 522.387L342.167 565.034C341.98 565.244 341.718 565.352 341.463 565.352Z" fill="#0D4C8F"/>
<path d="M427.713 453.168C427.491 453.168 427.265 453.089 427.082 452.929C426.695 452.582 426.662 451.983 427.013 451.593L444.449 432.149C444.8 431.759 445.396 431.726 445.785 432.077C446.175 432.424 446.205 433.023 445.861 433.413L428.418 452.857C428.234 453.063 427.975 453.168 427.713 453.168Z" fill="#0D4C8F"/>
<path d="M280.852 446.042C280.63 446.042 280.404 445.964 280.224 445.803C279.834 445.456 279.805 444.857 280.152 444.467L297.588 425.023C297.936 424.634 298.535 424.598 298.924 424.948C299.314 425.298 299.347 425.898 298.996 426.287L281.56 445.728C281.373 445.938 281.114 446.042 280.852 446.042Z" fill="#0D4C8F"/>
<path d="M390.233 535.698C390.004 535.698 389.781 535.619 389.601 535.459C389.208 535.109 389.179 534.509 389.529 534.123L450.163 466.508C450.51 466.118 451.109 466.085 451.499 466.432C451.889 466.783 451.921 467.379 451.571 467.768L390.937 535.384C390.751 535.593 390.489 535.698 390.233 535.698Z" fill="#0D4C8F"/>
</svg>
